<svg width="320" height="517" viewBox="0 0 320 517" fill="none" xmlns="http://www.w3.org/2000/svg">
<path d="M206.238 72.5554L282.369 16.5073L290.848 94.6829L290.916 95.3061L291.508 95.1016L389.445 61.3003L360.499 136.691L360.218 137.424L361.001 137.369L468.818 129.841L406.052 193.431L405.391 194.101L406.316 194.274L511.008 213.829L421.968 258.052L421.066 258.5L421.968 258.948L511.008 303.171L406.316 322.726L405.391 322.899L406.052 323.569L468.818 387.159L361.001 379.631L360.218 379.576L360.499 380.309L389.445 455.7L291.508 421.898L290.916 421.694L290.848 422.317L282.369 500.493L206.238 444.445L205.805 444.126L205.519 444.581L160.5 516.062L115.481 444.581L115.195 444.126L114.762 444.445L38.6312 500.493L30.1521 422.317L30.0845 421.694L29.4919 421.898L-68.4451 455.7L-39.4994 380.309L-39.2181 379.576L-40.001 379.631L-147.818 387.159L-85.0523 323.569L-84.3911 322.899L-85.3164 322.726L-190.008 303.171L-100.968 258.948L-100.066 258.5L-100.968 258.052L-190.008 213.829L-85.3164 194.274L-84.3911 194.101L-85.0523 193.431L-147.818 129.841L-40.001 137.369L-39.2181 137.424L-39.4994 136.691L-68.4451 61.3003L29.4919 95.1016L30.0845 95.3061L30.1521 94.6829L38.6312 16.5073L114.762 72.5554L115.195 72.8741L115.481 72.4192L160.5 0.93825L205.519 72.4192L205.805 72.8741L206.238 72.5554Z" fill="#6200E2" stroke="black"/>
</svg>
