<svg width="87" height="76" viewBox="0 0 87 76" fill="none" xmlns="http://www.w3.org/2000/svg">
<path d="M52.2582 21.8557L68.2313 14.7295L61.0406 29.0261L60.7338 29.636L61.4027 29.7296L78.9517 32.186L63.6499 39.9946L62.9842 40.3343L63.5283 40.8128L76.0343 51.8114L58.3558 50.2266L57.6819 50.1662L57.8001 50.8248L60.5705 66.2641L47.2162 55.7736L46.7619 55.4167L46.4636 55.9294L38.3025 69.9581L34.516 54.5588L34.3776 53.996L33.8343 54.2384L17.8611 61.3647L25.0519 47.0681L25.3586 46.4582L24.6897 46.3645L7.14075 43.9082L22.4425 36.0996L23.1082 35.7599L22.5642 35.2814L10.0581 24.2828L27.7367 25.8676L28.4105 25.928L28.2923 25.2693L25.522 9.83003L38.8763 20.3206L39.3306 20.6775L39.6288 20.1648L47.7899 6.13606L51.5764 21.5354L51.7148 22.0982L52.2582 21.8557Z" stroke="#6200E2"/>
</svg>
