<svg width="280" height="146" viewBox="0 0 280 146" fill="none" xmlns="http://www.w3.org/2000/svg">
<path d="M144.098 137.237L117.695 112.658L117.473 112.451L117.17 112.618L59.028 144.76L76.928 109.805L77.3825 108.917L76.4776 109.12L5.78129 124.968L59.9957 92.7881L61.3438 91.9879L59.9305 91.8419L3.09373 85.9697L73.668 68.3513L74.5714 68.1258L74.0111 67.4787L51.9456 41.9906L112.579 45.9956L112.895 46.0165L113.082 45.7122L135.303 9.6144L161.706 34.1935L161.928 34.4007L162.231 34.2332L220.373 2.09126L202.473 37.0469L202.019 37.9344L202.924 37.7316L273.62 21.8839L219.406 54.0634L218.058 54.8635L219.471 55.0096L276.308 60.8818L205.733 78.5001L204.83 78.7257L205.39 79.3728L227.456 104.861L166.823 100.856L166.507 100.835L166.319 101.139L144.098 137.237Z" fill="#42FF58" stroke="#42FF58"/>
</svg>
