<svg width="824" height="398" viewBox="0 0 824 398" fill="none" xmlns="http://www.w3.org/2000/svg">
<path d="M615.693 224.875L614.006 225.088L615.541 225.822L765.74 297.591L561.225 270.55L560.23 270.418L560.725 271.292L616.769 370.182L466.816 296.967L466.385 296.757L466.157 297.178L412 396.952L357.843 297.178L357.615 296.757L357.184 296.967L207.231 370.182L263.275 271.292L263.77 270.418L262.775 270.55L58.2603 297.591L208.459 225.822L209.994 225.088L208.307 224.875L3.97996 199L208.307 173.125L209.994 172.912L208.459 172.178L58.2603 100.409L262.775 127.45L263.77 127.582L263.275 126.708L207.231 27.8182L357.184 101.033L357.615 101.243L357.843 100.822L412 1.04812L466.157 100.822L466.385 101.243L466.816 101.033L616.769 27.8182L560.725 126.708L560.23 127.582L561.226 127.45L765.74 100.409L615.541 172.178L614.006 172.912L615.693 173.125L820.02 199L615.693 224.875Z" stroke="#42FF58"/>
</svg>
