<svg width="177" height="366" viewBox="0 0 177 366" fill="none" xmlns="http://www.w3.org/2000/svg">
<path d="M14.9406 149.695L57.9123 135.075L58.2001 134.977L58.196 134.631L57.2079 50.9305L85.4164 91.7817L85.983 92.6022L86.2327 91.7091L110.911 3.46262L114.302 83.2623L114.368 84.8286L115.166 83.6528L155.81 23.7505L133.178 112.921L132.949 113.824L133.784 113.637L175.37 104.322L134.755 169.224L134.588 169.493L134.767 169.802L161.538 215.936L118.566 230.556L118.278 230.654L118.282 231L119.27 314.701L91.062 273.849L90.4954 273.029L90.2456 273.922L65.5678 362.168L62.1767 282.369L62.1101 280.802L61.3124 281.978L20.6685 341.881L43.3006 252.71L43.5296 251.807L42.6944 251.994L1.10875 261.309L41.7229 196.407L41.8909 196.138L41.7115 195.829L14.9406 149.695Z" fill="#42FF58" stroke="#42FF58"/>
</svg>
