<svg width="628" height="369" viewBox="0 0 628 369" fill="none" xmlns="http://www.w3.org/2000/svg">
<path d="M469.214 208.09L467.812 208.305L469.039 209.017L583.346 275.28L427.759 250.323L426.828 250.173L427.227 251.028L469.862 342.294L355.865 274.769L355.382 274.483L355.153 274.995L314 366.977L272.847 274.995L272.618 274.483L272.135 274.769L158.138 342.294L200.773 251.028L201.172 250.173L200.241 250.323L44.6541 275.28L158.961 209.017L160.188 208.305L158.786 208.09L3.29275 184.201L158.786 160.313L160.188 160.097L158.961 159.386L44.6541 93.1224L200.241 118.08L201.172 118.229L200.773 117.374L158.138 26.1079L272.135 93.6334L272.618 93.9191L272.847 93.4074L314 1.42543L355.153 93.4074L355.382 93.9191L355.865 93.6334L469.862 26.1079L427.227 117.374L426.828 118.229L427.759 118.08L583.346 93.1224L469.039 159.386L467.812 160.097L469.214 160.313L624.707 184.201L469.214 208.09Z" stroke="#42FF58"/>
</svg>
