<svg width="280" height="146" viewBox="0 0 280 146" fill="none" xmlns="http://www.w3.org/2000/svg">
<path d="M144.012 136.338L117.61 111.759L117.387 111.551L117.084 111.719L58.9421 143.861L76.8421 108.905L77.2966 108.018L76.3916 108.221L5.69535 124.068L59.9098 91.8887L61.2578 91.0885L59.8446 90.9425L3.00779 85.0703L73.5821 67.4519L74.4854 67.2264L73.9252 66.5793L51.8597 41.0912L112.493 45.0962L112.809 45.117L112.996 44.8128L135.217 8.71498L161.62 33.2941L161.842 33.5013L162.145 33.3338L220.287 1.19185L202.387 36.1475L201.933 37.035L202.838 36.8321L273.534 20.9845L219.32 53.164L217.972 53.9641L219.385 54.1101L276.222 59.9824L205.647 77.6007L204.744 77.8263L205.304 78.4734L227.37 103.961L166.737 99.9565L166.421 99.9356L166.233 100.24L144.012 136.338Z" stroke="black"/>
</svg>
