<svg width="280" height="146" viewBox="0 0 280 146" fill="none" xmlns="http://www.w3.org/2000/svg">
<path d="M144.099 137.237L117.696 112.658L117.474 112.451L117.171 112.618L59.029 144.76L76.929 109.805L77.3835 108.917L76.4786 109.12L5.78227 124.968L59.9967 92.7881L61.3448 91.9879L59.9315 91.8419L3.0947 85.9697L73.669 68.3513L74.5723 68.1258L74.0121 67.4787L51.9466 41.9906L112.58 45.9956L112.896 46.0165L113.083 45.7122L135.304 9.6144L161.707 34.1935L161.929 34.4007L162.232 34.2332L220.374 2.09126L202.474 37.0469L202.02 37.9344L202.925 37.7316L273.621 21.8839L219.407 54.0634L218.059 54.8635L219.472 55.0096L276.309 60.8818L205.734 78.5001L204.831 78.7257L205.391 79.3728L227.457 104.861L166.824 100.856L166.508 100.835L166.32 101.139L144.099 137.237Z" stroke="black"/>
</svg>
