<svg width="831" height="342" viewBox="0 0 831 342" fill="none" xmlns="http://www.w3.org/2000/svg">
<path fill-rule="evenodd" clip-rule="evenodd" d="M46.1028 340.42L95.8724 338.682L95.4181 325.67L45.6484 327.408L46.1028 340.42ZM45.6414 327.208L95.4111 325.47L93.6731 275.7L43.9034 277.438L45.6414 327.208ZM43.7035 277.445L45.4415 327.215L10.4629 328.436L8.72487 278.667L43.7035 277.445ZM43.8964 277.238L93.6661 275.5L91.9281 225.731L42.1584 227.469L43.8964 277.238ZM41.9586 227.476L43.6966 277.245L8.7179 278.467L6.9799 228.697L41.9586 227.476ZM42.1515 227.269L91.9211 225.531L90.1831 175.761L40.4135 177.499L42.1515 227.269ZM40.2136 177.506L41.9516 227.276L6.97292 228.497L5.23493 178.727L40.2136 177.506ZM40.4065 177.299L90.1762 175.561L88.4382 125.791L38.6685 127.529L40.4065 177.299ZM38.4686 127.536L40.2066 177.306L5.22795 178.528L3.48995 128.758L38.4686 127.536ZM38.6615 127.33L88.4312 125.592L86.6932 75.822L36.9235 77.56L38.6615 127.33ZM36.7236 77.5669L38.4616 127.337L3.48297 128.558L1.74498 78.7884L36.7236 77.5669ZM36.9165 77.3601L86.6862 75.6221L84.9482 25.8524L35.1786 27.5904L36.9165 77.3601ZM34.9787 27.5974L36.7167 77.3671L1.738 78.5885L1.06505e-06 28.8189L34.9787 27.5974ZM45.4485 327.415L45.9029 340.427L10.9242 341.648L10.4698 328.636L45.4485 327.415ZM495.629 324.722L445.859 326.46L445.405 313.448L495.174 311.71L495.629 324.722ZM495.167 311.51L445.398 313.248L443.66 263.478L493.429 261.74L495.167 311.51ZM445.198 313.255L443.46 263.485L393.69 265.223L395.428 314.993L445.198 313.255ZM493.422 261.54L443.653 263.278L441.915 213.509L491.684 211.771L493.422 261.54ZM443.453 263.285L441.715 213.516L391.945 215.254L393.683 265.023L443.453 263.285ZM491.677 211.571L441.908 213.309L440.17 163.539L489.939 161.801L491.677 211.571ZM441.708 213.316L439.97 163.546L390.2 165.284L391.938 215.054L441.708 213.316ZM489.932 161.601L440.163 163.339L438.425 113.57L488.194 111.832L489.932 161.601ZM439.963 163.346L438.225 113.577L388.455 115.315L390.193 165.084L439.963 163.346ZM488.187 111.632L438.418 113.37L436.68 63.6002L486.45 61.8622L488.187 111.632ZM438.218 113.377L436.48 63.6071L386.71 65.3451L388.448 115.115L438.218 113.377ZM486.443 61.6623L436.673 63.4003L434.935 13.6306L484.705 11.8926L486.443 61.6623ZM436.473 63.4073L434.735 13.6376L384.965 15.3756L386.703 65.1453L436.473 63.4073ZM445.659 326.467L445.205 313.455L395.435 315.193L395.89 328.205L445.659 326.467ZM245.981 333.44L295.751 331.702L295.296 318.69L245.527 320.428L245.981 333.44ZM245.52 320.228L295.289 318.49L293.551 268.72L243.782 270.458L245.52 320.228ZM243.582 270.465L245.32 320.235L195.55 321.973L193.812 272.203L243.582 270.465ZM243.775 270.258L293.544 268.52L291.806 218.751L242.037 220.489L243.775 270.258ZM241.837 220.496L243.575 270.265L193.805 272.003L192.067 222.234L241.837 220.496ZM242.03 220.289L291.799 218.551L290.061 168.781L240.292 170.519L242.03 220.289ZM240.092 170.526L241.83 220.296L192.06 222.034L190.322 172.264L240.092 170.526ZM240.285 170.319L290.054 168.581L288.316 118.812L238.547 120.55L240.285 170.319ZM238.347 120.557L240.085 170.326L190.315 172.064L188.577 122.295L238.347 120.557ZM238.54 120.35L288.309 118.612L286.571 68.8421L236.802 70.5801L238.54 120.35ZM236.602 70.587L238.34 120.357L188.57 122.095L186.832 72.325L236.602 70.587ZM236.795 70.3802L286.564 68.6422L284.826 18.8725L235.057 20.6105L236.795 70.3802ZM234.857 20.6175L236.595 70.3872L186.825 72.1252L185.087 22.3555L234.857 20.6175ZM245.327 320.435L245.781 333.447L196.011 335.185L195.557 322.173L245.327 320.435ZM695.507 317.742L645.737 319.48L645.283 306.468L695.053 304.73L695.507 317.742ZM695.046 304.53L645.276 306.268L643.538 256.498L693.308 254.76L695.046 304.53ZM645.076 306.275L643.338 256.505L593.568 258.243L595.306 308.013L645.076 306.275ZM693.301 254.561L643.531 256.299L641.793 206.529L691.563 204.791L693.301 254.561ZM643.331 256.306L641.593 206.536L591.823 208.274L593.561 258.044L643.331 256.306ZM691.556 204.591L641.786 206.329L640.048 156.559L689.818 154.821L691.556 204.591ZM641.586 206.336L639.848 156.566L590.078 158.304L591.816 208.074L641.586 206.336ZM689.811 154.621L640.041 156.359L638.303 106.59L688.073 104.852L689.811 154.621ZM639.841 156.366L638.103 106.597L588.333 108.335L590.071 158.104L639.841 156.366ZM688.066 104.652L638.296 106.39L636.558 56.6203L686.328 54.8823L688.066 104.652ZM638.096 106.397L636.358 56.6272L586.588 58.3652L588.326 108.135L638.096 106.397ZM686.321 54.6824L636.551 56.4204L634.813 6.65069L684.583 4.9127L686.321 54.6824ZM636.351 56.4274L634.613 6.65767L584.843 8.39567L586.581 58.1654L636.351 56.4274ZM645.537 319.487L645.083 306.475L595.313 308.213L595.768 321.225L645.537 319.487ZM146.042 336.93L195.812 335.192L195.357 322.18L145.587 323.918L146.042 336.93ZM145.58 323.718L195.35 321.98L193.612 272.21L143.842 273.948L145.58 323.718ZM143.643 273.955L145.381 323.725L95.6109 325.463L93.873 275.693L143.643 273.955ZM143.836 273.748L193.605 272.01L191.867 222.241L142.098 223.979L143.836 273.748ZM141.898 223.986L143.636 273.755L93.866 275.493L92.128 225.724L141.898 223.986ZM142.091 223.779L191.86 222.041L190.122 172.271L140.353 174.009L142.091 223.779ZM140.153 174.016L141.891 223.786L92.121 225.524L90.383 175.754L140.153 174.016ZM140.346 173.809L190.115 172.071L188.377 122.302L138.608 124.04L140.346 173.809ZM138.408 124.047L140.146 173.816L90.376 175.554L88.638 125.785L138.408 124.047ZM138.601 123.84L188.37 122.102L186.632 72.332L136.863 74.07L138.601 123.84ZM136.663 74.077L138.401 123.847L88.6311 125.585L86.8931 75.815L136.663 74.077ZM136.856 73.8701L186.625 72.1321L184.887 22.3625L135.118 24.1005L136.856 73.8701ZM134.918 24.1074L136.656 73.8771L86.8861 75.6151L85.1481 25.8454L134.918 24.1074ZM145.388 323.925L145.842 336.937L96.0723 338.675L95.6179 325.663L145.388 323.925ZM595.568 321.232L545.798 322.97L545.344 309.958L595.113 308.22L595.568 321.232ZM595.106 308.02L545.337 309.758L543.599 259.988L593.368 258.25L595.106 308.02ZM545.137 309.765L543.399 259.995L493.629 261.733L495.367 311.503L545.137 309.765ZM593.362 258.05L543.592 259.788L541.854 210.019L591.624 208.281L593.362 258.05ZM543.392 259.795L541.654 210.026L491.884 211.764L493.622 261.533L543.392 259.795ZM591.617 208.081L541.847 209.819L540.109 160.049L589.879 158.311L591.617 208.081ZM541.647 209.826L539.909 160.056L490.139 161.794L491.877 211.564L541.647 209.826ZM589.872 158.111L540.102 159.849L538.364 110.08L588.134 108.342L589.872 158.111ZM539.902 159.856L538.164 110.087L488.394 111.825L490.132 161.594L539.902 159.856ZM588.127 108.142L538.357 109.88L536.619 60.1102L586.389 58.3722L588.127 108.142ZM538.157 109.887L536.419 60.1172L486.649 61.8552L488.387 111.625L538.157 109.887ZM586.382 58.1723L536.612 59.9103L534.874 10.1406L584.644 8.40265L586.382 58.1723ZM536.412 59.9173L534.674 10.1476L484.904 11.8856L486.642 61.6553L536.412 59.9173ZM545.598 322.977L545.144 309.965L495.374 311.703L495.829 324.715L545.598 322.977ZM345.92 329.95L395.69 328.212L395.235 315.2L345.466 316.938L345.92 329.95ZM345.459 316.738L395.228 315L393.49 265.23L343.721 266.968L345.459 316.738ZM343.521 266.975L345.259 316.745L295.489 318.483L293.751 268.713L343.521 266.975ZM343.714 266.768L393.483 265.03L391.745 215.261L341.976 216.999L343.714 266.768ZM341.776 217.006L343.514 266.775L293.744 268.513L292.006 218.744L341.776 217.006ZM341.969 216.799L391.738 215.061L390 165.291L340.231 167.029L341.969 216.799ZM340.031 167.036L341.769 216.806L291.999 218.544L290.261 168.774L340.031 167.036ZM340.224 166.829L389.993 165.091L388.255 115.322L338.486 117.06L340.224 166.829ZM338.286 117.067L340.024 166.836L290.254 168.574L288.516 118.805L338.286 117.067ZM338.479 116.86L388.248 115.122L386.51 65.3521L336.741 67.0901L338.479 116.86ZM336.541 67.0971L338.279 116.867L288.509 118.605L286.771 68.8351L336.541 67.0971ZM336.734 66.8902L386.503 65.1522L384.765 15.3826L334.996 17.1206L336.734 66.8902ZM334.796 17.1275L336.534 66.8972L286.764 68.6352L285.026 18.8655L334.796 17.1275ZM345.266 316.945L345.72 329.957L295.95 331.695L295.496 318.683L345.266 316.945ZM795.446 314.252L745.676 315.99L745.222 302.978L794.992 301.24L795.446 314.252ZM794.985 301.04L745.215 302.778L743.477 253.008L793.247 251.27L794.985 301.04ZM745.015 302.785L743.277 253.015L693.507 254.753L695.245 304.523L745.015 302.785ZM793.24 251.071L743.47 252.809L741.732 203.039L791.502 201.301L793.24 251.071ZM743.27 252.816L741.532 203.046L691.762 204.784L693.5 254.554L743.27 252.816ZM791.495 201.101L741.725 202.839L739.987 153.069L789.757 151.331L791.495 201.101ZM741.525 202.846L739.787 153.076L690.018 154.814L691.755 204.584L741.525 202.846ZM789.75 151.132L739.98 152.87L738.242 103.1L788.012 101.362L789.75 151.132ZM739.78 152.876L738.042 103.107L688.273 104.845L690.011 154.614L739.78 152.876ZM788.005 101.162L738.235 102.9L736.497 53.1303L786.267 51.3923L788.005 101.162ZM738.035 102.907L736.297 53.1373L686.528 54.8753L688.266 104.645L738.035 102.907ZM786.26 51.1924L736.49 52.9304L734.752 3.16074L784.522 1.42274L786.26 51.1924ZM736.29 52.9374L734.552 3.16772L684.783 4.90572L686.521 54.6754L736.29 52.9374ZM745.476 315.997L745.022 302.985L695.252 304.723L695.707 317.735L745.476 315.997ZM830.425 313.031L795.646 314.245L795.192 301.233L829.97 300.019L830.425 313.031ZM829.963 299.819L795.185 301.033L793.447 251.263L828.225 250.049L829.963 299.819ZM828.218 249.849L793.44 251.064L791.702 201.294L826.48 200.079L828.218 249.849ZM826.473 199.88L791.695 201.094L789.957 151.324L824.735 150.11L826.473 199.88ZM824.728 149.91L789.95 151.125L788.212 101.355L822.99 100.14L824.728 149.91ZM822.983 99.9405L788.205 101.155L786.467 51.3853L821.245 50.1708L822.983 99.9405ZM821.238 49.971L786.46 51.1855L784.722 1.41576L819.5 0.201261L821.238 49.971Z" fill="white"/>
</svg>
