<svg width="832" height="395" viewBox="0 0 832 395" fill="none" xmlns="http://www.w3.org/2000/svg">
<rect x="17" y="384.164" width="807" height="10" transform="rotate(-2 17 384.164)" fill="black"/>
<path fill-rule="evenodd" clip-rule="evenodd" d="M47.5864 382.703L97.356 380.965L97.163 375.438L47.3934 377.176L47.5864 382.703ZM47.3864 376.976L97.156 375.238L95.4181 325.468L45.6484 327.206L47.3864 376.976ZM45.4485 327.213L47.1865 376.983L12.2078 378.204L10.4698 328.435L45.4485 327.213ZM45.6414 327.006L95.4111 325.268L93.6731 275.499L43.9034 277.237L45.6414 327.006ZM43.7035 277.244L45.4415 327.013L10.4629 328.235L8.72487 278.465L43.7035 277.244ZM43.8964 277.037L93.6661 275.299L91.9281 225.529L42.1584 227.267L43.8964 277.037ZM41.9586 227.274L43.6966 277.044L8.7179 278.265L6.9799 228.496L41.9586 227.274ZM42.1515 227.067L91.9211 225.329L90.1831 175.56L40.4135 177.298L42.1515 227.067ZM40.2136 177.305L41.9516 227.074L6.97292 228.296L5.23493 178.526L40.2136 177.305ZM40.4065 177.098L90.1762 175.36L88.4382 125.59L38.6685 127.328L40.4065 177.098ZM38.4686 127.335L40.2066 177.105L5.22795 178.326L3.48995 128.557L38.4686 127.335ZM38.6615 127.128L88.4312 125.39L86.6932 75.6207L36.9235 77.3587L38.6615 127.128ZM36.7236 77.3656L38.4616 127.135L3.48297 128.357L1.74498 78.5871L36.7236 77.3656ZM36.9165 77.1588L86.6862 75.4208L84.9482 25.6511L35.1786 27.3891L36.9165 77.1588ZM34.9787 27.3961L36.7167 77.1658L1.738 78.3872L1.06505e-06 28.6176L34.9787 27.3961ZM47.1935 377.183L47.3865 382.71L12.4078 383.932L12.2148 378.404L47.1935 377.183ZM497.112 367.005L447.343 368.743L447.15 363.216L496.919 361.478L497.112 367.005ZM496.912 361.278L447.143 363.016L445.405 313.247L495.174 311.509L496.912 361.278ZM446.943 363.023L445.205 313.254L395.435 314.992L397.173 364.761L446.943 363.023ZM495.167 311.309L445.398 313.047L443.66 263.277L493.429 261.539L495.167 311.309ZM445.198 313.054L443.46 263.284L393.69 265.022L395.428 314.792L445.198 313.054ZM493.422 261.339L443.653 263.077L441.915 213.307L491.684 211.569L493.422 261.339ZM443.453 263.084L441.715 213.314L391.945 215.052L393.683 264.822L443.453 263.084ZM491.677 211.37L441.908 213.108L440.17 163.338L489.939 161.6L491.677 211.37ZM441.708 213.115L439.97 163.345L390.2 165.083L391.938 214.853L441.708 213.115ZM489.932 161.4L440.163 163.138L438.425 113.368L488.194 111.63L489.932 161.4ZM439.963 163.145L438.225 113.375L388.455 115.113L390.193 164.883L439.963 163.145ZM488.187 111.431L438.418 113.169L436.68 63.3989L486.45 61.6609L488.187 111.431ZM438.218 113.176L436.48 63.4058L386.71 65.1438L388.448 114.914L438.218 113.176ZM486.443 61.461L436.673 63.199L434.935 13.4293L484.705 11.6913L486.443 61.461ZM436.473 63.206L434.735 13.4363L384.965 15.1743L386.703 64.944L436.473 63.206ZM447.143 368.75L446.95 363.223L397.18 364.961L397.373 370.488L447.143 368.75ZM247.465 375.723L297.234 373.985L297.041 368.458L247.272 370.196L247.465 375.723ZM247.265 369.996L297.034 368.258L295.296 318.488L245.527 320.226L247.265 369.996ZM245.327 320.233L247.065 370.003L197.295 371.741L195.557 321.971L245.327 320.233ZM245.52 320.027L295.289 318.289L293.551 268.519L243.782 270.257L245.52 320.027ZM243.582 270.264L245.32 320.034L195.55 321.772L193.812 272.002L243.582 270.264ZM243.775 270.057L293.544 268.319L291.806 218.549L242.037 220.287L243.775 270.057ZM241.837 220.294L243.575 270.064L193.805 271.802L192.067 222.032L241.837 220.294ZM242.03 220.088L291.799 218.35L290.061 168.58L240.292 170.318L242.03 220.088ZM240.092 170.325L241.83 220.094L192.06 221.832L190.322 172.063L240.092 170.325ZM240.285 170.118L290.054 168.38L288.316 118.61L238.547 120.348L240.285 170.118ZM238.347 120.355L240.085 170.125L190.315 171.863L188.577 122.093L238.347 120.355ZM238.54 120.148L288.309 118.41L286.571 68.6408L236.802 70.3788L238.54 120.148ZM236.602 70.3857L238.34 120.155L188.57 121.893L186.832 72.1237L236.602 70.3857ZM236.795 70.1789L286.564 68.4409L284.826 18.6712L235.057 20.4092L236.795 70.1789ZM234.857 20.4162L236.595 70.1859L186.825 71.9239L185.087 22.1542L234.857 20.4162ZM247.072 370.203L247.265 375.73L197.495 377.468L197.302 371.941L247.072 370.203ZM696.991 360.026L647.221 361.764L647.028 356.236L696.798 354.498L696.991 360.026ZM696.791 354.298L647.021 356.036L645.283 306.267L695.053 304.529L696.791 354.298ZM646.821 356.043L645.083 306.274L595.313 308.012L597.051 357.781L646.821 356.043ZM695.046 304.329L645.276 306.067L643.538 256.297L693.308 254.559L695.046 304.329ZM645.076 306.074L643.338 256.304L593.568 258.042L595.306 307.812L645.076 306.074ZM693.301 254.359L643.531 256.097L641.793 206.328L691.563 204.59L693.301 254.359ZM643.331 256.104L641.593 206.335L591.823 208.073L593.561 257.842L643.331 256.104ZM691.556 204.39L641.786 206.128L640.048 156.358L689.818 154.62L691.556 204.39ZM641.586 206.135L639.848 156.365L590.078 158.103L591.816 207.873L641.586 206.135ZM689.811 154.42L640.041 156.158L638.303 106.389L688.073 104.651L689.811 154.42ZM639.841 156.165L638.103 106.395L588.333 108.133L590.071 157.903L639.841 156.165ZM688.066 104.451L638.296 106.189L636.558 56.419L686.328 54.681L688.066 104.451ZM638.096 106.196L636.358 56.4259L586.588 58.1639L588.326 107.934L638.096 106.196ZM686.321 54.4811L636.551 56.2191L634.813 6.4494L684.583 4.7114L686.321 54.4811ZM636.351 56.2261L634.613 6.45638L584.843 8.19438L586.581 57.9641L636.351 56.2261ZM647.021 361.771L646.828 356.243L597.058 357.981L597.251 363.509L647.021 361.771ZM147.525 379.213L197.295 377.475L197.102 371.948L147.332 373.686L147.525 379.213ZM147.325 373.486L197.095 371.748L195.357 321.978L145.587 323.716L147.325 373.486ZM145.388 323.723L147.126 373.493L97.3559 375.231L95.6179 325.461L145.388 323.723ZM145.58 323.517L195.35 321.779L193.612 272.009L143.842 273.747L145.58 323.517ZM143.643 273.754L145.381 323.523L95.6109 325.261L93.873 275.492L143.643 273.754ZM143.836 273.547L193.605 271.809L191.867 222.039L142.098 223.777L143.836 273.547ZM141.898 223.784L143.636 273.554L93.866 275.292L92.128 225.522L141.898 223.784ZM142.091 223.577L191.86 221.839L190.122 172.07L140.353 173.808L142.091 223.577ZM140.153 173.815L141.891 223.584L92.121 225.322L90.383 175.553L140.153 173.815ZM140.346 173.608L190.115 171.87L188.377 122.1L138.608 123.838L140.346 173.608ZM138.408 123.845L140.146 173.615L90.376 175.353L88.638 125.583L138.408 123.845ZM138.601 123.638L188.37 121.9L186.632 72.1307L136.863 73.8687L138.601 123.638ZM136.663 73.8757L138.401 123.645L88.6311 125.383L86.8931 75.6137L136.663 73.8757ZM136.856 73.6688L186.625 71.9308L184.887 22.1612L135.118 23.8992L136.856 73.6688ZM134.918 23.9061L136.656 73.6758L86.8861 75.4138L85.1481 25.6441L134.918 23.9061ZM147.133 373.693L147.326 379.22L97.5559 380.958L97.3629 375.431L147.133 373.693ZM597.051 363.516L547.282 365.254L547.089 359.726L596.858 357.988L597.051 363.516ZM596.851 357.788L547.082 359.526L545.344 309.757L595.113 308.019L596.851 357.788ZM546.882 359.533L545.144 309.764L495.374 311.502L497.112 361.271L546.882 359.533ZM595.106 307.819L545.337 309.557L543.599 259.787L593.368 258.049L595.106 307.819ZM545.137 309.564L543.399 259.794L493.629 261.532L495.367 311.302L545.137 309.564ZM593.362 257.849L543.592 259.587L541.854 209.818L591.624 208.08L593.362 257.849ZM543.392 259.594L541.654 209.825L491.884 211.563L493.622 261.332L543.392 259.594ZM591.617 207.88L541.847 209.618L540.109 159.848L589.879 158.11L591.617 207.88ZM541.647 209.625L539.909 159.855L490.139 161.593L491.877 211.363L541.647 209.625ZM589.872 157.91L540.102 159.648L538.364 109.878L588.134 108.14L589.872 157.91ZM539.902 159.655L538.164 109.885L488.394 111.623L490.132 161.393L539.902 159.655ZM588.127 107.941L538.357 109.679L536.619 59.9089L586.389 58.1709L588.127 107.941ZM538.157 109.686L536.419 59.9159L486.649 61.6539L488.387 111.424L538.157 109.686ZM586.382 57.971L536.612 59.709L534.874 9.93935L584.644 8.20136L586.382 57.971ZM536.412 59.716L534.674 9.94633L484.904 11.6843L486.642 61.454L536.412 59.716ZM547.082 365.26L546.889 359.733L497.119 361.471L497.312 366.998L547.082 365.26ZM347.404 372.233L397.173 370.495L396.98 364.968L347.211 366.706L347.404 372.233ZM347.204 366.506L396.973 364.768L395.235 314.999L345.466 316.737L347.204 366.506ZM345.266 316.743L347.004 366.513L297.234 368.251L295.496 318.481L345.266 316.743ZM345.459 316.537L395.228 314.799L393.49 265.029L343.721 266.767L345.459 316.537ZM343.521 266.774L345.259 316.544L295.489 318.282L293.751 268.512L343.521 266.774ZM343.714 266.567L393.483 264.829L391.745 215.059L341.976 216.797L343.714 266.567ZM341.776 216.804L343.514 266.574L293.744 268.312L292.006 218.542L341.776 216.804ZM341.969 216.598L391.738 214.86L390 165.09L340.231 166.828L341.969 216.598ZM340.031 166.835L341.769 216.605L291.999 218.343L290.261 168.573L340.031 166.835ZM340.224 166.628L389.993 164.89L388.255 115.12L338.486 116.858L340.224 166.628ZM338.286 116.865L340.024 166.635L290.254 168.373L288.516 118.603L338.286 116.865ZM338.479 116.658L388.248 114.92L386.51 65.1508L336.741 66.8888L338.479 116.658ZM336.541 66.8958L338.279 116.665L288.509 118.403L286.771 68.6338L336.541 66.8958ZM336.734 66.6889L386.503 64.9509L384.765 15.1813L334.996 16.9193L336.734 66.6889ZM334.796 16.9262L336.534 66.6959L286.764 68.4339L285.026 18.6642L334.796 16.9262ZM347.011 366.713L347.204 372.24L297.434 373.978L297.241 368.451L347.011 366.713ZM796.93 356.536L747.16 358.274L746.967 352.746L796.737 351.008L796.93 356.536ZM796.73 350.808L746.96 352.546L745.222 302.777L794.992 301.039L796.73 350.808ZM746.76 352.553L745.022 302.784L695.252 304.522L696.99 354.291L746.76 352.553ZM794.985 300.839L745.215 302.577L743.477 252.807L793.247 251.069L794.985 300.839ZM745.015 302.584L743.277 252.814L693.507 254.552L695.245 304.322L745.015 302.584ZM793.24 250.869L743.47 252.607L741.732 202.838L791.502 201.1L793.24 250.869ZM743.27 252.614L741.532 202.845L691.762 204.583L693.5 254.352L743.27 252.614ZM791.495 200.9L741.725 202.638L739.987 152.868L789.757 151.13L791.495 200.9ZM741.525 202.645L739.787 152.875L690.018 154.613L691.755 204.383L741.525 202.645ZM789.75 150.93L739.98 152.668L738.242 102.899L788.012 101.161L789.75 150.93ZM739.78 152.675L738.042 102.906L688.273 104.644L690.011 154.413L739.78 152.675ZM788.005 100.961L738.235 102.699L736.497 52.929L786.267 51.191L788.005 100.961ZM738.035 102.706L736.297 52.936L686.528 54.674L688.266 104.444L738.035 102.706ZM786.26 50.9911L736.49 52.7291L734.752 2.95945L784.522 1.22145L786.26 50.9911ZM736.29 52.7361L734.552 2.96643L684.783 4.70442L686.521 54.4741L736.29 52.7361ZM746.96 358.281L746.767 352.753L696.997 354.491L697.19 360.019L746.96 358.281ZM831.908 355.314L797.129 356.529L796.936 351.001L831.715 349.787L831.908 355.314ZM831.708 349.587L796.929 350.801L795.192 301.032L829.97 299.817L831.708 349.587ZM829.963 299.617L795.185 300.832L793.447 251.062L828.225 249.848L829.963 299.617ZM828.218 249.648L793.44 250.862L791.702 201.093L826.48 199.878L828.218 249.648ZM826.473 199.678L791.695 200.893L789.957 151.123L824.735 149.909L826.473 199.678ZM824.728 149.709L789.95 150.923L788.212 101.154L822.99 99.9391L824.728 149.709ZM822.983 99.7392L788.205 100.954L786.467 51.184L821.245 49.9695L822.983 99.7392ZM821.238 49.7697L786.46 50.9842L784.722 1.21447L819.5 -3.26335e-05L821.238 49.7697Z" fill="white"/>
</svg>
