<svg width="556" height="266" viewBox="0 0 556 266" fill="none" xmlns="http://www.w3.org/2000/svg">
<path d="M285.422 18.6484L324.027 80.2041L442.393 51.425L391.581 106.224L536.388 115.313L415.568 142.423L531.505 185.909L386.825 174.976L429.609 236.248L316.333 191.448L269.621 247.103L231.016 185.547L112.65 214.326L163.462 159.527L18.6551 150.438L139.475 123.328L23.5378 79.8417L168.217 90.7748L125.434 29.5026L238.71 74.3031L285.422 18.6484Z" fill="black"/>
<path d="M189.639 120.458L191.137 120.562C191.405 120.352 191.671 120.084 191.935 119.76C192.211 119.436 192.489 119.004 192.767 118.465C193.046 117.926 193.334 117.247 193.632 116.43C193.93 115.6 194.249 114.574 194.587 113.353L195.66 109.409L203.943 109.982L200.879 121.235L202.813 121.369L201.543 125.966L199.647 125.835L200.412 123.031L191.068 122.385L190.283 125.188L188.388 125.057L189.639 120.458ZM198.832 121.094L201.429 111.636L197.145 111.34L196.555 113.547C196.245 114.719 195.948 115.708 195.664 116.513C195.392 117.32 195.13 117.994 194.876 118.535C194.637 119.064 194.404 119.492 194.178 119.82C193.952 120.147 193.73 120.417 193.513 120.631L193.487 120.724L198.832 121.094ZM211.798 123.819C211.355 123.788 211.009 123.65 210.76 123.404C210.523 123.159 210.418 122.835 210.446 122.43C210.461 122.216 210.493 122.034 210.541 121.885L210.642 121.53L210.566 121.524C210.106 122.305 209.615 122.881 209.094 123.251C208.586 123.622 207.953 123.782 207.195 123.729C206.285 123.666 205.606 123.289 205.159 122.598C204.712 121.907 204.526 121.011 204.602 119.912C204.661 119.053 204.827 118.226 205.097 117.432C205.368 116.638 205.727 115.946 206.174 115.355C206.634 114.764 207.167 114.306 207.774 113.98C208.381 113.641 209.052 113.497 209.785 113.548C210.429 113.592 210.973 113.801 211.417 114.175C211.862 114.536 212.115 115.01 212.176 115.598L212.271 115.605L212.707 113.978L214.678 114.115L212.461 122.208L213.731 122.296L213.295 123.922L211.798 123.819ZM208.07 122.095C208.474 122.123 208.834 122.059 209.15 121.903C209.478 121.748 209.778 121.54 210.05 121.279C210.633 120.736 211.044 120.028 211.282 119.155L211.818 117.193C211.871 116.98 211.873 116.765 211.825 116.545C211.776 116.326 211.676 116.129 211.523 115.953C211.371 115.765 211.165 115.611 210.907 115.492C210.662 115.36 210.376 115.283 210.047 115.261C209.314 115.21 208.711 115.397 208.237 115.821C207.764 116.233 207.409 116.869 207.172 117.728L206.792 119.092C206.756 119.242 206.719 119.411 206.681 119.599C206.655 119.787 206.637 119.958 206.626 120.109C206.588 120.665 206.683 121.129 206.911 121.5C207.153 121.86 207.539 122.058 208.07 122.095ZM224.179 114.772L222.571 120.679C222.521 120.853 222.477 121.028 222.44 121.203C222.415 121.379 222.397 121.537 222.388 121.676C222.357 122.118 222.428 122.466 222.601 122.719C222.774 122.972 223.082 123.114 223.524 123.144C224.156 123.188 224.738 122.949 225.269 122.427C225.582 122.119 225.847 121.775 226.064 121.396C226.294 121.006 226.46 120.618 226.563 120.231L227.989 115.035L229.961 115.172L227.744 123.265L229.014 123.353L228.578 124.979L227.061 124.875C226.619 124.844 226.279 124.706 226.042 124.461C225.819 124.205 225.721 123.874 225.749 123.47C225.76 123.305 225.792 123.117 225.845 122.905L225.899 122.68L225.804 122.674C225.385 123.406 224.922 123.958 224.413 124.33C223.906 124.688 223.299 124.843 222.591 124.794C221.782 124.738 221.186 124.462 220.801 123.965C220.429 123.47 220.272 122.805 220.329 121.971C220.344 121.756 220.372 121.542 220.412 121.329C220.452 121.116 220.506 120.885 220.574 120.636L222.208 114.635L224.179 114.772ZM237.612 115.701L242.218 116.019C243.001 116.073 243.6 116.312 244.015 116.734C244.432 117.144 244.616 117.683 244.57 118.353C244.525 119.01 244.278 119.546 243.831 119.959C243.383 120.372 242.814 120.619 242.122 120.698L242.098 120.772C242.673 120.914 243.087 121.158 243.343 121.506C243.598 121.854 243.709 122.261 243.677 122.729C243.646 123.171 243.535 123.583 243.344 123.963C243.165 124.344 242.92 124.676 242.609 124.96C242.297 125.243 241.927 125.458 241.497 125.606C241.068 125.755 240.601 125.811 240.095 125.776L234.959 125.421L237.612 115.701ZM239.881 124.2C240.335 124.231 240.709 124.155 241.001 123.972C241.293 123.789 241.496 123.518 241.61 123.157C241.644 123.033 241.671 122.908 241.693 122.782C241.728 122.645 241.748 122.538 241.753 122.463C241.775 122.147 241.683 121.905 241.479 121.739C241.288 121.561 241.01 121.459 240.643 121.434L238.065 121.255L237.303 124.021L239.881 124.2ZM240.834 120.056C241.225 120.084 241.573 120.012 241.877 119.843C242.194 119.662 242.405 119.372 242.508 118.972C242.541 118.873 242.567 118.773 242.586 118.673C242.607 118.56 242.62 118.466 242.625 118.39C242.642 118.137 242.554 117.941 242.361 117.8C242.168 117.647 241.902 117.559 241.56 117.536L239.134 117.368L238.445 119.891L240.834 120.056ZM249.234 126.637C248.122 126.56 247.249 126.15 246.615 125.408C245.98 124.666 245.709 123.631 245.801 122.305C245.859 121.458 246.041 120.664 246.346 119.923C246.652 119.183 247.045 118.543 247.527 118.005C248.021 117.468 248.589 117.057 249.231 116.771C249.873 116.485 250.566 116.368 251.312 116.42C252.424 116.497 253.297 116.906 253.931 117.648C254.566 118.391 254.837 119.425 254.745 120.752C254.686 121.611 254.503 122.411 254.198 123.152C253.894 123.88 253.495 124.513 253.001 125.05C252.519 125.588 251.957 126 251.315 126.286C250.673 126.571 249.98 126.688 249.234 126.637ZM249.501 124.979C250.12 125.022 250.673 124.832 251.159 124.408C251.658 123.986 252.027 123.345 252.264 122.485L252.695 120.934C252.727 120.835 252.754 120.722 252.775 120.597C252.797 120.471 252.812 120.339 252.822 120.2C252.864 119.593 252.733 119.102 252.429 118.725C252.138 118.337 251.677 118.121 251.045 118.077C250.426 118.034 249.867 118.224 249.368 118.647C248.881 119.07 248.519 119.712 248.282 120.572L247.851 122.123C247.818 122.235 247.791 122.353 247.769 122.479C247.749 122.592 247.734 122.718 247.724 122.857C247.682 123.463 247.807 123.961 248.097 124.349C248.401 124.725 248.869 124.936 249.501 124.979ZM258.288 117.131L262.894 117.449C263.677 117.504 264.276 117.742 264.692 118.164C265.108 118.574 265.293 119.114 265.246 119.783C265.201 120.44 264.954 120.976 264.507 121.389C264.059 121.802 263.49 122.049 262.799 122.128L262.774 122.202C263.349 122.344 263.764 122.588 264.019 122.936C264.274 123.284 264.386 123.692 264.353 124.159C264.323 124.601 264.212 125.013 264.02 125.393C263.842 125.774 263.596 126.106 263.285 126.39C262.973 126.673 262.603 126.888 262.173 127.037C261.744 127.185 261.277 127.241 260.771 127.206L255.635 126.851L258.288 117.131ZM260.557 125.63C261.012 125.661 261.385 125.585 261.677 125.402C261.969 125.219 262.172 124.948 262.286 124.587C262.32 124.463 262.347 124.338 262.369 124.212C262.404 124.075 262.424 123.968 262.429 123.893C262.451 123.577 262.36 123.336 262.155 123.169C261.964 122.991 261.686 122.889 261.319 122.864L258.742 122.685L257.979 125.451L260.557 125.63ZM261.51 121.486C261.902 121.514 262.249 121.442 262.553 121.273C262.87 121.092 263.081 120.802 263.185 120.402C263.217 120.303 263.243 120.203 263.262 120.103C263.283 119.99 263.296 119.896 263.301 119.82C263.319 119.567 263.231 119.371 263.037 119.231C262.845 119.078 262.578 118.989 262.237 118.966L259.81 118.798L259.122 121.321L261.51 121.486ZM269.891 128.065C268.792 127.989 267.925 127.58 267.291 126.838C266.657 126.083 266.387 125.03 266.481 123.678C266.54 122.818 266.716 122.024 267.008 121.295C267.3 120.554 267.687 119.92 268.167 119.395C268.648 118.869 269.203 118.47 269.831 118.196C270.473 117.91 271.167 117.793 271.912 117.845C272.822 117.908 273.552 118.18 274.103 118.663C274.666 119.146 275.005 119.754 275.12 120.485L273.425 121.035C273.316 120.583 273.132 120.227 272.87 119.968C272.622 119.697 272.233 119.543 271.702 119.506C271.02 119.459 270.449 119.635 269.99 120.035C269.53 120.435 269.197 121.028 268.991 121.813L268.556 123.421C268.471 123.733 268.42 124.009 268.403 124.249C268.361 124.855 268.485 125.359 268.775 125.76C269.065 126.148 269.539 126.365 270.196 126.411C270.676 126.444 271.097 126.333 271.457 126.079C271.83 125.825 272.209 125.401 272.593 124.805L274.059 125.63C273.581 126.486 272.991 127.124 272.289 127.546C271.588 127.954 270.788 128.128 269.891 128.065ZM279.281 128.715C278.005 128.627 277.057 128.199 276.437 127.433C275.83 126.654 275.573 125.602 275.665 124.275C275.721 123.466 275.894 122.704 276.185 121.987C276.489 121.259 276.888 120.627 277.383 120.089C277.877 119.552 278.458 119.142 279.125 118.858C279.793 118.561 280.525 118.44 281.321 118.495C281.713 118.522 282.101 118.6 282.486 118.728C282.883 118.857 283.232 119.04 283.533 119.277C283.834 119.514 284.068 119.809 284.234 120.163C284.412 120.518 284.485 120.936 284.452 121.416C284.379 122.465 283.793 123.231 282.693 123.713C281.606 124.197 279.936 124.386 277.683 124.281C277.628 124.531 277.594 124.738 277.583 124.903C277.541 125.509 277.672 126.007 277.975 126.396C278.291 126.786 278.809 127.006 279.529 127.056C280.072 127.094 280.574 127.008 281.032 126.798C281.491 126.589 281.94 126.245 282.38 125.768L283.559 126.897C282.886 127.625 282.198 128.123 281.494 128.392C280.789 128.661 280.052 128.768 279.281 128.715ZM281.061 120.058C280.378 120.011 279.768 120.204 279.23 120.636C278.706 121.057 278.341 121.654 278.135 122.427L278.006 122.913C278.906 122.937 279.643 122.925 280.218 122.876C280.793 122.827 281.243 122.737 281.57 122.607C281.909 122.478 282.143 122.31 282.271 122.104C282.4 121.897 282.474 121.654 282.493 121.376C282.51 121.136 282.479 120.937 282.401 120.779C282.324 120.609 282.213 120.474 282.067 120.375C281.935 120.265 281.781 120.19 281.606 120.153C281.432 120.103 281.25 120.071 281.061 120.058ZM293.214 129.679C292.683 129.642 292.196 129.519 291.753 129.311C291.323 129.103 290.956 128.818 290.651 128.454C290.36 128.078 290.137 127.631 289.982 127.112C289.84 126.595 289.792 126.007 289.837 125.35C289.894 124.529 290.061 123.766 290.338 123.061C290.629 122.345 290.995 121.729 291.437 121.214C291.88 120.686 292.384 120.283 292.949 120.004C293.527 119.727 294.132 119.61 294.764 119.654C295.383 119.696 295.878 119.889 296.248 120.232C296.63 120.576 296.88 121.006 296.996 121.522L297.091 121.529L297.129 120.979C297.18 120.246 297.158 119.642 297.064 119.165C296.97 118.689 296.794 118.302 296.535 118.005C296.264 117.694 295.95 117.463 295.593 117.311C295.236 117.147 294.843 117.05 294.413 117.02C293.794 116.977 293.285 116.987 292.887 117.048L293.373 115.253C293.72 115.201 294.158 115.193 294.689 115.23C295.485 115.285 296.147 115.439 296.676 115.691C297.218 115.932 297.678 116.262 298.055 116.682C298.478 117.168 298.779 117.779 298.957 118.515C299.134 119.251 299.181 120.226 299.097 121.439C299.012 122.665 298.826 123.795 298.539 124.828C298.252 125.862 297.86 126.75 297.364 127.49C296.869 128.23 296.271 128.798 295.571 129.194C294.884 129.578 294.098 129.74 293.214 129.679ZM293.462 128.02C294.119 128.065 294.678 127.869 295.14 127.431C295.615 126.994 295.996 126.252 296.285 125.206L296.513 124.384C296.578 124.172 296.629 123.985 296.666 123.823C296.702 123.66 296.726 123.51 296.735 123.371C296.775 122.802 296.648 122.336 296.356 121.973C296.077 121.598 295.634 121.39 295.028 121.348C294.434 121.307 293.881 121.497 293.369 121.919C292.871 122.329 292.503 122.97 292.265 123.842L291.888 125.168C291.854 125.28 291.827 125.399 291.806 125.525C291.785 125.637 291.77 125.763 291.761 125.902C291.719 126.509 291.843 127.006 292.134 127.395C292.425 127.77 292.868 127.979 293.462 128.02ZM307.989 120.568L310.093 120.714L302.87 132.08C302.67 132.396 302.474 132.662 302.281 132.877C302.101 133.093 301.899 133.269 301.673 133.406C301.461 133.544 301.22 133.635 300.95 133.68C300.679 133.737 300.373 133.754 300.032 133.731L298.535 133.627L298.97 132.019L300.77 132.144L301.82 130.464L301.033 120.087L302.966 120.221L303.251 124.64L303.361 128.285L303.456 128.292L305.431 124.791L307.989 120.568ZM311.801 120.832L314.076 120.989L315.489 125.887L315.527 125.889L319.554 121.368L321.885 121.53L319.232 131.25L317.337 131.119L319.324 123.866L319.229 123.86L318.254 125.011L314.703 128.994L313.477 124.7L313.126 123.438L313.031 123.431L311.044 130.683L309.148 130.552L311.801 120.832ZM329.931 131.99C329.489 131.959 329.143 131.821 328.894 131.575C328.657 131.33 328.552 131.005 328.58 130.601C328.595 130.386 328.626 130.204 328.675 130.055L328.776 129.7L328.7 129.695C328.239 130.476 327.749 131.051 327.228 131.422C326.72 131.793 326.087 131.952 325.329 131.9C324.419 131.837 323.74 131.46 323.293 130.769C322.845 130.077 322.66 129.182 322.736 128.083C322.795 127.224 322.96 126.397 323.231 125.603C323.502 124.809 323.861 124.117 324.308 123.525C324.768 122.935 325.301 122.477 325.908 122.151C326.515 121.812 327.185 121.668 327.918 121.718C328.563 121.763 329.107 121.972 329.551 122.345C329.996 122.706 330.249 123.181 330.31 123.769L330.404 123.776L330.841 122.149L332.812 122.285L330.595 130.379L331.865 130.466L331.429 132.093L329.931 131.99ZM326.204 130.265C326.608 130.293 326.968 130.229 327.283 130.073C327.611 129.918 327.912 129.71 328.183 129.45C328.767 128.906 329.178 128.198 329.416 127.326L329.952 125.363C330.004 125.151 330.007 124.935 329.958 124.716C329.91 124.497 329.809 124.3 329.656 124.124C329.504 123.936 329.299 123.782 329.041 123.662C328.796 123.531 328.509 123.454 328.181 123.431C327.448 123.381 326.845 123.568 326.371 123.992C325.898 124.404 325.543 125.039 325.306 125.899L324.926 127.263C324.89 127.413 324.853 127.582 324.814 127.769C324.789 127.958 324.771 128.128 324.76 128.28C324.722 128.836 324.816 129.3 325.045 129.671C325.287 130.03 325.673 130.229 326.204 130.265ZM337.496 132.741C336.22 132.653 335.272 132.226 334.652 131.459C334.046 130.681 333.788 129.628 333.88 128.301C333.936 127.493 334.109 126.73 334.4 126.014C334.705 125.286 335.104 124.653 335.598 124.116C336.092 123.579 336.673 123.168 337.34 122.884C338.008 122.588 338.74 122.467 339.536 122.522C339.928 122.549 340.316 122.627 340.701 122.755C341.098 122.884 341.448 123.067 341.749 123.303C342.05 123.54 342.283 123.835 342.449 124.19C342.628 124.545 342.701 124.963 342.667 125.443C342.595 126.492 342.009 127.257 340.909 127.74C339.821 128.223 338.151 128.413 335.899 128.308C335.843 128.558 335.81 128.765 335.798 128.929C335.756 129.536 335.887 130.034 336.19 130.423C336.506 130.813 337.024 131.033 337.744 131.083C338.288 131.12 338.789 131.034 339.248 130.825C339.707 130.615 340.156 130.272 340.595 129.794L341.774 130.923C341.102 131.651 340.413 132.15 339.709 132.418C339.005 132.687 338.267 132.795 337.496 132.741ZM339.276 124.085C338.594 124.037 337.983 124.23 337.446 124.663C336.921 125.083 336.556 125.68 336.351 126.453L336.222 126.94C337.121 126.964 337.859 126.951 338.434 126.902C339.008 126.853 339.459 126.764 339.785 126.634C340.124 126.505 340.358 126.337 340.487 126.13C340.615 125.923 340.689 125.681 340.708 125.403C340.725 125.162 340.694 124.964 340.616 124.806C340.539 124.635 340.428 124.501 340.282 124.402C340.15 124.291 339.997 124.217 339.822 124.179C339.647 124.129 339.465 124.098 339.276 124.085ZM347.005 124.924L343.991 124.715L344.446 123.09L352.445 123.643L351.99 125.269L348.976 125.06L346.759 133.154L344.788 133.017L347.005 124.924ZM355.766 134.005C354.49 133.917 353.542 133.489 352.922 132.723C352.316 131.944 352.058 130.892 352.15 129.565C352.206 128.756 352.379 127.994 352.67 127.277C352.974 126.549 353.374 125.917 353.868 125.379C354.362 124.842 354.943 124.432 355.61 124.148C356.278 123.851 357.01 123.73 357.806 123.785C358.198 123.813 358.586 123.89 358.971 124.018C359.368 124.147 359.718 124.33 360.019 124.567C360.32 124.804 360.553 125.099 360.719 125.453C360.898 125.809 360.97 126.226 360.937 126.706C360.865 127.755 360.278 128.521 359.178 129.004C358.091 129.487 356.421 129.676 354.168 129.571C354.113 129.821 354.08 130.029 354.068 130.193C354.026 130.799 354.157 131.297 354.46 131.686C354.776 132.076 355.294 132.296 356.014 132.346C356.558 132.384 357.059 132.298 357.518 132.088C357.977 131.879 358.426 131.535 358.865 131.058L360.044 132.187C359.371 132.915 358.683 133.413 357.979 133.682C357.275 133.951 356.537 134.058 355.766 134.005ZM357.546 125.348C356.863 125.301 356.253 125.494 355.716 125.926C355.191 126.347 354.826 126.944 354.62 127.717L354.491 128.203C355.391 128.227 356.129 128.215 356.703 128.166C357.278 128.117 357.729 128.027 358.055 127.897C358.394 127.769 358.628 127.601 358.757 127.394C358.885 127.187 358.959 126.944 358.978 126.666C358.995 126.426 358.964 126.227 358.886 126.069C358.809 125.899 358.698 125.764 358.552 125.665C358.42 125.555 358.267 125.481 358.092 125.443C357.917 125.393 357.735 125.361 357.546 125.348ZM197.382 146.105C196.27 146.028 195.397 145.619 194.762 144.877C194.128 144.134 193.857 143.1 193.949 141.773C194.007 140.926 194.189 140.133 194.494 139.392C194.799 138.651 195.193 138.012 195.674 137.474C196.169 136.937 196.737 136.525 197.379 136.24C198.021 135.954 198.714 135.837 199.46 135.888C200.572 135.965 201.445 136.375 202.079 137.117C202.714 137.859 202.985 138.894 202.893 140.221C202.834 141.08 202.651 141.88 202.346 142.621C202.042 143.349 201.643 143.981 201.148 144.518C200.667 145.056 200.105 145.468 199.463 145.754C198.821 146.04 198.127 146.157 197.382 146.105ZM197.649 144.448C198.268 144.491 198.821 144.3 199.307 143.877C199.806 143.454 200.174 142.813 200.412 141.953L200.843 140.403C200.875 140.303 200.902 140.191 200.923 140.065C200.944 139.94 200.96 139.808 200.97 139.669C201.012 139.062 200.88 138.57 200.576 138.194C200.286 137.806 199.825 137.59 199.193 137.546C198.574 137.503 198.014 137.693 197.515 138.115C197.029 138.539 196.667 139.181 196.43 140.04L195.999 141.591C195.966 141.703 195.939 141.822 195.917 141.947C195.897 142.06 195.882 142.186 195.872 142.325C195.83 142.932 195.954 143.429 196.245 143.817C196.549 144.194 197.017 144.404 197.649 144.448ZM207.432 138.325L204.418 138.117L204.873 136.491L212.872 137.045L212.417 138.67L209.403 138.462L207.186 146.555L205.215 146.419L207.432 138.325ZM219.189 137.481L221.161 137.618L220.089 141.543L223.975 141.812L225.046 137.887L227.018 138.023L224.365 147.743L222.393 147.607L223.52 143.437L219.634 143.169L218.508 147.338L216.536 147.202L219.189 137.481ZM231.857 138.358L230.248 144.265C230.198 144.439 230.155 144.614 230.117 144.789C230.092 144.965 230.075 145.122 230.065 145.261C230.035 145.704 230.106 146.051 230.279 146.305C230.452 146.558 230.759 146.7 231.202 146.73C231.833 146.774 232.415 146.535 232.946 146.013C233.26 145.705 233.525 145.361 233.741 144.982C233.971 144.592 234.138 144.204 234.241 143.817L235.667 138.621L237.638 138.758L235.421 146.851L236.691 146.939L236.255 148.565L234.739 148.461C234.296 148.43 233.957 148.292 233.72 148.047C233.496 147.791 233.399 147.46 233.426 147.056C233.438 146.891 233.47 146.703 233.523 146.491L233.576 146.266L233.482 146.26C233.063 146.992 232.599 147.544 232.091 147.916C231.584 148.274 230.976 148.429 230.269 148.38C229.46 148.324 228.863 148.048 228.478 147.551C228.106 147.056 227.949 146.391 228.007 145.557C228.022 145.342 228.049 145.128 228.089 144.915C228.13 144.702 228.184 144.471 228.252 144.222L229.886 138.221L231.857 138.358ZM236.924 148.612L241.676 143.798L239.729 138.902L241.852 139.049L243.122 142.717L243.217 142.724L246.344 139.36L248.543 139.512L243.914 144.201L245.985 149.238L243.843 149.09L242.467 145.3L242.372 145.294L239.123 148.764L236.924 148.612ZM256.171 150.171C255.059 150.095 254.186 149.685 253.552 148.943C252.917 148.201 252.646 147.166 252.738 145.839C252.796 144.993 252.978 144.199 253.283 143.458C253.589 142.718 253.982 142.078 254.464 141.54C254.958 141.003 255.526 140.591 256.168 140.306C256.81 140.02 257.503 139.903 258.249 139.955C259.361 140.031 260.234 140.441 260.868 141.183C261.503 141.925 261.774 142.96 261.682 144.287C261.623 145.146 261.441 145.946 261.135 146.687C260.831 147.415 260.432 148.047 259.938 148.585C259.456 149.123 258.894 149.535 258.252 149.82C257.61 150.106 256.917 150.223 256.171 150.171ZM256.438 148.514C257.057 148.557 257.61 148.366 258.096 147.943C258.595 147.52 258.964 146.879 259.201 146.02L259.632 144.469C259.664 144.369 259.691 144.257 259.712 144.131C259.734 144.006 259.749 143.874 259.759 143.735C259.801 143.128 259.67 142.637 259.366 142.26C259.075 141.872 258.614 141.656 257.982 141.612C257.363 141.569 256.804 141.759 256.305 142.182C255.818 142.605 255.457 143.247 255.219 144.106L254.788 145.657C254.755 145.769 254.728 145.888 254.707 146.014C254.686 146.126 254.671 146.252 254.661 146.391C254.619 146.998 254.744 147.495 255.034 147.884C255.338 148.26 255.806 148.47 256.438 148.514ZM266.221 142.391L263.207 142.183L263.662 140.557L271.661 141.111L271.206 142.736L268.192 142.528L265.975 150.621L264.004 150.485L266.221 142.391ZM273.499 141.238L275.47 141.374L274.398 145.319L275.99 145.429L278.531 142.557C278.834 142.21 279.123 141.976 279.398 141.855C279.686 141.736 280.051 141.691 280.493 141.722L281.498 141.791L281.043 143.417L280.038 143.347L278.076 145.554C277.856 145.793 277.654 145.963 277.469 146.064C277.298 146.154 277.091 146.21 276.848 146.231L276.823 146.324C277.033 146.402 277.203 146.516 277.333 146.664C277.475 146.814 277.598 147.057 277.701 147.394L278.485 149.829L279.49 149.899L279.053 151.526L278.162 151.464C277.708 151.433 277.349 151.293 277.087 151.047C276.838 150.788 276.635 150.412 276.479 149.919L275.556 147.018L273.964 146.907L272.817 151.094L270.846 150.958L273.499 141.238ZM288.63 152.188C288.188 152.157 287.842 152.019 287.592 151.773C287.355 151.528 287.251 151.204 287.279 150.799C287.294 150.585 287.325 150.403 287.374 150.254L287.474 149.899L287.399 149.894C286.938 150.674 286.448 151.25 285.927 151.62C285.419 151.991 284.786 152.151 284.027 152.098C283.118 152.035 282.439 151.658 281.992 150.967C281.544 150.276 281.359 149.381 281.435 148.281C281.494 147.422 281.659 146.595 281.93 145.801C282.201 145.008 282.56 144.315 283.007 143.724C283.467 143.133 284 142.675 284.607 142.349C285.214 142.01 285.884 141.866 286.617 141.917C287.262 141.961 287.806 142.17 288.25 142.544C288.695 142.905 288.947 143.379 289.008 143.967L289.103 143.974L289.539 142.347L291.511 142.484L289.294 150.577L290.564 150.665L290.128 152.292L288.63 152.188ZM284.902 150.464C285.307 150.492 285.667 150.428 285.982 150.272C286.31 150.117 286.61 149.909 286.882 149.648C287.466 149.105 287.877 148.397 288.115 147.524L288.65 145.562C288.703 145.349 288.705 145.134 288.657 144.914C288.609 144.695 288.508 144.498 288.355 144.322C288.203 144.134 287.998 143.98 287.74 143.861C287.495 143.729 287.208 143.653 286.88 143.63C286.147 143.579 285.543 143.766 285.07 144.19C284.597 144.602 284.242 145.238 284.004 146.097L283.624 147.461C283.589 147.611 283.552 147.78 283.513 147.968C283.487 148.157 283.469 148.327 283.459 148.478C283.42 149.034 283.515 149.498 283.744 149.869C283.985 150.229 284.372 150.427 284.902 150.464ZM295.134 152.866C294.211 152.803 293.457 152.598 292.872 152.253C292.3 151.896 291.857 151.414 291.543 150.809L292.947 149.782C293.171 150.217 293.472 150.555 293.848 150.797C294.225 151.039 294.698 151.179 295.267 151.219C295.962 151.267 296.507 151.184 296.903 150.97C297.311 150.757 297.567 150.451 297.671 150.052C297.703 149.952 297.73 149.846 297.75 149.733C297.771 149.621 297.783 149.526 297.789 149.45C297.809 149.16 297.705 148.918 297.477 148.724C297.262 148.532 296.895 148.417 296.377 148.381L294.52 148.253L294.926 146.777L296.765 146.904C297.182 146.933 297.561 146.864 297.903 146.697C298.257 146.531 298.479 146.267 298.567 145.905C298.619 145.705 298.649 145.542 298.658 145.416C298.679 145.112 298.557 144.863 298.291 144.667C298.026 144.458 297.628 144.335 297.098 144.298C296.529 144.259 296.03 144.32 295.599 144.48C295.169 144.641 294.744 144.916 294.323 145.306L293.266 144.072C293.797 143.55 294.389 143.171 295.04 142.937C295.704 142.691 296.479 142.599 297.363 142.66C298.513 142.739 299.35 143.032 299.874 143.538C300.411 144.032 300.655 144.633 300.606 145.341C300.56 146.011 300.313 146.546 299.866 146.947C299.432 147.348 298.851 147.581 298.123 147.645L298.099 147.72C298.65 147.834 299.066 148.06 299.347 148.396C299.629 148.733 299.751 149.167 299.714 149.698C299.678 150.216 299.538 150.682 299.294 151.097C299.05 151.499 298.722 151.838 298.309 152.115C297.896 152.391 297.419 152.599 296.876 152.739C296.334 152.867 295.753 152.909 295.134 152.866ZM309.01 153.598C308.568 153.567 308.222 153.429 307.972 153.183C307.735 152.938 307.631 152.613 307.659 152.209C307.674 151.994 307.705 151.812 307.754 151.663L307.854 151.308L307.779 151.303C307.318 152.084 306.828 152.659 306.307 153.03C305.799 153.401 305.166 153.56 304.407 153.508C303.498 153.445 302.819 153.068 302.372 152.377C301.924 151.685 301.739 150.79 301.815 149.691C301.874 148.831 302.039 148.005 302.31 147.211C302.581 146.417 302.94 145.725 303.387 145.133C303.847 144.543 304.38 144.085 304.987 143.758C305.594 143.42 306.264 143.275 306.997 143.326C307.642 143.371 308.186 143.58 308.63 143.953C309.075 144.314 309.327 144.789 309.388 145.377L309.483 145.384L309.919 143.757L311.891 143.893L309.674 151.987L310.944 152.074L310.508 153.701L309.01 153.598ZM305.282 151.873C305.687 151.901 306.047 151.837 306.362 151.681C306.69 151.526 306.99 151.318 307.262 151.058C307.846 150.514 308.257 149.806 308.495 148.934L309.03 146.971C309.083 146.759 309.085 146.543 309.037 146.324C308.989 146.105 308.888 145.907 308.735 145.732C308.583 145.544 308.378 145.39 308.12 145.27C307.875 145.139 307.588 145.062 307.26 145.039C306.527 144.989 305.923 145.175 305.45 145.6C304.977 146.012 304.622 146.647 304.384 147.507L304.004 148.871C303.969 149.021 303.932 149.19 303.893 149.377C303.867 149.566 303.849 149.736 303.839 149.888C303.8 150.444 303.895 150.908 304.124 151.279C304.365 151.638 304.752 151.837 305.282 151.873ZM316.347 145.858L313.333 145.65L313.789 144.024L321.787 144.578L321.332 146.203L318.318 145.995L316.102 154.088L314.13 153.952L316.347 145.858ZM323.625 144.705L325.597 144.841L324.705 148.093L327.093 148.259C328.016 148.322 328.688 148.604 329.111 149.103C329.534 149.589 329.718 150.243 329.661 151.064C329.618 151.684 329.478 152.233 329.242 152.711C329.019 153.179 328.719 153.57 328.342 153.887C327.965 154.204 327.53 154.434 327.037 154.578C326.557 154.722 326.046 154.776 325.502 154.738L320.972 154.425L323.625 144.705ZM325.479 153.156C325.997 153.192 326.435 153.089 326.795 152.847C327.155 152.605 327.408 152.242 327.556 151.757C327.624 151.508 327.667 151.25 327.686 150.985C327.709 150.644 327.621 150.365 327.42 150.148C327.219 149.931 326.878 149.805 326.398 149.772L324.275 149.625L323.356 153.009L325.479 153.156ZM334.822 155.611C333.722 155.535 332.855 155.126 332.221 154.384C331.588 153.629 331.318 152.576 331.411 151.224C331.471 150.364 331.646 149.57 331.938 148.841C332.23 148.1 332.617 147.466 333.098 146.941C333.579 146.415 334.133 146.016 334.761 145.742C335.403 145.456 336.097 145.339 336.843 145.39C337.753 145.453 338.483 145.726 339.033 146.209C339.597 146.692 339.936 147.299 340.05 148.031L338.355 148.58C338.247 148.129 338.062 147.773 337.8 147.514C337.553 147.243 337.163 147.089 336.633 147.052C335.95 147.005 335.379 147.181 334.92 147.581C334.461 147.981 334.128 148.574 333.921 149.359L333.486 150.967C333.401 151.279 333.35 151.554 333.333 151.795C333.291 152.401 333.415 152.905 333.705 153.306C333.996 153.694 334.469 153.911 335.127 153.956C335.607 153.99 336.027 153.879 336.387 153.625C336.76 153.371 337.139 152.947 337.523 152.351L338.99 153.176C338.511 154.032 337.921 154.67 337.219 155.092C336.518 155.5 335.719 155.673 334.822 155.611ZM340.089 154.09L341.132 154.162L342.198 152.789C342.56 152.331 342.989 152.101 343.484 152.097L343.51 152.003C342.86 151.857 342.359 151.568 342.008 151.138C341.669 150.708 341.524 150.152 341.571 149.469C341.603 149.002 341.723 148.559 341.929 148.142C342.149 147.725 342.433 147.371 342.784 147.077C343.134 146.784 343.55 146.559 344.03 146.402C344.524 146.245 345.067 146.188 345.661 146.229L350.191 146.542L347.538 156.262L345.567 156.126L346.559 152.519L344.797 152.397L343.019 154.693C342.684 155.127 342.346 155.427 342.004 155.594C341.663 155.761 341.271 155.829 340.828 155.798L339.653 155.717L340.089 154.09ZM345.685 147.811C345.116 147.772 344.659 147.874 344.312 148.116C343.978 148.347 343.754 148.655 343.638 149.041C343.588 149.215 343.557 149.391 343.545 149.568C343.491 150.351 343.925 150.775 344.847 150.839L346.97 150.986L347.789 147.957L345.685 147.811ZM353.342 152.493L354.177 149.503C355.205 149.511 356.036 149.334 356.671 148.971C357.318 148.61 357.733 148.118 357.915 147.495C357.947 147.409 357.974 147.296 357.996 147.158C358.018 147.02 358.033 146.9 358.04 146.799C358.074 146.307 357.942 145.917 357.644 145.629C357.36 145.33 356.953 145.163 356.422 145.126C355.778 145.081 355.247 145.235 354.829 145.587C354.412 145.926 354.062 146.391 353.78 146.981L352.181 146.147C352.636 145.251 353.231 144.55 353.964 144.042C354.711 143.522 355.647 143.301 356.772 143.379C357.884 143.456 358.743 143.794 359.349 144.395C359.955 144.996 360.224 145.776 360.158 146.736C360.122 147.255 359.986 147.753 359.75 148.232C359.527 148.699 359.219 149.116 358.825 149.482C358.444 149.849 357.992 150.154 357.467 150.397C356.942 150.641 356.373 150.798 355.758 150.87L355.275 152.627L353.342 152.493ZM353.266 156.887C352.862 156.859 352.571 156.75 352.394 156.56C352.216 156.37 352.137 156.142 352.155 155.877C352.162 155.776 352.177 155.656 352.199 155.518C352.235 155.368 352.269 155.244 352.301 155.144C352.387 154.82 352.552 154.552 352.795 154.34C353.051 154.117 353.414 154.021 353.881 154.054C354.286 154.082 354.576 154.191 354.754 154.381C354.931 154.571 355.01 154.798 354.992 155.064C354.986 155.152 354.965 155.271 354.929 155.421C354.907 155.559 354.879 155.685 354.846 155.796C354.76 156.121 354.595 156.395 354.351 156.619C354.108 156.831 353.746 156.92 353.266 156.887Z" fill="#42FF58"/>
</svg>
