<svg width="829" height="297" viewBox="0 0 829 297" fill="none" xmlns="http://www.w3.org/2000/svg">
<rect x="17.3369" y="286.963" width="807" height="10" transform="rotate(-2 17.3369 286.963)" fill="black"/>
<path fill-rule="evenodd" clip-rule="evenodd" d="M44.5411 285.85L94.3108 284.112L94.01 275.499L44.2403 277.237L44.5411 285.85ZM44.2334 277.037L94.003 275.299L92.265 225.529L42.4954 227.267L44.2334 277.037ZM42.2955 227.274L44.0335 277.044L9.05481 278.265L7.31681 228.496L42.2955 227.274ZM42.4884 227.067L92.258 225.329L90.52 175.56L40.7504 177.298L42.4884 227.067ZM40.5505 177.305L42.2885 227.074L7.30983 228.296L5.57184 178.526L40.5505 177.305ZM40.7434 177.098L90.5131 175.36L88.7751 125.59L39.0054 127.328L40.7434 177.098ZM38.8055 127.335L40.5435 177.105L5.56486 178.326L3.82686 128.557L38.8055 127.335ZM38.9984 127.128L88.7681 125.39L87.0301 75.6207L37.2604 77.3587L38.9984 127.128ZM37.0606 77.3656L38.7986 127.135L3.81988 128.357L2.08189 78.5871L37.0606 77.3656ZM37.2535 77.1588L87.0231 75.4208L85.2851 25.6511L35.5155 27.3891L37.2535 77.1588ZM35.3156 27.3961L37.0536 77.1658L2.07491 78.3872L0.336915 28.6176L35.3156 27.3961ZM44.0405 277.244L44.3412 285.857L9.36256 287.078L9.06179 278.465L44.0405 277.244ZM494.067 270.152L444.297 271.89L443.997 263.277L493.766 261.539L494.067 270.152ZM493.759 261.339L443.99 263.077L442.252 213.307L492.021 211.569L493.759 261.339ZM443.79 263.084L442.052 213.314L392.282 215.052L394.02 264.822L443.79 263.084ZM492.014 211.37L442.245 213.108L440.507 163.338L490.276 161.6L492.014 211.37ZM442.045 213.115L440.307 163.345L390.537 165.083L392.275 214.853L442.045 213.115ZM490.269 161.4L440.5 163.138L438.762 113.368L488.531 111.63L490.269 161.4ZM440.3 163.145L438.562 113.375L388.792 115.113L390.53 164.883L440.3 163.145ZM488.524 111.431L438.755 113.169L437.017 63.3989L486.786 61.6609L488.524 111.431ZM438.555 113.176L436.817 63.4058L387.047 65.1438L388.785 114.914L438.555 113.176ZM486.779 61.461L437.01 63.199L435.272 13.4293L485.041 11.6913L486.779 61.461ZM436.81 63.206L435.072 13.4363L385.302 15.1743L387.04 64.944L436.81 63.206ZM444.098 271.897L443.797 263.284L394.027 265.022L394.328 273.635L444.098 271.897ZM244.419 278.87L294.189 277.132L293.888 268.519L244.118 270.257L244.419 278.87ZM244.112 270.057L293.881 268.319L292.143 218.549L242.374 220.287L244.112 270.057ZM242.174 220.294L243.912 270.064L194.142 271.802L192.404 222.032L242.174 220.294ZM242.367 220.088L292.136 218.35L290.398 168.58L240.629 170.318L242.367 220.088ZM240.429 170.325L242.167 220.094L192.397 221.832L190.659 172.063L240.429 170.325ZM240.622 170.118L290.391 168.38L288.653 118.61L238.884 120.348L240.622 170.118ZM238.684 120.355L240.422 170.125L190.652 171.863L188.914 122.093L238.684 120.355ZM238.877 120.148L288.646 118.41L286.908 68.6408L237.139 70.3788L238.877 120.148ZM236.939 70.3857L238.677 120.155L188.907 121.893L187.169 72.1237L236.939 70.3857ZM237.132 70.1789L286.901 68.4409L285.163 18.6712L235.394 20.4092L237.132 70.1789ZM235.194 20.4162L236.932 70.1859L187.162 71.9239L185.424 22.1542L235.194 20.4162ZM243.919 270.264L244.219 278.877L194.45 280.615L194.149 272.002L243.919 270.264ZM693.945 263.172L644.176 264.91L643.875 256.297L693.644 254.559L693.945 263.172ZM693.637 254.359L643.868 256.097L642.13 206.328L691.899 204.59L693.637 254.359ZM643.668 256.104L641.93 206.335L592.16 208.073L593.898 257.842L643.668 256.104ZM691.893 204.39L642.123 206.128L640.385 156.358L690.155 154.62L691.893 204.39ZM641.923 206.135L640.185 156.365L590.415 158.103L592.153 207.873L641.923 206.135ZM690.148 154.42L640.378 156.158L638.64 106.389L688.41 104.651L690.148 154.42ZM640.178 156.165L638.44 106.395L588.67 108.133L590.408 157.903L640.178 156.165ZM688.403 104.451L638.633 106.189L636.895 56.419L686.665 54.681L688.403 104.451ZM638.433 106.196L636.695 56.4259L586.925 58.1639L588.663 107.934L638.433 106.196ZM686.658 54.4811L636.888 56.2191L635.15 6.4494L684.92 4.7114L686.658 54.4811ZM636.688 56.2261L634.95 6.45638L585.18 8.19438L586.918 57.9641L636.688 56.2261ZM643.976 264.917L643.675 256.304L593.905 258.042L594.206 266.655L643.976 264.917ZM144.48 282.36L194.25 280.622L193.949 272.009L144.179 273.747L144.48 282.36ZM144.172 273.547L193.942 271.809L192.204 222.039L142.434 223.777L144.172 273.547ZM142.235 223.784L143.973 273.554L94.2029 275.292L92.4649 225.522L142.235 223.784ZM142.427 223.577L192.197 221.839L190.459 172.07L140.689 173.808L142.427 223.577ZM140.49 173.815L142.228 223.584L92.4579 225.322L90.7199 175.553L140.49 173.815ZM140.682 173.608L190.452 171.87L188.714 122.1L138.944 123.838L140.682 173.608ZM138.745 123.845L140.483 173.615L90.7129 175.353L88.9749 125.583L138.745 123.845ZM138.938 123.638L188.707 121.9L186.969 72.1307L137.2 73.8687L138.938 123.638ZM137 73.8757L138.738 123.645L88.968 125.383L87.23 75.6137L137 73.8757ZM137.193 73.6688L186.962 71.9308L185.224 22.1612L135.455 23.8992L137.193 73.6688ZM135.255 23.9061L136.993 73.6758L87.223 75.4138L85.485 25.6441L135.255 23.9061ZM143.98 273.754L144.28 282.367L94.5106 284.105L94.2099 275.492L143.98 273.754ZM594.006 266.662L544.237 268.4L543.936 259.787L593.705 258.049L594.006 266.662ZM593.698 257.849L543.929 259.587L542.191 209.818L591.96 208.08L593.698 257.849ZM543.729 259.594L541.991 209.825L492.221 211.563L493.959 261.332L543.729 259.594ZM591.953 207.88L542.184 209.618L540.446 159.848L590.215 158.11L591.953 207.88ZM541.984 209.625L540.246 159.855L490.476 161.593L492.214 211.363L541.984 209.625ZM590.208 157.91L540.439 159.648L538.701 109.878L588.47 108.14L590.208 157.91ZM540.239 159.655L538.501 109.885L488.731 111.623L490.469 161.393L540.239 159.655ZM588.463 107.941L538.694 109.679L536.956 59.9089L586.725 58.1709L588.463 107.941ZM538.494 109.686L536.756 59.9159L486.986 61.6539L488.724 111.424L538.494 109.686ZM586.719 57.971L536.949 59.709L535.211 9.93935L584.981 8.20136L586.719 57.971ZM536.749 59.716L535.011 9.94633L485.241 11.6843L486.979 61.454L536.749 59.716ZM544.037 268.407L543.736 259.794L493.966 261.532L494.267 270.145L544.037 268.407ZM344.358 275.38L394.128 273.642L393.827 265.029L344.058 266.767L344.358 275.38ZM344.051 266.567L393.82 264.829L392.082 215.059L342.313 216.797L344.051 266.567ZM342.113 216.804L343.851 266.574L294.081 268.312L292.343 218.542L342.113 216.804ZM342.306 216.598L392.075 214.86L390.337 165.09L340.568 166.828L342.306 216.598ZM340.368 166.835L342.106 216.605L292.336 218.343L290.598 168.573L340.368 166.835ZM340.561 166.628L390.33 164.89L388.592 115.12L338.823 116.858L340.561 166.628ZM338.623 116.865L340.361 166.635L290.591 168.373L288.853 118.603L338.623 116.865ZM338.816 116.658L388.585 114.92L386.847 65.1508L337.078 66.8888L338.816 116.658ZM336.878 66.8958L338.616 116.665L288.846 118.403L287.108 68.6338L336.878 66.8958ZM337.071 66.6889L386.84 64.9509L385.102 15.1813L335.333 16.9193L337.071 66.6889ZM335.133 16.9262L336.871 66.6959L287.101 68.4339L285.363 18.6642L335.133 16.9262ZM343.858 266.774L344.158 275.387L294.389 277.125L294.088 268.512L343.858 266.774ZM793.884 259.682L744.115 261.42L743.814 252.807L793.584 251.069L793.884 259.682ZM793.577 250.869L743.807 252.607L742.069 202.838L791.839 201.1L793.577 250.869ZM743.607 252.614L741.869 202.845L692.099 204.583L693.837 254.352L743.607 252.614ZM791.832 200.9L742.062 202.638L740.324 152.868L790.094 151.13L791.832 200.9ZM741.862 202.645L740.124 152.875L690.354 154.613L692.092 204.383L741.862 202.645ZM790.087 150.93L740.317 152.668L738.579 102.899L788.349 101.161L790.087 150.93ZM740.117 152.675L738.379 102.906L688.609 104.644L690.347 154.413L740.117 152.675ZM788.342 100.961L738.572 102.699L736.834 52.929L786.604 51.191L788.342 100.961ZM738.372 102.706L736.634 52.936L686.864 54.674L688.602 104.444L738.372 102.706ZM786.597 50.9911L736.827 52.7291L735.089 2.95945L784.859 1.22145L786.597 50.9911ZM736.627 52.7361L734.889 2.96643L685.119 4.70442L686.857 54.4741L736.627 52.7361ZM743.915 261.427L743.614 252.814L693.844 254.552L694.145 263.165L743.915 261.427ZM828.863 258.461L794.084 259.675L793.783 251.062L828.562 249.848L828.863 258.461ZM828.555 249.648L793.776 250.862L792.038 201.093L826.817 199.878L828.555 249.648ZM826.81 199.678L792.031 200.893L790.293 151.123L825.072 149.909L826.81 199.678ZM825.065 149.709L790.287 150.923L788.549 101.154L823.327 99.9391L825.065 149.709ZM823.32 99.7392L788.542 100.954L786.804 51.184L821.582 49.9695L823.32 99.7392ZM821.575 49.7697L786.797 50.9842L785.059 1.21447L819.837 -3.26335e-05L821.575 49.7697Z" fill="white"/>
</svg>
