<svg width="62" height="76" viewBox="0 0 62 76" fill="none" xmlns="http://www.w3.org/2000/svg">
<path d="M24.0575 55.7902L24.5 56.6312L24.9425 55.7902C25.3369 55.0407 25.998 54.0287 26.9761 53.242L26.7372 52.945L26.9761 53.242C27.9871 52.4288 29.1213 52.0236 30.3594 52.0236C33.8141 52.0236 36.5 54.9618 36.5 59.0145C36.5 61.1736 35.673 63.0095 34.1542 64.9155C32.6228 66.8373 30.4222 68.7898 27.7154 71.1888L28.0188 71.5312L27.7154 71.1888L27.7151 71.189C26.7993 72.0007 25.7593 72.9225 24.6778 73.9061L24.6777 73.9062C24.626 73.9532 24.5629 73.9767 24.5 73.9767C24.4371 73.9767 24.3741 73.9533 24.3224 73.9062L24.3222 73.906C23.2413 72.923 22.2017 72.0016 21.2867 71.1906L21.2852 71.1893L20.9536 71.5635L21.2852 71.1893C18.5781 68.79 16.3774 66.8374 14.8459 64.9155C13.327 63.0095 12.5 61.1736 12.5 59.0145C12.5 54.9618 15.1859 52.0236 18.6406 52.0236C19.8787 52.0236 21.0129 52.4288 22.0239 53.242L22.3373 52.8524L22.0239 53.242C23.002 54.0287 23.6631 55.0407 24.0575 55.7902Z" fill="#A8A8A8" stroke="#42FF58"/>
<path d="M49.0575 29.7902L49.5 30.6312L49.9425 29.7902C50.3369 29.0407 50.998 28.0287 51.9761 27.242L51.7372 26.945L51.9761 27.242C52.9871 26.4288 54.1213 26.0236 55.3594 26.0236C58.8141 26.0236 61.5 28.9618 61.5 33.0145C61.5 35.1736 60.673 37.0095 59.1542 38.9155C57.6228 40.8373 55.4222 42.7898 52.7154 45.1888L53.0188 45.5312L52.7154 45.1888L52.7151 45.189C51.7993 46.0007 50.7593 46.9225 49.6778 47.9061L49.6777 47.9062C49.626 47.9532 49.5629 47.9767 49.5 47.9767C49.4371 47.9767 49.3741 47.9533 49.3224 47.9062L49.3222 47.906C48.2413 46.923 47.2017 46.0016 46.2867 45.1906L46.2852 45.1893L45.9536 45.5635L46.2852 45.1893C43.5781 42.79 41.3774 40.8374 39.8459 38.9155C38.327 37.0095 37.5 35.1736 37.5 33.0145C37.5 28.9618 40.1859 26.0236 43.6406 26.0236C44.8787 26.0236 46.0129 26.4288 47.0239 27.242L47.3373 26.8524L47.0239 27.242C48.002 28.0287 48.6631 29.0407 49.0575 29.7902Z" fill="#A8A8A8" stroke="#42FF58"/>
<path d="M12.0575 5.79023L12.5 6.63122L12.9425 5.79024C13.3369 5.04072 13.998 4.02874 14.9761 3.24202L14.7372 2.94503L14.9761 3.24202C15.9871 2.42883 17.1213 2.02356 18.3594 2.02356C21.8141 2.02356 24.5 4.96177 24.5 9.01451C24.5 11.1736 23.673 13.0095 22.1542 14.9155C20.6228 16.8373 18.4222 18.7898 15.7154 21.1888L16.0188 21.5312L15.7154 21.1888L15.7151 21.189C14.7993 22.0007 13.7593 22.9225 12.6778 23.9061L12.6777 23.9062C12.626 23.9532 12.5629 23.9767 12.5 23.9767C12.4371 23.9767 12.3741 23.9533 12.3224 23.9062L12.3222 23.906C11.2413 22.923 10.2017 22.0016 9.28671 21.1906L9.28521 21.1893L8.95356 21.5635L9.2852 21.1893C6.57808 18.79 4.37737 16.8374 2.84585 14.9155C1.32699 13.0095 0.5 11.1736 0.5 9.01451C0.5 4.96177 3.18595 2.02356 6.64062 2.02356C7.87875 2.02356 9.01286 2.42883 10.0239 3.24202L10.3373 2.8524L10.0239 3.24202C11.002 4.02874 11.6631 5.04068 12.0575 5.79023Z" fill="#A8A8A8" stroke="#42FF58"/>
</svg>
