<svg width="58" height="78" viewBox="0 0 58 78" fill="none" xmlns="http://www.w3.org/2000/svg">
<path d="M38.0575 57.7902L38.5 58.6312L38.9425 57.7902C39.3369 57.0407 39.998 56.0287 40.9761 55.242L40.7372 54.945L40.9761 55.242C41.9871 54.4288 43.1213 54.0236 44.3594 54.0236C47.8141 54.0236 50.5 56.9618 50.5 61.0145C50.5 63.1736 49.673 65.0095 48.1542 66.9155C46.6228 68.8373 44.4222 70.7898 41.7154 73.1888L42.0188 73.5312L41.7154 73.1888L41.7151 73.189C40.7993 74.0007 39.7593 74.9225 38.6778 75.9061L38.6777 75.9062C38.626 75.9532 38.5629 75.9767 38.5 75.9767C38.4371 75.9767 38.3741 75.9533 38.3224 75.9062L38.3222 75.906C37.2413 74.923 36.2017 74.0016 35.2867 73.1906L35.2852 73.1893L34.9536 73.5635L35.2852 73.1893C32.5781 70.79 30.3774 68.8374 28.8459 66.9155C27.327 65.0095 26.5 63.1736 26.5 61.0145C26.5 56.9618 29.1859 54.0236 32.6406 54.0236C33.8787 54.0236 35.0129 54.4288 36.0239 55.242L36.3373 54.8524L36.0239 55.242C37.002 56.0287 37.6631 57.0407 38.0575 57.7902Z" fill="#A8A8A8" stroke="#42FF58"/>
<path d="M12.0575 33.7902L12.5 34.6312L12.9425 33.7902C13.3369 33.0407 13.998 32.0287 14.9761 31.242L14.7372 30.945L14.9761 31.242C15.9871 30.4288 17.1213 30.0236 18.3594 30.0236C21.8141 30.0236 24.5 32.9618 24.5 37.0145C24.5 39.1736 23.673 41.0095 22.1542 42.9155C20.6228 44.8373 18.4222 46.7898 15.7154 49.1888L16.0188 49.5312L15.7154 49.1888L15.7151 49.189C14.7993 50.0007 13.7593 50.9225 12.6778 51.9061L12.6777 51.9062C12.626 51.9532 12.5629 51.9767 12.5 51.9767C12.4371 51.9767 12.3741 51.9533 12.3224 51.9062L12.3222 51.906C11.2413 50.923 10.2017 50.0016 9.28671 49.1906L9.28521 49.1893L8.95356 49.5635L9.2852 49.1893C6.57808 46.79 4.37737 44.8374 2.84585 42.9155C1.32699 41.0095 0.5 39.1736 0.5 37.0145C0.5 32.9618 3.18595 30.0236 6.64062 30.0236C7.87875 30.0236 9.01286 30.4288 10.0239 31.242L10.3373 30.8524L10.0239 31.242C11.002 32.0287 11.6631 33.0407 12.0575 33.7902Z" fill="#A8A8A8" stroke="#42FF58"/>
<path d="M45.0575 5.79023L45.5 6.63122L45.9425 5.79024C46.3369 5.04072 46.998 4.02874 47.9761 3.24202L47.7372 2.94503L47.9761 3.24202C48.9871 2.42883 50.1213 2.02356 51.3594 2.02356C54.8141 2.02356 57.5 4.96177 57.5 9.01451C57.5 11.1736 56.673 13.0095 55.1542 14.9155C53.6228 16.8373 51.4222 18.7898 48.7154 21.1888L49.0188 21.5312L48.7154 21.1888L48.7151 21.189C47.7993 22.0007 46.7593 22.9225 45.6778 23.9061L45.6777 23.9062C45.626 23.9532 45.5629 23.9767 45.5 23.9767C45.4371 23.9767 45.3741 23.9533 45.3224 23.9062L45.3222 23.906C44.2413 22.923 43.2017 22.0016 42.2867 21.1906L42.2852 21.1893L41.9536 21.5635L42.2852 21.1893C39.5781 18.79 37.3774 16.8374 35.8459 14.9155C34.327 13.0095 33.5 11.1736 33.5 9.01451C33.5 4.96177 36.1859 2.02356 39.6406 2.02356C40.8787 2.02356 42.0129 2.42883 43.0239 3.24202L43.3373 2.8524L43.0239 3.24202C44.002 4.02874 44.6631 5.04068 45.0575 5.79023Z" fill="#A8A8A8" stroke="#42FF58"/>
</svg>
