<svg width="567" height="300" viewBox="0 0 567 300" fill="none" xmlns="http://www.w3.org/2000/svg">
<path d="M267.793 36.4751L318.09 88.9119L428.149 36.703L389.519 100.676L533.156 80.1789L420.356 131.252L542.707 150.296L398.82 168.962L453.152 220.273L333.14 199.401L298.699 263.38L248.401 210.943L138.343 263.152L176.972 199.179L33.3349 219.676L146.136 168.603L23.7844 149.559L167.671 130.893L113.339 79.5821L233.352 100.454L267.793 36.4751Z" fill="black"/>
<path d="M197.484 144.125L199.442 143.858L199.972 142.54L196.185 132.758L198.256 132.476L200.14 137.435L201.02 140.096L201.133 140.08L202.1 137.187L204.281 131.655L206.427 131.363L201.358 143.846C201.223 144.172 201.082 144.447 200.934 144.671C200.798 144.894 200.644 145.081 200.473 145.233C200.3 145.371 200.104 145.481 199.885 145.562C199.666 145.643 199.412 145.703 199.124 145.742L197.373 145.981L197.484 144.125ZM212.465 133.954L217.04 133.331C217.818 133.225 218.453 133.336 218.945 133.666C219.436 133.982 219.726 134.473 219.817 135.139C219.906 135.791 219.773 136.365 219.419 136.861C219.064 137.357 218.557 137.713 217.896 137.931L217.888 138.009C218.479 138.031 218.934 138.186 219.255 138.475C219.576 138.764 219.768 139.14 219.831 139.605C219.891 140.044 219.865 140.469 219.755 140.88C219.658 141.29 219.485 141.665 219.237 142.006C218.99 142.346 218.671 142.632 218.281 142.865C217.89 143.097 217.444 143.247 216.942 143.315L211.84 144.01L212.465 133.954ZM216.412 141.815C216.864 141.754 217.214 141.604 217.463 141.365C217.711 141.127 217.855 140.82 217.893 140.444C217.901 140.315 217.903 140.187 217.898 140.059C217.905 139.918 217.903 139.81 217.893 139.734C217.85 139.421 217.711 139.203 217.478 139.081C217.255 138.946 216.961 138.902 216.597 138.952L214.037 139.301L213.851 142.164L216.412 141.815ZM216.504 137.565C216.893 137.512 217.219 137.372 217.482 137.144C217.756 136.902 217.903 136.575 217.924 136.163C217.935 136.06 217.94 135.957 217.939 135.855C217.937 135.74 217.93 135.645 217.92 135.57C217.886 135.319 217.759 135.144 217.542 135.046C217.322 134.935 217.043 134.903 216.704 134.949L214.294 135.277L214.132 137.888L216.504 137.565ZM229.725 141.574C229.285 141.634 228.918 141.569 228.624 141.379C228.342 141.187 228.174 140.891 228.119 140.489C228.09 140.276 228.084 140.091 228.101 139.935L228.128 139.567L228.053 139.578C227.761 140.436 227.397 141.099 226.962 141.567C226.54 142.034 225.952 142.318 225.199 142.421C224.296 142.544 223.555 142.312 222.976 141.726C222.398 141.14 222.034 140.302 221.886 139.21C221.769 138.356 221.763 137.513 221.867 136.681C221.971 135.849 222.182 135.098 222.5 134.428C222.83 133.757 223.259 133.2 223.787 132.757C224.313 132.302 224.94 132.025 225.668 131.925C226.308 131.838 226.884 131.932 227.394 132.208C227.903 132.471 228.247 132.885 228.426 133.448L228.52 133.435L228.617 131.754L230.575 131.487L230.047 139.862L231.309 139.69L231.212 141.372L229.725 141.574ZM225.724 140.643C226.126 140.588 226.465 140.452 226.743 140.235C227.032 140.017 227.284 139.753 227.497 139.442C227.958 138.792 228.217 138.015 228.273 137.112L228.399 135.082C228.408 134.863 228.366 134.652 228.274 134.447C228.183 134.242 228.044 134.069 227.859 133.928C227.671 133.775 227.439 133.666 227.162 133.601C226.896 133.522 226.599 133.505 226.273 133.55C225.545 133.649 224.992 133.954 224.614 134.466C224.235 134.965 224.016 135.66 223.959 136.549L223.863 137.962C223.859 138.116 223.857 138.289 223.857 138.481C223.87 138.671 223.887 138.841 223.908 138.992C223.983 139.544 224.17 139.979 224.469 140.296C224.779 140.599 225.197 140.714 225.724 140.643ZM237.077 140.803C235.986 140.952 235.054 140.727 234.282 140.129C233.508 139.518 233.03 138.542 232.847 137.199C232.731 136.345 232.742 135.532 232.879 134.759C233.015 133.974 233.265 133.275 233.629 132.663C233.993 132.051 234.455 131.547 235.015 131.151C235.586 130.741 236.241 130.485 236.982 130.385C237.885 130.261 238.656 130.38 239.293 130.741C239.943 131.1 240.398 131.626 240.658 132.319L239.11 133.201C238.912 132.781 238.659 132.47 238.35 132.269C238.053 132.054 237.64 131.982 237.113 132.054C236.435 132.146 235.912 132.435 235.544 132.92C235.175 133.405 234.969 134.053 234.926 134.864L234.827 136.527C234.807 136.849 234.813 137.129 234.845 137.368C234.928 137.97 235.151 138.438 235.516 138.772C235.879 139.093 236.387 139.209 237.04 139.121C237.517 139.056 237.906 138.862 238.207 138.54C238.521 138.216 238.806 137.723 239.061 137.062L240.664 137.572C240.37 138.507 239.922 139.252 239.32 139.807C238.716 140.35 237.969 140.682 237.077 140.803ZM250.981 138.909C249.714 139.082 248.699 138.856 247.936 138.231C247.184 137.592 246.719 136.613 246.539 135.296C246.43 134.492 246.445 133.71 246.584 132.95C246.734 132.175 246.997 131.475 247.371 130.849C247.746 130.222 248.232 129.702 248.827 129.289C249.421 128.863 250.114 128.596 250.904 128.488C251.293 128.435 251.689 128.432 252.092 128.48C252.507 128.525 252.886 128.634 253.229 128.804C253.572 128.975 253.861 129.217 254.095 129.53C254.342 129.842 254.498 130.236 254.563 130.713C254.705 131.754 254.286 132.623 253.307 133.319C252.341 134.013 250.744 134.537 248.517 134.892C248.513 135.148 248.523 135.358 248.545 135.521C248.627 136.123 248.856 136.584 249.232 136.904C249.62 137.222 250.172 137.332 250.887 137.234C251.427 137.161 251.9 136.975 252.307 136.677C252.714 136.378 253.084 135.951 253.417 135.394L254.801 136.26C254.29 137.11 253.717 137.737 253.082 138.144C252.447 138.55 251.747 138.805 250.981 138.909ZM250.966 130.071C250.289 130.164 249.73 130.476 249.292 131.009C248.864 131.527 248.627 132.186 248.583 132.985L248.555 133.487C249.441 133.328 250.161 133.166 250.714 133.001C251.266 132.836 251.689 132.657 251.983 132.464C252.288 132.269 252.483 132.057 252.567 131.828C252.651 131.6 252.674 131.347 252.637 131.071C252.604 130.833 252.534 130.644 252.425 130.505C252.315 130.354 252.179 130.245 252.016 130.178C251.865 130.096 251.699 130.055 251.52 130.053C251.339 130.04 251.155 130.046 250.966 130.071ZM269 136.225L268.868 136.243C268.416 136.304 268.049 136.239 267.767 136.047C267.498 135.854 267.336 135.556 267.281 135.155C267.256 134.967 267.249 134.776 267.261 134.582L267.284 134.33L267.171 134.345C266.922 135.146 266.593 135.779 266.183 136.244C265.785 136.695 265.227 136.969 264.512 137.066C263.834 137.158 263.292 137.028 262.886 136.674C262.478 136.308 262.206 135.763 262.069 135.04L261.956 135.056C261.718 135.842 261.382 136.47 260.947 136.938C260.512 137.406 259.937 137.689 259.222 137.787C258.456 137.891 257.854 137.743 257.416 137.342C256.977 136.929 256.703 136.327 256.595 135.537C256.561 135.286 256.54 135.039 256.533 134.797C256.536 134.541 256.546 134.284 256.562 134.026L256.935 127.897L258.893 127.63L258.517 133.741C258.505 133.934 258.499 134.12 258.498 134.3C258.496 134.479 258.508 134.656 258.532 134.832C258.587 135.233 258.718 135.541 258.926 135.756C259.133 135.958 259.443 136.031 259.857 135.974C260.146 135.935 260.4 135.83 260.62 135.66C260.838 135.476 261.048 135.237 261.25 134.941C261.475 134.616 261.654 134.24 261.787 133.813C261.932 133.372 262.009 132.958 262.021 132.573L262.357 127.158L264.315 126.892L263.939 133.002C263.926 133.183 263.919 133.369 263.92 133.561C263.92 133.753 263.932 133.936 263.956 134.112C264.011 134.514 264.129 134.817 264.31 135.023C264.504 135.226 264.796 135.302 265.185 135.249C265.474 135.209 265.733 135.097 265.964 134.912C266.207 134.726 266.419 134.499 266.6 134.231C266.846 133.878 267.042 133.487 267.188 133.058C267.332 132.617 267.417 132.209 267.443 131.835L267.779 126.42L269.737 126.153L269.209 134.528L270.866 134.302L270.582 138.694L268.831 138.932L269 136.225ZM276.481 135.436C275.214 135.608 274.198 135.382 273.436 134.758C272.684 134.119 272.218 133.14 272.039 131.822C271.93 131.019 271.944 130.237 272.084 129.477C272.234 128.702 272.496 128.002 272.871 127.375C273.246 126.749 273.732 126.229 274.327 125.816C274.921 125.389 275.613 125.123 276.404 125.015C276.793 124.962 277.189 124.959 277.592 125.007C278.007 125.052 278.386 125.16 278.729 125.331C279.072 125.502 279.361 125.744 279.595 126.057C279.842 126.368 279.998 126.763 280.063 127.239C280.205 128.281 279.786 129.15 278.807 129.846C277.841 130.54 276.244 131.064 274.017 131.419C274.013 131.675 274.022 131.885 274.045 132.048C274.127 132.65 274.356 133.111 274.732 133.431C275.12 133.748 275.672 133.859 276.387 133.761C276.927 133.688 277.4 133.502 277.807 133.203C278.214 132.905 278.584 132.478 278.917 131.921L280.301 132.787C279.79 133.636 279.217 134.264 278.582 134.67C277.947 135.076 277.247 135.332 276.481 135.436ZM276.466 126.598C275.789 126.69 275.23 127.003 274.792 127.536C274.364 128.054 274.127 128.713 274.083 129.511L274.055 130.014C274.941 129.855 275.661 129.693 276.213 129.528C276.766 129.363 277.189 129.184 277.483 128.991C277.788 128.796 277.983 128.584 278.067 128.355C278.151 128.126 278.174 127.874 278.137 127.598C278.104 127.359 278.034 127.171 277.925 127.032C277.815 126.881 277.679 126.772 277.516 126.704C277.365 126.623 277.199 126.581 277.02 126.58C276.839 126.566 276.655 126.572 276.466 126.598ZM290.376 133.543C289.271 133.694 288.333 133.47 287.561 132.872C286.79 132.274 286.314 131.316 286.135 129.998C286.02 129.157 286.037 128.343 286.185 127.556C286.334 126.769 286.589 126.063 286.952 125.438C287.327 124.812 287.799 124.294 288.37 123.884C288.94 123.474 289.596 123.218 290.336 123.117C291.441 122.967 292.379 123.191 293.151 123.789C293.922 124.387 294.398 125.344 294.578 126.662C294.694 127.516 294.678 128.336 294.529 129.123C294.379 129.898 294.117 130.598 293.742 131.225C293.379 131.849 292.913 132.367 292.342 132.777C291.772 133.187 291.116 133.442 290.376 133.543ZM290.301 131.866C290.916 131.782 291.418 131.484 291.809 130.97C292.212 130.455 292.442 129.753 292.5 128.863L292.607 127.257C292.618 127.153 292.622 127.037 292.617 126.91C292.613 126.783 292.601 126.65 292.582 126.512C292.5 125.91 292.272 125.455 291.898 125.148C291.534 124.827 291.039 124.709 290.411 124.794C289.796 124.878 289.288 125.178 288.885 125.693C288.494 126.206 288.27 126.908 288.213 127.798L288.105 129.404C288.096 129.52 288.093 129.642 288.098 129.769C288.1 129.884 288.111 130.01 288.13 130.148C288.212 130.751 288.435 131.213 288.798 131.534C289.172 131.841 289.673 131.952 290.301 131.866ZM300.671 132.141C299.579 132.29 298.647 132.065 297.875 131.467C297.102 130.857 296.624 129.88 296.441 128.537C296.325 127.684 296.335 126.87 296.473 126.097C296.609 125.312 296.859 124.613 297.223 124.001C297.587 123.389 298.049 122.885 298.608 122.489C299.179 122.079 299.835 121.824 300.575 121.723C301.479 121.6 302.249 121.718 302.886 122.079C303.536 122.438 303.991 122.964 304.252 123.657L302.704 124.539C302.506 124.119 302.252 123.808 301.944 123.607C301.646 123.392 301.234 123.32 300.707 123.392C300.029 123.485 299.506 123.773 299.137 124.258C298.768 124.743 298.563 125.391 298.52 126.202L298.42 127.865C298.4 128.187 298.406 128.467 298.439 128.706C298.521 129.308 298.745 129.776 299.11 130.11C299.473 130.431 299.981 130.548 300.634 130.459C301.111 130.394 301.5 130.2 301.801 129.878C302.115 129.554 302.399 129.061 302.654 128.4L304.258 128.91C303.963 129.845 303.515 130.59 302.913 131.145C302.309 131.688 301.562 132.02 300.671 132.141ZM308.215 122.58L305.222 122.988L305.338 121.304L313.282 120.222L313.167 121.906L310.173 122.314L309.646 130.689L307.688 130.955L308.215 122.58ZM322.109 128.991C321.67 129.051 321.303 128.986 321.008 128.796C320.727 128.604 320.558 128.307 320.504 127.906C320.475 127.692 320.469 127.508 320.486 127.352L320.512 126.984L320.437 126.994C320.145 127.852 319.781 128.515 319.347 128.984C318.924 129.45 318.337 129.735 317.584 129.837C316.68 129.961 315.939 129.729 315.361 129.143C314.782 128.557 314.419 127.718 314.27 126.626C314.154 125.773 314.148 124.93 314.251 124.098C314.355 123.265 314.566 122.514 314.884 121.845C315.215 121.173 315.644 120.616 316.171 120.174C316.698 119.718 317.325 119.441 318.052 119.342C318.693 119.255 319.268 119.349 319.778 119.625C320.287 119.888 320.631 120.301 320.81 120.865L320.904 120.852L321.001 119.171L322.959 118.904L322.432 127.279L323.693 127.107L323.596 128.788L322.109 128.991ZM318.108 128.059C318.51 128.005 318.85 127.869 319.127 127.652C319.417 127.434 319.668 127.169 319.882 126.859C320.343 126.208 320.601 125.432 320.657 124.529L320.783 122.498C320.792 122.28 320.75 122.068 320.659 121.863C320.567 121.659 320.428 121.486 320.243 121.345C320.056 121.191 319.824 121.082 319.546 121.018C319.28 120.939 318.984 120.922 318.657 120.966C317.929 121.066 317.376 121.371 316.999 121.883C316.619 122.382 316.401 123.076 316.343 123.966L316.248 125.379C316.243 125.533 316.241 125.706 316.242 125.897C316.255 126.087 316.272 126.258 316.292 126.408C316.367 126.961 316.554 127.395 316.853 127.713C317.163 128.016 317.581 128.131 318.108 128.059ZM324.735 126.965L325.959 126.798C326.104 126.548 326.237 126.262 326.359 125.938C326.494 125.613 326.614 125.226 326.719 124.777C326.824 124.328 326.913 123.811 326.987 123.226C327.073 122.639 327.141 121.965 327.191 121.204L327.371 118.303L334.149 117.38L333.524 127.436L331.566 127.703L332.094 119.328L329.119 119.733L329.045 120.875C328.988 121.867 328.907 122.728 328.802 123.458C328.708 124.174 328.6 124.789 328.478 125.305C328.355 125.807 328.214 126.229 328.056 126.57C327.909 126.897 327.754 127.167 327.591 127.381C327.299 127.766 326.967 128.054 326.597 128.245C326.225 128.424 325.8 128.546 325.324 128.611L324.627 128.705L324.735 126.965ZM338.941 116.727L338.565 122.838C338.552 123.019 338.544 123.198 338.543 123.378C338.554 123.555 338.57 123.713 338.588 123.851C338.648 124.29 338.788 124.616 339.009 124.829C339.23 125.042 339.56 125.118 339.999 125.058C340.627 124.973 341.148 124.621 341.562 124.002C341.806 123.636 341.996 123.246 342.131 122.831C342.277 122.402 342.362 121.988 342.384 121.589L342.725 116.212L344.683 115.945L344.156 124.32L345.417 124.148L345.32 125.829L343.814 126.035C343.375 126.094 343.014 126.028 342.732 125.837C342.461 125.631 342.299 125.327 342.244 124.925C342.222 124.762 342.215 124.571 342.223 124.353L342.23 124.122L342.136 124.135C341.875 124.937 341.533 125.572 341.111 126.038C340.687 126.492 340.123 126.767 339.421 126.863C338.617 126.973 337.977 126.823 337.5 126.415C337.035 126.006 336.746 125.387 336.633 124.558C336.604 124.345 336.587 124.13 336.583 123.913C336.579 123.696 336.585 123.459 336.601 123.201L336.983 116.994L338.941 116.727ZM351.193 125.26C350.101 125.408 349.169 125.184 348.397 124.586C347.624 123.975 347.146 122.998 346.963 121.656C346.846 120.802 346.857 119.989 346.995 119.216C347.131 118.43 347.381 117.732 347.745 117.12C348.109 116.507 348.571 116.004 349.13 115.608C349.701 115.198 350.356 114.942 351.097 114.841C352 114.718 352.771 114.837 353.408 115.198C354.058 115.557 354.513 116.083 354.774 116.776L353.225 117.658C353.028 117.237 352.774 116.927 352.466 116.726C352.168 116.511 351.755 116.439 351.228 116.511C350.551 116.603 350.027 116.892 349.659 117.377C349.29 117.861 349.084 118.509 349.042 119.321L348.942 120.983C348.922 121.306 348.928 121.586 348.961 121.824C349.043 122.427 349.266 122.895 349.631 123.229C349.995 123.55 350.503 123.666 351.155 123.577C351.632 123.512 352.021 123.319 352.323 122.996C352.636 122.672 352.921 122.18 353.176 121.519L354.78 122.029C354.485 122.964 354.037 123.709 353.435 124.264C352.831 124.806 352.084 125.138 351.193 125.26ZM357.081 114.256L359.039 113.99L358.826 117.355L361.198 117.032C362.114 116.907 362.83 117.046 363.345 117.449C363.858 117.839 364.17 118.442 364.282 119.258C364.365 119.873 364.34 120.439 364.206 120.956C364.083 121.459 363.868 121.903 363.563 122.29C363.258 122.677 362.879 122.99 362.426 123.231C361.985 123.47 361.495 123.626 360.956 123.7L356.456 124.313L357.081 114.256ZM360.611 122.155C361.126 122.085 361.534 121.895 361.837 121.585C362.14 121.276 362.315 120.868 362.361 120.364C362.377 120.106 362.367 119.845 362.331 119.581C362.285 119.243 362.142 118.987 361.901 118.815C361.66 118.644 361.301 118.59 360.825 118.655L358.716 118.943L358.502 122.442L360.611 122.155ZM174.313 162.363L178.888 161.74C179.666 161.634 180.301 161.745 180.793 162.075C181.284 162.391 181.575 162.882 181.665 163.547C181.754 164.2 181.621 164.774 181.267 165.27C180.913 165.766 180.405 166.122 179.745 166.34L179.736 166.418C180.327 166.44 180.783 166.595 181.103 166.884C181.424 167.173 181.616 167.549 181.679 168.013C181.739 168.453 181.714 168.878 181.604 169.289C181.506 169.699 181.333 170.074 181.086 170.414C180.838 170.755 180.519 171.041 180.129 171.273C179.739 171.506 179.292 171.656 178.79 171.724L173.689 172.419L174.313 162.363ZM178.26 170.224C178.712 170.163 179.062 170.013 179.311 169.774C179.56 169.536 179.703 169.229 179.742 168.853C179.75 168.724 179.751 168.596 179.747 168.468C179.753 168.327 179.751 168.218 179.741 168.143C179.698 167.829 179.56 167.612 179.326 167.49C179.103 167.354 178.809 167.311 178.445 167.361L175.885 167.71L175.7 170.573L178.26 170.224ZM178.352 165.974C178.741 165.921 179.067 165.78 179.33 165.553C179.604 165.311 179.752 164.984 179.772 164.572C179.784 164.468 179.789 164.365 179.788 164.263C179.785 164.149 179.778 164.054 179.768 163.978C179.734 163.727 179.608 163.553 179.39 163.455C179.17 163.344 178.891 163.312 178.552 163.358L176.142 163.686L175.98 166.297L178.352 165.974ZM187.914 170.712C186.809 170.862 185.871 170.638 185.099 170.04C184.328 169.442 183.852 168.484 183.672 167.167C183.558 166.326 183.575 165.512 183.723 164.724C183.872 163.937 184.127 163.231 184.489 162.607C184.864 161.98 185.337 161.462 185.908 161.052C186.478 160.642 187.134 160.386 187.874 160.286C188.979 160.135 189.917 160.359 190.689 160.957C191.46 161.555 191.936 162.513 192.115 163.831C192.232 164.684 192.216 165.504 192.067 166.292C191.917 167.066 191.654 167.767 191.28 168.393C190.917 169.018 190.451 169.535 189.88 169.945C189.31 170.355 188.654 170.611 187.914 170.712ZM187.839 169.034C188.454 168.951 188.956 168.652 189.347 168.139C189.749 167.624 189.98 166.921 190.037 166.031L190.145 164.425C190.156 164.321 190.159 164.206 190.155 164.079C190.15 163.951 190.139 163.819 190.12 163.681C190.038 163.078 189.81 162.623 189.436 162.316C189.072 161.995 188.577 161.877 187.949 161.963C187.334 162.047 186.825 162.346 186.423 162.861C186.032 163.374 185.808 164.076 185.75 164.966L185.643 166.572C185.634 166.689 185.631 166.81 185.635 166.938C185.638 167.052 185.649 167.179 185.668 167.317C185.75 167.919 185.973 168.381 186.336 168.702C186.71 169.009 187.211 169.12 187.839 169.034ZM194.225 169.622L194.849 159.566L196.807 159.299L196.677 161.445L196.772 161.432C197.033 160.63 197.382 160.001 197.818 159.545C198.253 159.076 198.835 158.793 199.562 158.694C200.378 158.582 201.019 158.732 201.483 159.141C201.961 159.549 202.256 160.168 202.369 160.996C202.398 161.209 202.414 161.424 202.418 161.641C202.421 161.845 202.414 162.076 202.398 162.334L202.116 166.879L203.302 166.717L203.205 168.399L201.717 168.601C201.303 168.658 200.956 168.596 200.676 168.417C200.408 168.236 200.247 167.945 200.193 167.544C200.182 167.468 200.174 167.405 200.167 167.355C200.158 167.293 200.159 167.203 200.169 167.087L200.439 162.735C200.463 162.349 200.454 161.998 200.411 161.684C200.351 161.245 200.205 160.926 199.974 160.728C199.74 160.517 199.398 160.442 198.946 160.503C198.293 160.592 197.76 160.946 197.346 161.565C197.111 161.904 196.92 162.288 196.774 162.717C196.626 163.133 196.541 163.541 196.519 163.94L196.182 169.355L194.225 169.622ZM205.641 158.096L207.599 157.829L207.463 160.072L207.539 160.062C207.831 159.204 208.188 158.541 208.61 158.075C209.045 157.607 209.639 157.321 210.392 157.219C211.296 157.095 212.037 157.327 212.615 157.913C213.193 158.499 213.557 159.338 213.706 160.43C213.822 161.283 213.828 162.126 213.724 162.958C213.62 163.791 213.403 164.543 213.073 165.214C212.755 165.884 212.333 166.446 211.807 166.901C211.279 167.344 210.651 167.615 209.923 167.714C209.283 167.801 208.709 167.713 208.2 167.45C207.691 167.187 207.346 166.767 207.165 166.191L207.071 166.204L206.734 171.753L204.776 172.02L205.641 158.096ZM209.337 166.087C210.053 165.99 210.6 165.691 210.98 165.192C211.357 164.681 211.575 163.98 211.633 163.09L211.728 161.677C211.733 161.523 211.729 161.357 211.718 161.18C211.717 160.988 211.706 160.811 211.684 160.648C211.608 160.095 211.416 159.668 211.106 159.365C210.795 159.049 210.369 158.928 209.83 159.002C209.441 159.055 209.101 159.19 208.811 159.409C208.534 159.626 208.295 159.888 208.094 160.197C207.871 160.534 207.69 160.891 207.55 161.268C207.422 161.644 207.344 162.057 207.316 162.508L207.202 164.345C207.166 164.925 207.331 165.389 207.698 165.735C208.063 166.069 208.609 166.186 209.337 166.087ZM219.885 166.357C218.781 166.507 217.842 166.284 217.071 165.686C216.299 165.088 215.823 164.13 215.644 162.812C215.529 161.971 215.546 161.157 215.695 160.37C215.843 159.582 216.099 158.877 216.461 158.252C216.836 157.626 217.308 157.107 217.879 156.697C218.45 156.287 219.105 156.032 219.846 155.931C220.95 155.78 221.888 156.004 222.66 156.602C223.432 157.2 223.907 158.158 224.087 159.476C224.203 160.329 224.187 161.15 224.039 161.937C223.888 162.712 223.626 163.412 223.251 164.039C222.889 164.663 222.422 165.18 221.852 165.591C221.281 166.001 220.626 166.256 219.885 166.357ZM219.81 164.68C220.425 164.596 220.928 164.297 221.318 163.784C221.721 163.269 221.951 162.566 222.009 161.677L222.116 160.07C222.127 159.967 222.131 159.851 222.126 159.724C222.122 159.597 222.11 159.464 222.091 159.326C222.009 158.723 221.781 158.269 221.407 157.962C221.044 157.641 220.548 157.523 219.921 157.608C219.306 157.692 218.797 157.991 218.394 158.506C218.004 159.02 217.78 159.721 217.722 160.611L217.615 162.218C217.605 162.334 217.602 162.456 217.607 162.583C217.61 162.698 217.621 162.824 217.639 162.962C217.721 163.564 217.944 164.026 218.307 164.348C218.682 164.654 219.182 164.765 219.81 164.68ZM230.18 164.955C229.088 165.103 228.156 164.879 227.385 164.281C226.611 163.67 226.133 162.694 225.95 161.351C225.834 160.497 225.845 159.684 225.982 158.911C226.118 158.125 226.368 157.427 226.732 156.815C227.096 156.203 227.558 155.699 228.118 155.303C228.688 154.893 229.344 154.637 230.084 154.536C230.988 154.413 231.758 154.532 232.395 154.893C233.045 155.252 233.5 155.778 233.761 156.471L232.213 157.353C232.015 156.932 231.762 156.622 231.453 156.421C231.155 156.206 230.743 156.134 230.216 156.206C229.538 156.298 229.015 156.587 228.646 157.072C228.278 157.556 228.072 158.204 228.029 159.016L227.929 160.678C227.909 161.001 227.916 161.281 227.948 161.52C228.03 162.122 228.254 162.59 228.619 162.924C228.982 163.245 229.49 163.361 230.143 163.272C230.62 163.207 231.009 163.014 231.31 162.692C231.624 162.368 231.908 161.875 232.163 161.214L233.767 161.724C233.472 162.659 233.024 163.404 232.422 163.959C231.819 164.501 231.071 164.833 230.18 164.955ZM236.068 153.951L238.026 153.685L237.813 157.05L239.997 156.753C240.926 156.626 241.648 156.764 242.163 157.167C242.676 157.558 242.988 158.161 243.1 158.976C243.183 159.591 243.158 160.157 243.024 160.674C242.901 161.177 242.686 161.621 242.381 162.008C242.076 162.395 241.697 162.709 241.244 162.949C240.803 163.188 240.313 163.344 239.774 163.418L235.444 164.008L236.068 153.951ZM239.429 161.873C239.944 161.803 240.346 161.614 240.636 161.306C240.939 160.996 241.114 160.589 241.16 160.084C241.179 159.941 241.187 159.812 241.184 159.697C241.18 159.57 241.168 159.438 241.149 159.3C241.103 158.961 240.953 158.706 240.7 158.536C240.459 158.364 240.107 158.31 239.643 158.373L237.703 158.638L237.49 162.137L239.429 161.873ZM244.916 152.746L246.874 152.48L246.25 162.536L244.292 162.803L244.916 152.746ZM254.306 151.467L256.264 151.201L256.014 155.281L257.596 155.065L259.501 151.738C259.727 151.336 259.963 151.048 260.208 150.874C260.465 150.699 260.813 150.581 261.253 150.521L262.251 150.385L262.135 152.069L261.137 152.205L259.664 154.764C259.497 155.043 259.334 155.25 259.173 155.387C259.024 155.51 258.833 155.606 258.599 155.676L258.593 155.773C258.815 155.807 259.005 155.883 259.161 156.002C259.331 156.12 259.5 156.333 259.67 156.643L260.932 158.868L261.93 158.732L261.833 160.413L260.948 160.534C260.496 160.595 260.117 160.532 259.81 160.344C259.514 160.141 259.24 159.814 258.986 159.363L257.493 156.709L255.912 156.924L255.639 161.257L253.681 161.524L254.306 151.467ZM272.447 159.198C271.355 159.346 270.423 159.122 269.652 158.524C268.878 157.913 268.4 156.937 268.217 155.594C268.101 154.74 268.111 153.927 268.249 153.154C268.385 152.368 268.635 151.67 268.999 151.058C269.363 150.445 269.825 149.942 270.385 149.546C270.955 149.136 271.611 148.88 272.351 148.779C273.255 148.656 274.025 148.775 274.662 149.136C275.312 149.495 275.767 150.021 276.028 150.714L274.48 151.596C274.282 151.175 274.029 150.865 273.72 150.664C273.422 150.449 273.01 150.377 272.483 150.449C271.805 150.541 271.282 150.83 270.913 151.315C270.545 151.799 270.339 152.447 270.296 153.259L270.196 154.921C270.176 155.244 270.183 155.524 270.215 155.762C270.297 156.365 270.521 156.833 270.886 157.167C271.249 157.488 271.757 157.604 272.41 157.515C272.887 157.45 273.276 157.257 273.577 156.934C273.891 156.61 274.175 156.118 274.43 155.457L276.034 155.967C275.739 156.902 275.291 157.647 274.689 158.202C274.086 158.744 273.338 159.076 272.447 159.198ZM281.585 157.953C280.48 158.103 279.542 157.88 278.771 157.282C277.999 156.684 277.523 155.726 277.344 154.408C277.229 153.567 277.246 152.753 277.395 151.966C277.543 151.179 277.798 150.473 278.161 149.848C278.536 149.222 279.008 148.703 279.579 148.293C280.149 147.883 280.805 147.628 281.545 147.527C282.65 147.377 283.588 147.6 284.36 148.198C285.132 148.796 285.607 149.754 285.787 151.072C285.903 151.925 285.887 152.746 285.738 153.533C285.588 154.308 285.326 155.008 284.951 155.635C284.588 156.259 284.122 156.777 283.551 157.187C282.981 157.597 282.325 157.852 281.585 157.953ZM281.51 156.276C282.125 156.192 282.627 155.894 283.018 155.38C283.421 154.865 283.651 154.163 283.709 153.273L283.816 151.666C283.827 151.563 283.831 151.447 283.826 151.32C283.822 151.193 283.81 151.06 283.791 150.922C283.709 150.32 283.481 149.865 283.107 149.558C282.743 149.237 282.248 149.119 281.62 149.204C281.005 149.288 280.497 149.587 280.094 150.102C279.703 150.616 279.479 151.318 279.422 152.207L279.314 153.814C279.305 153.93 279.302 154.052 279.307 154.179C279.31 154.294 279.32 154.42 279.339 154.558C279.421 155.161 279.644 155.622 280.007 155.944C280.381 156.251 280.882 156.361 281.51 156.276ZM288.52 146.807L293.095 146.184C293.873 146.078 294.508 146.19 295.001 146.519C295.491 146.836 295.782 147.326 295.872 147.992C295.961 148.644 295.829 149.218 295.474 149.714C295.12 150.21 294.612 150.567 293.952 150.784L293.943 150.862C294.534 150.884 294.99 151.039 295.311 151.328C295.631 151.617 295.823 151.993 295.886 152.458C295.946 152.897 295.921 153.322 295.811 153.734C295.713 154.143 295.541 154.518 295.293 154.859C295.045 155.199 294.726 155.486 294.336 155.718C293.946 155.95 293.5 156.1 292.998 156.168L287.896 156.863L288.52 146.807ZM292.467 154.668C292.919 154.607 293.269 154.457 293.518 154.218C293.767 153.98 293.91 153.673 293.949 153.297C293.957 153.168 293.959 153.04 293.954 152.913C293.96 152.771 293.958 152.663 293.948 152.587C293.905 152.274 293.767 152.056 293.533 151.934C293.31 151.799 293.017 151.756 292.653 151.805L290.092 152.154L289.907 155.017L292.467 154.668ZM292.56 150.418C292.949 150.365 293.275 150.225 293.538 149.997C293.812 149.755 293.959 149.428 293.979 149.017C293.991 148.913 293.996 148.81 293.995 148.708C293.992 148.593 293.985 148.498 293.975 148.423C293.941 148.172 293.815 147.997 293.597 147.899C293.377 147.788 293.098 147.756 292.759 147.802L290.35 148.13L290.187 150.741L292.56 150.418ZM298.742 145.415L300.7 145.148L300.565 147.391L300.64 147.381C300.932 146.523 301.289 145.86 301.712 145.394C302.146 144.926 302.74 144.64 303.493 144.538C304.397 144.414 305.138 144.646 305.716 145.232C306.295 145.818 306.658 146.657 306.807 147.749C306.923 148.602 306.929 149.445 306.825 150.277C306.722 151.11 306.504 151.862 306.174 152.533C305.856 153.203 305.434 153.765 304.908 154.22C304.38 154.663 303.752 154.934 303.025 155.033C302.384 155.12 301.81 155.032 301.301 154.769C300.792 154.506 300.448 154.086 300.267 153.51L300.173 153.523L299.835 159.072L297.878 159.339L298.742 145.415ZM302.439 153.406C303.154 153.309 303.701 153.01 304.081 152.511C304.459 152 304.676 151.299 304.734 150.409L304.829 148.996C304.834 148.842 304.83 148.676 304.819 148.499C304.819 148.307 304.807 148.13 304.785 147.967C304.71 147.414 304.517 146.987 304.208 146.684C303.896 146.368 303.471 146.247 302.931 146.321C302.542 146.374 302.202 146.509 301.913 146.728C301.635 146.945 301.396 147.207 301.195 147.516C300.973 147.853 300.791 148.21 300.651 148.587C300.523 148.963 300.445 149.376 300.417 149.827L300.303 151.664C300.267 152.244 300.432 152.708 300.799 153.054C301.164 153.388 301.711 153.505 302.439 153.406ZM313.175 153.65C311.907 153.823 310.892 153.597 310.129 152.972C309.377 152.333 308.912 151.355 308.732 150.037C308.623 149.234 308.638 148.452 308.777 147.691C308.927 146.917 309.19 146.216 309.565 145.59C309.94 144.963 310.425 144.444 311.021 144.03C311.614 143.604 312.307 143.337 313.097 143.229C313.487 143.176 313.882 143.174 314.285 143.221C314.701 143.267 315.08 143.375 315.422 143.546C315.765 143.716 316.054 143.958 316.288 144.271C316.535 144.583 316.691 144.977 316.756 145.454C316.898 146.496 316.48 147.364 315.5 148.06C314.534 148.754 312.937 149.279 310.71 149.633C310.706 149.889 310.716 150.099 310.738 150.262C310.82 150.865 311.049 151.326 311.425 151.645C311.813 151.963 312.365 152.073 313.081 151.976C313.62 151.902 314.094 151.716 314.5 151.418C314.907 151.12 315.277 150.692 315.611 150.135L316.994 151.002C316.483 151.851 315.911 152.479 315.276 152.885C314.641 153.291 313.94 153.546 313.175 153.65ZM313.16 144.812C312.482 144.905 311.924 145.217 311.485 145.75C311.057 146.269 310.821 146.927 310.776 147.726L310.749 148.228C311.635 148.069 312.354 147.907 312.907 147.742C313.46 147.578 313.883 147.399 314.176 147.205C314.482 147.01 314.677 146.798 314.76 146.57C314.844 146.341 314.868 146.088 314.83 145.812C314.797 145.574 314.727 145.385 314.619 145.247C314.509 145.095 314.372 144.986 314.21 144.919C314.058 144.837 313.892 144.796 313.713 144.795C313.533 144.781 313.348 144.787 313.16 144.812ZM319.241 142.623L321.501 142.315L323.879 146.823L323.916 146.818L326.941 141.574L329.257 141.258L328.632 151.315L326.75 151.571L327.223 144.067L327.129 144.079L326.409 145.405L323.74 150.025L321.667 146.07L321.067 144.905L320.973 144.918L320.5 152.423L318.617 152.679L319.241 142.623ZM335.788 150.57C334.52 150.743 333.505 150.517 332.743 149.892C331.991 149.253 331.525 148.275 331.346 146.957C331.236 146.153 331.251 145.372 331.391 144.611C331.541 143.837 331.803 143.136 332.178 142.51C332.553 141.883 333.038 141.363 333.634 140.95C334.228 140.524 334.92 140.257 335.711 140.149C336.1 140.096 336.496 140.094 336.899 140.141C337.314 140.187 337.693 140.295 338.036 140.465C338.379 140.636 338.667 140.878 338.902 141.191C339.149 141.503 339.305 141.897 339.37 142.374C339.512 143.416 339.093 144.284 338.114 144.98C337.147 145.674 335.551 146.199 333.323 146.553C333.32 146.809 333.329 147.019 333.352 147.182C333.434 147.785 333.663 148.245 334.038 148.565C334.427 148.883 334.979 148.993 335.694 148.896C336.234 148.822 336.707 148.636 337.114 148.338C337.521 148.04 337.891 147.612 338.224 147.055L339.608 147.922C339.097 148.771 338.524 149.399 337.889 149.805C337.254 150.211 336.554 150.466 335.788 150.57ZM335.773 141.732C335.095 141.825 334.537 142.137 334.098 142.67C333.67 143.188 333.434 143.847 333.39 144.646L333.362 145.148C334.248 144.989 334.967 144.827 335.52 144.662C336.073 144.498 336.496 144.318 336.789 144.125C337.095 143.93 337.29 143.718 337.374 143.489C337.458 143.261 337.481 143.008 337.443 142.732C337.411 142.494 337.34 142.305 337.232 142.166C337.122 142.015 336.986 141.906 336.823 141.839C336.671 141.757 336.506 141.716 336.327 141.714C336.146 141.701 335.961 141.707 335.773 141.732ZM341.855 139.543L343.813 139.276L343.561 143.337L347.42 142.811L347.672 138.75L349.63 138.484L349.006 148.54L347.048 148.806L347.304 144.495L343.445 145.021L343.188 149.332L341.23 149.599L341.855 139.543ZM352.592 138.08L354.55 137.813L354.297 141.875L358.157 141.349L358.409 137.288L360.367 137.021L359.742 147.077L357.785 147.344L358.041 143.033L354.182 143.559L353.925 147.87L351.967 148.136L352.592 138.08ZM366.707 146.359C365.603 146.509 364.665 146.286 363.893 145.688C363.121 145.09 362.645 144.132 362.466 142.814C362.351 141.973 362.368 141.159 362.517 140.372C362.665 139.584 362.921 138.878 363.283 138.254C363.658 137.628 364.131 137.109 364.701 136.699C365.272 136.289 365.927 136.034 366.668 135.933C367.772 135.782 368.71 136.006 369.482 136.604C370.254 137.202 370.729 138.16 370.909 139.478C371.025 140.331 371.009 141.152 370.861 141.939C370.71 142.714 370.448 143.414 370.073 144.04C369.711 144.665 369.244 145.182 368.674 145.592C368.103 146.003 367.448 146.258 366.707 146.359ZM366.632 144.682C367.247 144.598 367.75 144.299 368.14 143.786C368.543 143.271 368.773 142.568 368.831 141.678L368.938 140.072C368.95 139.968 368.953 139.853 368.948 139.726C368.944 139.598 368.932 139.466 368.913 139.328C368.831 138.725 368.603 138.271 368.229 137.964C367.866 137.642 367.37 137.525 366.743 137.61C366.128 137.694 365.619 137.993 365.216 138.508C364.826 139.022 364.602 139.723 364.544 140.613L364.437 142.219C364.427 142.336 364.424 142.458 364.429 142.585C364.432 142.699 364.443 142.826 364.461 142.964C364.543 143.566 364.766 144.028 365.129 144.349C365.504 144.656 366.005 144.767 366.632 144.682ZM373.642 135.213L375.902 134.905L378.28 139.413L378.317 139.408L381.342 134.164L383.658 133.849L383.033 143.905L381.151 144.161L381.624 136.657L381.53 136.67L380.81 137.995L378.141 142.616L376.068 138.66L375.468 137.495L375.374 137.508L374.901 145.013L373.018 145.269L373.642 135.213ZM392.157 132.691L394.247 132.406L389.481 145.002C389.35 145.352 389.212 145.652 389.067 145.902C388.934 146.15 388.772 146.364 388.579 146.544C388.399 146.722 388.181 146.86 387.926 146.959C387.673 147.07 387.377 147.149 387.038 147.195L385.55 147.397L385.65 145.735L387.438 145.491L388.125 143.633L385.248 133.632L387.168 133.371L388.344 137.64L389.192 141.187L389.286 141.174L390.509 137.345L392.157 132.691ZM242.69 176.262L242.314 182.372C242.301 182.553 242.293 182.733 242.292 182.912C242.303 183.09 242.319 183.248 242.337 183.386C242.397 183.825 242.537 184.151 242.758 184.364C242.979 184.577 243.309 184.653 243.748 184.593C244.376 184.508 244.897 184.156 245.311 183.537C245.555 183.171 245.745 182.781 245.88 182.366C246.026 181.937 246.11 181.523 246.133 181.124L246.474 175.746L248.432 175.48L247.905 183.855L249.166 183.683L249.069 185.364L247.563 185.569C247.124 185.629 246.763 185.563 246.481 185.372C246.21 185.166 246.047 184.862 245.993 184.46C245.971 184.297 245.964 184.106 245.972 183.888L245.979 183.657L245.885 183.669C245.624 184.472 245.282 185.107 244.86 185.573C244.436 186.027 243.872 186.302 243.169 186.398C242.366 186.507 241.726 186.358 241.248 185.95C240.784 185.54 240.495 184.921 240.382 184.093C240.353 183.88 240.336 183.665 240.332 183.448C240.328 183.231 240.334 182.994 240.35 182.736L240.732 176.528L242.69 176.262ZM254.942 184.794C253.85 184.943 252.918 184.718 252.146 184.121C251.373 183.51 250.895 182.533 250.712 181.19C250.595 180.337 250.606 179.524 250.744 178.751C250.88 177.965 251.13 177.266 251.494 176.654C251.858 176.042 252.32 175.538 252.879 175.142C253.45 174.732 254.105 174.477 254.846 174.376C255.749 174.253 256.52 174.372 257.157 174.732C257.807 175.091 258.262 175.617 258.522 176.311L256.974 177.193C256.776 176.772 256.523 176.461 256.215 176.261C255.917 176.045 255.504 175.974 254.977 176.046C254.3 176.138 253.776 176.426 253.408 176.911C253.039 177.396 252.833 178.044 252.791 178.855L252.691 180.518C252.671 180.84 252.677 181.121 252.71 181.359C252.792 181.962 253.015 182.43 253.38 182.764C253.744 183.085 254.252 183.201 254.904 183.112C255.381 183.047 255.77 182.853 256.072 182.531C256.385 182.207 256.67 181.715 256.925 181.054L258.529 181.564C258.234 182.499 257.786 183.244 257.184 183.799C256.58 184.341 255.833 184.673 254.942 184.794ZM260.83 173.791L262.788 173.524L262.538 177.604L264.119 177.389L266.025 174.061C266.251 173.66 266.487 173.372 266.732 173.198C266.989 173.022 267.337 172.905 267.776 172.845L268.774 172.709L268.658 174.393L267.661 174.529L266.188 177.088C266.021 177.367 265.857 177.574 265.697 177.711C265.548 177.834 265.356 177.93 265.123 178L265.117 178.097C265.339 178.131 265.528 178.207 265.685 178.326C265.854 178.444 266.024 178.657 266.194 178.966L267.456 181.192L268.454 181.056L268.357 182.737L267.472 182.858C267.02 182.919 266.641 182.856 266.334 182.667C266.038 182.465 265.763 182.138 265.51 181.687L264.017 179.033L262.436 179.248L262.163 183.581L260.205 183.847L260.83 173.791ZM276.697 171.63L278.787 171.345L274.021 183.941C273.89 184.291 273.751 184.591 273.606 184.841C273.474 185.089 273.311 185.303 273.119 185.483C272.938 185.66 272.721 185.799 272.466 185.897C272.212 186.009 271.916 186.087 271.577 186.133L270.09 186.336L270.19 184.673L271.978 184.43L272.665 182.572L269.788 172.571L271.708 172.309L272.884 176.579L273.731 180.126L273.825 180.113L275.049 176.284L276.697 171.63ZM283.714 180.875C282.622 181.024 281.69 180.8 280.919 180.202C280.145 179.591 279.667 178.614 279.484 177.271C279.368 176.418 279.378 175.605 279.516 174.832C279.652 174.046 279.902 173.347 280.266 172.735C280.63 172.123 281.092 171.619 281.652 171.223C282.222 170.813 282.878 170.558 283.618 170.457C284.522 170.334 285.292 170.453 285.929 170.813C286.579 171.172 287.034 171.698 287.295 172.392L285.747 173.274C285.549 172.853 285.296 172.542 284.987 172.342C284.689 172.126 284.277 172.055 283.75 172.127C283.072 172.219 282.549 172.507 282.18 172.992C281.812 173.477 281.606 174.125 281.563 174.936L281.463 176.599C281.443 176.921 281.45 177.202 281.482 177.44C281.564 178.043 281.788 178.511 282.153 178.845C282.516 179.166 283.024 179.282 283.677 179.193C284.154 179.128 284.543 178.934 284.844 178.612C285.158 178.288 285.442 177.796 285.697 177.135L287.301 177.645C287.006 178.58 286.558 179.325 285.956 179.88C285.353 180.422 284.605 180.754 283.714 180.875ZM292.833 179.633C291.741 179.782 290.809 179.557 290.038 178.959C289.264 178.349 288.786 177.372 288.603 176.029C288.487 175.176 288.497 174.363 288.635 173.59C288.771 172.804 289.021 172.105 289.385 171.493C289.749 170.881 290.211 170.377 290.771 169.981C291.341 169.571 291.997 169.316 292.737 169.215C293.641 169.092 294.411 169.211 295.048 169.571C295.698 169.93 296.153 170.456 296.414 171.149L294.866 172.031C294.668 171.611 294.415 171.3 294.106 171.099C293.808 170.884 293.396 170.813 292.869 170.885C292.191 170.977 291.668 171.265 291.299 171.75C290.931 172.235 290.725 172.883 290.682 173.694L290.582 175.357C290.562 175.679 290.569 175.96 290.601 176.198C290.683 176.801 290.907 177.269 291.272 177.602C291.635 177.924 292.143 178.04 292.796 177.951C293.273 177.886 293.662 177.692 293.963 177.37C294.277 177.046 294.561 176.554 294.816 175.892L296.42 176.403C296.125 177.338 295.677 178.083 295.075 178.638C294.472 179.18 293.724 179.512 292.833 179.633ZM300.377 170.073L297.384 170.48L297.5 168.796L305.445 167.714L305.329 169.398L302.335 169.806L301.808 178.181L299.85 178.448L300.377 170.073ZM307.27 167.466L311.845 166.843C312.623 166.737 313.258 166.848 313.75 167.177C314.241 167.494 314.531 167.985 314.622 168.65C314.711 169.303 314.578 169.877 314.224 170.373C313.87 170.868 313.362 171.225 312.701 171.443L312.693 171.521C313.284 171.543 313.74 171.698 314.06 171.987C314.381 172.275 314.573 172.652 314.636 173.116C314.696 173.555 314.671 173.981 314.56 174.392C314.463 174.802 314.29 175.177 314.043 175.517C313.795 175.858 313.476 176.144 313.086 176.376C312.695 176.608 312.249 176.759 311.747 176.827L306.645 177.522L307.27 167.466ZM311.217 175.327C311.669 175.265 312.019 175.115 312.268 174.877C312.517 174.638 312.66 174.331 312.698 173.955C312.706 173.826 312.708 173.698 312.704 173.571C312.71 173.43 312.708 173.321 312.698 173.246C312.655 172.932 312.517 172.715 312.283 172.593C312.06 172.457 311.766 172.414 311.402 172.464L308.842 172.812L308.657 175.676L311.217 175.327ZM311.309 171.077C311.698 171.024 312.024 170.883 312.287 170.656C312.561 170.414 312.708 170.087 312.729 169.675C312.74 169.571 312.746 169.468 312.744 169.366C312.742 169.251 312.735 169.157 312.725 169.081C312.691 168.83 312.565 168.656 312.347 168.557C312.127 168.447 311.848 168.414 311.509 168.461L309.099 168.789L308.937 171.4L311.309 171.077ZM322.843 165.344L324.933 165.06L320.167 177.655C320.036 178.006 319.898 178.306 319.753 178.555C319.62 178.804 319.458 179.017 319.265 179.197C319.085 179.375 318.867 179.513 318.612 179.612C318.359 179.723 318.062 179.802 317.724 179.848L316.236 180.051L316.336 178.388L318.124 178.144L318.811 176.287L315.934 166.286L317.854 166.024L319.03 170.293L319.877 173.84L319.972 173.828L321.195 169.998L322.843 165.344ZM327.947 170.421L328.158 167.324C329.166 167.123 329.944 166.781 330.492 166.297C331.052 165.812 331.358 165.246 331.411 164.599C331.424 164.508 331.428 164.393 331.421 164.253C331.415 164.113 331.405 163.993 331.391 163.892C331.325 163.403 331.117 163.048 330.767 162.827C330.428 162.592 329.995 162.51 329.468 162.582C328.828 162.669 328.339 162.928 328.001 163.357C327.662 163.774 327.414 164.3 327.257 164.935L325.522 164.443C325.786 163.473 326.226 162.666 326.841 162.019C327.467 161.359 328.338 160.953 329.455 160.8C330.56 160.65 331.47 160.807 332.185 161.272C332.9 161.737 333.323 162.447 333.453 163.401C333.523 163.915 333.491 164.431 333.357 164.948C333.234 165.45 333.016 165.921 332.705 166.36C332.407 166.797 332.026 167.187 331.561 167.532C331.097 167.876 330.571 168.146 329.984 168.341L329.867 170.16L327.947 170.421ZM328.765 174.739C328.364 174.794 328.057 174.746 327.845 174.596C327.632 174.446 327.508 174.239 327.472 173.976C327.459 173.875 327.449 173.755 327.443 173.615C327.447 173.461 327.455 173.332 327.467 173.229C327.485 172.894 327.592 172.598 327.787 172.341C327.993 172.07 328.328 171.903 328.792 171.84C329.194 171.785 329.501 171.833 329.713 171.983C329.925 172.133 330.049 172.34 330.085 172.603C330.097 172.691 330.101 172.812 330.096 172.966C330.102 173.106 330.101 173.234 330.091 173.351C330.073 173.685 329.967 173.987 329.773 174.257C329.578 174.513 329.242 174.674 328.765 174.739Z" fill="#42FF58"/>
</svg>
