<svg width="273" height="165" viewBox="0 0 273 165" fill="none" xmlns="http://www.w3.org/2000/svg">
<path d="M266.764 90.3699C265.534 110.245 250.081 127.555 225.652 139.378C201.255 151.186 168.108 157.403 132.004 155.169C95.8992 152.934 63.7719 142.676 41.0171 127.95C18.2322 113.204 5.03236 94.1211 6.26253 74.2461C7.4927 54.3711 22.9451 37.0614 47.3745 25.2379C71.7717 13.43 104.919 7.21276 141.023 9.44745C177.127 11.6821 209.255 21.9396 232.009 36.6659C254.794 51.4117 267.994 70.4949 266.764 90.3699Z" fill="#42FF58" stroke="black" stroke-width="2"/>
<path d="M73.8931 61.621L75.2396 61.7043L78.864 50.2023L77.5176 50.1189L77.7554 49.3532L83.5393 49.7112C84.4243 49.7659 85.1 50.0235 85.5664 50.4839C86.0337 50.9316 86.2411 51.579 86.1887 52.426C86.1331 53.3236 85.8061 54.0966 85.2075 54.7448C84.609 55.3931 83.8278 55.8143 82.864 56.0085L82.8202 56.1009C83.4666 56.3186 83.9532 56.6597 84.2798 57.1241C84.6064 57.5885 84.7493 58.1494 84.7086 58.8068C84.6766 59.3251 84.5374 59.8305 84.2912 60.3229C84.0576 60.8161 83.745 61.2536 83.3533 61.6354C82.9624 62.0047 82.5063 62.3001 81.9849 62.5216C81.4762 62.7439 80.9248 62.8367 80.3306 62.7999L73.6554 62.3868L73.8931 61.621ZM76.8751 61.7294L79.7955 61.9102C80.4909 61.9532 81.0921 61.7747 81.5991 61.3746C82.1187 60.9752 82.4949 60.4338 82.7276 59.7502C82.8025 59.5645 82.881 59.3218 82.963 59.0223C83.0576 58.7236 83.1116 58.4668 83.1249 58.2519C83.157 57.7335 83.037 57.3136 82.765 56.9922C82.5065 56.659 82.0927 56.4747 81.5238 56.4395L78.6034 56.2587L76.8751 61.7294ZM78.8648 55.4183L81.5197 55.5826C82.1519 55.6217 82.7143 55.4535 83.2071 55.0779C83.7007 54.6896 84.0426 54.1905 84.2326 53.5804C84.2941 53.4065 84.3655 53.1761 84.4467 52.8893C84.5406 52.6032 84.5941 52.3527 84.6074 52.1378C84.6325 51.7332 84.5339 51.3781 84.3117 51.0725C84.0903 50.7542 83.6951 50.5774 83.1262 50.5422L80.4523 50.3767L78.8648 55.4183ZM88.3228 63.523C87.678 63.4831 87.2247 63.2203 86.9629 62.7345C86.7018 62.2361 86.5987 61.5444 86.6535 60.6595C86.6855 60.1411 86.7698 59.6006 86.9061 59.038C87.0425 58.4753 87.2227 57.9217 87.4468 57.3772C87.6708 56.8327 87.9376 56.3162 88.247 55.8277C88.5691 55.34 88.9189 54.9174 89.2963 54.5601C89.6864 54.2035 90.1098 53.9251 90.5663 53.7249C91.0229 53.5248 91.504 53.4403 92.0097 53.4716C92.5787 53.5068 93.0129 53.667 93.3126 53.952C93.613 54.2244 93.8289 54.6312 93.9604 55.1724L94.1121 55.1818L94.954 53.8823L95.7505 53.9316L92.9693 62.5733L93.3013 62.7461L95.6171 60.7003L96.0499 61.0888L94.606 62.5794C94.1181 63.0822 93.7295 63.4135 93.4404 63.5733C93.1513 63.7331 92.874 63.8047 92.6085 63.7883C92.2293 63.7648 91.9574 63.6465 91.7929 63.4333C91.6419 63.2082 91.5754 62.9502 91.5933 62.6594C91.602 62.5204 91.6248 62.3568 91.6618 62.1687C91.7115 61.9814 91.7525 61.8317 91.7848 61.7195L92.3502 59.9651L92.2021 59.8988C91.9014 60.4513 91.6034 60.9595 91.3082 61.4235C91.0264 61.8756 90.7232 62.2629 90.3986 62.5855C90.0875 62.8962 89.7617 63.1362 89.4213 63.3055C89.0808 63.4748 88.7147 63.5473 88.3228 63.523ZM88.9099 62.3411C89.1754 62.3575 89.4531 62.2795 89.7429 62.1071C90.0336 61.922 90.3214 61.6797 90.6065 61.38C90.905 61.0685 91.1868 60.718 91.4521 60.3283C91.73 59.9394 91.983 59.5426 92.2111 59.1379C92.4526 58.7213 92.6614 58.3218 92.8373 57.9393C93.0267 57.5449 93.1751 57.1987 93.2823 56.9008L93.3746 56.64C93.5892 56.0441 93.6074 55.5439 93.4294 55.1395C93.2648 54.7232 92.9044 54.4978 92.3481 54.4634C91.6654 54.4212 91.0208 54.6858 90.4144 55.2575C89.8079 55.8291 89.3106 56.6867 88.9226 57.8302C88.8595 58.0294 88.7881 58.2597 88.7085 58.5213C88.6415 58.7837 88.5741 59.0524 88.5063 59.3274C88.4385 59.6024 88.3778 59.8651 88.3243 60.1156C88.2833 60.3669 88.2574 60.5811 88.2464 60.758C88.2159 61.2511 88.243 61.6335 88.3277 61.9053C88.4124 62.177 88.6065 62.3223 88.9099 62.3411ZM97.1588 64.07C96.7037 64.0418 96.3512 63.8931 96.1013 63.6238C95.8515 63.3545 95.7379 63.0365 95.7606 62.6699C95.7833 62.3033 95.9159 62.0069 96.1583 61.7808C96.3881 61.5539 96.6737 61.451 97.015 61.4721C97.2931 61.4893 97.503 61.5848 97.6445 61.7585C97.7987 61.9331 97.868 62.1468 97.8523 62.3996C97.8414 62.5766 97.7996 62.739 97.727 62.8868C97.6544 63.0346 97.5648 63.1496 97.4582 63.2318L97.5661 63.3337C97.7304 63.3439 97.9137 63.2537 98.1158 63.0632C98.2367 62.9564 98.3598 62.8117 98.4853 62.6292C98.6116 62.4339 98.749 62.1632 98.8973 61.8171C99.0583 61.4717 99.2318 61.0255 99.418 60.4787C99.6168 59.9326 99.8494 59.249 100.116 58.4279L101.182 55.0483L99.9681 54.9731L100.206 54.2074L103.164 54.3905L103.585 60.8127L103.68 60.8186L108.152 54.6992L110.086 54.8189L107.343 63.4629L107.675 63.6358L109.991 61.5899L110.423 61.9784L108.98 63.4691C108.504 63.9727 108.109 64.3036 107.795 64.4618C107.493 64.6208 107.21 64.6921 106.944 64.6756C106.577 64.6529 106.299 64.5342 106.109 64.3194C105.933 64.0927 105.855 63.815 105.876 63.4863C105.884 63.3473 105.905 63.209 105.939 63.0715C105.987 62.9221 106.027 62.785 106.06 62.6601L108.048 56.368L107.954 56.3621L106.724 58.0754L102.375 64.0692L101.966 57.7619L101.885 55.9865L101.771 55.9795L101.038 58.2946C100.756 59.1655 100.507 59.8988 100.293 60.4947C100.091 61.0914 99.8947 61.5932 99.7045 62.0003C99.5278 62.3954 99.3557 62.7148 99.1884 62.9582C99.021 63.2017 98.8501 63.4005 98.6755 63.5547C98.4473 63.7563 98.2104 63.8939 97.9647 63.9675C97.7182 64.0538 97.4496 64.088 97.1588 64.07ZM120.991 65.5451C120.726 65.5286 120.509 65.4454 120.341 65.2954C120.172 65.1454 120.067 64.9041 120.024 64.5714L119.54 60.6962L119.412 60.6121L118.104 60.5311L116.682 65.0499L115.165 64.956L117.842 56.4601L116.135 56.3545L116.328 55.7002L119.786 55.1908L118.365 59.6907L119.067 59.7341C119.218 59.7435 119.372 59.7213 119.528 59.6674C119.696 59.6144 119.867 59.5171 120.041 59.3756C120.228 59.2222 120.425 59.0186 120.631 58.7648C120.85 58.4992 121.087 58.1649 121.34 57.7617C121.623 57.297 121.881 56.9132 122.116 56.6105C122.363 56.3085 122.593 56.0689 122.807 55.8918C123.034 55.7155 123.251 55.5957 123.458 55.5323C123.677 55.4698 123.914 55.4463 124.166 55.462C124.571 55.487 124.886 55.6207 125.112 55.8632C125.339 56.093 125.442 56.3785 125.421 56.7199C125.4 57.0612 125.268 57.3513 125.025 57.59C124.795 57.8169 124.509 57.9198 124.168 57.8987C123.877 57.8807 123.655 57.7844 123.5 57.6099C123.359 57.4362 123.296 57.2229 123.312 56.97C123.323 56.793 123.357 56.6429 123.416 56.5196C123.487 56.3844 123.563 56.2876 123.643 56.2291L123.555 56.1094C123.437 56.1783 123.317 56.266 123.196 56.3728C123.089 56.4677 122.973 56.5937 122.849 56.7511C122.725 56.9084 122.587 57.0965 122.434 57.3155C122.281 57.5218 122.113 57.7779 121.929 58.0838C121.691 58.4497 121.488 58.7481 121.322 58.9789C121.155 59.2098 121.004 59.3971 120.868 59.541C120.733 59.6722 120.6 59.7719 120.469 59.8399C120.35 59.9087 120.214 59.9574 120.06 59.9859L120.054 60.0807C120.229 60.1296 120.377 60.1959 120.499 60.2796C120.621 60.3506 120.723 60.4521 120.804 60.584C120.884 60.7159 120.95 60.8849 121.001 61.0911C121.052 61.2847 121.1 61.5288 121.146 61.8235L121.469 64.2802L121.768 64.3748L123.622 62.7192L124.051 63.1646L122.914 64.3125C122.439 64.8161 122.063 65.1545 121.785 65.3277C121.522 65.4891 121.257 65.5615 120.991 65.5451ZM127.287 65.9348C126.642 65.8949 126.189 65.632 125.927 65.1462C125.666 64.6478 125.563 63.9561 125.618 63.0712C125.65 62.5528 125.734 62.0123 125.871 61.4497C126.007 60.887 126.187 60.3334 126.411 59.7889C126.635 59.2444 126.902 58.7279 127.212 58.2394C127.534 57.7517 127.883 57.3292 128.261 56.9718C128.651 56.6152 129.074 56.3368 129.531 56.1366C129.987 55.9365 130.469 55.852 130.974 55.8833C131.543 55.9185 131.977 56.0787 132.277 56.3637C132.577 56.6361 132.793 57.0429 132.925 57.5841L133.077 57.5935L133.918 56.294L134.715 56.3433L131.934 64.985L132.266 65.1578L134.582 63.112L135.014 63.5005L133.571 64.9911C133.083 65.4939 132.694 65.8252 132.405 65.985C132.116 66.1448 131.839 66.2165 131.573 66.2C131.194 66.1766 130.922 66.0582 130.757 65.845C130.606 65.6199 130.54 65.3619 130.558 65.0712C130.566 64.9321 130.589 64.7685 130.626 64.5805C130.676 64.3932 130.717 64.2434 130.749 64.1312L131.315 62.3768L131.167 62.3105C130.866 62.863 130.568 63.3712 130.273 63.8352C129.991 64.2873 129.688 64.6746 129.363 64.9972C129.052 65.3079 128.726 65.5479 128.386 65.7172C128.045 65.8865 127.679 65.959 127.287 65.9348ZM127.874 64.7528C128.14 64.7692 128.418 64.6912 128.707 64.5188C128.998 64.3337 129.286 64.0914 129.571 63.7918C129.869 63.4803 130.151 63.1297 130.417 62.74C130.694 62.3511 130.947 61.9543 131.176 61.5496C131.417 61.1331 131.626 60.7335 131.802 60.351C131.991 59.9566 132.14 59.6104 132.247 59.3125L132.339 59.0517C132.554 58.4558 132.572 57.9557 132.394 57.5512C132.229 57.1349 131.869 56.9096 131.313 56.8751C130.63 56.8329 129.985 57.0976 129.379 57.6692C128.772 58.2408 128.275 59.0984 127.887 60.2419C127.824 60.4411 127.753 60.6715 127.673 60.933C127.606 61.1954 127.539 61.4641 127.471 61.7391C127.403 62.0141 127.342 62.2768 127.289 62.5273C127.248 62.7786 127.222 62.9928 127.211 63.1698C127.18 63.6628 127.207 64.0452 127.292 64.317C127.377 64.5887 127.571 64.734 127.874 64.7528ZM136.449 66.5018C135.918 66.469 135.515 66.3234 135.239 66.0652C134.976 65.7952 134.857 65.4768 134.879 65.1102C134.896 64.8447 134.999 64.61 135.189 64.406C135.38 64.202 135.639 64.1102 135.968 64.1306C136.233 64.147 136.444 64.2362 136.598 64.398C136.753 64.5599 136.822 64.7863 136.804 65.077C136.795 65.2161 136.755 65.3595 136.682 65.5073C136.623 65.6433 136.533 65.7583 136.413 65.8524L136.462 65.9887C136.69 65.9901 136.922 65.9346 137.158 65.8223C137.394 65.6973 137.622 65.4957 137.842 65.2174C138.076 64.9273 138.303 64.5416 138.523 64.0603C138.756 63.5798 138.989 62.985 139.224 62.2762C139.474 61.5175 139.655 60.8497 139.766 60.2729C139.879 59.6834 139.953 59.1105 139.987 58.5542C140.016 58.0864 139.966 57.7598 139.838 57.5742C139.724 57.3767 139.565 57.2717 139.363 57.2592C139.047 57.2396 138.747 57.367 138.463 57.6414C138.181 57.9031 137.868 58.3469 137.524 58.9729L136.954 58.652C137.411 57.83 137.847 57.2478 138.262 56.9055C138.69 56.5512 139.156 56.3898 139.662 56.4211C140.168 56.4524 140.573 56.6742 140.877 57.0864C141.194 57.4995 141.325 58.1548 141.27 59.0524C141.246 59.4317 141.203 59.8161 141.141 60.2057C141.092 60.5834 141.035 60.8971 140.969 61.1468L142.486 61.2407L143.839 56.908L145.318 56.9996L143.946 61.3311L145.425 61.4227C145.643 60.7762 145.896 60.1763 146.184 59.6231C146.472 59.0698 146.793 58.6011 147.146 58.2169C147.501 57.82 147.881 57.5199 148.287 57.3166C148.707 57.1015 149.15 57.0083 149.618 57.0373C150.149 57.0702 150.546 57.2216 150.808 57.4917C151.072 57.7491 151.192 58.0611 151.169 58.4278C151.153 58.6933 151.049 58.928 150.859 59.132C150.669 59.3359 150.409 59.4277 150.081 59.4074C149.828 59.3917 149.617 59.3026 149.45 59.1399C149.295 58.978 149.226 58.7517 149.244 58.4609C149.253 58.3219 149.293 58.1848 149.365 58.0496C149.438 57.9018 149.534 57.7809 149.654 57.6868L149.605 57.5505C149.377 57.5491 149.145 57.6108 148.909 57.7358C148.686 57.8489 148.458 58.0505 148.224 58.3407C148.003 58.6316 147.782 59.0177 147.562 59.499C147.342 59.9803 147.115 60.5754 146.88 61.2843C146.643 62.0437 146.468 62.7182 146.355 63.3077C146.244 63.8846 146.171 64.4385 146.138 64.9695C146.109 65.4499 146.151 65.7888 146.266 65.9863C146.394 66.1719 146.584 66.2725 146.837 66.2882C147.166 66.3085 147.465 66.1875 147.735 65.925C148.019 65.6506 148.339 65.2009 148.695 64.5757L149.265 64.8965C148.808 65.7185 148.365 66.3066 147.937 66.6609C147.523 67.0032 147.056 67.1584 146.538 67.1263C145.982 67.0919 145.545 66.8681 145.228 66.4551C144.923 66.0428 144.8 65.3752 144.857 64.4523C144.88 64.0857 144.923 63.695 144.987 63.2801C145.05 62.8652 145.124 62.4891 145.209 62.1517L143.711 62.0589L142.266 66.6335L140.806 66.5431L142.25 61.9686L140.771 61.877C140.536 62.5985 140.267 63.2545 139.964 63.8449C139.674 64.4235 139.346 64.9171 138.978 65.3258C138.623 65.7227 138.23 66.0283 137.798 66.2427C137.379 66.4452 136.93 66.5316 136.449 66.5018ZM153.544 67.5599C152.684 67.5067 152.08 67.2219 151.731 66.7053C151.383 66.1888 151.239 65.4312 151.301 64.4324C151.33 63.9646 151.399 63.4613 151.509 62.9223C151.631 62.3842 151.797 61.8551 152.007 61.3351C152.217 60.8024 152.471 60.2978 152.767 59.8211C153.076 59.3326 153.426 58.9101 153.816 58.5535C154.219 58.1977 154.661 57.9205 155.143 57.7219C155.637 57.5241 156.182 57.4436 156.776 57.4803C157.041 57.4968 157.305 57.5448 157.567 57.6245C157.842 57.6922 158.088 57.809 158.306 57.9748C158.525 58.128 158.697 58.329 158.821 58.5778C158.958 58.8274 159.015 59.1355 158.992 59.5021C158.97 59.8688 158.859 60.2236 158.66 60.5666C158.474 60.9104 158.163 61.2148 157.728 61.4798C157.293 61.7447 156.715 61.9564 155.994 62.1149C155.286 62.2741 154.405 62.3592 153.351 62.3701C153.239 62.7566 153.131 63.1624 153.029 63.5875C152.94 64.0008 152.884 64.3844 152.862 64.7384C152.829 65.2694 152.905 65.6929 153.088 66.0088C153.285 66.3129 153.611 66.479 154.066 66.5072C154.635 66.5424 155.194 66.3358 155.742 65.8875C156.302 65.44 156.85 64.8012 157.383 63.9712L157.953 64.2921C157.6 64.8794 157.257 65.3912 156.926 65.8275C156.595 66.2512 156.25 66.5979 155.89 66.8676C155.544 67.1254 155.178 67.312 154.79 67.4276C154.414 67.544 153.999 67.5881 153.544 67.5599ZM153.521 61.7905C154.87 61.7217 155.86 61.5101 156.491 61.1558C157.135 60.8022 157.479 60.2651 157.524 59.5445C157.546 59.1905 157.482 58.8946 157.331 58.6569C157.195 58.4073 156.911 58.2692 156.481 58.2426C156.203 58.2254 155.934 58.2722 155.673 58.3829C155.413 58.4811 155.161 58.6685 154.915 58.9452C154.669 59.2219 154.431 59.5942 154.199 60.062C153.967 60.5173 153.741 61.0934 153.521 61.7905ZM171.205 68.6531C170.826 68.6296 170.548 68.5045 170.372 68.2779C170.196 68.0386 170.118 67.7735 170.136 67.4828C170.144 67.3437 170.166 67.1991 170.2 67.0489C170.235 66.8988 170.275 66.7617 170.321 66.6376L172.367 60.6535C172.415 60.4915 172.443 60.3473 172.451 60.2209C172.473 59.8543 172.308 59.66 171.954 59.6381C171.612 59.617 171.21 59.7634 170.746 60.0773C170.296 60.3794 169.839 60.7953 169.374 61.325C168.923 61.8554 168.492 62.4633 168.081 63.1486C167.684 63.8346 167.366 64.5511 167.13 65.2979L166.232 68.1168L164.715 68.0229L167.13 60.3675C167.193 60.1684 167.229 60.0119 167.236 59.8981C167.258 59.5315 167.093 59.3372 166.739 59.3153C166.41 59.295 166.02 59.4422 165.569 59.7569C165.119 60.059 164.662 60.4749 164.197 61.0045C163.734 61.5216 163.297 62.129 162.885 62.827C162.475 63.5123 162.151 64.2283 161.915 64.9751L161.017 67.794L159.5 67.7001L162.177 59.2043L160.47 59.0986L160.663 58.4443L164.083 57.9326L162.855 61.7781L163.003 61.8444C163.298 61.3804 163.6 60.9231 163.907 60.4726C164.227 60.0102 164.563 59.6058 164.915 59.2595C165.267 58.9006 165.64 58.6191 166.033 58.415C166.427 58.1983 166.852 58.104 167.307 58.1321C167.825 58.1642 168.189 58.339 168.397 58.6565C168.62 58.9622 168.716 59.3489 168.687 59.8167C168.679 59.9557 168.657 60.1066 168.621 60.2694C168.598 60.433 168.556 60.6017 168.495 60.7756L168.071 62.0819L168.219 62.1482C168.515 61.6716 168.817 61.208 169.124 60.7574C169.444 60.3077 169.779 59.9096 170.131 59.5633C170.483 59.2044 170.856 58.9229 171.249 58.7188C171.642 58.5147 172.067 58.4268 172.522 58.4549C173.065 58.4886 173.448 58.6645 173.669 58.9828C173.904 59.2893 174.008 59.67 173.979 60.1252C173.962 60.4033 173.892 60.7226 173.768 61.0829L171.623 67.4416L171.955 67.6144L174.271 65.5686L174.704 65.957L173.26 67.4477C172.784 67.9513 172.389 68.2822 172.075 68.4404C171.761 68.5986 171.471 68.6695 171.205 68.6531ZM177.952 69.0707C177.118 69.019 176.519 68.7409 176.157 68.2362C175.808 67.7197 175.663 66.9873 175.722 66.0391C175.752 65.5587 175.821 65.049 175.931 64.5101C176.054 63.9593 176.214 63.4172 176.412 62.8837C176.623 62.3511 176.876 61.8464 177.172 61.3698C177.469 60.8805 177.806 60.4572 178.184 60.0998C178.575 59.7306 179.011 59.4467 179.493 59.2481C179.975 59.0368 180.501 58.9488 181.07 58.984C181.765 59.0271 182.311 59.2385 182.706 59.6183C183.102 59.9855 183.283 60.4409 183.25 60.9845C183.224 61.4017 183.082 61.7419 182.825 62.0052C182.58 62.2693 182.255 62.3888 181.851 62.3637C181.522 62.3434 181.287 62.2463 181.145 62.0726C181.017 61.8996 180.96 61.6867 180.976 61.4339C180.993 61.1557 181.11 60.8965 181.328 60.6562C181.547 60.4032 181.891 60.2786 182.36 60.2822L182.369 60.1495C182.091 59.9166 181.668 59.7825 181.099 59.7473C180.796 59.7285 180.501 59.7674 180.216 59.864C179.944 59.9613 179.672 60.1475 179.401 60.4227C179.144 60.6859 178.892 61.0574 178.647 61.5372C178.402 62.0043 178.168 62.6053 177.945 63.3403C177.882 63.5394 177.811 63.7635 177.732 64.0124C177.666 64.2621 177.599 64.5182 177.532 64.7805C177.478 65.0437 177.424 65.3068 177.369 65.57C177.328 65.8213 177.301 66.0544 177.288 66.2693C177.256 66.7876 177.331 67.2048 177.515 67.5207C177.712 67.8248 178.032 67.9905 178.474 68.0179C179.043 68.0531 179.601 67.8466 180.15 67.3982C180.71 66.9507 181.257 66.3119 181.791 65.482L182.361 65.8028C182.008 66.3901 181.665 66.9019 181.334 67.3383C181.003 67.762 180.658 68.1086 180.298 68.3783C179.952 68.6361 179.585 68.8228 179.198 68.9384C178.822 69.0547 178.407 69.0988 177.952 69.0707ZM184.169 69.4555C183.575 69.4187 183.206 69.0215 183.063 68.2639L182.775 66.7612L183.376 66.589L183.844 68.2551L184.071 68.2692L185.565 66.2866C185.884 65.8495 186.182 65.538 186.46 65.3522C186.752 65.1545 187.082 65.048 187.451 65.0328L187.457 64.9379C186.678 64.8009 186.068 64.5157 185.625 64.0822C185.195 63.6494 184.999 63.1296 185.036 62.5228C185.061 62.1182 185.168 61.7251 185.357 61.3434C185.545 60.9616 185.82 60.6296 186.18 60.3473C186.541 60.0524 186.98 59.8257 187.497 59.6674C188.027 59.5098 188.646 59.453 189.354 59.4968C189.797 59.5242 190.282 59.5796 190.81 59.663C191.339 59.7338 191.853 59.8354 192.352 59.9679L189.631 68.5562L189.963 68.729L192.279 66.6832L192.712 67.0717L191.268 68.5623C190.793 69.0659 190.398 69.3968 190.083 69.555C189.782 69.714 189.492 69.7849 189.214 69.7677C188.847 69.745 188.576 69.6203 188.399 69.3937C188.224 69.1544 188.145 68.8893 188.163 68.5986C188.172 68.4595 188.193 68.3149 188.228 68.1647C188.275 68.0154 188.315 67.8783 188.348 67.7534L189.107 65.3447L188.045 65.2789L185.635 68.5373C185.331 68.9373 185.08 69.1946 184.883 69.3093C184.685 69.424 184.447 69.4727 184.169 69.4555ZM190.624 60.5082C190.388 60.4301 190.15 60.3773 189.911 60.3498C189.672 60.3096 189.414 60.281 189.136 60.2637C188.491 60.2238 187.97 60.3375 187.573 60.6048C187.189 60.8603 186.932 61.2187 186.802 61.6803C186.739 61.8794 186.69 62.0541 186.655 62.2042C186.633 62.3551 186.616 62.5254 186.604 62.715C186.572 63.246 186.703 63.6793 187 64.015C187.31 64.3387 187.8 64.5213 188.47 64.5628L189.342 64.6168L190.624 60.5082ZM192.229 72.3149C192.694 71.9756 193.117 71.602 193.498 71.1941C193.891 70.7869 194.194 70.4059 194.406 70.051C194.141 70.0346 193.932 69.9265 193.779 69.7267C193.627 69.5142 193.559 69.2879 193.574 69.0477C193.585 68.858 193.635 68.6708 193.723 68.4858C193.839 68.2519 194.009 68.0657 194.233 67.9273C194.471 67.777 194.735 67.7109 195.026 67.7289C195.355 67.7492 195.601 67.866 195.766 68.0792C195.943 68.2933 196.023 68.533 196.007 68.7985C195.999 68.9249 195.955 69.1126 195.877 69.3616C195.784 69.6223 195.634 69.8923 195.427 70.1713C195.231 70.4638 195.004 70.7416 194.747 71.0049C194.489 71.2808 194.213 71.5366 193.919 71.7722C193.638 72.0086 193.365 72.2075 193.101 72.3689L192.229 72.3149ZM91.124 86.7404C90.2138 86.6841 89.5084 86.393 89.008 85.8671C88.5083 85.3285 88.2897 84.5535 88.3523 83.5421C88.3813 83.0743 88.4564 82.5777 88.5778 82.0522C88.7 81.514 88.866 80.985 89.0758 80.4649C89.2991 79.933 89.5587 79.4288 89.8548 78.9522C90.1634 78.4763 90.5191 78.0605 90.9219 77.7047C91.3246 77.3489 91.7732 77.0721 92.2677 76.8743C92.7749 76.6772 93.3255 76.5971 93.9197 76.6339C94.6909 76.6816 95.275 76.8827 95.6718 77.2372C96.0687 77.5918 96.2491 78.0598 96.2131 78.6414C96.1732 79.2861 95.9317 79.8042 95.4887 80.1956C95.0583 80.5877 94.4118 80.884 93.5491 81.0845L93.5243 81.1781C94.1635 81.3065 94.6239 81.5571 94.9055 81.9299C95.187 82.3026 95.3097 82.7798 95.2737 83.3613C95.244 83.8418 95.1143 84.297 94.8846 84.7269C94.655 85.1569 94.353 85.5253 93.9786 85.8321C93.6169 86.1396 93.1896 86.3797 92.6967 86.5522C92.2045 86.7121 91.6803 86.7749 91.124 86.7404ZM91.3239 85.9723C91.8043 86.0021 92.2297 85.8951 92.6001 85.6516C92.9713 85.3953 93.2524 84.9559 93.4432 84.3331C93.5047 84.1593 93.5607 83.9724 93.6112 83.7724C93.6616 83.5725 93.6911 83.403 93.6997 83.2639C93.7349 82.695 93.6272 82.2822 93.3766 82.0256C93.1268 81.7563 92.6795 81.6017 92.0347 81.5618C91.8198 81.5485 91.5598 81.5451 91.2548 81.5516C90.9499 81.5581 90.6504 81.5777 90.3565 81.6102C90.2445 81.984 90.144 82.3776 90.055 82.7909C89.9786 83.2049 89.9283 83.6079 89.904 83.9998C89.8618 84.6825 89.9707 85.1779 90.2308 85.4859C90.5044 85.782 90.8688 85.9442 91.3239 85.9723ZM93.6251 77.3961C93.3343 77.3781 93.0523 77.4241 92.7789 77.5341C92.5064 77.6314 92.241 77.8181 91.9828 78.094C91.7373 78.3707 91.4922 78.7426 91.2475 79.2097C91.0163 79.6649 90.7906 80.2348 90.5706 80.9191C91.8308 80.8575 92.7674 80.6934 93.3804 80.4268C94.0068 80.1483 94.3918 79.7723 94.5353 79.299C94.5818 79.1622 94.6145 79.0437 94.6334 78.9434C94.6531 78.8304 94.6677 78.698 94.677 78.5463C94.6974 78.2176 94.6186 77.9525 94.4407 77.7512C94.2636 77.5372 93.9917 77.4188 93.6251 77.3961ZM100.276 87.3069C99.4665 87.2568 98.8288 87.0016 98.3623 86.5412C97.8959 86.0809 97.6881 85.4398 97.7389 84.618C97.7546 84.3652 97.7986 84.0633 97.8711 83.7125C97.9562 83.3624 98.0682 82.9886 98.207 82.5911L99.6291 78.3769L97.9224 78.2713L98.1152 77.6169L101.63 77.1111L100.092 81.6608L100.201 81.7437C100.901 81.1017 101.655 80.8057 102.464 80.8558C102.755 80.8738 103.031 80.9352 103.291 81.0402C103.551 81.1451 103.77 81.2919 103.949 81.4807C104.14 81.6702 104.284 81.9012 104.382 82.1737C104.479 82.4463 104.516 82.7659 104.494 83.1325C104.46 83.6761 104.332 84.2075 104.109 84.7268C103.9 85.2468 103.611 85.7049 103.244 86.101C102.877 86.497 102.439 86.8062 101.93 87.0286C101.434 87.2517 100.883 87.3444 100.276 87.3069ZM106.192 87.6731C105.826 87.6504 105.554 87.5257 105.378 87.2991C105.202 87.0598 105.124 86.7947 105.142 86.504C105.15 86.3649 105.172 86.2203 105.206 86.0701C105.254 85.9208 105.294 85.7837 105.327 85.6588L107.836 77.7236L109.353 77.8175L106.61 86.4616L106.942 86.6344L109.258 84.5886L109.691 84.9771L108.247 86.4677C107.771 86.9713 107.377 87.3022 107.062 87.4604C106.76 87.6194 106.47 87.6903 106.192 87.6731ZM100.438 86.5364C100.627 86.5482 100.819 86.5283 101.012 86.4768C101.219 86.4135 101.416 86.3051 101.604 86.1517C101.804 85.9865 101.989 85.7631 102.159 85.4818C102.341 85.2011 102.503 84.8494 102.643 84.4266C102.738 84.1279 102.804 83.8719 102.843 83.6585C102.882 83.4325 102.909 83.1994 102.924 82.9592C102.949 82.5673 102.859 82.2635 102.657 82.048C102.455 81.8197 102.171 81.6943 101.805 81.6716C101.286 81.6395 100.814 81.7816 100.389 82.0979C99.963 82.4142 99.663 82.8525 99.4887 83.4128C99.4083 83.6871 99.3421 83.9368 99.2901 84.162C99.2515 84.3754 99.2275 84.5579 99.2181 84.7096C99.1461 85.8727 99.5526 86.4816 100.438 86.5364ZM120.284 88.5453C119.917 88.5226 119.639 88.4039 119.449 88.1891C119.273 87.9624 119.195 87.6847 119.215 87.356C119.224 87.217 119.245 87.0787 119.279 86.9412C119.327 86.7918 119.367 86.6547 119.4 86.5298L120.586 82.7389L120.438 82.6726C119.896 83.4386 119.374 83.9774 118.872 84.289C118.384 84.5887 117.894 84.7233 117.4 84.6928C116.819 84.6568 116.387 84.4651 116.104 84.1176C115.82 83.7701 115.695 83.3372 115.727 82.8189C115.743 82.566 115.77 82.3329 115.808 82.1195C115.86 81.907 115.932 81.6576 116.026 81.3716L116.679 79.4322L114.972 79.3266L115.165 78.6722L118.699 78.1676L117.561 81.4856C117.453 81.7962 117.374 82.0388 117.326 82.2134C117.29 82.3762 117.268 82.5272 117.259 82.6662C117.227 83.1972 117.469 83.4787 117.988 83.5108C118.342 83.5327 118.688 83.4654 119.028 83.3087C119.369 83.1394 119.681 82.9176 119.964 82.6433C120.261 82.3571 120.522 82.0306 120.748 81.6638C120.987 81.2852 121.17 80.8968 121.296 80.4985L121.909 78.5947L123.426 78.6886L120.683 87.3326L121.015 87.5055L123.33 85.4596L123.763 85.8481L122.319 87.3387C121.844 87.8423 121.449 88.1732 121.135 88.3315C120.833 88.4905 120.55 88.5617 120.284 88.5453ZM136.2 89.5304C135.82 89.5069 135.543 89.3819 135.366 89.1552C135.191 88.9159 135.112 88.6509 135.13 88.3601C135.139 88.221 135.16 88.0764 135.195 87.9263C135.23 87.7761 135.27 87.639 135.316 87.5149L137.361 81.5309C137.409 81.3689 137.437 81.2247 137.445 81.0982C137.468 80.7316 137.302 80.5373 136.948 80.5154C136.607 80.4943 136.204 80.6407 135.741 80.9547C135.29 81.2568 134.833 81.6727 134.369 82.2023C133.917 82.7328 133.486 83.3406 133.076 84.0259C132.678 84.712 132.361 85.4284 132.124 86.1752L131.226 88.9942L129.709 88.9003L132.125 81.2449C132.188 81.0457 132.223 80.8892 132.23 80.7755C132.253 80.4088 132.087 80.2146 131.733 80.1926C131.404 80.1723 131.015 80.3195 130.564 80.6342C130.113 80.9363 129.656 81.3522 129.192 81.8819C128.728 82.3989 128.291 83.0064 127.88 83.7043C127.469 84.3896 127.146 85.1056 126.909 85.8525L126.011 88.6714L124.494 88.5775L127.171 80.0816L125.464 79.976L125.657 79.3216L129.077 78.8099L127.85 82.6554L127.998 82.7217C128.293 82.2577 128.594 81.8005 128.901 81.3499C129.222 80.8875 129.558 80.4831 129.909 80.1369C130.261 79.7779 130.634 79.4964 131.027 79.2923C131.421 79.0756 131.846 78.9813 132.301 79.0095C132.82 79.0416 133.183 79.2164 133.392 79.5339C133.614 79.8395 133.711 80.2262 133.682 80.694C133.673 80.8331 133.651 80.984 133.616 81.1468C133.593 81.3103 133.551 81.4791 133.489 81.6529L133.066 82.9593L133.214 83.0255C133.51 82.5489 133.811 82.0853 134.119 81.6348C134.438 81.185 134.774 80.787 135.125 80.4407C135.477 80.0817 135.85 79.8002 136.244 79.5961C136.637 79.3921 137.061 79.3041 137.516 79.3323C138.06 79.3659 138.442 79.5419 138.664 79.8602C138.899 80.1666 139.002 80.5474 138.974 81.0025C138.957 81.2806 138.886 81.5999 138.762 81.9603L136.617 88.3189L136.949 88.4917L139.265 86.4459L139.698 86.8344L138.254 88.325C137.779 88.8286 137.384 89.1595 137.07 89.3177C136.755 89.476 136.465 89.5469 136.2 89.5304ZM143.412 89.1963C143.791 89.2198 144.138 89.1524 144.452 88.9942C144.779 88.8368 145.072 88.6138 145.331 88.3252C145.59 88.0367 145.815 87.6952 146.004 87.3008C146.207 86.8946 146.379 86.4674 146.521 86.0193C146.695 85.4717 146.837 85.0173 146.948 84.6561C147.06 84.2823 147.149 83.9706 147.215 83.7208C147.282 83.4711 147.326 83.2645 147.349 83.1009C147.384 82.9381 147.407 82.7809 147.416 82.6292C147.451 82.0602 147.372 81.5985 147.178 81.2438C146.998 80.8773 146.642 80.6776 146.111 80.6448C145.732 80.6213 145.379 80.6883 145.052 80.8457C144.737 81.0039 144.451 81.2273 144.192 81.5158C143.933 81.8044 143.702 82.1518 143.499 82.558C143.31 82.9524 143.144 83.3737 143.002 83.8217C142.829 84.3694 142.686 84.8301 142.574 85.2039C142.463 85.5651 142.374 85.8705 142.308 86.1202C142.242 86.37 142.191 86.5762 142.155 86.739C142.132 86.9026 142.116 87.0602 142.107 87.2119C142.072 87.7808 142.144 88.2485 142.325 88.6151C142.518 88.9697 142.881 89.1635 143.412 89.1963ZM143.307 89.9703C142.346 89.9108 141.644 89.5628 141.201 88.9262C140.772 88.2778 140.59 87.4289 140.655 86.3796C140.699 85.659 140.86 84.9075 141.137 84.1251C141.414 83.3301 141.789 82.6108 142.26 81.9674C142.745 81.3121 143.317 80.7891 143.975 80.3983C144.648 79.9958 145.395 79.8199 146.216 79.8708C147.177 79.9302 147.872 80.2842 148.302 80.9326C148.745 81.5692 148.934 82.4121 148.869 83.4615C148.824 84.1821 148.663 84.9399 148.385 85.7349C148.108 86.5173 147.728 87.2362 147.243 87.8915C146.771 88.5349 146.2 89.058 145.528 89.4605C144.869 89.8512 144.129 90.0212 143.307 89.9703ZM151.368 83.8637L156.014 84.1512L155.66 85.2715L151.013 84.9839L151.368 83.8637ZM168.794 91.5478C168.414 91.5243 168.137 91.3993 167.96 91.1726C167.785 90.9333 167.706 90.6683 167.724 90.3775C167.732 90.2384 167.754 90.0938 167.789 89.9437C167.823 89.7935 167.864 89.6564 167.909 89.5324L169.955 83.5483C170.003 83.3863 170.031 83.2421 170.039 83.1156C170.062 82.749 169.896 82.5547 169.542 82.5328C169.201 82.5117 168.798 82.6581 168.335 82.9721C167.884 83.2742 167.427 83.6901 166.963 84.2197C166.511 84.7502 166.08 85.358 165.67 86.0433C165.272 86.7294 164.955 87.4458 164.718 88.1926L163.82 91.0116L162.303 90.9177L164.719 83.2623C164.782 83.0631 164.817 82.9066 164.824 82.7929C164.847 82.4262 164.681 82.232 164.327 82.2101C163.998 82.1897 163.608 82.3369 163.157 82.6516C162.707 82.9537 162.25 83.3696 161.786 83.8993C161.322 84.4163 160.885 85.0238 160.474 85.7217C160.063 86.407 159.74 87.123 159.503 87.8699L158.605 90.6888L157.088 90.5949L159.765 82.099L158.058 81.9934L158.251 81.339L161.671 80.8274L160.443 84.6728L160.592 84.7391C160.887 84.2751 161.188 83.8179 161.495 83.3673C161.816 82.9049 162.152 82.5005 162.503 82.1543C162.855 81.7953 163.228 81.5138 163.621 81.3097C164.015 81.093 164.44 80.9987 164.895 81.0269C165.413 81.059 165.777 81.2338 165.986 81.5513C166.208 81.8569 166.305 82.2436 166.276 82.7114C166.267 82.8505 166.245 83.0014 166.21 83.1642C166.187 83.3277 166.145 83.4965 166.083 83.6703L165.66 84.9767L165.808 85.0429C166.104 84.5663 166.405 84.1027 166.712 83.6522C167.032 83.2024 167.368 82.8044 167.719 82.4581C168.071 82.0992 168.444 81.8176 168.837 81.6136C169.231 81.4095 169.655 81.3215 170.11 81.3497C170.654 81.3833 171.036 81.5593 171.258 81.8776C171.493 82.184 171.596 82.5648 171.568 83.0199C171.551 83.298 171.48 83.6173 171.356 83.9777L169.211 90.3363L169.543 90.5091L171.859 88.4633L172.292 88.8518L170.848 90.3424C170.373 90.846 169.978 91.1769 169.663 91.3352C169.349 91.4934 169.059 91.5643 168.794 91.5478ZM176.006 91.2137C176.385 91.2372 176.732 91.1698 177.046 91.0116C177.373 90.8542 177.666 90.6312 177.925 90.3426C178.184 90.0541 178.408 89.7126 178.598 89.3182C178.801 88.912 178.973 88.4848 179.115 88.0367C179.288 87.4891 179.431 87.0347 179.542 86.6735C179.654 86.2997 179.743 85.988 179.809 85.7382C179.875 85.4885 179.92 85.2819 179.943 85.1183C179.978 84.9555 180.001 84.7983 180.01 84.6466C180.045 84.0777 179.966 83.6159 179.772 83.2612C179.592 82.8947 179.236 82.695 178.705 82.6622C178.326 82.6387 177.973 82.7057 177.646 82.8631C177.331 83.0213 177.045 83.2447 176.786 83.5332C176.527 83.8218 176.296 84.1692 176.093 84.5754C175.904 84.9698 175.738 85.3911 175.596 85.8391C175.422 86.3868 175.28 86.8475 175.168 87.2213C175.057 87.5825 174.968 87.8879 174.902 88.1376C174.835 88.3874 174.785 88.5936 174.749 88.7564C174.726 88.92 174.71 89.0776 174.701 89.2293C174.666 89.7982 174.738 90.2659 174.919 90.6325C175.112 90.9871 175.475 91.1809 176.006 91.2137ZM175.901 91.9877C174.94 91.9282 174.238 91.5802 173.795 90.9437C173.366 90.2952 173.184 89.4463 173.248 88.397C173.293 87.6764 173.454 86.9249 173.731 86.1425C174.008 85.3475 174.383 84.6282 174.854 83.9848C175.339 83.3295 175.911 82.8065 176.569 82.4157C177.241 82.0132 177.988 81.8373 178.81 81.8882C179.771 81.9476 180.466 82.3016 180.896 82.95C181.338 83.5866 181.527 84.4295 181.462 85.4789C181.418 86.1995 181.257 86.9573 180.979 87.7524C180.702 88.5347 180.321 89.2536 179.837 89.9089C179.365 90.5523 178.794 91.0754 178.121 91.4779C177.463 91.8687 176.722 92.0386 175.901 91.9877ZM69.5355 108.448C69.1689 108.426 68.8907 108.307 68.7009 108.092C68.5246 107.865 68.4466 107.588 68.4669 107.259C68.4755 107.12 68.4968 106.982 68.5307 106.844C68.578 106.695 68.6182 106.558 68.6513 106.433L69.529 103.632L65.907 103.407L64.4863 107.907L62.9692 107.813L65.6461 99.3175L63.9394 99.2119L64.1322 98.5575L67.6092 98.0494L66.1874 102.568L69.8094 102.792L71.1793 98.4988L72.6964 98.5927L69.9342 107.236L70.2661 107.408L72.5819 105.363L73.0148 105.751L71.5709 107.242C71.0956 107.745 70.7007 108.076 70.3863 108.234C70.0846 108.393 69.801 108.465 69.5355 108.448ZM76.2365 108.863C75.3768 108.81 74.7726 108.525 74.4238 108.008C74.0751 107.492 73.9316 106.734 73.9934 105.735C74.0224 105.268 74.0916 104.764 74.2011 104.225C74.3233 103.687 74.4893 103.158 74.6991 102.638C74.9098 102.105 75.1631 101.601 75.4591 101.124C75.7685 100.636 76.1183 100.213 76.5084 99.8566C76.9112 99.5008 77.3535 99.2236 77.8353 99.025C78.3298 98.8271 78.8742 98.7466 79.4684 98.7834C79.7338 98.7998 79.9974 98.8479 80.259 98.9275C80.534 98.9953 80.7806 99.1121 80.9987 99.2779C81.2177 99.431 81.3893 99.632 81.5135 99.8808C81.6503 100.13 81.7074 100.439 81.6847 100.805C81.662 101.172 81.5512 101.527 81.3523 101.87C81.166 102.213 80.8553 102.518 80.4201 102.783C79.9849 103.048 79.4071 103.259 78.6866 103.418C77.9787 103.577 77.0978 103.662 76.0437 103.673C75.931 104.06 75.8234 104.465 75.7209 104.891C75.6319 105.304 75.5764 105.687 75.5545 106.041C75.5216 106.572 75.597 106.996 75.7804 107.312C75.9774 107.616 76.3034 107.782 76.7585 107.81C77.3274 107.845 77.8859 107.639 78.434 107.191C78.9947 106.743 79.5419 106.104 80.0755 105.274L80.6458 105.595C80.2922 106.182 79.9496 106.694 79.618 107.131C79.2872 107.554 78.9421 107.901 78.5828 108.171C78.2368 108.428 77.8699 108.615 77.482 108.731C77.1068 108.847 76.6916 108.891 76.2365 108.863ZM76.2129 103.094C77.5624 103.025 78.5527 102.813 79.1838 102.459C79.8275 102.105 80.1717 101.568 80.2163 100.848C80.2382 100.494 80.174 100.198 80.0237 99.96C79.8869 99.7104 79.6035 99.5723 79.1737 99.5456C78.8956 99.5284 78.6262 99.5752 78.3655 99.686C78.1056 99.7841 77.8529 99.9715 77.6073 100.248C77.3617 100.525 77.123 100.897 76.8909 101.365C76.6597 101.82 76.4337 102.396 76.2129 103.094ZM85.0416 109.408C84.0555 109.347 83.3473 108.999 82.9171 108.363C82.4877 107.714 82.305 106.872 82.3692 105.835C82.4162 105.077 82.5769 104.325 82.8514 103.581C83.1267 102.823 83.4858 102.148 83.9287 101.553C84.385 100.947 84.9161 100.466 85.5219 100.11C86.1277 99.754 86.7909 99.5983 87.5116 99.6429C88.0805 99.6781 88.5207 99.845 88.8322 100.143C89.1444 100.429 89.3264 100.872 89.3781 101.472L89.5132 101.442C89.6023 101.029 89.6885 100.558 89.7719 100.03C89.8554 99.5024 89.9155 98.9414 89.9523 98.3472C90.0086 97.437 89.8972 96.7765 89.618 96.3658C89.3389 95.9551 88.9464 95.7341 88.4407 95.7028C87.9603 95.6731 87.5037 95.7717 87.0708 95.9987C86.6514 96.2139 86.2064 96.6369 85.7359 97.2677L85.2071 96.8923C85.7376 96.1129 86.2718 95.5812 86.8097 95.2973C87.3602 95.0141 87.9768 94.8936 88.6595 94.9358C89.102 94.9632 89.4956 95.0637 89.8402 95.2374C90.1974 95.4118 90.4915 95.6838 90.7224 96.0534C90.9668 96.4112 91.1409 96.8789 91.2448 97.4564C91.3494 98.0212 91.3759 98.7209 91.3243 99.5553C91.2726 100.39 91.1562 101.245 90.975 102.123C90.7946 102.987 90.5659 103.811 90.2891 104.593C90.0122 105.375 89.6887 106.091 89.3185 106.741C88.9491 107.378 88.5429 107.892 88.0999 108.284C87.6032 108.723 87.0957 109.027 86.5775 109.198C86.0719 109.37 85.5599 109.44 85.0416 109.408ZM85.1087 108.632C85.4879 108.655 85.8344 108.594 86.148 108.449C86.4623 108.29 86.7486 108.073 87.0068 107.797C87.2658 107.509 87.4963 107.168 87.6984 106.774C87.9004 106.38 88.0728 105.953 88.2155 105.493C88.3583 105.032 88.4777 104.639 88.5739 104.315C88.6828 103.992 88.7632 103.718 88.8152 103.493C88.8807 103.256 88.9248 103.055 88.9476 102.892C88.9838 102.716 89.0066 102.553 89.016 102.401C89.0497 101.858 88.9696 101.408 88.7758 101.054C88.5954 100.687 88.2461 100.488 87.7278 100.456C87.3485 100.432 87.0017 100.5 86.6873 100.658C86.3737 100.804 86.0874 101.021 85.8284 101.309C85.5702 101.585 85.3401 101.92 85.1381 102.313C84.936 102.707 84.7636 103.134 84.6209 103.595C84.4782 104.056 84.3524 104.448 84.2435 104.771C84.1473 105.095 84.0665 105.375 84.0011 105.612C83.9491 105.838 83.9049 106.038 83.8687 106.213C83.8459 106.377 83.8298 106.535 83.8204 106.686C83.7867 107.23 83.8601 107.685 84.0405 108.052C84.2343 108.406 84.5903 108.6 85.1087 108.632ZM94.628 109.221C95.0073 109.244 95.3541 109.177 95.6685 109.019C95.9955 108.861 96.2885 108.638 96.5475 108.35C96.8065 108.061 97.0307 107.72 97.2201 107.325C97.4229 106.919 97.5953 106.492 97.7372 106.044C97.9107 105.496 98.0531 105.042 98.1642 104.681C98.2762 104.307 98.3653 103.995 98.4315 103.745C98.4978 103.496 98.5423 103.289 98.5651 103.125C98.6005 102.963 98.623 102.805 98.6324 102.654C98.6676 102.085 98.5883 101.623 98.3945 101.268C98.2141 100.902 97.8584 100.702 97.3275 100.669C96.9482 100.646 96.595 100.713 96.268 100.87C95.9536 101.028 95.667 101.252 95.408 101.54C95.149 101.829 94.9181 102.176 94.7153 102.583C94.5259 102.977 94.3602 103.398 94.2183 103.846C94.0448 104.394 93.902 104.855 93.79 105.228C93.6789 105.59 93.5902 105.895 93.5239 106.145C93.4577 106.394 93.4069 106.601 93.3714 106.764C93.3486 106.927 93.3325 107.085 93.3231 107.236C93.2879 107.805 93.3605 108.273 93.5408 108.64C93.7346 108.994 94.097 109.188 94.628 109.221ZM94.523 109.995C93.5622 109.935 92.8603 109.587 92.4175 108.951C91.988 108.302 91.8058 107.453 91.8708 106.404C91.9154 105.684 92.0761 104.932 92.3529 104.15C92.6306 103.355 93.0051 102.635 93.4764 101.992C93.9611 101.337 94.5329 100.814 95.1916 100.423C95.8638 100.02 96.6107 99.8444 97.4325 99.8953C98.3933 99.9548 99.0884 100.309 99.5179 100.957C99.9607 101.594 100.15 102.437 100.085 103.486C100.04 104.207 99.879 104.964 99.6013 105.759C99.3245 106.542 98.9437 107.261 98.4589 107.916C97.9876 108.559 97.4159 109.082 96.7437 109.485C96.085 109.876 95.3448 110.046 94.523 109.995ZM107.591 110.804C107.211 110.78 106.934 110.655 106.757 110.428C106.582 110.189 106.503 109.924 106.521 109.633C106.53 109.494 106.551 109.35 106.586 109.2C106.621 109.049 106.661 108.912 106.707 108.788L108.752 102.804C108.8 102.642 108.828 102.498 108.836 102.371C108.859 102.005 108.693 101.811 108.339 101.789C108.01 101.768 107.614 101.915 107.151 102.229C106.7 102.531 106.243 102.947 105.779 103.477C105.315 104.006 104.877 104.614 104.467 105.299C104.069 105.985 103.752 106.702 103.515 107.448L102.617 110.267L101.1 110.174L103.777 101.678L102.071 101.572L102.263 100.918L105.683 100.406L104.456 104.251L104.604 104.318C104.9 103.841 105.201 103.378 105.508 102.927C105.829 102.465 106.165 102.06 106.516 101.714C106.868 101.355 107.241 101.073 107.635 100.869C108.028 100.665 108.452 100.577 108.907 100.606C109.451 100.639 109.833 100.815 110.055 101.133C110.29 101.44 110.393 101.821 110.365 102.276C110.348 102.554 110.277 102.873 110.153 103.234L108.008 109.592L108.34 109.765L110.656 107.719L111.089 108.108L109.645 109.598C109.17 110.102 108.775 110.433 108.461 110.591C108.146 110.749 107.856 110.82 107.591 110.804ZM114.814 110.47C115.193 110.494 115.54 110.426 115.854 110.268C116.181 110.111 116.474 109.888 116.733 109.599C116.992 109.311 117.217 108.969 117.406 108.575C117.609 108.169 117.781 107.741 117.923 107.293C118.097 106.746 118.239 106.291 118.35 105.93C118.462 105.556 118.551 105.244 118.618 104.995C118.684 104.745 118.728 104.538 118.751 104.375C118.787 104.212 118.809 104.055 118.818 103.903C118.854 103.334 118.774 102.872 118.58 102.518C118.4 102.151 118.044 101.952 117.513 101.919C117.134 101.895 116.781 101.962 116.454 102.12C116.14 102.278 115.853 102.501 115.594 102.79C115.335 103.078 115.104 103.426 114.901 103.832C114.712 104.226 114.546 104.648 114.404 105.096C114.231 105.643 114.088 106.104 113.976 106.478C113.865 106.839 113.776 107.144 113.71 107.394C113.644 107.644 113.593 107.85 113.557 108.013C113.535 108.177 113.518 108.334 113.509 108.486C113.474 109.055 113.546 109.522 113.727 109.889C113.921 110.244 114.283 110.437 114.814 110.47ZM114.709 111.244C113.748 111.185 113.046 110.837 112.603 110.2C112.174 109.552 111.992 108.703 112.057 107.654C112.101 106.933 112.262 106.181 112.539 105.399C112.817 104.604 113.191 103.885 113.662 103.241C114.147 102.586 114.719 102.063 115.378 101.672C116.05 101.27 116.797 101.094 117.618 101.145C118.579 101.204 119.274 101.558 119.704 102.207C120.147 102.843 120.336 103.686 120.271 104.735C120.226 105.456 120.065 106.214 119.787 107.009C119.51 107.791 119.13 108.51 118.645 109.165C118.174 109.809 117.602 110.332 116.93 110.734C116.271 111.125 115.531 111.295 114.709 111.244ZM127.853 112.058C127.486 112.035 127.208 111.916 127.018 111.702C126.842 111.475 126.764 111.197 126.784 110.868C126.793 110.729 126.814 110.591 126.848 110.454C126.895 110.304 126.935 110.167 126.968 110.042L127.846 107.241L124.224 107.017L122.803 111.517L121.286 111.423L123.963 102.927L122.257 102.821L122.449 102.167L125.926 101.659L124.504 106.178L128.127 106.402L129.496 102.108L131.013 102.202L128.251 110.845L128.583 111.018L130.899 108.972L131.332 109.361L129.888 110.851C129.413 111.355 129.018 111.686 128.703 111.844C128.402 112.003 128.118 112.074 127.853 112.058ZM133.947 112.435C133.416 112.402 133.033 112.232 132.798 111.926C132.577 111.608 132.48 111.221 132.508 110.766C132.525 110.488 132.596 110.169 132.72 109.808L134.798 103.598L133.092 103.492L133.284 102.838L136.818 102.333L134.121 110.238C134.074 110.387 134.046 110.531 134.037 110.67C134.014 111.037 134.18 111.231 134.534 111.253C134.875 111.274 135.271 111.134 135.721 110.832C136.171 110.529 136.628 110.12 137.092 109.603C137.556 109.073 137.987 108.465 138.385 107.779C138.796 107.081 139.12 106.359 139.357 105.612L140.256 102.774L141.773 102.868L139.011 111.511L139.342 111.684L141.658 109.638L142.091 110.027L140.647 111.517C140.172 112.021 139.783 112.352 139.482 112.511C139.18 112.67 138.896 112.741 138.631 112.725C138.252 112.701 137.98 112.583 137.815 112.37C137.664 112.145 137.598 111.887 137.616 111.596C137.624 111.457 137.653 111.294 137.703 111.106C137.753 110.919 137.794 110.769 137.826 110.657L138.416 108.809L138.268 108.743C137.972 109.22 137.664 109.683 137.344 110.132C137.037 110.583 136.708 110.988 136.356 111.347C136.004 111.693 135.632 111.968 135.238 112.172C134.845 112.376 134.415 112.464 133.947 112.435ZM143.189 113.007C142.734 112.979 142.382 112.83 142.132 112.561C141.882 112.292 141.768 111.974 141.791 111.607C141.814 111.24 141.946 110.944 142.189 110.718C142.419 110.491 142.704 110.388 143.046 110.409C143.324 110.426 143.534 110.522 143.675 110.696C143.829 110.87 143.899 111.084 143.883 111.337C143.872 111.514 143.83 111.676 143.758 111.824C143.685 111.972 143.595 112.087 143.489 112.169L143.597 112.271C143.761 112.281 143.944 112.191 144.146 112C144.267 111.894 144.39 111.749 144.516 111.566C144.642 111.371 144.78 111.1 144.928 110.754C145.089 110.409 145.262 109.963 145.449 109.416C145.647 108.87 145.88 108.186 146.147 107.365L147.212 103.985L145.999 103.91L146.236 103.144L149.195 103.328L149.616 109.75L149.711 109.756L154.182 103.636L156.117 103.756L153.373 112.4L153.705 112.573L156.021 110.527L156.454 110.916L155.01 112.406C154.535 112.91 154.14 113.241 153.825 113.399C153.524 113.558 153.24 113.629 152.975 113.613C152.608 113.59 152.33 113.471 152.14 113.256C151.964 113.03 151.886 112.752 151.906 112.423C151.915 112.284 151.936 112.146 151.97 112.009C152.017 111.859 152.057 111.722 152.09 111.597L154.079 105.305L153.984 105.299L152.755 107.013L148.405 113.006L147.996 106.699L147.916 104.924L147.802 104.917L147.069 107.232C146.786 108.103 146.538 108.836 146.323 109.432C146.121 110.028 145.925 110.53 145.735 110.937C145.558 111.333 145.386 111.652 145.219 111.895C145.052 112.139 144.881 112.338 144.706 112.492C144.478 112.693 144.241 112.831 143.995 112.905C143.749 112.991 143.48 113.025 143.189 113.007ZM159.021 113.987C158.376 113.947 157.923 113.684 157.661 113.198C157.4 112.7 157.297 112.008 157.352 111.123C157.384 110.605 157.468 110.065 157.604 109.502C157.741 108.939 157.921 108.386 158.145 107.841C158.369 107.297 158.636 106.78 158.945 106.292C159.267 105.804 159.617 105.381 159.995 105.024C160.385 104.667 160.808 104.389 161.265 104.189C161.721 103.989 162.202 103.904 162.708 103.936C163.277 103.971 163.711 104.131 164.011 104.416C164.311 104.688 164.527 105.095 164.659 105.636L164.81 105.646L165.652 104.346L166.449 104.395L163.667 113.037L163.999 113.21L166.315 111.164L166.748 111.553L165.304 113.043C164.816 113.546 164.428 113.877 164.139 114.037C163.85 114.197 163.572 114.269 163.307 114.252C162.927 114.229 162.656 114.11 162.491 113.897C162.34 113.672 162.274 113.414 162.292 113.123C162.3 112.984 162.323 112.821 162.36 112.633C162.41 112.445 162.451 112.296 162.483 112.183L163.048 110.429L162.9 110.363C162.6 110.915 162.302 111.423 162.006 111.887C161.725 112.339 161.421 112.727 161.097 113.049C160.786 113.36 160.46 113.6 160.119 113.769C159.779 113.939 159.413 114.011 159.021 113.987ZM159.608 112.805C159.874 112.821 160.151 112.743 160.441 112.571C160.732 112.386 161.02 112.144 161.305 111.844C161.603 111.532 161.885 111.182 162.15 110.792C162.428 110.403 162.681 110.006 162.909 109.602C163.151 109.185 163.36 108.786 163.536 108.403C163.725 108.009 163.873 107.663 163.981 107.365L164.073 107.104C164.287 106.508 164.306 106.008 164.128 105.603C163.963 105.187 163.603 104.962 163.046 104.927C162.364 104.885 161.719 105.15 161.113 105.721C160.506 106.293 160.009 107.151 159.621 108.294C159.558 108.493 159.486 108.724 159.407 108.985C159.34 109.248 159.272 109.516 159.204 109.791C159.137 110.066 159.076 110.329 159.022 110.58C158.982 110.831 158.956 111.045 158.945 111.222C158.914 111.715 158.941 112.097 159.026 112.369C159.111 112.641 159.305 112.786 159.608 112.805ZM169.981 114.665C169.121 114.612 168.517 114.327 168.168 113.811C167.82 113.294 167.676 112.537 167.738 111.538C167.767 111.07 167.836 110.567 167.946 110.028C168.068 109.49 168.234 108.96 168.444 108.44C168.654 107.908 168.908 107.403 169.204 106.927C169.513 106.438 169.863 106.016 170.253 105.659C170.656 105.303 171.098 105.026 171.58 104.827C172.074 104.629 172.619 104.549 173.213 104.586C173.478 104.602 173.742 104.65 174.003 104.73C174.278 104.798 174.525 104.914 174.743 105.08C174.962 105.233 175.134 105.434 175.258 105.683C175.395 105.933 175.452 106.241 175.429 106.608C175.406 106.974 175.296 107.329 175.097 107.672C174.91 108.016 174.6 108.32 174.165 108.585C173.729 108.85 173.151 109.062 172.431 109.22C171.723 109.38 170.842 109.465 169.788 109.476C169.675 109.862 169.568 110.268 169.465 110.693C169.376 111.106 169.321 111.49 169.299 111.844C169.266 112.375 169.341 112.798 169.525 113.114C169.722 113.418 170.048 113.584 170.503 113.613C171.072 113.648 171.63 113.441 172.178 112.993C172.739 112.545 173.286 111.907 173.82 111.077L174.39 111.397C174.037 111.985 173.694 112.497 173.362 112.933C173.032 113.357 172.687 113.703 172.327 113.973C171.981 114.231 171.614 114.417 171.226 114.533C170.851 114.649 170.436 114.693 169.981 114.665ZM169.957 108.896C171.307 108.827 172.297 108.616 172.928 108.261C173.572 107.908 173.916 107.37 173.961 106.65C173.983 106.296 173.918 106 173.768 105.762C173.631 105.513 173.348 105.375 172.918 105.348C172.64 105.331 172.371 105.378 172.11 105.488C171.85 105.586 171.597 105.774 171.352 106.051C171.106 106.327 170.867 106.7 170.635 107.167C170.404 107.623 170.178 108.199 169.957 108.896ZM187.642 115.758C187.263 115.735 186.985 115.61 186.809 115.383C186.633 115.144 186.554 114.879 186.572 114.588C186.581 114.449 186.603 114.304 186.637 114.154C186.672 114.004 186.712 113.867 186.758 113.743L188.803 107.759C188.852 107.597 188.88 107.453 188.887 107.326C188.91 106.96 188.744 106.765 188.39 106.743C188.049 106.722 187.647 106.869 187.183 107.183C186.733 107.485 186.276 107.901 185.811 108.43C185.36 108.961 184.929 109.569 184.518 110.254C184.12 110.94 183.803 111.656 183.567 112.403L182.669 115.222L181.152 115.128L183.567 107.473C183.63 107.274 183.665 107.117 183.672 107.004C183.695 106.637 183.529 106.443 183.175 106.421C182.847 106.4 182.457 106.548 182.006 106.862C181.556 107.164 181.098 107.58 180.634 108.11C180.171 108.627 179.733 109.234 179.322 109.932C178.912 110.618 178.588 111.334 178.352 112.081L177.454 114.899L175.937 114.806L178.614 106.31L176.907 106.204L177.1 105.55L180.52 105.038L179.292 108.883L179.44 108.95C179.735 108.486 180.036 108.029 180.343 107.578C180.664 107.116 181 106.711 181.351 106.365C181.704 106.006 182.076 105.724 182.47 105.52C182.864 105.304 183.288 105.209 183.744 105.238C184.262 105.27 184.625 105.444 184.834 105.762C185.056 106.068 185.153 106.454 185.124 106.922C185.116 107.061 185.094 107.212 185.058 107.375C185.035 107.538 184.993 107.707 184.932 107.881L184.508 109.187L184.656 109.254C184.952 108.777 185.254 108.313 185.561 107.863C185.881 107.413 186.216 107.015 186.568 106.669C186.92 106.31 187.293 106.028 187.686 105.824C188.079 105.62 188.503 105.532 188.959 105.56C189.502 105.594 189.885 105.77 190.106 106.088C190.341 106.395 190.444 106.775 190.416 107.231C190.399 107.509 190.328 107.828 190.205 108.188L188.06 114.547L188.392 114.72L190.707 112.674L191.14 113.062L189.696 114.553C189.221 115.057 188.826 115.388 188.512 115.546C188.197 115.704 187.908 115.775 187.642 115.758ZM194.408 116.177C193.548 116.124 192.944 115.839 192.595 115.323C192.246 114.806 192.103 114.048 192.165 113.05C192.194 112.582 192.263 112.079 192.372 111.54C192.495 111.001 192.661 110.472 192.87 109.952C193.081 109.42 193.334 108.915 193.63 108.438C193.94 107.95 194.29 107.527 194.68 107.171C195.082 106.815 195.525 106.538 196.007 106.339C196.501 106.141 197.045 106.061 197.64 106.098C197.905 106.114 198.169 106.162 198.43 106.242C198.705 106.31 198.952 106.426 199.17 106.592C199.389 106.745 199.561 106.946 199.685 107.195C199.822 107.445 199.879 107.753 199.856 108.119C199.833 108.486 199.723 108.841 199.524 109.184C199.337 109.528 199.027 109.832 198.591 110.097C198.156 110.362 197.578 110.574 196.858 110.732C196.15 110.891 195.269 110.977 194.215 110.987C194.102 111.374 193.995 111.78 193.892 112.205C193.803 112.618 193.748 113.002 193.726 113.356C193.693 113.887 193.768 114.31 193.952 114.626C194.149 114.93 194.475 115.096 194.93 115.124C195.499 115.16 196.057 114.953 196.605 114.505C197.166 114.057 197.713 113.418 198.247 112.589L198.817 112.909C198.463 113.497 198.121 114.008 197.789 114.445C197.458 114.869 197.113 115.215 196.754 115.485C196.408 115.743 196.041 115.929 195.653 116.045C195.278 116.161 194.863 116.205 194.408 116.177ZM194.384 110.408C195.734 110.339 196.724 110.127 197.355 109.773C197.999 109.42 198.343 108.882 198.388 108.162C198.409 107.808 198.345 107.512 198.195 107.274C198.058 107.025 197.775 106.886 197.345 106.86C197.067 106.843 196.797 106.889 196.537 107C196.277 107.098 196.024 107.286 195.779 107.562C195.533 107.839 195.294 108.211 195.062 108.679C194.831 109.135 194.605 109.711 194.384 110.408ZM203.43 109.521C204.394 109.53 205.239 109.316 205.964 108.878C206.702 108.429 207.206 107.781 207.474 106.935C207.506 106.823 207.555 106.648 207.62 106.411C207.698 106.175 207.744 105.943 207.759 105.715C207.791 105.197 207.657 104.795 207.357 104.51C207.07 104.226 206.661 104.067 206.13 104.034C205.764 104.012 205.395 104.027 205.023 104.08C204.652 104.133 204.355 104.223 204.131 104.348L204.085 104.479C204.258 104.553 204.391 104.663 204.483 104.808C204.589 104.954 204.633 105.154 204.618 105.406C204.61 105.533 204.576 105.664 204.517 105.8C204.458 105.936 204.374 106.064 204.265 106.184C204.157 106.292 204.024 106.385 203.867 106.464C203.723 106.531 203.55 106.559 203.348 106.546C203.044 106.527 202.81 106.424 202.644 106.236C202.478 106.048 202.404 105.809 202.422 105.518C202.445 105.139 202.587 104.798 202.846 104.497C203.119 104.197 203.458 103.945 203.864 103.742C204.27 103.538 204.711 103.388 205.186 103.29C205.675 103.194 206.146 103.16 206.601 103.188C207.12 103.22 207.558 103.31 207.917 103.46C208.289 103.609 208.581 103.805 208.795 104.047C209.021 104.289 209.181 104.572 209.275 104.895C209.37 105.206 209.407 105.538 209.385 105.892C209.34 106.612 209.155 107.248 208.829 107.799C208.503 108.35 208.087 108.813 207.582 109.188C207.089 109.563 206.538 109.853 205.929 110.056C205.333 110.248 204.737 110.351 204.139 110.364L203.43 112.605L202.481 112.546L203.43 109.521ZM201.868 116.62C201.539 116.6 201.292 116.489 201.127 116.289C200.961 116.088 200.887 115.861 200.902 115.608C200.906 115.545 200.91 115.488 200.913 115.438C200.929 115.375 200.954 115.288 200.986 115.176C201.094 114.865 201.268 114.628 201.506 114.465C201.757 114.303 202.041 114.232 202.357 114.252C202.686 114.272 202.933 114.382 203.098 114.583C203.263 114.784 203.338 115.01 203.322 115.263C203.318 115.326 203.308 115.389 203.292 115.452C203.288 115.502 203.271 115.584 203.238 115.696C203.13 116.006 202.951 116.243 202.7 116.405C202.461 116.568 202.184 116.639 201.868 116.62Z" fill="black"/>
</svg>
