<svg width="309" height="193" viewBox="0 0 309 193" fill="none" xmlns="http://www.w3.org/2000/svg">
<path d="M300.187 83.3406C302.249 105.573 288.111 127.39 263.134 144.663C238.188 161.915 202.612 174.486 162.32 178.223C122.028 181.96 84.7473 176.146 57.0532 163.775C29.3264 151.39 11.4167 132.546 9.35477 110.313C7.29285 88.0809 21.4315 66.2644 46.4078 48.9914C71.3545 31.7389 106.93 19.1679 147.222 15.4311C187.514 11.6943 224.795 17.5083 252.489 29.8788C280.216 42.2639 298.126 61.1081 300.187 83.3406Z" fill="#42FF58" stroke="black" stroke-width="2"/>
<path d="M42.0283 93.4085L43.3715 93.2839L45.1853 81.3614L43.8421 81.486L43.9593 80.6928L52.3214 79.9173L51.8216 83.1693L50.5351 83.2886L50.8869 80.909L46.7815 81.2897L46.0251 86.302L48.5224 86.0704C49.4936 85.9803 50.2594 86.1446 50.8197 86.5633C51.3801 86.982 51.6995 87.6139 51.7779 88.459C51.8083 88.7869 51.7919 89.2273 51.7287 89.7801C51.6781 90.3318 51.5128 90.8815 51.2328 91.429C50.9655 91.9753 50.553 92.4652 49.9953 92.8985C49.449 93.3181 48.7029 93.5718 47.757 93.6595L41.9111 94.2017L42.0283 93.4085ZM47.6213 92.8134C48.3149 92.7491 48.862 92.4757 49.2625 91.9933C49.6756 91.5098 49.9435 90.8998 50.066 90.1633C50.1056 89.9052 50.143 89.6219 50.178 89.3134C50.2129 89.0048 50.217 88.7055 50.1901 88.4154C50.148 87.9613 49.9799 87.5889 49.6858 87.2982C49.4043 87.0063 48.9734 86.8872 48.3933 86.941L45.8771 87.1744L44.9915 93.0573L47.6213 92.8134ZM56.6421 92.2821C57.0205 92.247 57.3528 92.1271 57.6392 91.9225C57.9381 91.7167 58.1934 91.4513 58.4049 91.1264C58.6165 90.8014 58.7855 90.4296 58.9121 90.0108C59.05 89.5782 59.1547 89.1296 59.2261 88.665C59.3134 88.0972 59.3842 87.6263 59.4386 87.2524C59.4918 86.8658 59.5319 86.544 59.559 86.2871C59.586 86.0302 59.5983 85.8192 59.5957 85.654C59.6057 85.4877 59.6037 85.3289 59.5896 85.1775C59.537 84.61 59.3877 84.1659 59.1417 83.8452C58.9071 83.5108 58.525 83.3681 57.9953 83.4173C57.6169 83.4524 57.2782 83.5728 56.9793 83.7786C56.693 83.9833 56.444 84.2481 56.2325 84.573C56.0209 84.8979 55.8461 85.2767 55.7081 85.7093C55.5816 86.1281 55.4826 86.5698 55.4112 87.0343C55.324 87.6022 55.2537 88.0794 55.2005 88.4659C55.1462 88.8399 55.1055 89.1553 55.0784 89.4122C55.0514 89.6692 55.0328 89.8808 55.0228 90.0471C55.0254 90.2122 55.0337 90.3705 55.0477 90.5218C55.1004 91.0894 55.244 91.5404 55.4785 91.8748C55.7245 92.1955 56.1124 92.3312 56.6421 92.2821ZM56.6573 93.063C55.6987 93.1519 54.9518 92.9159 54.4163 92.355C53.8924 91.7802 53.5818 90.9694 53.4847 89.9226C53.4181 89.2037 53.4614 88.4364 53.6147 87.6207C53.7669 86.7925 54.0264 86.0242 54.3932 85.316C54.7715 84.594 55.2561 83.9893 55.8469 83.502C56.4492 83.0009 57.1603 82.7124 57.9801 82.6363C58.9386 82.5474 59.6799 82.7903 60.2039 83.3651C60.7393 83.926 61.0556 84.7299 61.1526 85.7768C61.2193 86.4957 61.1766 87.2693 61.0244 88.0975C60.8711 88.9132 60.6053 89.682 60.227 90.404C59.8602 91.1123 59.3756 91.7169 58.7733 92.218C58.1825 92.7053 57.4771 92.987 56.6573 93.063ZM65.0969 92.2803C64.5671 92.3294 64.1627 92.2207 63.8835 91.954C63.6158 91.6735 63.4609 91.3062 63.4188 90.8522C63.3931 90.5747 63.4137 90.2484 63.4807 89.8733L64.5802 83.4172L62.8775 83.5751L62.9674 82.8989L66.3818 81.8571L64.9312 90.0822C64.9074 90.2371 64.9019 90.3839 64.9148 90.5226C64.9487 90.8884 65.1422 91.0549 65.4954 91.0221C65.8359 90.9906 66.2054 90.7909 66.6038 90.4232C67.0022 90.0555 67.3907 89.5806 67.7692 88.9985C68.1466 88.4038 68.4791 87.7369 68.7667 86.9978C69.0658 86.245 69.2749 85.4814 69.3939 84.7071L69.8461 81.7648L71.3596 81.6244L69.9585 90.5891L70.313 90.7089L72.2869 88.3315L72.7743 88.6488L71.5767 90.3436C71.1844 90.9143 70.8514 91.3014 70.5777 91.5049C70.304 91.7083 70.0347 91.8224 69.7698 91.8469C69.3914 91.882 69.1046 91.8069 68.9093 91.6214C68.7255 91.4222 68.6201 91.1776 68.5932 90.8875C68.5803 90.7488 68.584 90.583 68.6043 90.3903C68.6246 90.1976 68.6421 90.0434 68.6568 89.9275L68.9561 88.0107L68.7995 87.968C68.5802 88.4844 68.3472 88.9894 68.1004 89.483C67.8662 89.9754 67.6027 90.426 67.3098 90.8348C67.0158 91.231 66.6902 91.5601 66.3328 91.8222C65.9755 92.0843 65.5635 92.237 65.0969 92.2803ZM85.631 90.3759C85.2526 90.411 84.9589 90.3301 84.7498 90.1333C84.5396 89.9238 84.421 89.674 84.3941 89.3839C84.3813 89.2452 84.3804 89.0989 84.3916 88.9453C84.4028 88.7916 84.4215 88.6499 84.4476 88.5203L85.5492 82.2929C85.5719 82.1255 85.5773 81.9787 85.5656 81.8525C85.5317 81.4868 85.3382 81.3203 84.985 81.353C84.6445 81.3846 84.2693 81.5911 83.8594 81.9726C83.461 82.3403 83.0731 82.8215 82.6958 83.4162C82.331 84.0098 81.9985 84.6767 81.6983 85.4169C81.4106 86.156 81.2073 86.9126 81.0883 87.6869L80.6343 90.6103L79.1208 90.7507L80.3311 82.815C80.3629 82.6086 80.3735 82.4486 80.363 82.335C80.329 81.9693 80.1355 81.8028 79.7823 81.8355C79.4544 81.8659 79.0918 82.0713 78.6946 82.4516C78.2962 82.8193 77.9083 83.3005 77.5309 83.8952C77.1524 84.4773 76.8136 85.1448 76.5145 85.8977C76.2142 86.6379 76.0046 87.3951 75.8856 88.1694L75.4316 91.0929L73.9181 91.2332L75.2576 82.4269L73.5549 82.5848L73.6449 81.9086L76.9457 80.8774L76.3234 84.8659L76.48 84.9086C76.7004 84.4048 76.9277 83.9067 77.1619 83.4143C77.4076 82.9081 77.6774 82.4569 77.9714 82.0607C78.2642 81.6519 78.5893 81.3165 78.9466 81.0544C79.3028 80.7796 79.7079 80.6212 80.1619 80.5791C80.6791 80.5311 81.0652 80.648 81.3203 80.9296C81.5868 81.1975 81.7417 81.5648 81.785 82.0314C81.7979 82.1702 81.7993 82.3227 81.7893 82.489C81.7919 82.6541 81.7761 82.8273 81.742 83.0086L81.5243 84.3645L81.6809 84.4072C81.9002 83.8907 82.1269 83.3863 82.3611 82.8939C82.6079 82.4003 82.8783 81.9555 83.1723 81.5593C83.4652 81.1505 83.7902 80.815 84.1476 80.5529C84.5049 80.2908 84.9106 80.1387 85.3646 80.0966C85.907 80.0463 86.312 80.1614 86.5797 80.4419C86.8588 80.7086 87.0195 81.0689 87.0616 81.523C87.0873 81.8005 87.0667 82.1267 86.9997 82.5019L85.8575 89.1146L86.2121 89.2344L88.186 86.8569L88.6734 87.1743L87.4758 88.8691C87.0834 89.4398 86.7441 89.8274 86.4578 90.0321C86.1715 90.2367 85.8959 90.3513 85.631 90.3759ZM92.3807 89.7499C91.5231 89.8295 90.8823 89.6408 90.4583 89.184C90.0343 88.7272 89.7761 88.0006 89.6837 87.0043C89.6404 86.5376 89.6314 86.0296 89.6568 85.4802C89.6948 84.9297 89.7775 84.3814 89.905 83.8353C90.0312 83.2766 90.204 82.739 90.4232 82.2225C90.6539 81.6923 90.9346 81.221 91.2653 80.8087C91.6086 80.3953 92.003 80.0534 92.4486 79.7831C92.9068 79.5116 93.4324 79.3484 94.0251 79.2934C94.29 79.2688 94.5578 79.2758 94.8285 79.3143C95.1107 79.339 95.3723 79.4165 95.6133 79.5468C95.8532 79.6645 96.0537 79.8367 96.2146 80.0635C96.3882 80.2891 96.4919 80.5848 96.5259 80.9505C96.5598 81.3163 96.5048 81.6839 96.361 82.0535C96.2298 82.4218 95.9695 82.7703 95.5802 83.099C95.1909 83.4277 94.6525 83.7257 93.9649 83.993C93.2899 84.2592 92.4325 84.4786 91.3927 84.6514C91.3407 85.0506 91.2967 85.4681 91.2608 85.9039C91.2363 86.326 91.2405 86.7136 91.2732 87.0667C91.3224 87.5965 91.4619 88.0033 91.6917 88.2873C91.9331 88.5575 92.2807 88.6715 92.7348 88.6294C93.3024 88.5768 93.8225 88.2869 94.2951 87.7596C94.7804 87.2312 95.2229 86.516 95.6226 85.6139L96.2354 85.8433C95.9763 86.4779 95.7164 87.0363 95.4558 87.5184C95.1941 87.9879 94.9064 88.3835 94.5927 88.7052C94.2905 89.0131 93.9567 89.2539 93.5912 89.4278C93.2383 89.6004 92.8348 89.7078 92.3807 89.7499ZM91.4707 84.0526C92.7936 83.7773 93.7396 83.416 94.3088 82.9689C94.8905 82.5206 95.1481 81.937 95.0814 81.2181C95.0486 80.8649 94.9398 80.5824 94.7547 80.3706C94.5812 80.145 94.28 80.0521 93.8511 80.0919C93.5737 80.1176 93.3146 80.2052 93.0741 80.3547C92.8324 80.4917 92.6114 80.7157 92.4113 81.0268C92.2112 81.338 92.0325 81.7425 91.8751 82.2405C91.7166 82.7259 91.5818 83.3299 91.4707 84.0526ZM100.787 88.9703C99.9542 89.0475 99.3202 88.8646 98.8848 88.4216C98.4608 87.9648 98.205 87.2634 98.1172 86.3175C98.0728 85.8382 98.0632 85.3239 98.0886 84.7746C98.1254 84.2114 98.2007 83.6511 98.3143 83.0935C98.4406 82.5348 98.6134 81.9972 98.8326 81.4808C99.0507 80.9517 99.3188 80.4816 99.6368 80.0705C99.9663 79.6456 100.354 79.298 100.799 79.0277C101.244 78.7447 101.75 78.577 102.317 78.5243C103.011 78.46 103.583 78.5851 104.031 78.8996C104.479 79.2016 104.728 79.6237 104.779 80.1661C104.817 80.5823 104.73 80.9402 104.516 81.2399C104.314 81.5385 104.012 81.7064 103.608 81.7439C103.28 81.7743 103.033 81.7145 102.867 81.5646C102.713 81.4135 102.624 81.2118 102.601 80.9596C102.575 80.6821 102.651 80.4079 102.83 80.1369C103.007 79.8533 103.328 79.6773 103.792 79.6088L103.78 79.4764C103.47 79.2889 103.031 79.2214 102.463 79.2741C102.161 79.3021 101.876 79.3858 101.609 79.525C101.355 79.6631 101.115 79.8889 100.889 80.2024C100.675 80.5021 100.484 80.9078 100.315 81.4196C100.145 81.9188 100.007 82.5486 99.899 83.3091C99.8673 83.5156 99.8316 83.7479 99.7919 84.006C99.7649 84.2629 99.7384 84.5261 99.7125 84.7957C99.6992 85.0641 99.686 85.3324 99.6727 85.6008C99.6709 85.8554 99.6799 86.0899 99.6998 86.3043C99.7477 86.8214 99.8866 87.222 100.117 87.506C100.358 87.7762 100.699 87.8908 101.141 87.8499C101.708 87.7972 102.228 87.5073 102.701 86.98C103.186 86.4516 103.629 85.7364 104.029 84.8343L104.641 85.0637C104.382 85.6983 104.122 86.2567 103.862 86.7388C103.6 87.2083 103.312 87.6039 102.999 87.9256C102.696 88.2335 102.363 88.4743 101.997 88.6482C101.644 88.8208 101.241 88.9282 100.787 88.9703ZM109.709 88.1428C108.877 88.22 108.188 88.0676 107.644 87.6856C107.112 87.3024 106.808 86.7009 106.732 85.8811C106.709 85.6288 106.706 85.3238 106.724 84.9659C106.754 84.6069 106.807 84.2204 106.884 83.8062L107.641 79.4236L105.938 79.5815L106.028 78.9053L109.424 77.8653L108.603 82.5973L108.724 82.6624C109.316 81.9205 110.035 81.5104 110.88 81.432C111.524 81.3723 112.076 81.4992 112.538 81.8126C112.998 82.1134 113.262 82.6295 113.33 83.361C113.38 83.9034 113.335 84.4482 113.195 84.9954C113.068 85.5415 112.847 86.0391 112.532 86.488C112.218 86.937 111.82 87.311 111.339 87.6101C110.87 87.9079 110.327 88.0855 109.709 88.1428ZM109.77 87.3549C109.971 87.3362 110.17 87.2859 110.366 87.2041C110.574 87.1086 110.764 86.97 110.938 86.7885C111.111 86.5944 111.26 86.3453 111.384 86.0412C111.521 85.7359 111.627 85.3635 111.7 84.9242C111.748 84.6145 111.774 84.3512 111.78 84.1345C111.784 83.9051 111.775 83.6706 111.753 83.431C111.716 83.04 111.575 82.7541 111.33 82.5734C111.083 82.38 110.757 82.3021 110.354 82.3395C109.812 82.3898 109.348 82.6045 108.963 82.9836C108.591 83.3616 108.362 83.8408 108.276 84.4212C108.239 84.7046 108.212 84.9615 108.195 85.192C108.19 85.4088 108.194 85.5928 108.208 85.7442C108.316 86.9045 108.836 87.4414 109.77 87.3549ZM121.41 87.0577C120.88 87.1068 120.476 86.998 120.197 86.7313C119.929 86.4508 119.774 86.0836 119.732 85.6295C119.706 85.352 119.727 85.0257 119.794 84.6506L120.893 78.1945L119.191 78.3524L119.28 77.6762L122.695 76.6345L121.244 84.8596C121.22 85.0144 121.215 85.1612 121.228 85.3C121.262 85.6657 121.455 85.8322 121.808 85.7995C122.149 85.7679 122.518 85.5683 122.917 85.2006C123.315 84.8329 123.704 84.358 124.082 83.7759C124.46 83.1811 124.792 82.5142 125.08 81.7752C125.379 81.0224 125.588 80.2588 125.707 79.4845L126.159 76.5422L127.673 76.4018L126.271 85.3665L126.626 85.4862L128.6 83.1088L129.087 83.4262L127.89 85.121C127.497 85.6917 127.164 86.0787 126.891 86.2822C126.617 86.4857 126.348 86.5997 126.083 86.6243C125.704 86.6594 125.418 86.5842 125.222 86.3988C125.038 86.1996 124.933 85.9549 124.906 85.6648C124.893 85.5261 124.897 85.3604 124.917 85.1677C124.938 84.975 124.955 84.8207 124.97 84.7049L125.269 82.788L125.112 82.7453C124.893 83.2618 124.66 83.7668 124.413 84.2603C124.179 84.7527 123.916 85.2033 123.623 85.6121C123.329 86.0083 123.003 86.3374 122.646 86.5996C122.289 86.8617 121.877 87.0144 121.41 87.0577ZM130.536 86.2113C130.057 86.2557 129.679 86.1635 129.404 85.9347C129.115 85.707 128.954 85.4103 128.92 85.0445C128.888 84.6913 128.967 84.385 129.159 84.1255C129.351 83.8533 129.623 83.7009 129.976 83.6681C130.253 83.6424 130.475 83.7045 130.642 83.8544C130.821 84.0032 130.922 84.2037 130.946 84.4559C130.962 84.6325 130.946 84.7994 130.897 84.9566C130.848 85.1138 130.777 85.2412 130.684 85.3389L130.806 85.4229C131.018 85.3778 131.216 85.245 131.399 85.0245C131.548 84.8453 131.681 84.6358 131.799 84.3959C131.929 84.1548 132.057 83.8249 132.184 83.4061C132.309 82.9747 132.431 82.4355 132.549 81.7885C132.68 81.1403 132.82 80.3195 132.97 79.3261L133.371 76.6557L132.16 76.768L132.277 75.9747L138.388 75.408L137.025 84.3692L137.379 84.489L139.353 82.1115L139.84 82.4289L138.643 84.1237C138.251 84.6944 137.911 85.082 137.625 85.2867C137.351 85.4902 137.082 85.6042 136.817 85.6288C136.451 85.6627 136.158 85.5881 135.938 85.405C135.729 85.2081 135.609 84.9457 135.578 84.6178C135.566 84.4791 135.565 84.3392 135.578 84.1981C135.601 84.0432 135.62 83.9016 135.634 83.7731L136.745 76.419L134.229 76.6524L133.865 79.1095C133.7 80.2061 133.549 81.1106 133.411 81.823C133.272 82.5228 133.136 83.1079 133.001 83.5784C132.866 84.0362 132.721 84.3994 132.568 84.668C132.415 84.9366 132.247 85.1812 132.064 85.4017C131.848 85.6762 131.611 85.8699 131.354 85.9827C131.099 86.1082 130.826 86.1844 130.536 86.2113ZM142.897 85.0649C142.367 85.114 141.963 85.0052 141.683 84.7385C141.416 84.4581 141.261 84.0908 141.219 83.6368C141.193 83.3593 141.214 83.033 141.281 82.6579L142.38 76.2017L140.677 76.3597L140.767 75.6835L144.182 74.6417L142.731 82.8668C142.707 83.0217 142.702 83.1685 142.715 83.3072C142.749 83.673 142.942 83.8395 143.295 83.8067C143.636 83.7751 144.005 83.5755 144.404 83.2078C144.802 82.8401 145.191 82.3652 145.569 81.7831C145.946 81.1884 146.279 80.5215 146.567 79.7824C146.866 79.0296 147.075 78.266 147.194 77.4917L147.646 74.5494L149.16 74.409L147.758 83.3737L148.113 83.4935L150.087 81.116L150.574 81.4334L149.377 83.1282C148.984 83.6989 148.651 84.086 148.378 84.2894C148.104 84.4929 147.835 84.6069 147.57 84.6315C147.191 84.6666 146.905 84.5914 146.709 84.406C146.525 84.2068 146.42 83.9622 146.393 83.6721C146.38 83.5333 146.384 83.3676 146.404 83.1749C146.425 82.9822 146.442 82.8279 146.457 82.7121L146.756 80.7953L146.599 80.7525C146.38 81.269 146.147 81.774 145.9 82.2676C145.666 82.76 145.403 83.2106 145.11 83.6194C144.816 84.0155 144.49 84.3447 144.133 84.6068C143.775 84.8689 143.363 85.0216 142.897 85.0649ZM158.227 83.6432C157.394 83.7204 156.76 83.5374 156.325 83.0944C155.901 82.6376 155.645 81.9363 155.557 80.9903C155.513 80.5111 155.503 79.9967 155.529 79.4474C155.565 78.8842 155.641 78.3239 155.754 77.7663C155.881 77.2076 156.053 76.67 156.273 76.1536C156.491 75.6245 156.759 75.1544 157.077 74.7433C157.406 74.3184 157.794 73.9708 158.24 73.7005C158.684 73.4176 159.19 73.2498 159.758 73.1971C160.451 73.1328 161.023 73.2579 161.472 73.5725C161.919 73.8744 162.168 74.2965 162.219 74.8389C162.257 75.2551 162.17 75.6131 161.956 75.9128C161.754 76.2113 161.452 76.3793 161.048 76.4167C160.72 76.4471 160.473 76.3874 160.307 76.2374C160.153 76.0863 160.064 75.8847 160.041 75.6324C160.015 75.3549 160.091 75.0807 160.27 74.8097C160.447 74.5262 160.768 74.3501 161.232 74.2816L161.22 74.1492C160.91 73.9617 160.471 73.8942 159.903 73.9469C159.601 73.975 159.316 74.0586 159.049 74.1979C158.795 74.3359 158.555 74.5617 158.329 74.8752C158.115 75.1749 157.924 75.5806 157.755 76.0924C157.585 76.5916 157.447 77.2214 157.339 77.9819C157.307 78.1884 157.272 78.4207 157.232 78.6788C157.205 78.9357 157.178 79.199 157.153 79.4685C157.139 79.7369 157.126 80.0053 157.113 80.2736C157.111 80.5282 157.12 80.7627 157.14 80.9771C157.188 81.4942 157.327 81.8948 157.557 82.1788C157.798 82.449 158.139 82.5636 158.581 82.5227C159.148 82.47 159.668 82.1801 160.141 81.6529C160.626 81.1245 161.069 80.4092 161.469 79.5071L162.081 79.7365C161.822 80.3711 161.562 80.9295 161.302 81.4116C161.04 81.8812 160.752 82.2767 160.439 82.5984C160.136 82.9063 159.803 83.1472 159.437 83.321C159.084 83.4937 158.681 83.601 158.227 83.6432ZM175.532 82.0382C175.154 82.0733 174.86 81.9924 174.651 81.7955C174.441 81.586 174.322 81.3362 174.295 81.0462C174.283 80.9074 174.282 80.7612 174.293 80.6075C174.304 80.4538 174.323 80.3122 174.349 80.1825L175.451 73.9552C175.473 73.7877 175.479 73.6409 175.467 73.5148C175.433 73.149 175.239 72.9825 174.886 73.0153C174.546 73.0468 174.171 73.2534 173.761 73.6349C173.362 74.0026 172.974 74.4838 172.597 75.0785C172.232 75.672 171.9 76.3389 171.6 77.0792C171.312 77.8182 171.109 78.5749 170.99 79.3492L170.536 82.2726L169.022 82.413L170.232 74.4773C170.264 74.2708 170.275 74.1108 170.264 73.9973C170.23 73.6315 170.037 73.465 169.684 73.4978C169.356 73.5282 168.993 73.7336 168.596 74.1139C168.197 74.4816 167.81 74.9628 167.432 75.5575C167.054 76.1396 166.715 76.8071 166.416 77.5599C166.116 78.3001 165.906 79.0574 165.787 79.8317L165.333 82.7551L163.819 82.8955L165.159 74.0892L163.456 74.2471L163.546 73.5709L166.847 72.5396L166.225 76.5282L166.381 76.5709C166.602 76.067 166.829 75.5689 167.063 75.0765C167.309 74.5703 167.579 74.1192 167.873 73.723C168.166 73.3142 168.491 72.9787 168.848 72.7166C169.204 72.4419 169.609 72.2835 170.063 72.2414C170.58 72.1934 170.966 72.3102 171.222 72.5919C171.488 72.8598 171.643 73.227 171.686 73.6937C171.699 73.8324 171.701 73.9849 171.691 74.1512C171.693 74.3164 171.677 74.4896 171.643 74.6708L171.426 76.0267L171.582 76.0694C171.801 75.553 172.028 75.0486 172.262 74.5562C172.509 74.0626 172.78 73.6177 173.074 73.2215C173.366 72.8128 173.692 72.4773 174.049 72.2152C174.406 71.9531 174.812 71.801 175.266 71.7588C175.808 71.7085 176.213 71.8236 176.481 72.1041C176.76 72.3708 176.921 72.7312 176.963 73.1852C176.989 73.4627 176.968 73.789 176.901 74.1641L175.759 80.7769L176.113 80.8966L178.087 78.5192L178.575 78.8365L177.377 80.5314C176.985 81.102 176.645 81.4897 176.359 81.6943C176.073 81.899 175.797 82.0136 175.532 82.0382ZM182.282 81.4122C181.424 81.4917 180.784 81.3031 180.36 80.8463C179.936 80.3895 179.677 79.6629 179.585 78.6665C179.542 78.1998 179.533 77.6918 179.558 77.1425C179.596 76.5919 179.679 76.0436 179.806 75.4975C179.933 74.9388 180.105 74.4012 180.325 73.8848C180.555 73.3545 180.836 72.8833 181.167 72.471C181.51 72.0575 181.904 71.7156 182.35 71.4453C182.808 71.1738 183.334 71.0106 183.926 70.9556C184.191 70.9311 184.459 70.938 184.73 70.9765C185.012 71.0013 185.274 71.0788 185.515 71.2091C185.755 71.3267 185.955 71.499 186.116 71.7257C186.289 71.9513 186.393 72.247 186.427 72.6128C186.461 72.9785 186.406 73.3462 186.262 73.7157C186.131 74.0841 185.871 74.4326 185.482 74.7613C185.092 75.09 184.554 75.388 183.866 75.6553C183.191 75.9214 182.334 76.1409 181.294 76.3136C181.242 76.7128 181.198 77.1303 181.162 77.5662C181.138 77.9882 181.142 78.3758 181.175 78.729C181.224 79.2587 181.363 79.6656 181.593 79.9496C181.834 80.2198 182.182 80.3338 182.636 80.2917C183.204 80.2391 183.724 79.9491 184.196 79.4219C184.682 78.8935 185.124 78.1782 185.524 77.2761L186.137 77.5055C185.878 78.1402 185.618 78.6985 185.357 79.1807C185.095 79.6502 184.808 80.0458 184.494 80.3674C184.192 80.6753 183.858 80.9162 183.492 81.09C183.14 81.2627 182.736 81.3701 182.282 81.4122ZM181.372 75.7149C182.695 75.4395 183.641 75.0783 184.21 74.6311C184.792 74.1828 185.049 73.5992 184.983 72.8803C184.95 72.5272 184.841 72.2447 184.656 72.0329C184.482 71.8073 184.181 71.7143 183.752 71.7541C183.475 71.7799 183.216 71.8675 182.975 72.017C182.734 72.1539 182.513 72.3779 182.313 72.6891C182.113 73.0002 181.934 73.4048 181.776 73.9028C181.618 74.3882 181.483 74.9922 181.372 75.7149ZM190.688 80.6326C189.855 80.7098 189.222 80.5269 188.786 80.0839C188.362 79.6271 188.106 78.9257 188.019 77.9798C187.974 77.5005 187.965 76.9862 187.99 76.4368C188.027 75.8737 188.102 75.3133 188.216 74.7558C188.342 74.1971 188.515 73.6595 188.734 73.143C188.952 72.614 189.22 72.1439 189.538 71.7327C189.868 71.3078 190.255 70.9602 190.701 70.6899C191.145 70.407 191.651 70.2392 192.219 70.1866C192.912 70.1222 193.484 70.2473 193.933 70.5619C194.381 70.8638 194.63 71.286 194.68 71.8283C194.719 72.2445 194.631 72.6025 194.417 72.9022C194.216 73.2007 193.913 73.3687 193.51 73.4061C193.182 73.4365 192.934 73.3768 192.768 73.2269C192.614 73.0758 192.525 72.8741 192.502 72.6218C192.476 72.3444 192.552 72.0701 192.731 71.7992C192.908 71.5156 193.229 71.3396 193.693 71.271L193.681 71.1386C193.371 70.9511 192.932 70.8837 192.365 70.9363C192.062 70.9644 191.777 71.048 191.51 71.1873C191.256 71.3254 191.016 71.5511 190.791 71.8646C190.577 72.1643 190.385 72.5701 190.217 73.0818C190.047 73.581 189.908 74.2108 189.8 74.9714C189.769 75.1778 189.733 75.4101 189.693 75.6682C189.666 75.9252 189.64 76.1884 189.614 76.4579C189.601 76.7263 189.587 76.9947 189.574 77.2631C189.572 77.5176 189.581 77.7521 189.601 77.9666C189.649 78.4837 189.788 78.8842 190.018 79.1682C190.259 79.4384 190.601 79.553 191.042 79.5121C191.61 79.4595 192.13 79.1695 192.602 78.6423C193.088 78.1139 193.53 77.3986 193.93 76.4965L194.543 76.7259C194.283 77.3606 194.024 77.919 193.763 78.4011C193.501 78.8706 193.214 79.2662 192.9 79.5879C192.598 79.8957 192.264 80.1366 191.898 80.3104C191.545 80.4831 191.142 80.5905 190.688 80.6326ZM202.867 79.5031C202.501 79.537 202.208 79.4624 201.987 79.2794C201.778 79.0825 201.658 78.8201 201.628 78.4922C201.615 78.3534 201.615 78.2135 201.627 78.0724C201.651 77.9176 201.67 77.7759 201.683 77.6475L202.12 74.7447L198.506 75.0798L197.794 79.7445L196.281 79.8849L197.62 71.0786L195.918 71.2365L196.007 70.5603L199.365 69.5238L198.655 74.2074L202.268 73.8723L202.962 69.4192L204.475 69.2788L203.074 78.2435L203.429 78.3633L205.403 75.9859L205.89 76.3032L204.692 77.9981C204.3 78.5687 203.961 78.9564 203.674 79.161C203.401 79.3645 203.131 79.4785 202.867 79.5031ZM207.736 79.0515C207.143 79.1065 206.717 78.7707 206.459 78.0441L205.944 76.6035L206.511 76.341L207.229 77.9154L207.456 77.8944L208.627 75.7059C208.875 75.2249 209.122 74.8713 209.369 74.6449C209.626 74.4047 209.936 74.2488 210.298 74.177L210.29 74.0824C209.499 74.0667 208.852 73.8786 208.348 73.5183C207.857 73.1568 207.583 72.6734 207.527 72.068C207.489 71.6644 207.534 71.2595 207.662 70.8533C207.79 70.4471 208.01 70.0768 208.322 69.7426C208.634 69.3957 209.033 69.1042 209.52 68.8683C210.019 68.6311 210.622 68.4798 211.329 68.4143C211.77 68.3733 212.258 68.3535 212.792 68.3548C213.326 68.3436 213.849 68.365 214.363 68.4191L212.994 77.3235L213.349 77.4433L215.323 75.0658L215.81 75.3832L214.613 77.078C214.22 77.6487 213.881 78.0363 213.595 78.241C213.321 78.4445 213.045 78.5591 212.768 78.5848C212.402 78.6187 212.115 78.5373 211.906 78.3404C211.695 78.1309 211.577 77.8811 211.55 77.591C211.537 77.4523 211.536 77.3061 211.547 77.1524C211.571 76.9975 211.59 76.8559 211.603 76.7274L211.982 74.2307L210.923 74.329L209.043 77.919C208.804 78.3609 208.595 78.6538 208.418 78.7974C208.24 78.9411 208.013 79.0258 207.736 79.0515ZM212.739 69.2185C212.493 69.1776 212.25 69.162 212.009 69.1716C211.767 69.1686 211.508 69.18 211.23 69.2057C210.587 69.2654 210.09 69.4578 209.738 69.783C209.398 70.0944 209.199 70.4881 209.142 70.9641C209.11 71.1706 209.088 71.3507 209.077 71.5044C209.079 71.6569 209.088 71.8277 209.106 72.0169C209.155 72.5467 209.352 72.9546 209.696 73.2406C210.052 73.5129 210.565 73.6181 211.233 73.5561L212.103 73.4754L212.739 69.2185ZM219.473 77.963C218.615 78.0425 217.975 77.8539 217.551 77.3971C217.127 76.9403 216.868 76.2137 216.776 75.2173C216.733 74.7506 216.724 74.2426 216.749 73.6933C216.787 73.1427 216.87 72.5944 216.997 72.0483C217.124 71.4896 217.296 70.952 217.516 70.4356C217.746 69.9053 218.027 69.4341 218.358 69.0218C218.701 68.6083 219.095 68.2664 219.541 67.9961C219.999 67.7246 220.525 67.5614 221.117 67.5064C221.382 67.4819 221.65 67.4888 221.921 67.5273C222.203 67.552 222.465 67.6295 222.706 67.7598C222.946 67.8775 223.146 68.0497 223.307 68.2765C223.48 68.5021 223.584 68.7978 223.618 69.1636C223.652 69.5293 223.597 69.897 223.453 70.2665C223.322 70.6349 223.062 70.9834 222.673 71.3121C222.283 71.6408 221.745 71.9388 221.057 72.2061C220.382 72.4722 219.525 72.6917 218.485 72.8644C218.433 73.2636 218.389 73.6811 218.353 74.1169C218.329 74.539 218.333 74.9266 218.366 75.2798C218.415 75.8095 218.554 76.2164 218.784 76.5003C219.025 76.7705 219.373 76.8846 219.827 76.8425C220.395 76.7898 220.915 76.4999 221.387 75.9727C221.873 75.4443 222.315 74.729 222.715 73.8269L223.328 74.0563C223.069 74.6909 222.809 75.2493 222.548 75.7314C222.286 76.201 221.999 76.5966 221.685 76.9182C221.383 77.2261 221.049 77.467 220.683 77.6408C220.331 77.8135 219.927 77.9208 219.473 77.963ZM218.563 72.2657C219.886 71.9903 220.832 71.6291 221.401 71.1819C221.983 70.7336 222.24 70.15 222.174 69.4311C222.141 69.078 222.032 68.7955 221.847 68.5836C221.673 68.358 221.372 68.2651 220.943 68.3049C220.666 68.3306 220.407 68.4183 220.166 68.5678C219.925 68.7047 219.704 68.9287 219.504 69.2399C219.303 69.551 219.125 69.9556 218.967 70.4536C218.809 70.9389 218.674 71.543 218.563 72.2657ZM237.092 76.3289C236.714 76.364 236.42 76.2831 236.211 76.0862C236.001 75.8767 235.882 75.627 235.855 75.3369C235.843 75.1981 235.842 75.0519 235.853 74.8982C235.864 74.7445 235.883 74.6029 235.909 74.4732L237.011 68.2459C237.033 68.0784 237.039 67.9316 237.027 67.8055C236.993 67.4397 236.8 67.2732 236.446 67.306C236.106 67.3376 235.731 67.5441 235.321 67.9256C234.922 68.2933 234.534 68.7745 234.157 69.3692C233.792 69.9628 233.46 70.6296 233.16 71.3699C232.872 72.1089 232.669 72.8656 232.55 73.6399L232.096 76.5633L230.582 76.7037L231.792 68.768C231.824 68.5615 231.835 68.4015 231.824 68.288C231.79 67.9222 231.597 67.7557 231.244 67.7885C230.916 67.8189 230.553 68.0243 230.156 68.4046C229.758 68.7723 229.37 69.2535 228.992 69.8482C228.614 70.4303 228.275 71.0978 227.976 71.8506C227.676 72.5909 227.466 73.3481 227.347 74.1224L226.893 77.0458L225.379 77.1862L226.719 68.3799L225.016 68.5378L225.106 67.8616L228.407 66.8304L227.785 70.8189L227.941 70.8616C228.162 70.3577 228.389 69.8596 228.623 69.3672C228.869 68.861 229.139 68.4099 229.433 68.0137C229.726 67.6049 230.051 67.2695 230.408 67.0073C230.764 66.7326 231.169 66.5742 231.623 66.5321C232.14 66.4841 232.527 66.601 232.782 66.8826C233.048 67.1505 233.203 67.5177 233.246 67.9844C233.259 68.1231 233.261 68.2757 233.251 68.442C233.253 68.6071 233.237 68.7803 233.203 68.9615L232.986 70.3174L233.142 70.3602C233.362 69.8437 233.588 69.3393 233.822 68.8469C234.069 68.3533 234.34 67.9084 234.634 67.5123C234.926 67.1035 235.252 66.768 235.609 66.5059C235.966 66.2438 236.372 66.0917 236.826 66.0496C237.368 65.9993 237.773 66.1144 238.041 66.3948C238.32 66.6615 238.481 67.0219 238.523 67.4759C238.549 67.7534 238.528 68.0797 238.461 68.4548L237.319 75.0676L237.673 75.1873L239.647 72.8099L240.135 73.1273L238.937 74.8221C238.545 75.3928 238.205 75.7804 237.919 75.9851C237.633 76.1897 237.357 76.3043 237.092 76.3289ZM243.842 75.7029C242.984 75.7824 242.344 75.5938 241.92 75.137C241.496 74.6802 241.237 73.9536 241.145 72.9572C241.102 72.4906 241.093 71.9826 241.118 71.4332C241.156 70.8827 241.239 70.3344 241.366 69.7882C241.493 69.2295 241.665 68.6919 241.885 68.1755C242.115 67.6453 242.396 67.174 242.727 66.7617C243.07 66.3482 243.464 66.0063 243.91 65.736C244.368 65.4646 244.894 65.3013 245.486 65.2464C245.751 65.2218 246.019 65.2288 246.29 65.2673C246.572 65.292 246.834 65.3695 247.075 65.4998C247.315 65.6175 247.515 65.7897 247.676 66.0165C247.85 66.2421 247.953 66.5377 247.987 66.9035C248.021 67.2693 247.966 67.6369 247.822 68.0064C247.691 68.3748 247.431 68.7233 247.042 69.052C246.652 69.3807 246.114 69.6787 245.426 69.946C244.751 70.2121 243.894 70.4316 242.854 70.6043C242.802 71.0035 242.758 71.421 242.722 71.8569C242.698 72.2789 242.702 72.6666 242.735 73.0197C242.784 73.5494 242.923 73.9563 243.153 74.2403C243.394 74.5105 243.742 74.6245 244.196 74.5824C244.764 74.5298 245.284 74.2398 245.756 73.7126C246.242 73.1842 246.684 72.4689 247.084 71.5668L247.697 71.7962C247.438 72.4309 247.178 72.9893 246.917 73.4714C246.655 73.9409 246.368 74.3365 246.054 74.6582C245.752 74.966 245.418 75.2069 245.053 75.3807C244.7 75.5534 244.296 75.6608 243.842 75.7029ZM242.932 70.0056C244.255 69.7302 245.201 69.369 245.77 68.9219C246.352 68.4736 246.609 67.89 246.543 67.171C246.51 66.8179 246.401 66.5354 246.216 66.3236C246.043 66.098 245.741 66.0051 245.312 66.0448C245.035 66.0706 244.776 66.1582 244.535 66.3077C244.294 66.4446 244.073 66.6686 243.873 66.9798C243.673 67.2909 243.494 67.6955 243.336 68.1935C243.178 68.6789 243.043 69.2829 242.932 70.0056ZM252.248 74.9233C251.416 75.0005 250.782 74.8176 250.346 74.3746C249.922 73.9178 249.666 73.2164 249.579 72.2705C249.534 71.7912 249.525 71.2769 249.55 70.7275C249.587 70.1644 249.662 69.604 249.776 69.0465C249.902 68.4878 250.075 67.9502 250.294 67.4337C250.512 66.9047 250.78 66.4346 251.098 66.0235C251.428 65.5985 251.815 65.2509 252.261 64.9806C252.705 64.6977 253.211 64.5299 253.779 64.4773C254.473 64.413 255.044 64.5381 255.493 64.8526C255.941 65.1546 256.19 65.5767 256.24 66.119C256.279 66.5352 256.191 66.8932 255.977 67.1929C255.776 67.4914 255.473 67.6594 255.07 67.6968C254.742 67.7273 254.494 67.6675 254.328 67.5176C254.174 67.3665 254.085 67.1648 254.062 66.9126C254.036 66.6351 254.113 66.3609 254.291 66.0899C254.468 65.8063 254.789 65.6303 255.253 65.5618L255.241 65.4293C254.931 65.2418 254.492 65.1744 253.925 65.227C253.622 65.2551 253.337 65.3388 253.07 65.478C252.816 65.6161 252.576 65.8419 252.351 66.1553C252.137 66.455 251.945 66.8608 251.777 67.3726C251.607 67.8717 251.468 68.5016 251.36 69.2621C251.329 69.4686 251.293 69.7008 251.253 69.9589C251.226 70.2159 251.2 70.4791 251.174 70.7487C251.161 71.017 251.147 71.2854 251.134 71.5538C251.132 71.8084 251.141 72.0429 251.161 72.2573C251.209 72.7744 251.348 73.1749 251.578 73.4589C251.819 73.7291 252.161 73.8438 252.602 73.8028C253.17 73.7502 253.69 73.4602 254.162 72.933C254.648 72.4046 255.09 71.6894 255.49 70.7872L256.103 71.0166C255.843 71.6513 255.584 72.2097 255.323 72.6918C255.061 73.1613 254.774 73.5569 254.46 73.8786C254.158 74.1865 253.824 74.4273 253.458 74.6011C253.105 74.7738 252.702 74.8812 252.248 74.9233ZM261.17 74.0958C260.338 74.173 259.65 74.0206 259.105 73.6386C258.574 73.2553 258.27 72.6538 258.194 71.834C258.17 71.5818 258.168 71.2767 258.185 70.9189C258.216 70.5599 258.269 70.1733 258.345 69.7592L259.102 65.3765L257.4 65.5344L257.49 64.8582L260.885 63.8182L260.065 68.5502L260.185 68.6154C260.778 67.8735 261.497 67.4633 262.342 67.385C262.985 67.3253 263.537 67.4522 263.999 67.7656C264.459 68.0663 264.723 68.5825 264.791 69.314C264.842 69.8563 264.797 70.4011 264.657 70.9484C264.529 71.4945 264.308 71.9921 263.994 72.441C263.679 72.89 263.281 73.264 262.8 73.563C262.332 73.8609 261.788 74.0385 261.17 74.0958ZM261.231 73.3079C261.433 73.2891 261.632 73.2389 261.828 73.1571C262.035 73.0616 262.226 72.923 262.4 72.7415C262.572 72.5474 262.721 72.2983 262.845 71.9941C262.983 71.6888 263.088 71.3165 263.162 70.8772C263.209 70.5674 263.236 70.3042 263.241 70.0875C263.245 69.8581 263.236 69.6236 263.214 69.384C263.178 68.993 263.037 68.7071 262.791 68.5263C262.544 68.333 262.219 68.255 261.815 68.2925C261.273 68.3428 260.809 68.5575 260.425 68.9366C260.053 69.3146 259.824 69.7938 259.738 70.3742C259.7 70.6575 259.673 70.9145 259.656 71.145C259.651 71.3618 259.655 71.5458 259.669 71.6972C259.777 72.8575 260.298 73.3944 261.231 73.3079ZM39.3669 116.983C39.7453 116.948 40.0777 116.828 40.364 116.623C40.6629 116.418 40.9182 116.152 41.1297 115.827C41.3413 115.502 41.5103 115.13 41.6369 114.712C41.7749 114.279 41.8795 113.83 41.9509 113.366C42.0382 112.798 42.109 112.327 42.1634 111.953C42.2166 111.567 42.2567 111.245 42.2838 110.988C42.3108 110.731 42.3231 110.52 42.3205 110.355C42.3305 110.189 42.3285 110.03 42.3144 109.878C42.2618 109.311 42.1125 108.867 41.8665 108.546C41.6319 108.212 41.2498 108.069 40.7201 108.118C40.3417 108.153 40.003 108.274 39.7041 108.479C39.4178 108.684 39.1688 108.949 38.9573 109.274C38.7457 109.599 38.5709 109.978 38.433 110.41C38.3064 110.829 38.2075 111.271 38.1361 111.735C38.0488 112.303 37.9786 112.78 37.9254 113.167C37.871 113.541 37.8303 113.856 37.8032 114.113C37.7762 114.37 37.7576 114.582 37.7476 114.748C37.7502 114.913 37.7585 115.071 37.7726 115.223C37.8252 115.79 37.9688 116.241 38.2033 116.576C38.4493 116.896 38.8372 117.032 39.3669 116.983ZM39.3821 117.764C38.4236 117.853 37.6766 117.617 37.1411 117.056C36.6172 116.481 36.3066 115.67 36.2095 114.623C36.1429 113.905 36.1862 113.137 36.3395 112.322C36.4917 111.493 36.7512 110.725 37.118 110.017C37.4963 109.295 37.9809 108.69 38.5717 108.203C39.174 107.702 39.8851 107.413 40.7049 107.337C41.6634 107.248 42.4047 107.491 42.9287 108.066C43.4641 108.627 43.7804 109.431 43.8775 110.478C43.9441 111.197 43.9014 111.97 43.7492 112.798C43.5959 113.614 43.3301 114.383 42.9518 115.105C42.585 115.813 42.1004 116.418 41.4981 116.919C40.9073 117.406 40.2019 117.688 39.3821 117.764ZM48.7676 116.893C47.8091 116.982 47.0621 116.746 46.5267 116.185C46.0027 115.611 45.6927 114.806 45.5968 113.772C45.5722 113.507 45.5722 113.164 45.5966 112.742C45.6199 112.307 45.6962 111.689 45.8255 110.888C46.0635 109.34 46.3702 108.052 46.7457 107.025C47.1211 105.998 47.5428 105.196 48.0108 104.618C48.2282 104.356 48.456 104.138 48.6942 103.963C48.9313 103.776 49.1844 103.625 49.4537 103.511C49.7344 103.383 50.0364 103.279 50.3597 103.198C50.6829 103.117 51.0452 103.045 51.4464 102.983C51.8099 102.923 52.1045 102.877 52.3304 102.843C52.555 102.797 52.7419 102.754 52.8909 102.715C53.0399 102.676 53.1574 102.639 53.2433 102.606C53.3281 102.56 53.4123 102.508 53.4959 102.449L53.6941 101.706L54.3563 101.644C54.2678 102.199 54.174 102.628 54.0748 102.93C53.9756 103.231 53.8287 103.5 53.6342 103.734C53.53 103.845 53.4121 103.945 53.2803 104.034C53.1612 104.121 53.01 104.205 52.8267 104.286C52.6422 104.354 52.4129 104.42 52.139 104.483C51.865 104.547 51.5337 104.609 51.145 104.671C50.7312 104.735 50.3804 104.792 50.0926 104.845C49.8049 104.897 49.5561 104.958 49.3464 105.028C49.1366 105.099 48.9539 105.186 48.7981 105.289C48.655 105.391 48.5147 105.525 48.3774 105.691C48.0925 106.048 47.8262 106.537 47.5785 107.158C47.3434 107.777 47.1201 108.593 46.9086 109.605L47.0481 109.668C47.3815 108.874 47.7989 108.231 48.3003 107.739C48.8131 107.234 49.4101 106.95 50.0912 106.886C50.583 106.841 51.0132 106.884 51.3815 107.015C51.7613 107.132 52.0845 107.325 52.351 107.593C52.6164 107.848 52.8246 108.172 52.9755 108.565C53.1391 108.957 53.2431 109.393 53.2875 109.872C53.3495 110.541 53.3027 111.27 53.147 112.06C52.9913 112.851 52.7232 113.594 52.3426 114.291C51.9734 114.974 51.4871 115.56 50.8836 116.048C50.2928 116.536 49.5874 116.817 48.7676 116.893ZM48.7714 116.111C49.1371 116.077 49.4695 115.957 49.7684 115.751C50.0673 115.545 50.3232 115.286 50.5359 114.974C50.7601 114.648 50.9481 114.274 51.0998 113.853C51.2516 113.432 51.3631 112.989 51.4346 112.524C51.5048 112.047 51.5625 111.641 51.6078 111.306C51.6519 110.959 51.6823 110.67 51.6991 110.439C51.7273 110.195 51.7396 109.984 51.7358 109.806C51.7446 109.627 51.7409 109.449 51.7245 109.273C51.6801 108.794 51.5348 108.394 51.2888 108.073C51.0428 107.752 50.655 107.617 50.1253 107.666C49.7595 107.7 49.4271 107.819 49.1282 108.025C48.8293 108.231 48.5677 108.497 48.3435 108.823C48.1308 109.135 47.9486 109.502 47.7968 109.923C47.645 110.344 47.5335 110.787 47.4621 111.252C47.393 111.742 47.3358 112.154 47.2906 112.489C47.2453 112.824 47.2086 113.114 47.1803 113.358C47.1636 113.588 47.1513 113.799 47.1436 113.991C47.1474 114.169 47.1569 114.34 47.1721 114.504C47.2166 114.983 47.3618 115.383 47.6078 115.703C47.8538 116.024 48.2416 116.16 48.7714 116.111ZM57.7937 116.056C56.9612 116.134 56.3273 115.951 55.8919 115.508C55.4679 115.051 55.212 114.349 55.1243 113.404C55.0798 112.924 55.0703 112.41 55.0957 111.861C55.1325 111.297 55.2077 110.737 55.3214 110.18C55.4477 109.621 55.6204 109.083 55.8397 108.567C56.0577 108.038 56.3258 107.568 56.6439 107.156C56.9734 106.732 57.3609 106.384 57.8065 106.114C58.251 105.831 58.757 105.663 59.3245 105.61C60.0182 105.546 60.5896 105.671 61.0385 105.986C61.4863 106.288 61.7354 106.71 61.7857 107.252C61.8243 107.668 61.7366 108.026 61.5227 108.326C61.3214 108.624 61.019 108.792 60.6154 108.83C60.2875 108.86 60.0402 108.801 59.8737 108.651C59.7197 108.5 59.631 108.298 59.6076 108.046C59.5819 107.768 59.6582 107.494 59.8367 107.223C60.0139 106.939 60.3347 106.763 60.799 106.695L60.7867 106.562C60.4767 106.375 60.038 106.307 59.4704 106.36C59.1677 106.388 58.8829 106.472 58.6159 106.611C58.3616 106.749 58.1218 106.975 57.8964 107.288C57.6825 107.588 57.4912 107.994 57.3224 108.506C57.1524 109.005 57.0136 109.635 56.9061 110.395C56.8743 110.602 56.8386 110.834 56.799 111.092C56.7719 111.349 56.7454 111.612 56.7196 111.882C56.7063 112.15 56.693 112.418 56.6797 112.687C56.6779 112.941 56.6869 113.176 56.7068 113.39C56.7548 113.907 56.8937 114.308 57.1236 114.592C57.3649 114.862 57.7063 114.977 58.1477 114.936C58.7153 114.883 59.2354 114.593 59.708 114.066C60.1933 113.538 60.6358 112.822 61.0356 111.92L61.6484 112.15C61.3892 112.784 61.1293 113.343 60.8687 113.825C60.607 114.294 60.3193 114.69 60.0056 115.012C59.7034 115.32 59.3696 115.56 59.0041 115.734C58.6512 115.907 58.2477 116.014 57.7937 116.056ZM62.6612 119.421C62.1945 119.465 61.8182 119.385 61.5323 119.182C61.2349 118.994 61.0704 118.729 61.0389 118.389C61.0073 118.048 61.0933 117.741 61.2969 117.468C61.4891 117.208 61.7555 117.063 62.096 117.031C62.3861 117.004 62.6207 117.065 62.7999 117.214C62.9676 117.377 63.0632 117.584 63.0866 117.836C63.1018 118 63.0786 118.161 63.0169 118.32C62.9679 118.477 62.8971 118.604 62.8043 118.702L62.9455 118.784C63.3442 118.556 63.7243 118.197 64.0858 117.705C64.4611 117.225 64.8399 116.51 65.2224 115.558L63.5747 106.227L62.7233 106.306L62.8406 105.513L66.3973 105.183L66.28 105.977L65.1071 106.085L66.2503 113.268L66.4017 113.254L69.7422 105.655L68.5692 105.764L68.6865 104.971L71.6946 104.692L71.5773 105.485L70.7827 105.559L65.6506 116.473C65.1617 117.51 64.6579 118.25 64.1392 118.693C63.6331 119.134 63.1404 119.377 62.6612 119.421ZM72.7021 114.674C72.1724 114.723 71.7514 114.641 71.4391 114.428C71.1382 114.202 70.9708 113.906 70.9369 113.54C70.9123 113.275 70.9784 113.027 71.1351 112.796C71.2918 112.566 71.5341 112.435 71.862 112.405C72.1269 112.38 72.3483 112.436 72.5263 112.572C72.7043 112.708 72.8067 112.921 72.8336 113.211C72.8465 113.35 72.8284 113.498 72.7794 113.655C72.7418 113.799 72.671 113.926 72.5668 114.037L72.6358 114.165C72.8617 114.131 73.0823 114.041 73.2976 113.893C73.5118 113.734 73.7063 113.499 73.8812 113.19C74.0675 112.868 74.2325 112.452 74.3761 111.942C74.5322 111.432 74.6716 110.808 74.7941 110.072C74.9245 109.284 75.0007 108.596 75.0226 108.009C75.0433 107.409 75.0279 106.832 74.9764 106.277C74.9331 105.81 74.8339 105.495 74.6788 105.331C74.5352 105.154 74.3624 105.074 74.1606 105.093C73.8453 105.122 73.5687 105.294 73.3307 105.609C73.0916 105.911 72.8505 106.398 72.6074 107.069L71.9946 106.84C72.3199 105.957 72.661 105.315 73.0181 104.913C73.3866 104.497 73.8231 104.266 74.3276 104.219C74.8321 104.172 75.2665 104.329 75.6306 104.69C76.0074 105.049 76.2374 105.676 76.3204 106.572C76.3555 106.95 76.3723 107.337 76.3707 107.731C76.3806 108.112 76.372 108.431 76.3449 108.688L77.8584 108.547L78.5297 104.058L80.0054 103.921L79.3152 108.412L80.7908 108.275C80.9066 107.603 81.0643 106.972 81.2639 106.381C81.4635 105.79 81.7085 105.277 81.999 104.843C82.2884 104.397 82.618 104.042 82.9879 103.778C83.3693 103.501 83.7933 103.341 84.26 103.298C84.7897 103.249 85.205 103.337 85.5059 103.564C85.8056 103.778 85.9724 104.068 86.0063 104.433C86.0309 104.698 85.9648 104.946 85.8081 105.177C85.6514 105.408 85.4091 105.538 85.0812 105.569C84.8289 105.592 84.6075 105.536 84.4169 105.401C84.2389 105.265 84.1365 105.052 84.1095 104.762C84.0967 104.623 84.1153 104.481 84.1655 104.337C84.2146 104.18 84.2912 104.045 84.3953 103.934L84.3263 103.807C84.1004 103.84 83.8804 103.937 83.6663 104.097C83.4635 104.243 83.269 104.477 83.0827 104.8C82.9089 105.121 82.7503 105.537 82.6067 106.046C82.4632 106.556 82.3301 107.179 82.2076 107.915C82.0898 108.702 82.0205 109.395 81.9998 109.995C81.9779 110.582 81.9916 111.141 82.0407 111.67C82.0851 112.15 82.1792 112.478 82.3229 112.656C82.478 112.819 82.6817 112.889 82.9339 112.866C83.2619 112.836 83.5391 112.67 83.7656 112.369C84.0035 112.055 84.2504 111.561 84.506 110.888L85.1188 111.118C84.7936 112 84.4467 112.649 84.0782 113.065C83.7211 113.467 83.2841 113.692 82.7669 113.74C82.212 113.792 81.7461 113.638 81.3693 113.278C81.0051 112.918 80.7803 112.277 80.6949 111.356C80.661 110.991 80.6437 110.598 80.6429 110.178C80.6422 109.758 80.6575 109.375 80.689 109.029L79.1944 109.168L78.4702 113.91L77.0135 114.045L77.7377 109.303L76.262 109.44C76.1406 110.189 75.9756 110.878 75.7669 111.508C75.5696 112.124 75.3206 112.663 75.0198 113.123C74.7305 113.57 74.3889 113.932 73.9949 114.21C73.6123 114.475 73.1814 114.629 72.7021 114.674ZM90.116 113.059C89.1322 113.15 88.3789 112.914 87.8561 112.352C87.3321 111.778 87.0222 110.973 86.9263 109.939C86.8561 109.182 86.8994 108.415 87.0563 107.637C87.2119 106.847 87.4629 106.124 87.8092 105.468C88.1669 104.799 88.6177 104.242 89.1617 103.797C89.7056 103.352 90.337 103.097 91.0559 103.03C91.6235 102.977 92.0841 103.075 92.4377 103.322C92.7902 103.556 93.0381 103.966 93.1814 104.55L93.3103 104.5C93.3348 104.078 93.3477 103.6 93.349 103.065C93.3503 102.531 93.3235 101.967 93.2685 101.375C93.1843 100.467 92.9727 99.831 92.6337 99.4681C92.2948 99.1052 91.873 98.9471 91.3685 98.9939C90.8892 99.0383 90.4532 99.206 90.0604 99.4968C89.679 99.7739 89.3043 100.26 88.9363 100.956L88.3561 100.666C88.7605 99.8146 89.2066 99.2071 89.6945 98.8438C90.195 98.4794 90.7858 98.2656 91.4669 98.2024C91.9083 98.1615 92.3126 98.2003 92.6798 98.3189C93.0596 98.4363 93.392 98.6599 93.677 98.9897C93.9734 99.3057 94.2174 99.741 94.4087 100.296C94.5989 100.838 94.7326 101.525 94.8098 102.357C94.887 103.19 94.9035 104.053 94.8593 104.948C94.8139 105.83 94.7145 106.679 94.5612 107.494C94.4078 108.31 94.1982 109.067 93.9323 109.766C93.6652 110.452 93.3428 111.023 92.9652 111.478C92.5418 111.988 92.0872 112.367 91.6014 112.616C91.1283 112.863 90.6331 113.011 90.116 113.059ZM90.063 112.281C90.4414 112.246 90.7743 112.133 91.0618 111.941C91.3481 111.736 91.5976 111.477 91.8104 111.165C92.0219 110.84 92.1973 110.468 92.3364 110.048C92.4756 109.628 92.5803 109.179 92.6505 108.702C92.7207 108.225 92.7785 107.819 92.8238 107.484C92.8816 107.148 92.919 106.864 92.9357 106.634C92.964 106.389 92.9768 106.185 92.9742 106.02C92.983 105.841 92.9804 105.676 92.9664 105.524C92.9161 104.982 92.768 104.55 92.522 104.23C92.2874 103.895 91.9116 103.752 91.3945 103.8C91.0161 103.835 90.6837 103.955 90.3974 104.16C90.1099 104.352 89.8604 104.61 89.6488 104.935C89.4361 105.247 89.2601 105.614 89.121 106.034C88.9819 106.454 88.8772 106.902 88.8069 107.379C88.7367 107.856 88.6727 108.263 88.6148 108.599C88.5695 108.934 88.5328 109.224 88.5045 109.468C88.4878 109.699 88.4749 109.903 88.4661 110.082C88.4687 110.247 88.477 110.406 88.491 110.557C88.5413 111.099 88.6838 111.538 88.9183 111.872C89.1643 112.193 89.5459 112.329 90.063 112.281ZM98.5912 112.273C97.948 112.332 97.4596 112.142 97.1263 111.702C96.7917 111.25 96.5835 110.582 96.5017 109.7C96.4537 109.183 96.4538 108.635 96.5021 108.059C96.5504 107.482 96.6434 106.907 96.7811 106.334C96.9188 105.762 97.103 105.211 97.3337 104.68C97.577 104.149 97.8577 103.678 98.1757 103.267C98.5064 102.854 98.8819 102.514 99.3023 102.246C99.7227 101.978 100.185 101.821 100.69 101.774C101.257 101.721 101.711 101.813 102.051 102.048C102.39 102.271 102.665 102.64 102.879 103.155L103.03 103.141L103.662 101.727L104.457 101.654L103.037 110.62L103.391 110.74L105.365 108.362L105.852 108.68L104.655 110.375C104.25 110.946 103.917 111.333 103.656 111.536C103.395 111.738 103.132 111.852 102.867 111.876C102.488 111.911 102.202 111.836 102.006 111.651C101.822 111.451 101.717 111.207 101.69 110.917C101.677 110.778 101.675 110.613 101.682 110.421C101.703 110.229 101.72 110.074 101.735 109.958L102.024 108.138L101.867 108.095C101.655 108.687 101.439 109.235 101.218 109.739C101.009 110.229 100.769 110.659 100.498 111.027C100.239 111.382 99.9536 111.669 99.6432 111.889C99.3329 112.108 98.9822 112.236 98.5912 112.273ZM98.9897 111.014C99.2546 110.99 99.517 110.87 99.7769 110.655C100.036 110.428 100.283 110.144 100.518 109.804C100.766 109.45 100.99 109.061 101.192 108.635C101.407 108.208 101.596 107.777 101.759 107.342C101.934 106.893 102.079 106.466 102.194 106.061C102.321 105.643 102.414 105.278 102.474 104.967L102.525 104.695C102.646 104.073 102.587 103.576 102.349 103.204C102.122 102.818 101.731 102.651 101.176 102.702C100.495 102.765 99.8991 103.126 99.3877 103.784C98.8763 104.442 98.5167 105.366 98.309 106.555C98.2773 106.762 98.2422 107 98.2037 107.271C98.1778 107.541 98.1525 107.816 98.1278 108.099C98.103 108.381 98.0835 108.65 98.069 108.905C98.0672 109.16 98.0745 109.376 98.0908 109.552C98.1364 110.044 98.222 110.418 98.3475 110.673C98.4729 110.929 98.687 111.043 98.9897 111.014ZM118.72 110.406C118.341 110.441 118.048 110.36 117.839 110.163C117.628 109.954 117.51 109.704 117.483 109.414C117.47 109.275 117.469 109.129 117.48 108.975C117.492 108.822 117.51 108.68 117.536 108.55L118.638 102.323C118.661 102.155 118.666 102.009 118.654 101.882C118.62 101.517 118.427 101.35 118.074 101.383C117.733 101.415 117.358 101.621 116.948 102.003C116.55 102.37 116.162 102.851 115.785 103.446C115.42 104.04 115.087 104.707 114.787 105.447C114.499 106.186 114.296 106.943 114.177 107.717L113.723 110.64L112.21 110.781L113.42 102.845C113.452 102.638 113.462 102.478 113.452 102.365C113.418 101.999 113.224 101.833 112.871 101.865C112.543 101.896 112.181 102.101 111.783 102.482C111.385 102.849 110.997 103.33 110.62 103.925C110.241 104.507 109.902 105.175 109.603 105.928C109.303 106.668 109.093 107.425 108.974 108.199L108.52 111.123L107.007 111.263L108.346 102.457L106.644 102.615L106.734 101.939L110.034 100.907L109.412 104.896L109.569 104.939C109.789 104.435 110.016 103.937 110.251 103.444C110.496 102.938 110.766 102.487 111.06 102.091C111.353 101.682 111.678 101.346 112.035 101.084C112.392 100.81 112.797 100.651 113.251 100.609C113.768 100.561 114.154 100.678 114.409 100.96C114.676 101.227 114.83 101.595 114.874 102.061C114.887 102.2 114.888 102.353 114.878 102.519C114.881 102.684 114.865 102.857 114.831 103.039L114.613 104.394L114.77 104.437C114.989 103.921 115.216 103.416 115.45 102.924C115.697 102.43 115.967 101.985 116.261 101.589C116.554 101.18 116.879 100.845 117.236 100.583C117.594 100.321 117.999 100.169 118.453 100.127C118.996 100.076 119.401 100.191 119.668 100.472C119.948 100.738 120.108 101.099 120.15 101.553C120.176 101.83 120.155 102.157 120.088 102.532L118.946 109.145L119.301 109.264L121.275 106.887L121.762 107.204L120.565 108.899C120.172 109.47 119.833 109.857 119.547 110.062C119.26 110.267 118.985 110.381 118.72 110.406ZM126.188 109.713C125.356 109.79 124.668 109.638 124.123 109.256C123.592 108.873 123.288 108.271 123.212 107.451C123.188 107.199 123.186 106.894 123.203 106.536C123.234 106.177 123.287 105.791 123.363 105.377L124.12 100.994L122.418 101.152L122.508 100.476L125.903 99.4356L125.083 104.168L125.203 104.233C125.796 103.491 126.515 103.081 127.36 103.002C128.003 102.943 128.555 103.07 129.017 103.383C129.477 103.684 129.741 104.2 129.809 104.931C129.86 105.474 129.815 106.019 129.675 106.566C129.547 107.112 129.326 107.609 129.012 108.058C128.697 108.507 128.299 108.881 127.818 109.18C127.35 109.478 126.806 109.656 126.188 109.713ZM126.249 108.925C126.451 108.907 126.65 108.856 126.846 108.774C127.053 108.679 127.244 108.54 127.418 108.359C127.59 108.165 127.739 107.916 127.863 107.612C128.001 107.306 128.106 106.934 128.18 106.495C128.227 106.185 128.254 105.922 128.259 105.705C128.263 105.475 128.254 105.241 128.232 105.001C128.196 104.61 128.055 104.324 127.809 104.144C127.562 103.95 127.237 103.872 126.833 103.91C126.291 103.96 125.827 104.175 125.443 104.554C125.071 104.932 124.842 105.411 124.756 105.992C124.718 106.275 124.691 106.532 124.674 106.762C124.669 106.979 124.673 107.163 124.687 107.315C124.795 108.475 125.316 109.012 126.249 108.925ZM138.476 108.574C137.643 108.651 137.009 108.468 136.574 108.025C136.15 107.568 135.894 106.867 135.806 105.921C135.762 105.442 135.752 104.927 135.778 104.378C135.815 103.815 135.89 103.254 136.003 102.697C136.13 102.138 136.303 101.601 136.522 101.084C136.74 100.555 137.008 100.085 137.326 99.6738C137.655 99.2489 138.043 98.9013 138.489 98.6309C138.933 98.348 139.439 98.1802 140.007 98.1276C140.7 98.0633 141.272 98.1884 141.721 98.5029C142.168 98.8049 142.417 99.227 142.468 99.7693C142.506 100.186 142.419 100.544 142.205 100.843C142.004 101.142 141.701 101.31 141.297 101.347C140.97 101.378 140.722 101.318 140.556 101.168C140.402 101.017 140.313 100.815 140.29 100.563C140.264 100.285 140.34 100.011 140.519 99.7402C140.696 99.4566 141.017 99.2806 141.481 99.2121L141.469 99.0797C141.159 98.8921 140.72 98.8247 140.152 98.8773C139.85 98.9054 139.565 98.9891 139.298 99.1283C139.044 99.2664 138.804 99.4922 138.578 99.8057C138.365 100.105 138.173 100.511 138.004 101.023C137.834 101.522 137.696 102.152 137.588 102.912C137.556 103.119 137.521 103.351 137.481 103.609C137.454 103.866 137.428 104.129 137.402 104.399C137.388 104.667 137.375 104.936 137.362 105.204C137.36 105.459 137.369 105.693 137.389 105.908C137.437 106.425 137.576 106.825 137.806 107.109C138.047 107.379 138.388 107.494 138.83 107.453C139.397 107.401 139.917 107.111 140.39 106.583C140.875 106.055 141.318 105.34 141.718 104.438L142.33 104.667C142.071 105.302 141.811 105.86 141.551 106.342C141.289 106.812 141.001 107.207 140.688 107.529C140.386 107.837 140.052 108.078 139.686 108.251C139.333 108.424 138.93 108.532 138.476 108.574ZM150.956 107.416C149.972 107.507 149.218 107.272 148.696 106.71C148.172 106.135 147.862 105.331 147.766 104.296C147.696 103.54 147.739 102.772 147.896 101.995C148.051 101.204 148.302 100.481 148.649 99.8258C149.006 99.1566 149.457 98.5996 150.001 98.1548C150.545 97.71 151.176 97.4542 151.895 97.3876C152.463 97.3349 152.924 97.4321 153.277 97.6792C153.63 97.9136 153.878 98.3232 154.021 98.9078L154.15 98.8577C154.174 98.4356 154.187 97.9574 154.188 97.4229C154.19 96.8885 154.163 96.3249 154.108 95.7322C154.024 94.8241 153.812 94.1885 153.473 93.8256C153.134 93.4627 152.713 93.3046 152.208 93.3514C151.729 93.3959 151.293 93.5635 150.9 93.8544C150.518 94.1315 150.144 94.6178 149.776 95.3134L149.196 95.0238C149.6 94.1721 150.046 93.5647 150.534 93.2014C151.034 92.8369 151.625 92.6231 152.306 92.56C152.748 92.519 153.152 92.5579 153.519 92.6765C153.899 92.7939 154.231 93.0175 154.516 93.3472C154.813 93.6632 155.057 94.0986 155.248 94.6532C155.438 95.1953 155.572 95.8826 155.649 96.715C155.727 97.5474 155.743 98.4109 155.699 99.3055C155.653 100.187 155.554 101.036 155.401 101.852C155.247 102.668 155.038 103.425 154.772 104.124C154.505 104.81 154.182 105.381 153.805 105.835C153.381 106.345 152.927 106.725 152.441 106.973C151.968 107.221 151.473 107.368 150.956 107.416ZM150.902 106.639C151.281 106.604 151.614 106.49 151.901 106.298C152.188 106.093 152.437 105.835 152.65 105.523C152.861 105.198 153.037 104.825 153.176 104.405C153.315 103.985 153.42 103.537 153.49 103.06C153.56 102.582 153.618 102.176 153.663 101.841C153.721 101.505 153.758 101.222 153.775 100.991C153.803 100.747 153.816 100.542 153.814 100.377C153.823 100.198 153.82 100.033 153.806 99.8818C153.756 99.3394 153.607 98.9079 153.361 98.5873C153.127 98.2529 152.751 98.1096 152.234 98.1576C151.856 98.1927 151.523 98.3125 151.237 98.5172C150.949 98.7092 150.7 98.9677 150.488 99.2926C150.276 99.6049 150.1 99.9711 149.961 100.391C149.821 100.811 149.717 101.26 149.646 101.737C149.576 102.214 149.512 102.621 149.454 102.957C149.409 103.292 149.372 103.581 149.344 103.826C149.327 104.056 149.314 104.261 149.306 104.44C149.308 104.605 149.317 104.763 149.331 104.915C149.381 105.457 149.523 105.895 149.758 106.23C150.004 106.55 150.385 106.687 150.902 106.639ZM155.716 109.78L157.078 109.653L158.895 97.7688L157.192 97.9267L157.282 97.2505L160.602 96.2175L159.988 100.091L160.145 100.133C160.347 99.5677 160.552 99.0399 160.761 98.5498C160.982 98.046 161.221 97.6103 161.48 97.2429C161.738 96.8754 162.022 96.5819 162.333 96.3623C162.642 96.1301 162.998 95.9953 163.402 95.9578C164.045 95.8982 164.534 96.0945 164.869 96.5469C165.215 96.9855 165.429 97.6462 165.511 98.5291C165.559 99.0462 165.558 99.5932 165.51 100.17C165.462 100.747 165.369 101.322 165.231 101.894C165.093 102.467 164.903 103.019 164.66 103.55C164.429 104.08 164.148 104.552 163.818 104.964C163.5 105.375 163.13 105.715 162.71 105.983C162.29 106.251 161.827 106.408 161.323 106.455C160.818 106.502 160.405 106.438 160.084 106.264C159.775 106.089 159.529 105.775 159.347 105.321L159.177 105.337L158.61 109.511L160.351 109.35L160.234 110.143L155.598 110.573L155.716 109.78ZM160.836 105.527C161.517 105.464 162.113 105.103 162.625 104.445C163.136 103.787 163.496 102.863 163.703 101.673C163.735 101.467 163.764 101.229 163.79 100.959C163.828 100.689 163.86 100.412 163.884 100.13C163.909 99.848 163.922 99.5796 163.924 99.325C163.939 99.0692 163.938 98.8531 163.921 98.6765C163.876 98.1846 163.79 97.8109 163.665 97.5554C163.539 97.2999 163.325 97.1862 163.023 97.2143C162.732 97.2412 162.453 97.3816 162.184 97.6355C161.914 97.8768 161.656 98.1869 161.411 98.5658C161.178 98.9309 160.956 99.3459 160.745 99.8107C160.532 100.263 160.344 100.707 160.181 101.141C160.018 101.576 159.878 101.984 159.76 102.364C159.655 102.742 159.581 103.042 159.538 103.262L159.487 103.534C159.367 104.156 159.42 104.659 159.646 105.046C159.884 105.418 160.281 105.578 160.836 105.527ZM166.862 109.757C166.396 109.801 166.019 109.721 165.734 109.518C165.436 109.33 165.272 109.065 165.24 108.725C165.209 108.384 165.295 108.077 165.498 107.804C165.69 107.544 165.957 107.399 166.297 107.367C166.587 107.34 166.822 107.401 167.001 107.55C167.169 107.713 167.264 107.92 167.288 108.172C167.303 108.336 167.28 108.497 167.218 108.656C167.169 108.813 167.098 108.94 167.006 109.038L167.147 109.12C167.545 108.892 167.926 108.533 168.287 108.041C168.662 107.561 169.041 106.846 169.424 105.894L167.776 96.5635L166.925 96.6425L167.042 95.8493L170.599 95.5194L170.481 96.3126L169.308 96.4214L170.452 103.605L170.603 103.59L173.943 95.9915L172.77 96.1003L172.888 95.3071L175.896 95.0281L175.779 95.8213L174.984 95.895L169.852 106.809C169.363 107.846 168.859 108.586 168.34 109.029C167.834 109.47 167.342 109.713 166.862 109.757ZM178.039 104.904C177.598 104.945 177.202 104.925 176.851 104.843C176.501 104.774 176.204 104.661 175.961 104.506C175.717 104.35 175.528 104.164 175.394 103.948C175.259 103.731 175.181 103.503 175.159 103.263C175.118 102.822 175.206 102.477 175.425 102.227C175.642 101.965 175.902 101.821 176.205 101.792C176.508 101.764 176.744 101.838 176.913 102.013C177.08 102.176 177.175 102.37 177.196 102.597C177.225 102.913 177.135 103.182 176.927 103.405C176.718 103.615 176.487 103.732 176.235 103.755L176.192 103.912C176.354 104.011 176.558 104.088 176.805 104.141C177.051 104.195 177.358 104.204 177.723 104.17C178.354 104.112 178.873 103.943 179.279 103.664C179.686 103.384 179.94 102.903 180.042 102.219C180.075 102.025 180.096 101.839 180.105 101.66C180.113 101.481 180.109 101.297 180.092 101.108C180.009 100.212 179.38 99.8188 178.208 99.9276L177.167 100.024L177.315 99.1517L178.261 99.0639C178.829 99.0113 179.306 98.8143 179.695 98.473C180.083 98.1317 180.319 97.7282 180.403 97.2624C180.437 97.0812 180.455 96.9332 180.457 96.8185C180.471 96.6901 180.471 96.5628 180.46 96.4367C180.39 95.6799 179.913 95.3425 179.03 95.4243C178.576 95.4665 178.159 95.6324 177.779 95.922C177.399 96.2117 177.033 96.6591 176.682 97.2641L176.1 96.9555C176.486 96.1818 176.934 95.5933 177.444 95.1898C177.966 94.7852 178.605 94.5478 179.362 94.4776C180.182 94.4016 180.804 94.5283 181.229 94.8578C181.666 95.1736 181.91 95.6152 181.963 96.1828C182.025 96.8512 181.858 97.4519 181.462 97.9847C181.066 98.5175 180.487 98.9274 179.725 99.2144L179.715 99.3107C180.292 99.359 180.754 99.5451 181.102 99.869C181.449 100.18 181.647 100.601 181.697 101.131C181.736 101.559 181.681 101.991 181.53 102.424C181.379 102.846 181.141 103.23 180.817 103.578C180.506 103.925 180.113 104.222 179.64 104.47C179.166 104.704 178.632 104.849 178.039 104.904ZM187.287 104.047C186.454 104.124 185.766 103.972 185.222 103.589C184.69 103.206 184.386 102.605 184.31 101.785C184.287 101.533 184.284 101.228 184.301 100.87C184.332 100.511 184.385 100.124 184.461 99.7101L185.219 95.3275L183.516 95.4854L183.606 94.8092L187.001 93.7692L186.181 98.5012L186.301 98.5663C186.894 97.8244 187.613 97.4143 188.458 97.3359C189.101 97.2762 189.653 97.4031 190.115 97.7165C190.575 98.0173 190.84 98.5334 190.907 99.2649C190.958 99.8073 190.913 100.352 190.773 100.899C190.645 101.445 190.424 101.943 190.11 102.392C189.795 102.841 189.397 103.215 188.916 103.514C188.448 103.812 187.905 103.989 187.287 104.047ZM187.347 103.259C187.549 103.24 187.748 103.19 187.944 103.108C188.151 103.012 188.342 102.874 188.516 102.692C188.689 102.498 188.837 102.249 188.962 101.945C189.099 101.64 189.204 101.267 189.278 100.828C189.325 100.518 189.352 100.255 189.357 100.038C189.361 99.809 189.352 99.5745 189.33 99.3349C189.294 98.9439 189.153 98.658 188.907 98.4773C188.66 98.2839 188.335 98.206 187.931 98.2434C187.389 98.2937 186.926 98.5084 186.541 98.8876C186.169 99.2655 185.94 99.7447 185.854 100.325C185.816 100.608 185.789 100.865 185.773 101.096C185.767 101.313 185.772 101.497 185.786 101.648C185.893 102.808 186.414 103.345 187.347 103.259ZM193.638 103.458C193.045 103.513 192.62 103.177 192.362 102.45L191.846 101.01L192.414 100.747L193.132 102.322L193.359 102.301L194.53 100.112C194.778 99.6311 195.025 99.2774 195.271 99.051C195.529 98.8109 195.839 98.6549 196.201 98.5832L196.192 98.4886C195.402 98.4728 194.755 98.2848 194.251 97.9245C193.759 97.563 193.485 97.0795 193.429 96.4741C193.392 96.0705 193.437 95.6656 193.565 95.2594C193.692 94.8532 193.913 94.483 194.225 94.1487C194.536 93.8018 194.935 93.5104 195.422 93.2744C195.922 93.0372 196.525 92.8859 197.231 92.8204C197.673 92.7795 198.161 92.7597 198.695 92.761C199.228 92.7497 199.752 92.7711 200.266 92.8252L198.897 101.73L199.252 101.849L201.225 99.472L201.713 99.7893L200.515 101.484C200.123 102.055 199.784 102.442 199.497 102.647C199.224 102.851 198.948 102.965 198.671 102.991C198.305 103.025 198.017 102.943 197.808 102.747C197.598 102.537 197.479 102.287 197.453 101.997C197.44 101.858 197.439 101.712 197.45 101.559C197.474 101.404 197.492 101.262 197.506 101.134L197.885 98.6369L196.826 98.7351L194.945 102.325C194.706 102.767 194.498 103.06 194.321 103.204C194.143 103.347 193.916 103.432 193.638 103.458ZM198.641 93.6246C198.396 93.5838 198.153 93.5682 197.912 93.5778C197.67 93.5748 197.41 93.5861 197.133 93.6119C196.49 93.6715 195.992 93.864 195.641 94.1891C195.301 94.5005 195.102 94.8942 195.044 95.3703C195.013 95.5767 194.991 95.7568 194.98 95.9105C194.981 96.063 194.991 96.2339 195.008 96.4231C195.057 96.9528 195.254 97.3607 195.599 97.6468C195.955 97.9191 196.467 98.0242 197.136 97.9622L198.006 97.8815L198.641 93.6246ZM203.257 102.566C202.803 102.608 202.431 102.515 202.143 102.287C201.855 102.06 201.694 101.763 201.66 101.397C201.626 101.031 201.711 100.718 201.916 100.457C202.108 100.198 202.375 100.052 202.715 100.021C202.993 99.995 203.215 100.057 203.381 100.207C203.561 100.356 203.662 100.556 203.685 100.809C203.702 100.985 203.685 101.152 203.636 101.309C203.587 101.466 203.516 101.594 203.424 101.691L203.546 101.776C203.71 101.76 203.877 101.643 204.048 101.424C204.151 101.3 204.25 101.138 204.346 100.938C204.441 100.726 204.535 100.437 204.628 100.072C204.734 99.7063 204.837 99.2388 204.937 98.6698C205.05 98.0996 205.174 97.3884 205.312 96.5361L205.845 93.0328L204.635 93.1451L204.752 92.3519L207.703 92.0782L209.106 98.3595L209.201 98.3507L212.679 91.6167L214.609 91.4378L213.226 100.401L213.581 100.52L215.555 98.143L216.042 98.4604L214.845 100.155C214.452 100.726 214.113 101.114 213.827 101.318C213.553 101.522 213.284 101.636 213.019 101.66C212.653 101.694 212.36 101.62 212.139 101.437C211.93 101.24 211.811 100.977 211.78 100.649C211.767 100.511 211.767 100.371 211.779 100.23C211.803 100.075 211.822 99.9331 211.835 99.8046L212.833 93.2816L212.739 93.2904L211.787 95.1722L208.411 101.763L207.037 95.5937L206.685 93.8518L206.571 93.8623L206.202 96.2627C206.057 97.1666 205.924 97.9295 205.804 98.5512C205.696 99.1718 205.579 99.6979 205.454 100.129C205.34 100.547 205.219 100.889 205.091 101.155C204.963 101.421 204.825 101.644 204.676 101.823C204.482 102.058 204.269 102.23 204.037 102.341C203.807 102.464 203.547 102.539 203.257 102.566ZM219.089 101.097C218.559 101.146 218.154 101.038 217.875 100.771C217.608 100.49 217.453 100.123 217.411 99.6692C217.385 99.3917 217.405 99.0654 217.472 98.6903L218.572 92.2342L216.869 92.3921L216.959 91.7159L220.374 90.6741L218.923 98.8992C218.899 99.0541 218.894 99.2009 218.907 99.3396C218.94 99.7054 219.134 99.8719 219.487 99.8391C219.828 99.8076 220.197 99.6079 220.596 99.2402C220.994 98.8725 221.382 98.3976 221.761 97.8155C222.138 97.2208 222.471 96.5539 222.759 95.8148C223.058 95.062 223.267 94.2984 223.386 93.5241L223.838 90.5818L225.351 90.4414L223.95 99.4061L224.305 99.5259L226.279 97.1485L226.766 97.4658L225.568 99.1606C225.176 99.7313 224.843 100.118 224.569 100.322C224.296 100.525 224.026 100.639 223.762 100.664C223.383 100.699 223.096 100.624 222.901 100.438C222.717 100.239 222.612 99.9946 222.585 99.7045C222.572 99.5657 222.576 99.4 222.596 99.2073C222.616 99.0146 222.634 98.8604 222.649 98.7445L222.948 96.8277L222.791 96.785C222.572 97.3014 222.339 97.8064 222.092 98.3C221.858 98.7924 221.594 99.243 221.302 99.6518C221.008 100.048 220.682 100.377 220.325 100.639C219.967 100.901 219.555 101.054 219.089 101.097ZM234.967 99.6247C234.059 99.7089 233.317 99.5296 232.742 99.0869C232.165 98.6315 231.83 97.8993 231.737 96.8903C231.694 96.4236 231.691 95.9214 231.731 95.3834C231.769 94.8329 231.851 94.2846 231.979 93.7385C232.118 93.1786 232.297 92.6404 232.516 92.124C232.748 91.6064 233.035 91.1408 233.379 90.7274C233.722 90.3139 234.123 89.9714 234.581 89.6999C235.052 89.4273 235.584 89.2635 236.176 89.2085C236.946 89.1372 237.554 89.2461 238 89.5355C238.447 89.8248 238.697 90.2595 238.751 90.8397C238.811 91.483 238.652 92.032 238.274 92.4868C237.909 92.9404 237.316 93.3326 236.494 93.6632L236.484 93.7595C237.135 93.7882 237.629 93.965 237.964 94.2901C238.3 94.6152 238.494 95.0678 238.548 95.648C238.593 96.1273 238.534 96.597 238.374 97.0571C238.213 97.5173 237.971 97.9277 237.648 98.2884C237.338 98.6479 236.953 98.9508 236.492 99.197C236.03 99.4307 235.522 99.5732 234.967 99.6247ZM235.047 98.835C235.526 98.7905 235.93 98.6195 236.258 98.3219C236.586 98.0117 236.796 97.5342 236.889 96.8895C236.923 96.7083 236.949 96.515 236.969 96.3097C236.988 96.1044 236.991 95.9324 236.978 95.7936C236.925 95.2261 236.755 94.8347 236.468 94.6197C236.18 94.392 235.714 94.308 235.071 94.3676C234.857 94.3875 234.599 94.4241 234.299 94.4774C233.999 94.5307 233.706 94.596 233.42 94.6734C233.367 95.0599 233.328 95.4643 233.304 95.8863C233.292 96.3072 233.304 96.7131 233.34 97.1041C233.404 97.7852 233.587 98.2579 233.892 98.5223C234.208 98.7729 234.593 98.8771 235.047 98.835ZM236.002 90.007C235.712 90.0339 235.441 90.1227 235.188 90.2734C234.933 90.4115 234.7 90.6366 234.487 90.949C234.287 91.2601 234.102 91.6653 233.932 92.1644C233.773 92.6498 233.638 93.2475 233.526 93.9576C234.761 93.703 235.662 93.3969 236.226 93.0393C236.803 92.6678 237.125 92.2372 237.194 91.7474C237.219 91.6051 237.233 91.483 237.237 91.3809C237.239 91.2662 237.233 91.1332 237.219 90.9818C237.188 90.6539 237.07 90.4041 236.863 90.2325C236.655 90.0482 236.368 89.9731 236.002 90.007ZM242.644 98.9127C242.001 98.9724 241.512 98.7823 241.179 98.3426C240.844 97.8902 240.636 97.2226 240.554 96.3397C240.506 95.8226 240.507 95.2756 240.555 94.6986C240.603 94.1217 240.696 93.547 240.834 92.9745C240.972 92.402 241.156 91.8506 241.386 91.3204C241.63 90.789 241.91 90.3177 242.228 89.9066C242.559 89.4943 242.935 89.1542 243.355 88.8862C243.775 88.6182 244.238 88.4609 244.742 88.4141C245.31 88.3614 245.764 88.4529 246.104 88.6885C246.442 88.9116 246.718 89.2803 246.931 89.7948L247.083 89.7808L247.715 88.3674L248.509 88.2937L247.089 97.2601L247.444 97.3799L249.418 95.0025L249.905 95.3198L248.708 97.0146C248.303 97.5865 247.97 97.9736 247.708 98.1759C247.447 98.3782 247.184 98.4916 246.92 98.5162C246.541 98.5513 246.254 98.4761 246.059 98.2907C245.875 98.0915 245.77 97.8468 245.743 97.5567C245.73 97.418 245.727 97.2529 245.735 97.0613C245.755 96.8686 245.773 96.7144 245.788 96.5985L246.077 94.778L245.92 94.7353C245.708 95.3274 245.492 95.8754 245.271 96.3793C245.062 96.8693 244.822 97.2987 244.551 97.6673C244.291 98.0221 244.006 98.3093 243.696 98.5289C243.386 98.7485 243.035 98.8765 242.644 98.9127ZM243.042 97.6545C243.307 97.63 243.57 97.5102 243.83 97.2953C244.088 97.0678 244.336 96.7841 244.571 96.4442C244.818 96.0905 245.043 95.7008 245.245 95.275C245.46 94.848 245.649 94.417 245.812 93.9821C245.987 93.5334 246.132 93.1065 246.247 92.7015C246.373 92.2827 246.467 91.9178 246.527 91.6069L246.578 91.335C246.698 90.7133 246.64 90.2162 246.401 89.844C246.175 89.4579 245.784 89.2906 245.229 89.3421C244.548 89.4052 243.952 89.7659 243.44 90.4239C242.929 91.0819 242.569 92.0058 242.362 93.1953C242.33 93.4018 242.295 93.6404 242.256 93.9111C242.23 94.1807 242.205 94.4565 242.18 94.7387C242.156 95.0208 242.136 95.2898 242.122 95.5456C242.12 95.8001 242.127 96.0157 242.144 96.1923C242.189 96.6842 242.275 97.0579 242.4 97.3134C242.526 97.5689 242.74 97.6826 243.042 97.6545ZM252.973 97.9548C252.443 98.0039 252.038 97.8952 251.759 97.6285C251.491 97.348 251.337 96.9807 251.294 96.5267C251.269 96.2492 251.289 95.9229 251.356 95.5478L252.456 89.0916L250.753 89.2496L250.843 88.5734L254.257 87.5316L252.807 95.7567C252.783 95.9116 252.778 96.0584 252.79 96.1971C252.824 96.5629 253.018 96.7294 253.371 96.6966C253.712 96.665 254.081 96.4654 254.479 96.0977C254.878 95.73 255.266 95.2551 255.645 94.673C256.022 94.0783 256.355 93.4114 256.642 92.6723C256.941 91.9195 257.151 91.1559 257.27 90.3816L257.722 87.4393L259.235 87.2989L257.991 95.276C257.967 95.4308 257.961 95.5776 257.974 95.7164C258.008 96.0821 258.202 96.2486 258.555 96.2159C258.895 96.1843 259.265 95.9846 259.663 95.617C260.062 95.2493 260.45 94.7744 260.829 94.1922C261.206 93.5975 261.538 92.9306 261.826 92.1916C262.125 91.4387 262.334 90.6752 262.453 89.9009L262.906 86.9585L264.419 86.8182L263.018 95.7829L263.372 95.9026L265.346 93.5252L265.834 93.8425L264.636 95.5374C264.244 96.108 263.911 96.4951 263.637 96.6986C263.363 96.9021 263.094 97.0161 262.829 97.0407C262.451 97.0758 262.164 97.0006 261.969 96.8152C261.785 96.616 261.68 96.3713 261.653 96.0812C261.64 95.9425 261.643 95.7768 261.664 95.5841C261.684 95.3914 261.702 95.2371 261.716 95.1212L262.015 93.2044L261.859 93.1617C261.64 93.6782 261.407 94.1832 261.16 94.6767C260.913 95.1703 260.643 95.6215 260.35 96.0303C260.069 96.4253 259.75 96.7538 259.392 97.016C259.048 97.2769 258.648 97.4284 258.194 97.4705C257.664 97.5197 257.273 97.4097 257.019 97.1407C256.764 96.859 256.614 96.4849 256.571 96.0182C256.542 95.7029 256.557 95.3835 256.616 95.06L256.832 93.6852L256.675 93.6425C256.456 94.1589 256.223 94.6639 255.976 95.1575C255.742 95.6499 255.478 96.1005 255.185 96.5093C254.891 96.9054 254.566 97.2346 254.209 97.4967C253.851 97.7588 253.439 97.9115 252.973 97.9548ZM268.88 96.4795C268.35 96.5286 267.946 96.4199 267.667 96.1532C267.399 95.8727 267.244 95.5054 267.202 95.0514C267.176 94.7739 267.197 94.4476 267.264 94.0725L268.363 87.6164L266.66 87.7743L266.75 87.0981L270.165 86.0563L268.714 94.2814C268.69 94.4363 268.685 94.5831 268.698 94.7218C268.732 95.0876 268.925 95.2541 269.278 95.2213C269.619 95.1897 269.988 94.9901 270.387 94.6224C270.785 94.2547 271.174 93.7798 271.552 93.1977C271.93 92.603 272.262 91.9361 272.55 91.197C272.849 90.4442 273.058 89.6806 273.177 88.9063L273.629 85.964L275.143 85.8236L273.741 94.7883L274.096 94.9081L276.07 92.5307L276.557 92.848L275.36 94.5428C274.967 95.1135 274.634 95.5006 274.361 95.7041C274.087 95.9075 273.818 96.0216 273.553 96.0461C273.174 96.0812 272.888 96.006 272.692 95.8206C272.508 95.6214 272.403 95.3768 272.376 95.0867C272.363 94.9479 272.367 94.7822 272.387 94.5895C272.408 94.3968 272.425 94.2426 272.44 94.1267L272.739 92.2099L272.582 92.1672C272.363 92.6836 272.13 93.1886 271.883 93.6822C271.649 94.1746 271.386 94.6252 271.093 95.034C270.799 95.4301 270.473 95.7593 270.116 96.0214C269.759 96.2835 269.347 96.4362 268.88 96.4795ZM81.3146 136.191C81.693 136.156 82.0254 136.036 82.3117 135.832C82.6106 135.626 82.8659 135.36 83.0774 135.036C83.289 134.711 83.4581 134.339 83.5846 133.92C83.7226 133.487 83.8273 133.039 83.8987 132.574C83.9859 132.006 84.0567 131.536 84.1111 131.162C84.1643 130.775 84.2044 130.453 84.2315 130.196C84.2585 129.939 84.2708 129.728 84.2682 129.563C84.2782 129.397 84.2762 129.238 84.2622 129.087C84.2095 128.519 84.0602 128.075 83.8142 127.754C83.5796 127.42 83.1975 127.277 82.6678 127.326C82.2894 127.362 81.9507 127.482 81.6518 127.688C81.3655 127.892 81.1165 128.157 80.905 128.482C80.6934 128.807 80.5186 129.186 80.3807 129.618C80.2541 130.037 80.1552 130.479 80.0838 130.944C79.9965 131.511 79.9263 131.989 79.8731 132.375C79.8187 132.749 79.778 133.065 79.7509 133.321C79.7239 133.578 79.7053 133.79 79.6953 133.956C79.6979 134.121 79.7062 134.28 79.7203 134.431C79.7729 134.999 79.9165 135.45 80.1511 135.784C80.3971 136.105 80.7849 136.24 81.3146 136.191ZM81.3298 136.972C80.3713 137.061 79.6243 136.825 79.0889 136.264C78.5649 135.689 78.2543 134.879 78.1573 133.832C78.0906 133.113 78.1339 132.346 78.2872 131.53C78.4394 130.702 78.6989 129.933 79.0657 129.225C79.444 128.503 79.9286 127.899 80.5194 127.411C81.1217 126.91 81.8328 126.622 82.6526 126.546C83.6112 126.457 84.3524 126.7 84.8764 127.274C85.4118 127.835 85.7281 128.639 85.8252 129.686C85.8918 130.405 85.8491 131.178 85.6969 132.007C85.5436 132.822 85.2778 133.591 84.8995 134.313C84.5327 135.021 84.0481 135.626 83.4458 136.127C82.855 136.615 82.1496 136.896 81.3298 136.972ZM99.5693 135.281C99.191 135.316 98.8972 135.235 98.6882 135.038C98.4779 134.828 98.3593 134.579 98.3324 134.289C98.3196 134.15 98.3187 134.004 98.3299 133.85C98.3411 133.696 98.3598 133.555 98.3859 133.425L99.4875 127.198C99.5102 127.03 99.5156 126.883 99.5039 126.757C99.47 126.391 99.2765 126.225 98.9233 126.258C98.5828 126.289 98.2076 126.496 97.7977 126.877C97.3993 127.245 97.0114 127.726 96.6341 128.321C96.2693 128.915 95.9368 129.581 95.6366 130.322C95.3489 131.061 95.1456 131.817 95.0266 132.592L94.5726 135.515L93.0591 135.655L94.2695 127.72C94.3012 127.513 94.3118 127.353 94.3013 127.24C94.2673 126.874 94.0738 126.707 93.7207 126.74C93.3927 126.771 93.0301 126.976 92.6329 127.356C92.2345 127.724 91.8466 128.205 91.4692 128.8C91.0907 129.382 90.7519 130.05 90.4528 130.802C90.1526 131.543 89.9429 132.3 89.8239 133.074L89.37 135.998L87.8564 136.138L89.1959 127.332L87.4932 127.49L87.5832 126.813L90.8841 125.782L90.2617 129.771L90.4183 129.813C90.6388 129.309 90.8661 128.811 91.1003 128.319C91.3459 127.813 91.6157 127.362 91.9097 126.965C92.2025 126.557 92.5276 126.221 92.8849 125.959C93.2411 125.684 93.6462 125.526 94.1003 125.484C94.6174 125.436 95.0035 125.553 95.2586 125.834C95.5251 126.102 95.68 126.469 95.7233 126.936C95.7362 127.075 95.7376 127.227 95.7276 127.394C95.7302 127.559 95.7144 127.732 95.6804 127.913L95.4626 129.269L95.6193 129.312C95.8385 128.795 96.0652 128.291 96.2994 127.799C96.5462 127.305 96.8166 126.86 97.1106 126.464C97.4035 126.055 97.7285 125.72 98.0859 125.458C98.4432 125.196 98.8489 125.043 99.3029 125.001C99.8453 124.951 100.25 125.066 100.518 125.347C100.797 125.613 100.958 125.974 101 126.428C101.026 126.705 101.005 127.031 100.938 127.407L99.7958 134.019L100.15 134.139L102.124 131.762L102.612 132.079L101.414 133.774C101.022 134.345 100.682 134.732 100.396 134.937C100.11 135.141 99.8342 135.256 99.5693 135.281ZM110.387 134.277C110.021 134.311 109.728 134.237 109.507 134.054C109.298 133.857 109.178 133.594 109.148 133.266C109.135 133.128 109.135 132.988 109.147 132.847C109.171 132.692 109.19 132.55 109.203 132.422L109.64 129.519L106.026 129.854L105.314 134.519L103.801 134.659L105.14 125.853L103.438 126.011L103.527 125.335L106.885 124.298L106.175 128.982L109.788 128.647L110.482 124.194L111.995 124.053L110.594 133.018L110.949 133.138L112.923 130.76L113.41 131.078L112.212 132.772C111.82 133.343 111.481 133.731 111.194 133.935C110.921 134.139 110.651 134.253 110.387 134.277ZM117.397 132.845C117.775 132.81 118.108 132.69 118.394 132.485C118.693 132.279 118.948 132.014 119.16 131.689C119.371 131.364 119.541 130.992 119.667 130.574C119.805 130.141 119.91 129.692 119.981 129.228C120.068 128.66 120.139 128.189 120.194 127.815C120.247 127.429 120.287 127.107 120.314 126.85C120.341 126.593 120.353 126.382 120.351 126.217C120.361 126.051 120.359 125.892 120.345 125.74C120.292 125.173 120.143 124.729 119.897 124.408C119.662 124.074 119.28 123.931 118.75 123.98C118.372 124.015 118.033 124.136 117.734 124.341C117.448 124.546 117.199 124.811 116.987 125.136C116.776 125.461 116.601 125.839 116.463 126.272C116.337 126.691 116.238 127.133 116.166 127.597C116.079 128.165 116.009 128.642 115.956 129.029C115.901 129.403 115.86 129.718 115.833 129.975C115.806 130.232 115.788 130.444 115.778 130.61C115.78 130.775 115.789 130.933 115.803 131.085C115.855 131.652 115.999 132.103 116.234 132.438C116.48 132.758 116.867 132.894 117.397 132.845ZM117.412 133.626C116.454 133.715 115.707 133.479 115.171 132.918C114.647 132.343 114.337 131.532 114.24 130.485C114.173 129.766 114.216 128.999 114.37 128.184C114.522 127.355 114.781 126.587 115.148 125.879C115.526 125.157 116.011 124.552 116.602 124.065C117.204 123.564 117.915 123.275 118.735 123.199C119.694 123.11 120.435 123.353 120.959 123.928C121.494 124.489 121.811 125.293 121.908 126.34C121.974 127.058 121.932 127.832 121.779 128.66C121.626 129.476 121.36 130.245 120.982 130.967C120.615 131.675 120.131 132.28 119.528 132.781C118.937 133.268 118.232 133.55 117.412 133.626ZM125.852 132.843C125.322 132.892 124.918 132.783 124.639 132.517C124.371 132.236 124.216 131.869 124.174 131.415C124.148 131.137 124.169 130.811 124.236 130.436L125.335 123.98L123.632 124.138L123.722 123.462L127.137 122.42L125.686 130.645C125.662 130.8 125.657 130.947 125.67 131.085C125.704 131.451 125.897 131.618 126.25 131.585C126.591 131.553 126.96 131.354 127.359 130.986C127.757 130.618 128.146 130.143 128.524 129.561C128.902 128.967 129.234 128.3 129.522 127.561C129.821 126.808 130.03 126.044 130.149 125.27L130.601 122.328L132.115 122.187L130.87 130.164C130.846 130.319 130.841 130.466 130.854 130.605C130.887 130.97 131.081 131.137 131.434 131.104C131.775 131.073 132.144 130.873 132.543 130.505C132.941 130.138 133.329 129.663 133.708 129.081C134.085 128.486 134.418 127.819 134.705 127.08C135.005 126.327 135.214 125.563 135.333 124.789L135.785 121.847L137.298 121.706L135.897 130.671L136.252 130.791L138.226 128.413L138.713 128.731L137.515 130.426C137.123 130.996 136.79 131.383 136.516 131.587C136.243 131.79 135.973 131.904 135.709 131.929C135.33 131.964 135.043 131.889 134.848 131.703C134.664 131.504 134.559 131.26 134.532 130.97C134.519 130.831 134.523 130.665 134.543 130.472C134.563 130.28 134.581 130.125 134.596 130.01L134.895 128.093L134.738 128.05C134.519 128.566 134.286 129.071 134.039 129.565C133.792 130.059 133.522 130.51 133.23 130.919C132.948 131.314 132.629 131.642 132.272 131.904C131.927 132.165 131.527 132.317 131.073 132.359C130.544 132.408 130.152 132.298 129.898 132.029C129.643 131.747 129.494 131.373 129.45 130.907C129.421 130.591 129.436 130.272 129.495 129.948L129.711 128.573L129.554 128.531C129.335 129.047 129.102 129.552 128.855 130.046C128.621 130.538 128.358 130.989 128.065 131.398C127.771 131.794 127.445 132.123 127.088 132.385C126.73 132.647 126.319 132.8 125.852 132.843ZM142.365 131.312C141.507 131.391 140.866 131.203 140.442 130.746C140.018 130.289 139.76 129.562 139.667 128.566C139.624 128.099 139.615 127.591 139.641 127.042C139.679 126.491 139.761 125.943 139.889 125.397C140.015 124.838 140.188 124.301 140.407 123.784C140.638 123.254 140.918 122.783 141.249 122.37C141.592 121.957 141.987 121.615 142.432 121.345C142.891 121.073 143.416 120.91 144.009 120.855C144.274 120.831 144.542 120.838 144.812 120.876C145.094 120.901 145.356 120.978 145.597 121.109C145.837 121.226 146.037 121.398 146.198 121.625C146.372 121.851 146.476 122.147 146.51 122.512C146.544 122.878 146.489 123.246 146.345 123.615C146.214 123.984 145.953 124.332 145.564 124.661C145.175 124.989 144.636 125.287 143.949 125.555C143.274 125.821 142.416 126.04 141.377 126.213C141.324 126.612 141.281 127.03 141.245 127.466C141.22 127.888 141.224 128.275 141.257 128.628C141.306 129.158 141.446 129.565 141.676 129.849C141.917 130.119 142.265 130.233 142.719 130.191C143.286 130.139 143.806 129.849 144.279 129.321C144.764 128.793 145.207 128.078 145.606 127.176L146.219 127.405C145.96 128.04 145.7 128.598 145.44 129.08C145.178 129.55 144.89 129.945 144.577 130.267C144.274 130.575 143.94 130.816 143.575 130.99C143.222 131.162 142.819 131.27 142.365 131.312ZM141.455 125.614C142.777 125.339 143.723 124.978 144.293 124.531C144.874 124.082 145.132 123.499 145.065 122.78C145.032 122.427 144.924 122.144 144.739 121.932C144.565 121.707 144.264 121.614 143.835 121.654C143.557 121.679 143.298 121.767 143.058 121.916C142.816 122.053 142.595 122.277 142.395 122.589C142.195 122.9 142.016 123.304 141.859 123.802C141.7 124.288 141.566 124.892 141.455 125.614ZM154.857 130.153C154.491 130.187 154.198 130.112 153.977 129.929C153.768 129.732 153.649 129.47 153.618 129.142C153.605 129.003 153.605 128.864 153.617 128.722C153.641 128.568 153.66 128.426 153.673 128.297L154.11 125.395L150.497 125.73L149.785 130.395L148.271 130.535L149.61 121.729L147.908 121.886L147.998 121.21L151.355 120.174L150.645 124.857L154.258 124.522L154.952 120.069L156.466 119.929L155.064 128.894L155.419 129.013L157.393 126.636L157.88 126.953L156.683 128.648C156.29 129.219 155.951 129.606 155.665 129.811C155.391 130.014 155.122 130.129 154.857 130.153ZM160.937 129.589C160.407 129.638 160.002 129.53 159.723 129.263C159.456 128.982 159.301 128.615 159.259 128.161C159.233 127.884 159.253 127.557 159.32 127.182L160.42 120.726L158.717 120.884L158.807 120.208L162.222 119.166L160.771 127.391C160.747 127.546 160.742 127.693 160.755 127.832C160.788 128.197 160.982 128.364 161.335 128.331C161.676 128.299 162.045 128.1 162.444 127.732C162.842 127.364 163.23 126.89 163.609 126.307C163.986 125.713 164.319 125.046 164.606 124.307C164.906 123.554 165.115 122.79 165.234 122.016L165.686 119.074L167.199 118.933L165.798 127.898L166.153 128.018L168.127 125.64L168.614 125.958L167.416 127.653C167.024 128.223 166.691 128.61 166.417 128.814C166.144 129.017 165.874 129.131 165.61 129.156C165.231 129.191 164.944 129.116 164.749 128.93C164.565 128.731 164.46 128.486 164.433 128.196C164.42 128.058 164.424 127.892 164.444 127.699C164.464 127.507 164.482 127.352 164.497 127.236L164.796 125.32L164.639 125.277C164.42 125.793 164.187 126.298 163.94 126.792C163.706 127.284 163.442 127.735 163.15 128.144C162.856 128.54 162.53 128.869 162.173 129.131C161.815 129.393 161.403 129.546 160.937 129.589ZM170.46 128.706C169.867 128.761 169.442 128.425 169.184 127.699L168.668 126.258L169.235 125.995L169.954 127.57L170.181 127.549L171.352 125.36C171.6 124.879 171.847 124.526 172.093 124.299C172.351 124.059 172.661 123.903 173.023 123.831L173.014 123.737C172.224 123.721 171.577 123.533 171.073 123.173C170.581 122.811 170.307 122.328 170.251 121.722C170.214 121.319 170.259 120.914 170.387 120.508C170.514 120.102 170.734 119.731 171.047 119.397C171.358 119.05 171.757 118.759 172.244 118.523C172.744 118.286 173.347 118.134 174.053 118.069C174.495 118.028 174.982 118.008 175.517 118.009C176.05 117.998 176.574 118.019 177.087 118.074L175.719 126.978L176.074 127.098L178.047 124.72L178.535 125.038L177.337 126.732C176.945 127.303 176.606 127.691 176.319 127.895C176.046 128.099 175.77 128.214 175.492 128.239C175.127 128.273 174.839 128.192 174.63 127.995C174.42 127.785 174.301 127.536 174.274 127.246C174.262 127.107 174.261 126.961 174.272 126.807C174.296 126.652 174.314 126.51 174.328 126.382L174.707 123.885L173.648 123.983L171.767 127.573C171.528 128.015 171.32 128.308 171.142 128.452C170.965 128.596 170.738 128.68 170.46 128.706ZM175.463 118.873C175.218 118.832 174.975 118.816 174.734 118.826C174.492 118.823 174.232 118.834 173.955 118.86C173.311 118.92 172.814 119.112 172.463 119.437C172.123 119.749 171.924 120.143 171.866 120.619C171.834 120.825 171.813 121.005 171.802 121.159C171.803 121.311 171.813 121.482 171.83 121.671C171.879 122.201 172.076 122.609 172.421 122.895C172.777 123.167 173.289 123.273 173.957 123.211L174.828 123.13L175.463 118.873ZM186.188 127.247C185.355 127.325 184.721 127.142 184.286 126.699C183.862 126.242 183.606 125.54 183.518 124.595C183.474 124.115 183.464 123.601 183.49 123.052C183.527 122.488 183.602 121.928 183.716 121.371C183.842 120.812 184.015 120.274 184.234 119.758C184.452 119.229 184.72 118.759 185.038 118.348C185.367 117.923 185.755 117.575 186.201 117.305C186.645 117.022 187.151 116.854 187.719 116.801C188.412 116.737 188.984 116.862 189.433 117.177C189.88 117.479 190.129 117.901 190.18 118.443C190.218 118.859 190.131 119.217 189.917 119.517C189.716 119.815 189.413 119.983 189.009 120.021C188.682 120.051 188.434 119.992 188.268 119.842C188.114 119.691 188.025 119.489 188.002 119.237C187.976 118.959 188.052 118.685 188.231 118.414C188.408 118.13 188.729 117.954 189.193 117.886L189.181 117.753C188.871 117.566 188.432 117.498 187.865 117.551C187.562 117.579 187.277 117.663 187.01 117.802C186.756 117.94 186.516 118.166 186.291 118.479C186.077 118.779 185.885 119.185 185.716 119.697C185.547 120.196 185.408 120.826 185.3 121.586C185.268 121.793 185.233 122.025 185.193 122.283C185.166 122.54 185.14 122.803 185.114 123.073C185.1 123.341 185.087 123.609 185.074 123.878C185.072 124.132 185.081 124.367 185.101 124.581C185.149 125.098 185.288 125.499 185.518 125.783C185.759 126.053 186.1 126.168 186.542 126.127C187.109 126.074 187.629 125.784 188.102 125.257C188.587 124.729 189.03 124.013 189.43 123.111L190.042 123.341C189.783 123.975 189.523 124.534 189.263 125.016C189.001 125.485 188.713 125.881 188.4 126.203C188.098 126.511 187.764 126.751 187.398 126.925C187.045 127.098 186.642 127.205 186.188 127.247ZM202.376 125.746C202.01 125.78 201.717 125.705 201.496 125.522C201.287 125.325 201.167 125.063 201.137 124.735C201.124 124.596 201.124 124.456 201.136 124.315C201.16 124.161 201.179 124.019 201.192 123.89L201.629 120.988L198.016 121.323L197.303 125.987L195.79 126.128L197.129 117.322L195.427 117.479L195.516 116.803L198.874 115.767L198.164 120.45L201.777 120.115L202.471 115.662L203.984 115.522L202.583 124.486L202.938 124.606L204.912 122.229L205.399 122.546L204.201 124.241C203.809 124.812 203.47 125.199 203.183 125.404C202.91 125.607 202.64 125.721 202.376 125.746ZM208.455 125.182C207.926 125.231 207.521 125.123 207.242 124.856C206.974 124.575 206.819 124.208 206.777 123.754C206.752 123.477 206.772 123.15 206.839 122.775L207.939 116.319L206.236 116.477L206.326 115.801L209.74 114.759L208.29 122.984C208.266 123.139 208.26 123.286 208.273 123.424C208.307 123.79 208.501 123.957 208.854 123.924C209.194 123.892 209.564 123.693 209.962 123.325C210.361 122.957 210.749 122.482 211.128 121.9C211.505 121.306 211.838 120.639 212.125 119.9C212.424 119.147 212.633 118.383 212.752 117.609L213.205 114.667L214.718 114.526L213.317 123.491L213.672 123.611L215.645 121.233L216.133 121.551L214.935 123.246C214.543 123.816 214.21 124.203 213.936 124.407C213.662 124.61 213.393 124.724 213.128 124.749C212.75 124.784 212.463 124.709 212.268 124.523C212.084 124.324 211.979 124.079 211.952 123.789C211.939 123.651 211.943 123.485 211.963 123.292C211.983 123.1 212.001 122.945 212.015 122.829L212.315 120.913L212.158 120.87C211.939 121.386 211.706 121.891 211.459 122.385C211.225 122.877 210.961 123.328 210.668 123.737C210.374 124.133 210.049 124.462 209.691 124.724C209.334 124.986 208.922 125.139 208.455 125.182ZM217.676 124.327C217.222 124.369 216.851 124.276 216.563 124.049C216.274 123.821 216.113 123.524 216.079 123.158C216.045 122.793 216.131 122.479 216.336 122.219C216.528 121.959 216.794 121.814 217.135 121.782C217.412 121.756 217.634 121.818 217.801 121.968C217.98 122.117 218.081 122.318 218.105 122.57C218.121 122.747 218.105 122.913 218.056 123.071C218.007 123.228 217.936 123.355 217.843 123.453L217.965 123.537C218.129 123.522 218.297 123.404 218.467 123.185C218.57 123.061 218.669 122.899 218.765 122.699C218.86 122.487 218.954 122.199 219.048 121.834C219.154 121.468 219.257 121 219.356 120.431C219.469 119.861 219.594 119.15 219.731 118.297L220.265 114.794L219.054 114.907L219.171 114.113L222.123 113.84L223.526 120.121L223.62 120.112L227.098 113.378L229.028 113.199L227.646 122.162L228 122.282L229.974 119.904L230.462 120.222L229.264 121.917C228.872 122.487 228.532 122.875 228.246 123.08C227.972 123.283 227.703 123.397 227.438 123.422C227.072 123.456 226.779 123.381 226.559 123.198C226.35 123.001 226.23 122.739 226.2 122.411C226.187 122.272 226.186 122.132 226.199 121.991C226.223 121.836 226.241 121.694 226.255 121.566L227.253 115.043L227.158 115.052L226.207 116.934L222.83 123.525L221.456 117.355L221.104 115.613L220.991 115.624L220.622 118.024C220.476 118.928 220.344 119.691 220.223 120.313C220.115 120.933 219.999 121.459 219.873 121.891C219.76 122.308 219.639 122.65 219.511 122.917C219.383 123.183 219.244 123.406 219.096 123.585C218.901 123.819 218.688 123.991 218.457 124.102C218.226 124.225 217.966 124.3 217.676 124.327ZM233.581 115.62C234.535 115.481 235.336 115.139 235.986 114.596C236.646 114.038 237.044 113.321 237.179 112.443C237.194 112.327 237.215 112.147 237.243 111.903C237.284 111.657 237.294 111.421 237.273 111.194C237.225 110.677 237.031 110.301 236.691 110.065C236.364 109.828 235.935 109.734 235.406 109.784C235.04 109.818 234.678 109.889 234.319 109.999C233.96 110.108 233.68 110.243 233.478 110.401L233.453 110.537C233.635 110.584 233.783 110.672 233.897 110.801C234.024 110.929 234.098 111.12 234.122 111.372C234.134 111.498 234.121 111.633 234.083 111.776C234.045 111.92 233.982 112.059 233.893 112.195C233.802 112.317 233.686 112.43 233.543 112.532C233.411 112.621 233.244 112.675 233.042 112.693C232.74 112.721 232.492 112.655 232.299 112.495C232.106 112.335 231.996 112.11 231.969 111.82C231.934 111.441 232.022 111.083 232.232 110.746C232.455 110.407 232.751 110.106 233.121 109.843C233.491 109.58 233.904 109.363 234.359 109.194C234.826 109.023 235.287 108.917 235.741 108.875C236.258 108.827 236.706 108.849 237.083 108.941C237.473 109.032 237.792 109.181 238.04 109.387C238.301 109.591 238.503 109.846 238.645 110.151C238.787 110.443 238.874 110.766 238.907 111.119C238.974 111.838 238.888 112.495 238.651 113.089C238.413 113.684 238.074 114.205 237.632 114.653C237.203 115.1 236.703 115.47 236.132 115.765C235.573 116.046 234.999 116.239 234.411 116.344L234.054 118.667L233.108 118.755L233.581 115.62ZM233.128 122.875C232.8 122.905 232.539 122.834 232.345 122.661C232.151 122.488 232.042 122.276 232.019 122.024C232.013 121.961 232.007 121.904 232.003 121.853C232.01 121.789 232.02 121.699 232.035 121.583C232.094 121.26 232.229 120.999 232.439 120.802C232.663 120.603 232.932 120.489 233.247 120.46C233.575 120.429 233.836 120.5 234.03 120.673C234.225 120.846 234.333 121.058 234.357 121.311C234.363 121.374 234.362 121.437 234.355 121.502C234.36 121.552 234.355 121.635 234.34 121.751C234.281 122.075 234.14 122.336 233.917 122.535C233.706 122.732 233.443 122.846 233.128 122.875Z" fill="black"/>
</svg>
