<svg width="102" height="30" viewBox="0 0 102 30" fill="none" xmlns="http://www.w3.org/2000/svg">
<g clip-path="url(#clip0)">
<path d="M50.3098 7.81713L50.7761 8.60293L51.1865 7.78653C51.5697 7.02419 52.2217 5.98804 53.2128 5.1647C54.2383 4.31278 55.4097 3.86287 56.7065 3.81759C60.3278 3.69113 63.2121 6.54972 63.3528 10.5807C63.428 12.7324 62.635 14.5946 61.1221 16.5557C59.597 18.5325 57.3772 20.5643 54.6476 23.06L54.985 23.429L54.6476 23.06L54.6475 23.0601C53.7239 23.9046 52.6751 24.8635 51.5855 25.8858L51.5853 25.8859C51.5306 25.9373 51.4588 25.9673 51.3826 25.97C51.3065 25.9727 51.2328 25.9477 51.1746 25.9003L51.1744 25.9001C50.0167 24.957 48.9041 24.0739 47.9247 23.2966L47.9232 23.2953L47.6124 23.687L47.9232 23.2953C45.0258 20.9959 42.6696 19.1238 41.0102 17.2581C39.3641 15.4072 38.4432 13.6049 38.3681 11.4532C38.2273 7.4222 40.9051 4.36938 44.5264 4.24292C45.8232 4.19764 47.0232 4.56474 48.1056 5.34304C49.1517 6.09525 49.8744 7.08335 50.3098 7.81713Z" fill="black" stroke="black"/>
</g>
<g clip-path="url(#clip1)">
<path d="M13.3323 9.10839L13.7986 9.89419L14.209 9.07779C14.5922 8.31545 15.2441 7.2793 16.2352 6.45596C17.2607 5.60404 18.4322 5.15413 19.729 5.10885C23.3503 4.98239 26.2345 7.84097 26.3753 11.872C26.4504 14.0237 25.6575 15.8858 24.1445 17.847C22.6194 19.8238 20.3997 21.8556 17.6701 24.3513L18.0075 24.7203L17.6701 24.3513L17.67 24.3514C16.7464 25.1959 15.6976 26.1548 14.6079 27.177L14.6078 27.1772C14.553 27.2286 14.4812 27.2586 14.4051 27.2613C14.3289 27.2639 14.2552 27.239 14.1971 27.1915L14.1968 27.1913C13.0392 26.2482 11.9266 25.3651 10.9472 24.5878L10.9456 24.5866L10.6348 24.9782L10.9456 24.5866C8.0483 22.2871 5.69206 20.415 4.03271 18.5493C2.38656 16.6985 1.46566 14.8962 1.39052 12.7444C1.24976 8.71346 3.92754 5.66064 7.54889 5.53418C8.84568 5.4889 10.0457 5.856 11.1281 6.6343C12.1742 7.38651 12.8968 8.37461 13.3323 9.10839Z" fill="black" stroke="black"/>
</g>
<g clip-path="url(#clip2)">
<path d="M87.2871 6.52587L87.7534 7.31167L88.1638 6.49527C88.547 5.73293 89.199 4.69678 90.1901 3.87344C91.2156 3.02152 92.387 2.57161 93.6838 2.52633C97.3051 2.39987 100.189 5.25846 100.33 9.28944C100.405 11.4412 99.6123 13.3033 98.0994 15.2644C96.5743 17.2413 94.3545 19.2731 91.6249 21.7687L91.9623 22.1377L91.6249 21.7687L91.6248 21.7688C90.7012 22.6134 89.6524 23.5723 88.5628 24.5945L88.5626 24.5947C88.5079 24.646 88.4361 24.6761 88.3599 24.6787C88.2838 24.6814 88.2101 24.6565 88.1519 24.609L88.1517 24.6088C86.994 23.6657 85.8814 22.7826 84.902 22.0053L84.9005 22.0041L84.5896 22.3957L84.9005 22.0041C82.0031 19.7046 79.6469 17.8325 77.9875 15.9668C76.3414 14.116 75.4205 12.3136 75.3454 10.1619C75.2046 6.13094 77.8824 3.07812 81.5037 2.95166C82.8005 2.90638 84.0005 3.27348 85.0829 4.05178C86.129 4.80399 86.8516 5.79209 87.2871 6.52587Z" fill="black" stroke="black"/>
</g>
<defs>
<clipPath id="clip0">
<rect width="26" height="26" fill="white" transform="translate(37.5537 2.46167) rotate(-2)"/>
</clipPath>
<clipPath id="clip1">
<rect width="26" height="26" fill="white" transform="translate(0.576172 3.75293) rotate(-2)"/>
</clipPath>
<clipPath id="clip2">
<rect width="26" height="26" fill="white" transform="translate(74.531 1.17041) rotate(-2)"/>
</clipPath>
</defs>
</svg>
