<svg width="176" height="77" viewBox="0 0 176 77" fill="none" xmlns="http://www.w3.org/2000/svg">
<path d="M80.2408 75.674L68.9896 57.4449L68.8299 57.1862L68.4934 57.2674L30.3107 66.4832L45.8195 49.5472L46.4929 48.8118L45.5666 48.7676L3.32311 46.753L38.6108 37.0819L40.1227 36.6676L38.7986 36.1523L7.89499 24.1258L50.3437 25.1249L51.2745 25.1468L50.9057 24.3743L42.4134 6.58429L76.3534 18.3665L76.6526 18.4703L76.9138 18.2266L95.3182 1.05277L106.569 19.2818L106.729 19.5406L107.066 19.4593L145.248 10.2436L129.739 27.1796L129.066 27.915L129.992 27.9591L172.236 29.9738L136.948 39.6449L135.436 40.0592L136.76 40.5745L167.664 52.6009L125.215 51.6019L124.284 51.58L124.653 52.3524L133.146 70.1425L99.2055 58.3603L98.9064 58.2565L98.6452 58.5002L80.2408 75.674Z" stroke="#42FF58"/>
</svg>
