<svg width="642" height="375" viewBox="0 0 642 375" fill="none" xmlns="http://www.w3.org/2000/svg">
<rect x="10.1895" y="342.903" width="611.011" height="10" transform="rotate(2 10.1895 342.903)" fill="black"/>
<path fill-rule="evenodd" clip-rule="evenodd" d="M35.5887 343.298L85.3584 345.036L86.2697 318.941L36.5 317.203L35.5887 343.298ZM36.507 317.003L86.2766 318.741L88.0146 268.971L38.245 267.233L36.507 317.003ZM38.0451 267.227L36.3071 316.996L1.32837 315.775L3.06637 266.005L38.0451 267.227ZM38.252 267.034L88.0216 268.772L89.7596 219.002L39.9899 217.264L38.252 267.034ZM39.7901 217.257L38.0521 267.027L3.07335 265.805L4.81134 216.035L39.7901 217.257ZM39.9969 217.064L89.7666 218.802L91.5046 169.032L41.7349 167.294L39.9969 217.064ZM41.535 167.287L39.7971 217.057L4.81832 215.836L6.55632 166.066L41.535 167.287ZM41.7419 167.095L91.5116 168.833L93.2496 119.063L43.4799 117.325L41.7419 167.095ZM43.28 117.318L41.542 167.088L6.5633 165.866L8.30129 116.096L43.28 117.318ZM43.4869 117.125L93.2565 118.863L94.9945 69.0933L45.2249 67.3553L43.4869 117.125ZM45.025 67.3483L43.287 117.118L8.30827 115.897L10.0463 66.1269L45.025 67.3483ZM45.2319 67.1555L95.0015 68.8934L96.7395 19.1238L46.9699 17.3858L45.2319 67.1555ZM46.77 17.3788L45.032 67.1485L10.0532 65.927L11.7912 16.1573L46.77 17.3788ZM46.9768 17.1859L96.7465 18.9239L97.3037 2.96646L47.5341 1.22846L46.9768 17.1859ZM47.3342 1.22148L46.777 17.1789L11.7982 15.9574L12.3555 0L47.3342 1.22148ZM36.3001 317.196L35.3888 343.291L0.410122 342.07L1.32139 315.975L36.3001 317.196ZM485.115 358.996L435.345 357.258L436.256 331.163L486.026 332.901L485.115 358.996ZM486.033 332.701L436.263 330.963L438.001 281.193L487.771 282.931L486.033 332.701ZM436.063 330.956L437.801 281.186L388.032 279.448L386.294 329.218L436.063 330.956ZM487.778 282.731L438.008 280.993L439.746 231.224L489.516 232.962L487.778 282.731ZM437.808 280.986L439.546 231.217L389.777 229.479L388.039 279.248L437.808 280.986ZM489.523 232.762L439.753 231.024L441.491 181.254L491.261 182.992L489.523 232.762ZM439.553 231.017L441.291 181.247L391.522 179.509L389.784 229.279L439.553 231.017ZM491.268 182.792L441.498 181.054L443.236 131.285L493.006 133.023L491.268 182.792ZM441.298 181.047L443.036 131.278L393.267 129.54L391.529 179.309L441.298 181.047ZM493.013 132.823L443.243 131.085L444.981 81.3151L494.751 83.0531L493.013 132.823ZM443.043 131.078L444.781 81.3081L395.012 79.5702L393.274 129.34L443.043 131.078ZM494.758 82.8532L444.988 81.1153L446.726 31.3456L496.496 33.0836L494.758 82.8532ZM444.788 81.1083L446.526 31.3386L396.757 29.6006L395.019 79.3703L444.788 81.1083ZM496.503 32.8837L446.733 31.1457L447.29 15.1883L497.06 16.9263L496.503 32.8837ZM446.533 31.1387L447.091 15.1813L397.321 13.4433L396.764 29.4007L446.533 31.1387ZM435.145 357.251L436.056 331.156L386.287 329.418L385.375 355.513L435.145 357.251ZM235.467 350.278L285.237 352.016L286.148 325.921L236.378 324.183L235.467 350.278ZM236.385 323.983L286.155 325.721L287.893 275.951L238.123 274.213L236.385 323.983ZM237.923 274.206L236.185 323.976L186.416 322.238L188.154 272.468L237.923 274.206ZM238.13 274.013L287.9 275.751L289.638 225.982L239.868 224.244L238.13 274.013ZM239.668 224.237L237.93 274.007L188.161 272.269L189.899 222.499L239.668 224.237ZM239.875 224.044L289.645 225.782L291.383 176.012L241.613 174.274L239.875 224.044ZM241.413 174.267L239.675 224.037L189.906 222.299L191.644 172.529L241.413 174.267ZM241.62 174.074L291.39 175.812L293.128 126.043L243.358 124.305L241.62 174.074ZM243.158 124.298L241.42 174.067L191.651 172.329L193.389 122.56L243.158 124.298ZM243.365 124.105L293.135 125.843L294.873 76.0732L245.103 74.3352L243.365 124.105ZM244.903 74.3282L243.165 124.098L193.396 122.36L195.133 72.5903L244.903 74.3282ZM245.11 74.1354L294.88 75.8733L296.618 26.1037L246.848 24.3657L245.11 74.1354ZM246.648 24.3587L244.91 74.1284L195.14 72.3904L196.878 22.6207L246.648 24.3587ZM246.855 24.1658L296.625 25.9038L297.182 9.94636L247.412 8.20836L246.855 24.1658ZM247.212 8.20138L246.655 24.1588L196.885 22.4208L197.443 6.46339L247.212 8.20138ZM236.178 324.176L235.267 350.271L185.497 348.533L186.409 322.438L236.178 324.176ZM135.528 346.788L185.297 348.526L186.209 322.431L136.439 320.693L135.528 346.788ZM136.446 320.493L186.216 322.231L187.954 272.461L138.184 270.723L136.446 320.493ZM137.984 270.716L136.246 320.486L86.4765 318.748L88.2145 268.978L137.984 270.716ZM138.191 270.524L187.961 272.262L189.699 222.492L139.929 220.754L138.191 270.524ZM139.729 220.747L137.991 270.517L88.2215 268.779L89.9595 219.009L139.729 220.747ZM139.936 220.554L189.706 222.292L191.444 172.522L141.674 170.784L139.936 220.554ZM141.474 170.777L139.736 220.547L89.9665 218.809L91.7045 169.039L141.474 170.777ZM141.681 170.584L191.451 172.322L193.189 122.553L143.419 120.815L141.681 170.584ZM143.219 120.808L141.481 170.578L91.7114 168.84L93.4494 119.07L143.219 120.808ZM143.426 120.615L193.196 122.353L194.934 72.5833L145.164 70.8453L143.426 120.615ZM144.964 70.8383L143.226 120.608L93.4564 118.87L95.1944 69.1003L144.964 70.8383ZM145.171 70.6454L194.941 72.3834L196.679 22.6137L146.909 20.8757L145.171 70.6454ZM146.709 20.8688L144.971 70.6384L95.2014 68.9004L96.9394 19.1308L146.709 20.8688ZM146.916 20.6759L196.686 22.4139L197.243 6.45641L147.473 4.71841L146.916 20.6759ZM147.273 4.71143L146.716 20.6689L96.9464 18.9309L97.5036 2.97344L147.273 4.71143ZM136.239 320.686L135.328 346.781L85.5583 345.043L86.4695 318.948L136.239 320.686ZM585.054 362.486L535.284 360.748L536.195 334.653L585.965 336.391L585.054 362.486ZM585.972 336.191L536.202 334.453L537.94 284.683L587.71 286.421L585.972 336.191ZM536.003 334.446L537.74 284.676L487.971 282.938L486.233 332.708L536.003 334.446ZM587.717 286.221L537.947 284.483L539.685 234.714L589.455 236.452L587.717 286.221ZM537.747 284.476L539.485 234.707L489.716 232.969L487.978 282.738L537.747 284.476ZM589.462 236.252L539.692 234.514L541.43 184.744L591.2 186.482L589.462 236.252ZM539.492 234.507L541.23 184.737L491.461 182.999L489.723 232.769L539.492 234.507ZM591.207 186.282L541.437 184.544L543.175 134.775L592.945 136.513L591.207 186.282ZM541.237 184.537L542.975 134.768L493.206 133.03L491.468 182.799L541.237 184.537ZM592.952 136.313L543.182 134.575L544.92 84.8051L594.69 86.5431L592.952 136.313ZM542.982 134.568L544.72 84.7981L494.951 83.0601L493.213 132.83L542.982 134.568ZM594.697 86.3432L544.927 84.6052L546.665 34.8355L596.435 36.5735L594.697 86.3432ZM544.727 84.5982L546.465 34.8286L496.696 33.0906L494.958 82.8602L544.727 84.5982ZM596.442 36.3737L546.672 34.6357L547.229 18.6782L596.999 20.4162L596.442 36.3737ZM546.472 34.6287L547.03 18.6712L497.26 16.9332L496.703 32.8907L546.472 34.6287ZM535.084 360.741L535.996 334.646L486.226 332.908L485.315 359.003L535.084 360.741ZM335.406 353.768L385.176 355.506L386.087 329.411L336.317 327.673L335.406 353.768ZM336.324 327.473L386.094 329.211L387.832 279.441L338.062 277.703L336.324 327.473ZM337.862 277.696L336.124 327.466L286.355 325.728L288.093 275.958L337.862 277.696ZM338.069 277.503L387.839 279.241L389.577 229.472L339.807 227.734L338.069 277.503ZM339.607 227.727L337.869 277.496L288.1 275.758L289.838 225.989L339.607 227.727ZM339.814 227.534L389.584 229.272L391.322 179.502L341.552 177.764L339.814 227.534ZM341.352 177.757L339.614 227.527L289.845 225.789L291.583 176.019L341.352 177.757ZM341.559 177.564L391.329 179.302L393.067 129.533L343.297 127.795L341.559 177.564ZM343.097 127.788L341.359 177.557L291.59 175.819L293.328 126.05L343.097 127.788ZM343.304 127.595L393.074 129.333L394.812 79.5632L345.042 77.8252L343.304 127.595ZM344.842 77.8182L343.104 127.588L293.335 125.85L295.073 76.0802L344.842 77.8182ZM345.049 77.6253L394.819 79.3633L396.557 29.5936L346.787 27.8556L345.049 77.6253ZM346.587 27.8487L344.849 77.6183L295.08 75.8803L296.818 26.1107L346.587 27.8487ZM346.794 27.6558L396.564 29.3938L397.121 13.4363L347.351 11.6983L346.794 27.6558ZM347.151 11.6913L346.594 27.6488L296.825 25.9108L297.382 9.95334L347.151 11.6913ZM336.117 327.666L335.206 353.761L285.436 352.023L286.348 325.928L336.117 327.666ZM629.226 364.029L585.254 362.493L586.165 336.398L630.138 337.933L629.226 364.029ZM630.145 337.733L586.172 336.198L587.91 286.428L631.883 287.964L630.145 337.733ZM631.89 287.764L587.917 286.228L589.655 236.459L633.628 237.994L631.89 287.764ZM633.635 237.794L589.662 236.259L591.4 186.489L635.373 188.025L633.635 237.794ZM635.38 187.825L591.407 186.289L593.145 136.52L637.118 138.055L635.38 187.825ZM637.125 137.855L593.152 136.32L594.89 86.5501L638.863 88.0856L637.125 137.855ZM638.87 87.8857L594.897 86.3502L596.635 36.5805L640.608 38.1161L638.87 87.8857ZM640.615 37.9162L596.642 36.3806L597.199 20.4232L641.172 21.9588L640.615 37.9162Z" fill="white"/>
</svg>
