<svg width="155" height="66" viewBox="0 0 155 66" fill="none" xmlns="http://www.w3.org/2000/svg">
<path d="M71.6544 62.219L62.636 47.8138L62.4746 47.5561L62.1387 47.6394L31.9783 55.1227L44.0746 41.743L44.7433 41.0033L43.8167 40.965L10.6651 39.5958L38.1954 31.8617L39.7046 31.4377L38.3773 30.9309L14.1652 21.6858L47.4727 22.2573L48.4036 22.2732L48.03 21.5031L41.2708 7.57273L68.1806 16.7226L68.4804 16.8246L68.74 16.5791L83.2544 2.86113L92.2728 17.2664L92.4341 17.5241L92.7701 17.4407L122.93 9.9574L110.834 23.3372L110.165 24.0768L111.092 24.1151L144.244 25.4844L116.713 33.2185L115.204 33.6425L116.531 34.1493L140.744 43.3944L107.436 42.8229L106.505 42.8069L106.879 43.577L113.638 57.5074L86.7282 48.3575L86.4284 48.2556L86.1687 48.501L71.6544 62.219Z" stroke="black"/>
</svg>
