<svg width="109" height="26" viewBox="0 0 109 26" fill="none" xmlns="http://www.w3.org/2000/svg">
<path d="M12.5614 5.79731L13 6.5989L13.4386 5.79732C13.8482 5.04882 14.5359 4.03605 15.5551 3.2478C16.6097 2.43219 17.7962 2.02344 19.0938 2.02344C22.7173 2.02344 25.5 4.98094 25.5 9.01438C25.5 11.1674 24.6426 13.0008 23.0621 14.9079C21.4689 16.8303 19.1796 18.7834 16.3646 21.1823L16.6889 21.5628L16.3646 21.1823L16.3645 21.1824C15.4119 21.9941 14.3303 22.9159 13.2057 23.8994L13.2055 23.8996C13.149 23.949 13.0762 23.9766 13 23.9766C12.9238 23.9766 12.851 23.9491 12.7946 23.8996L12.7943 23.8994C11.6703 22.9165 10.5892 21.9951 9.63752 21.1841L9.63602 21.1828L9.31171 21.5633L9.63601 21.1828C6.82069 18.7836 4.53122 16.8304 2.93799 14.9079C1.35744 13.0008 0.5 11.1674 0.5 9.01438C0.5 4.98094 3.2827 2.02344 6.90625 2.02344C8.20384 2.02344 9.39026 2.43219 10.4449 3.2478C11.4641 4.03605 12.1518 5.04878 12.5614 5.79731Z" fill="black" stroke="black"/>
<path d="M40.5614 5.79731L41 6.5989L41.4386 5.79732C41.8482 5.04882 42.5359 4.03605 43.5551 3.2478C44.6097 2.43219 45.7962 2.02344 47.0938 2.02344C50.7173 2.02344 53.5 4.98094 53.5 9.01438C53.5 11.1674 52.6426 13.0008 51.0621 14.9079C49.4689 16.8303 47.1796 18.7834 44.3646 21.1823L44.6889 21.5628L44.3646 21.1823L44.3645 21.1824C43.4119 21.9941 42.3303 22.9159 41.2057 23.8994L41.2055 23.8996C41.149 23.949 41.0762 23.9766 41 23.9766C40.9238 23.9766 40.851 23.9491 40.7946 23.8996L40.7943 23.8994C39.6703 22.9165 38.5892 21.9951 37.6375 21.1841L37.636 21.1828L37.3117 21.5633L37.636 21.1828C34.8207 18.7836 32.5312 16.8304 30.938 14.9079C29.3574 13.0008 28.5 11.1674 28.5 9.01438C28.5 4.98094 31.2827 2.02344 34.9062 2.02344C36.2038 2.02344 37.3903 2.43219 38.4449 3.2478C39.4641 4.03605 40.1518 5.04878 40.5614 5.79731Z" fill="black" stroke="black"/>
<path d="M68.5614 5.79731L69 6.5989L69.4386 5.79732C69.8482 5.04882 70.5359 4.03605 71.5551 3.2478C72.6097 2.43219 73.7962 2.02344 75.0938 2.02344C78.7173 2.02344 81.5 4.98094 81.5 9.01438C81.5 11.1674 80.6426 13.0008 79.0621 14.9079C77.4689 16.8303 75.1796 18.7834 72.3646 21.1823L72.6889 21.5628L72.3646 21.1823L72.3645 21.1824C71.4119 21.9941 70.3303 22.9159 69.2057 23.8994L69.2055 23.8996C69.149 23.949 69.0762 23.9766 69 23.9766C68.9238 23.9766 68.851 23.9491 68.7946 23.8996L68.7943 23.8994C67.6703 22.9165 66.5892 21.9951 65.6375 21.1841L65.636 21.1828L65.3117 21.5633L65.636 21.1828C62.8207 18.7836 60.5312 16.8304 58.938 14.9079C57.3574 13.0008 56.5 11.1674 56.5 9.01438C56.5 4.98094 59.2827 2.02344 62.9062 2.02344C64.2038 2.02344 65.3903 2.43219 66.4449 3.2478C67.4641 4.03605 68.1518 5.04878 68.5614 5.79731Z" fill="black" stroke="black"/>
<path d="M96.0575 5.79011L96.5 6.6311L96.9425 5.79012C97.3369 5.0406 97.998 4.02862 98.9761 3.24189C99.9871 2.42871 101.121 2.02344 102.359 2.02344C105.814 2.02344 108.5 4.96165 108.5 9.01438C108.5 11.1735 107.673 13.0093 106.154 14.9153C104.623 16.8372 102.422 18.7897 99.7154 21.1886L100.047 21.5628L99.7154 21.1887L99.7151 21.1889C98.7993 22.0006 97.7593 22.9224 96.6778 23.9059L96.6777 23.9061C96.626 23.9531 96.5629 23.9766 96.5 23.9766C96.4371 23.9766 96.3741 23.9531 96.3224 23.9061L96.3222 23.9059C95.2414 22.9229 94.2018 22.0016 93.2868 21.1906L93.2852 21.1892L92.9536 21.5633L93.2852 21.1892C90.5781 18.7899 88.3774 16.8373 86.8459 14.9154C85.327 13.0093 84.5 11.1735 84.5 9.01438C84.5 4.96165 87.1859 2.02344 90.6406 2.02344C91.8787 2.02344 93.0129 2.42871 94.0239 3.24189C95.002 4.02862 95.6631 5.04056 96.0575 5.79011Z" fill="#A8A8A8" stroke="black"/>
</svg>
