<svg width="226" height="368" viewBox="0 0 226 368" fill="none" xmlns="http://www.w3.org/2000/svg">
<path d="M224.211 199.573L170.114 223.723L169.735 223.892L169.883 224.315L198.292 305.871L146.034 272.264L145.349 271.823L145.304 272.606L139.914 365.178L109.163 287.221L108.754 286.184L108.265 287.096L71.4724 355.703L73.7331 262.697L73.7522 261.911L73.039 262.158L18.6187 280.996L53.3919 208.188L53.5723 207.81L53.2116 207.538L1.70783 168.768L55.8053 144.618L56.1842 144.449L56.0368 144.026L27.6268 62.4704L79.8852 96.0773L80.5701 96.5178L80.6156 95.7354L86.0048 3.1628L116.756 81.1204L117.165 82.1571L117.654 81.2447L154.447 12.6382L152.186 105.644L152.167 106.43L152.88 106.183L207.301 87.3451L172.527 160.153L172.347 160.531L172.708 160.803L224.211 199.573Z" stroke="black"/>
</svg>
