<svg width="357" height="243" viewBox="0 0 357 243" fill="none" xmlns="http://www.w3.org/2000/svg">
<path d="M199.872 232.302L159.705 188.755L159.423 188.45L159.07 188.725L90.8635 241.7L106.015 181.444L106.213 180.654L105.457 180.861L16.0141 205.328L80.0626 151.283L80.9144 150.565L79.8935 150.393L3.12806 137.445L91.9823 109.875L92.7333 109.642L92.2715 109.045L57.0353 63.495L137.137 73.1863L137.553 73.2365L137.695 72.808L157.98 11.6175L198.146 55.1651L198.428 55.4701L198.781 55.1952L266.988 2.21984L251.836 62.4761L251.638 63.2657L252.394 63.0589L341.837 38.5921L277.788 92.6364L276.937 93.3551L277.958 93.5273L354.723 106.475L265.869 134.044L265.118 134.278L265.579 134.874L300.816 180.425L220.714 170.734L220.298 170.683L220.156 171.112L199.872 232.302Z" stroke="black"/>
</svg>
