<svg width="100" height="26" viewBox="0 0 100 26" fill="none" xmlns="http://www.w3.org/2000/svg">
<path d="M49.5614 5.79743L50 6.59902L50.4386 5.79744C50.8482 5.04894 51.5359 4.03617 52.5551 3.24792C53.6097 2.43231 54.7962 2.02356 56.0938 2.02356C59.7173 2.02356 62.5 4.98107 62.5 9.01451C62.5 11.1675 61.6426 13.0009 60.0621 14.908C58.4689 16.8304 56.1796 18.7835 53.3646 21.1824L53.6889 21.563L53.3646 21.1824L53.3645 21.1825C52.4119 21.9943 51.3303 22.916 50.2057 23.8996L50.2055 23.8997C50.149 23.9492 50.0762 23.9767 50 23.9767C49.9238 23.9767 49.851 23.9492 49.7946 23.8997L49.7943 23.8995C48.6703 22.9166 47.5892 21.9952 46.6375 21.1842L46.636 21.1829L46.3117 21.5635L46.636 21.1829C43.8207 18.7837 41.5312 16.8305 39.938 14.9081C38.3574 13.0009 37.5 11.1675 37.5 9.01451C37.5 4.98107 40.2827 2.02356 43.9062 2.02356C45.2038 2.02356 46.3903 2.43231 47.4449 3.24792C48.4641 4.03618 49.1518 5.0489 49.5614 5.79743Z" fill="black" stroke="black"/>
<path d="M12.5614 5.79743L13 6.59902L13.4386 5.79744C13.8482 5.04894 14.5359 4.03617 15.5551 3.24792C16.6097 2.43231 17.7962 2.02356 19.0938 2.02356C22.7173 2.02356 25.5 4.98107 25.5 9.01451C25.5 11.1675 24.6426 13.0009 23.0621 14.908C21.4689 16.8304 19.1796 18.7835 16.3646 21.1824L16.6889 21.563L16.3646 21.1824L16.3645 21.1825C15.4119 21.9943 14.3303 22.916 13.2057 23.8996L13.2055 23.8997C13.149 23.9492 13.0762 23.9767 13 23.9767C12.9238 23.9767 12.851 23.9492 12.7946 23.8997L12.7943 23.8995C11.6703 22.9166 10.5892 21.9952 9.63752 21.1842L9.63602 21.1829L9.31171 21.5635L9.63601 21.1829C6.82069 18.7837 4.53122 16.8305 2.93799 14.9081C1.35744 13.0009 0.5 11.1675 0.5 9.01451C0.5 4.98107 3.2827 2.02356 6.90625 2.02356C8.20384 2.02356 9.39026 2.43231 10.4449 3.24792C11.4641 4.03618 12.1518 5.0489 12.5614 5.79743Z" fill="black" stroke="black"/>
<path d="M86.5614 5.79743L87 6.59902L87.4386 5.79744C87.8482 5.04894 88.5359 4.03617 89.5551 3.24792C90.6097 2.43231 91.7962 2.02356 93.0938 2.02356C96.7173 2.02356 99.5 4.98107 99.5 9.01451C99.5 11.1675 98.6426 13.0009 97.0621 14.908C95.4689 16.8304 93.1796 18.7835 90.3646 21.1824L90.6889 21.563L90.3646 21.1824L90.3645 21.1825C89.4119 21.9943 88.3303 22.916 87.2057 23.8996L87.2055 23.8997C87.149 23.9492 87.0762 23.9767 87 23.9767C86.9238 23.9767 86.851 23.9492 86.7946 23.8997L86.7943 23.8995C85.6703 22.9166 84.5892 21.9952 83.6375 21.1842L83.636 21.1829L83.3117 21.5635L83.636 21.1829C80.8207 18.7837 78.5312 16.8305 76.938 14.9081C75.3574 13.0009 74.5 11.1675 74.5 9.01451C74.5 4.98107 77.2827 2.02356 80.9062 2.02356C82.2038 2.02356 83.3903 2.43231 84.4449 3.24792C85.4641 4.03618 86.1518 5.0489 86.5614 5.79743Z" fill="black" stroke="black"/>
</svg>
