<svg width="315" height="291" viewBox="0 0 315 291" fill="none" xmlns="http://www.w3.org/2000/svg">
<path d="M241.721 71.1987L224.746 127.958L224.627 128.355L225.044 128.52L305.396 160.174L245.838 177.87L245.057 178.102L245.62 178.647L312.28 243.107L233.129 215.575L232.076 215.209L232.449 216.175L260.46 288.81L191.431 226.439L190.848 225.911L190.57 226.613L169.357 280.152L136.844 206.307L136.675 205.924L136.234 206.021L73.254 219.778L90.2291 163.018L90.3479 162.621L89.9311 162.457L9.57883 130.803L69.1373 113.106L69.9178 112.875L69.3544 112.33L2.69444 47.8691L81.846 75.4017L82.8986 75.7678L82.5261 74.8019L54.5148 2.16628L123.544 64.5378L124.127 65.0649L124.405 64.3633L145.617 10.8239L178.131 84.669L178.3 85.0521L178.741 84.9557L241.721 71.1987Z" stroke="black"/>
</svg>
