<svg width="793" height="534" viewBox="0 0 793 534" fill="none" xmlns="http://www.w3.org/2000/svg">
<path fill-rule="evenodd" clip-rule="evenodd" d="M52.19 522.771L101.96 521.033L100.312 473.837L50.5419 475.575L52.19 522.771ZM50.5349 475.375L100.305 473.637L98.5666 423.867L48.7969 425.605L50.5349 475.375ZM48.597 425.612L50.335 475.382L15.6978 476.591L13.9598 426.822L48.597 425.612ZM48.7899 425.405L98.5596 423.667L96.8216 373.898L47.0519 375.636L48.7899 425.405ZM46.8521 375.643L48.59 425.412L13.9528 426.622L12.2148 376.852L46.8521 375.643ZM47.045 375.436L96.8146 373.698L95.0766 323.928L45.307 325.666L47.045 375.436ZM45.1071 325.673L46.8451 375.443L12.2078 376.652L10.4698 326.883L45.1071 325.673ZM45.3 325.466L95.0696 323.728L93.3316 273.959L43.562 275.697L45.3 325.466ZM43.3621 275.704L45.1001 325.473L10.4629 326.683L8.72487 276.913L43.3621 275.704ZM43.555 275.497L93.3247 273.759L91.5867 223.989L41.817 225.727L43.555 275.497ZM41.6171 225.734L43.3551 275.504L8.71789 276.713L6.9799 226.944L41.6171 225.734ZM41.81 225.527L91.5797 223.789L89.8417 174.02L40.072 175.758L41.81 225.527ZM39.8722 175.764L41.6102 225.534L6.97292 226.744L5.23492 176.974L39.8722 175.764ZM40.0651 175.558L89.8347 173.82L88.0967 124.05L38.3271 125.788L40.0651 175.558ZM38.1272 125.795L39.8652 175.565L5.22794 176.774L3.48995 127.005L38.1272 125.795ZM38.3201 125.588L88.0897 123.85L86.3518 74.0804L36.5821 75.8184L38.3201 125.588ZM36.3822 75.8254L38.1202 125.595L3.48297 126.805L1.74497 77.035L36.3822 75.8254ZM36.5751 75.6186L86.3448 73.8806L84.6068 24.1109L34.8371 25.8489L36.5751 75.6186ZM34.6372 25.8559L36.3752 75.6255L1.73799 76.8351L0 27.0654L34.6372 25.8559ZM50.342 475.582L51.9901 522.778L17.3529 523.988L15.7048 476.791L50.342 475.582ZM501.716 507.073L451.946 508.811L450.298 461.615L500.068 459.877L501.716 507.073ZM500.061 459.677L450.291 461.415L448.553 411.645L498.323 409.907L500.061 459.677ZM450.091 461.422L448.353 411.652L398.584 413.39L400.322 463.16L450.091 461.422ZM498.316 409.708L448.546 411.446L446.808 361.676L496.578 359.938L498.316 409.708ZM448.346 411.452L446.608 361.683L396.839 363.421L398.577 413.19L448.346 411.452ZM496.571 359.738L446.801 361.476L445.063 311.706L494.833 309.968L496.571 359.738ZM446.601 361.483L444.863 311.713L395.094 313.451L396.832 363.221L446.601 361.483ZM494.826 309.768L445.056 311.506L443.318 261.737L493.088 259.999L494.826 309.768ZM444.856 311.513L443.118 261.744L393.349 263.482L395.087 313.251L444.856 311.513ZM493.081 259.799L443.311 261.537L441.573 211.767L491.343 210.029L493.081 259.799ZM443.111 261.544L441.373 211.774L391.604 213.512L393.342 263.282L443.111 261.544ZM491.336 209.829L441.566 211.567L439.828 161.798L489.598 160.06L491.336 209.829ZM441.366 211.574L439.628 161.805L389.859 163.543L391.597 213.312L441.366 211.574ZM489.591 159.86L439.821 161.598L438.083 111.828L487.853 110.09L489.591 159.86ZM439.621 161.605L437.884 111.835L388.114 113.573L389.852 163.343L439.621 161.605ZM487.846 109.89L438.076 111.628L436.338 61.8586L486.108 60.1206L487.846 109.89ZM437.877 111.635L436.139 61.8656L386.369 63.6036L388.107 113.373L437.877 111.635ZM486.101 59.9208L436.331 61.6588L434.593 11.8891L484.363 10.1511L486.101 59.9208ZM436.132 61.6657L434.394 11.8961L384.624 13.6341L386.362 63.4037L436.132 61.6657ZM451.746 508.818L450.098 461.622L400.329 463.36L401.977 510.556L451.746 508.818ZM252.068 515.791L301.838 514.053L300.19 466.857L250.42 468.595L252.068 515.791ZM250.413 468.395L300.183 466.657L298.445 416.887L248.675 418.625L250.413 468.395ZM248.475 418.632L250.213 468.402L200.444 470.14L198.706 420.37L248.475 418.632ZM248.668 418.425L298.438 416.687L296.7 366.918L246.93 368.656L248.668 418.425ZM246.73 368.663L248.468 418.432L198.699 420.17L196.961 370.401L246.73 368.663ZM246.923 368.456L296.693 366.718L294.955 316.948L245.185 318.686L246.923 368.456ZM244.985 318.693L246.723 368.463L196.954 370.201L195.216 320.431L244.985 318.693ZM245.178 318.486L294.948 316.748L293.21 266.979L243.44 268.717L245.178 318.486ZM243.24 268.724L244.978 318.493L195.209 320.231L193.471 270.462L243.24 268.724ZM243.433 268.517L293.203 266.779L291.465 217.009L241.695 218.747L243.433 268.517ZM241.495 218.754L243.233 268.524L193.464 270.262L191.726 220.492L241.495 218.754ZM241.688 218.547L291.458 216.809L289.72 167.04L239.95 168.778L241.688 218.547ZM239.75 168.785L241.488 218.554L191.719 220.292L189.981 170.523L239.75 168.785ZM239.943 168.578L289.713 166.84L287.975 117.07L238.205 118.808L239.943 168.578ZM238.005 118.815L239.743 168.585L189.974 170.323L188.236 120.553L238.005 118.815ZM238.198 118.608L287.968 116.87L286.23 67.1005L236.46 68.8385L238.198 118.608ZM236.26 68.8455L237.998 118.615L188.229 120.353L186.491 70.5835L236.26 68.8455ZM236.453 68.6387L286.223 66.9007L284.485 17.131L234.715 18.869L236.453 68.6387ZM234.515 18.876L236.253 68.6456L186.484 70.3836L184.746 20.614L234.515 18.876ZM250.22 468.602L251.868 515.798L202.099 517.536L200.45 470.34L250.22 468.602ZM701.594 500.094L651.824 501.832L650.176 454.635L699.946 452.897L701.594 500.094ZM699.939 452.697L650.169 454.435L648.431 404.666L698.201 402.928L699.939 452.697ZM649.969 454.442L648.231 404.672L598.462 406.41L600.2 456.18L649.969 454.442ZM698.194 402.728L648.424 404.466L646.686 354.696L696.456 352.958L698.194 402.728ZM648.224 404.473L646.487 354.703L596.717 356.441L598.455 406.211L648.224 404.473ZM696.449 352.758L646.679 354.496L644.941 304.726L694.711 302.988L696.449 352.758ZM646.48 354.503L644.742 304.733L594.972 306.471L596.71 356.241L646.48 354.503ZM694.704 302.789L644.934 304.527L643.196 254.757L692.966 253.019L694.704 302.789ZM644.735 304.534L642.997 254.764L593.227 256.502L594.965 306.272L644.735 304.534ZM692.959 252.819L643.189 254.557L641.451 204.787L691.221 203.049L692.959 252.819ZM642.99 254.564L641.252 204.794L591.482 206.532L593.22 256.302L642.99 254.564ZM691.214 202.849L641.444 204.587L639.706 154.818L689.476 153.08L691.214 202.849ZM641.245 204.594L639.507 154.825L589.737 156.563L591.475 206.332L641.245 204.594ZM689.469 152.88L639.7 154.618L637.962 104.848L687.731 103.11L689.469 152.88ZM639.5 154.625L637.762 104.855L587.992 106.593L589.73 156.363L639.5 154.625ZM687.724 102.91L637.955 104.648L636.217 54.8787L685.986 53.1407L687.724 102.91ZM637.755 104.655L636.017 54.8857L586.247 56.6237L587.985 106.393L637.755 104.655ZM685.979 52.9409L636.21 54.6789L634.472 4.90919L684.241 3.1712L685.979 52.9409ZM636.01 54.6858L634.272 4.91617L584.502 6.65417L586.24 56.4238L636.01 54.6858ZM651.625 501.839L649.976 454.642L600.207 456.38L601.855 503.576L651.625 501.839ZM152.129 519.281L201.899 517.543L200.251 470.347L150.481 472.085L152.129 519.281ZM150.474 471.885L200.244 470.147L198.506 420.377L148.736 422.115L150.474 471.885ZM148.536 422.122L150.274 471.892L100.504 473.63L98.7664 423.86L148.536 422.122ZM148.729 421.915L198.499 420.177L196.761 370.408L146.991 372.146L148.729 421.915ZM146.791 372.153L148.529 421.922L98.7595 423.66L97.0215 373.891L146.791 372.153ZM146.984 371.946L196.754 370.208L195.016 320.438L145.246 322.176L146.984 371.946ZM145.046 322.183L146.784 371.953L97.0145 373.691L95.2765 323.921L145.046 322.183ZM145.239 321.976L195.009 320.238L193.271 270.469L143.501 272.207L145.239 321.976ZM143.301 272.214L145.039 321.983L95.2695 323.721L93.5315 273.952L143.301 272.214ZM143.494 272.007L193.264 270.269L191.526 220.499L141.756 222.237L143.494 272.007ZM141.556 222.244L143.294 272.014L93.5245 273.752L91.7865 223.982L141.556 222.244ZM141.749 222.037L191.519 220.299L189.781 170.53L140.011 172.268L141.749 222.037ZM139.811 172.275L141.549 222.044L91.7796 223.782L90.0416 174.013L139.811 172.275ZM140.004 172.068L189.774 170.33L188.036 120.56L138.266 122.298L140.004 172.068ZM138.066 122.305L139.804 172.075L90.0346 173.813L88.2966 124.043L138.066 122.305ZM138.259 122.098L188.029 120.36L186.291 70.5905L136.521 72.3285L138.259 122.098ZM136.321 72.3355L138.059 122.105L88.2896 123.843L86.5516 74.0735L136.321 72.3355ZM136.514 72.1286L186.284 70.3906L184.546 20.6209L134.776 22.3589L136.514 72.1286ZM134.576 22.3659L136.314 72.1356L86.5447 73.8736L84.8067 24.1039L134.576 22.3659ZM150.281 472.092L151.929 519.288L102.16 521.026L100.511 473.83L150.281 472.092ZM601.655 503.583L551.885 505.321L550.237 458.125L600.007 456.387L601.655 503.583ZM600 456.187L550.23 457.925L548.492 408.155L598.262 406.417L600 456.187ZM550.03 457.932L548.292 408.162L498.523 409.9L500.261 459.67L550.03 457.932ZM598.255 406.218L548.485 407.956L546.747 358.186L596.517 356.448L598.255 406.218ZM548.285 407.963L546.547 358.193L496.778 359.931L498.516 409.701L548.285 407.963ZM596.51 356.248L546.74 357.986L545.002 308.216L594.772 306.478L596.51 356.248ZM546.541 357.993L544.803 308.223L495.033 309.961L496.771 359.731L546.541 357.993ZM594.765 306.278L544.995 308.016L543.257 258.247L593.027 256.509L594.765 306.278ZM544.796 308.023L543.058 258.254L493.288 259.992L495.026 309.761L544.796 308.023ZM593.02 256.309L543.25 258.047L541.512 208.277L591.282 206.539L593.02 256.309ZM543.051 258.054L541.313 208.284L491.543 210.022L493.281 259.792L543.051 258.054ZM591.275 206.339L541.505 208.077L539.767 158.308L589.537 156.57L591.275 206.339ZM541.306 208.084L539.568 158.315L489.798 160.053L491.536 209.822L541.306 208.084ZM589.53 156.37L539.76 158.108L538.022 108.338L587.792 106.6L589.53 156.37ZM539.561 158.115L537.823 108.345L488.053 110.083L489.791 159.853L539.561 158.115ZM587.785 106.4L538.015 108.138L536.277 58.3687L586.047 56.6307L587.785 106.4ZM537.816 108.145L536.078 58.3757L486.308 60.1137L488.046 109.883L537.816 108.145ZM586.04 56.4308L536.27 58.1688L534.532 8.39914L584.302 6.66115L586.04 56.4308ZM536.071 58.1758L534.333 8.40612L484.563 10.1441L486.301 59.9138L536.071 58.1758ZM551.686 505.328L550.037 458.132L500.268 459.87L501.916 507.066L551.686 505.328ZM352.007 512.301L401.777 510.563L400.129 463.367L350.359 465.105L352.007 512.301ZM350.352 464.905L400.122 463.167L398.384 413.397L348.614 415.135L350.352 464.905ZM348.414 415.142L350.152 464.912L300.383 466.65L298.645 416.88L348.414 415.142ZM348.607 414.935L398.377 413.197L396.639 363.428L346.869 365.166L348.607 414.935ZM346.669 365.173L348.407 414.942L298.638 416.68L296.9 366.911L346.669 365.173ZM346.862 364.966L396.632 363.228L394.894 313.458L345.124 315.196L346.862 364.966ZM344.924 315.203L346.662 364.973L296.893 366.711L295.155 316.941L344.924 315.203ZM345.117 314.996L394.887 313.258L393.149 263.489L343.379 265.227L345.117 314.996ZM343.179 265.234L344.917 315.003L295.148 316.741L293.41 266.972L343.179 265.234ZM343.372 265.027L393.142 263.289L391.404 213.519L341.634 215.257L343.372 265.027ZM341.434 215.264L343.172 265.034L293.403 266.772L291.665 217.002L341.434 215.264ZM341.627 215.057L391.397 213.319L389.659 163.55L339.889 165.288L341.627 215.057ZM339.689 165.295L341.427 215.064L291.658 216.802L289.92 167.033L339.689 165.295ZM339.882 165.088L389.652 163.35L387.914 113.58L338.144 115.318L339.882 165.088ZM337.944 115.325L339.682 165.095L289.913 166.833L288.175 117.063L337.944 115.325ZM338.137 115.118L387.907 113.38L386.169 63.6106L336.399 65.3486L338.137 115.118ZM336.199 65.3556L337.937 115.125L288.168 116.863L286.43 67.0936L336.199 65.3556ZM336.392 65.1487L386.162 63.4107L384.424 13.641L334.654 15.379L336.392 65.1487ZM334.454 15.386L336.192 65.1557L286.423 66.8937L284.685 17.124L334.454 15.386ZM350.159 465.112L351.807 512.308L302.038 514.046L300.39 466.85L350.159 465.112ZM792.408 496.922L751.764 498.342L750.115 451.145L790.76 449.726L792.408 496.922ZM790.753 449.526L750.108 450.945L748.37 401.176L789.015 399.756L790.753 449.526ZM749.909 450.952L748.171 401.183L698.401 402.921L700.139 452.69L749.909 450.952ZM789.008 399.556L748.363 400.976L746.625 351.206L787.27 349.787L789.008 399.556ZM748.164 400.983L746.426 351.213L696.656 352.951L698.394 402.721L748.164 400.983ZM787.263 349.587L746.618 351.006L744.88 301.236L785.525 299.817L787.263 349.587ZM746.419 351.013L744.681 301.243L694.911 302.981L696.649 352.751L746.419 351.013ZM785.518 299.617L744.874 301.037L743.136 251.267L783.78 249.848L785.518 299.617ZM744.674 301.044L742.936 251.274L693.166 253.012L694.904 302.782L744.674 301.044ZM783.773 249.648L743.129 251.067L741.391 201.297L782.035 199.878L783.773 249.648ZM742.929 251.074L741.191 201.304L691.421 203.042L693.159 252.812L742.929 251.074ZM782.028 199.678L741.384 201.098L739.646 151.328L780.29 149.909L782.028 199.678ZM741.184 201.105L739.446 151.335L689.676 153.073L691.414 202.843L741.184 201.105ZM780.283 149.709L739.639 151.128L737.901 101.358L778.545 99.939L780.283 149.709ZM739.439 151.135L737.701 101.365L687.931 103.103L689.669 152.873L739.439 151.135ZM778.538 99.7391L737.894 101.158L736.156 51.3888L776.8 49.9695L778.538 99.7391ZM737.694 101.165L735.956 51.3958L686.186 53.1338L687.924 102.903L737.694 101.165ZM776.793 49.7696L736.149 51.1889L734.411 1.41924L775.055 -8.33884e-05L776.793 49.7696ZM735.949 51.1959L734.211 1.42622L684.441 3.16422L686.179 52.9339L735.949 51.1959ZM751.564 498.349L749.916 451.152L700.146 452.89L701.794 500.087L751.564 498.349Z" fill="white"/>
<rect x="26" y="523.663" width="764" height="10" transform="rotate(-2 26 523.663)" fill="black"/>
</svg>
