<svg width="292" height="128" viewBox="0 0 292 128" fill="none" xmlns="http://www.w3.org/2000/svg">
<path d="M133.774 127.225L114.537 96.7098L114.375 96.4526L114.039 96.537L49.6095 112.737L75.8553 83.5234L76.5217 82.7816L75.595 82.7463L3.19697 79.9832L63.839 62.7418L65.3469 62.3131L64.018 61.8104L10.5741 41.5952L83.3072 42.6153L84.2382 42.6283L83.8621 41.8594L69.0503 11.5751L126.642 30.9563L126.942 31.0573L127.201 30.811L157.916 1.59814L177.153 32.1132L177.316 32.3704L177.651 32.286L242.081 16.0855L215.835 45.2996L215.168 46.0413L216.095 46.0767L288.493 48.8398L227.851 66.0811L226.343 66.5098L227.672 67.0125L281.116 87.2277L208.383 86.2076L207.452 86.1946L207.828 86.9635L222.64 117.248L165.048 97.8666L164.748 97.7656L164.489 98.0119L133.774 127.225Z" stroke="black"/>
</svg>
