<svg width="644" height="415" viewBox="0 0 644 415" fill="none" xmlns="http://www.w3.org/2000/svg">
<rect x="12.1895" y="382.786" width="611.011" height="10" transform="rotate(2 12.1895 382.786)" fill="black"/>
<path fill-rule="evenodd" clip-rule="evenodd" d="M36.1789 383.968L85.9486 385.706L86.5247 369.208L36.755 367.47L36.1789 383.968ZM36.762 367.271L86.5317 369.009L88.2697 319.239L38.5 317.501L36.762 367.271ZM38.3001 317.494L36.5621 367.264L1.5834 366.042L3.32139 316.272L38.3001 317.494ZM38.507 317.301L88.2766 319.039L90.0146 269.269L40.245 267.531L38.507 317.301ZM40.0451 267.524L38.3071 317.294L3.32837 316.073L5.06637 266.303L40.0451 267.524ZM40.252 267.331L90.0216 269.069L91.7596 219.3L41.9899 217.562L40.252 267.331ZM41.7901 217.555L40.0521 267.324L5.07335 266.103L6.81134 216.333L41.7901 217.555ZM41.9969 217.362L91.7666 219.1L93.5046 169.33L43.7349 167.592L41.9969 217.362ZM43.535 167.585L41.7971 217.355L6.81832 216.133L8.55632 166.364L43.535 167.585ZM43.7419 167.392L93.5116 169.13L95.2496 119.361L45.4799 117.623L43.7419 167.392ZM45.28 117.616L43.542 167.385L8.5633 166.164L10.3013 116.394L45.28 117.616ZM45.4869 117.423L95.2565 119.161L96.9945 69.3912L47.2249 67.6532L45.4869 117.423ZM47.025 67.6462L45.287 117.416L10.3083 116.194L12.0463 66.4247L47.025 67.6462ZM47.2319 67.4533L97.0015 69.1913L98.7395 19.4216L48.9699 17.6836L47.2319 67.4533ZM48.77 17.6767L47.032 67.4463L12.0532 66.2248L13.7912 16.4552L48.77 17.6767ZM48.9768 17.4838L98.7465 19.2218L99.3037 3.26431L49.5341 1.52632L48.9768 17.4838ZM49.3342 1.51934L48.777 17.4768L13.7982 16.2553L14.3555 0.297852L49.3342 1.51934ZM36.5551 367.463L35.979 383.961L1.00033 382.739L1.57642 366.242L36.5551 367.463ZM485.705 399.665L435.935 397.927L436.511 381.43L486.281 383.168L485.705 399.665ZM486.288 382.968L436.518 381.23L438.256 331.461L488.026 333.199L486.288 382.968ZM436.318 381.223L438.056 331.454L388.287 329.716L386.549 379.485L436.318 381.223ZM488.033 332.999L438.263 331.261L440.001 281.491L489.771 283.229L488.033 332.999ZM438.063 331.254L439.801 281.484L390.032 279.746L388.294 329.516L438.063 331.254ZM489.778 283.029L440.008 281.291L441.746 231.522L491.516 233.26L489.778 283.029ZM439.808 281.284L441.546 231.515L391.777 229.777L390.039 279.546L439.808 281.284ZM491.523 233.06L441.753 231.322L443.491 181.552L493.261 183.29L491.523 233.06ZM441.553 231.315L443.291 181.545L393.522 179.807L391.784 229.577L441.553 231.315ZM493.268 183.09L443.498 181.352L445.236 131.583L495.006 133.321L493.268 183.09ZM443.298 181.345L445.036 131.576L395.267 129.838L393.529 179.607L443.298 181.345ZM495.013 133.121L445.243 131.383L446.981 81.613L496.751 83.351L495.013 133.121ZM445.043 131.376L446.781 81.606L397.012 79.868L395.274 129.638L445.043 131.376ZM496.758 83.1511L446.988 81.4131L448.726 31.6434L498.496 33.3814L496.758 83.1511ZM446.788 81.4061L448.526 31.6365L398.757 29.8985L397.019 79.6681L446.788 81.4061ZM498.503 33.1816L448.733 31.4436L449.29 15.4861L499.06 17.2241L498.503 33.1816ZM448.533 31.4366L449.091 15.4791L399.321 13.7411L398.764 29.6986L448.533 31.4366ZM435.735 397.92L436.311 381.423L386.542 379.685L385.966 396.182L435.735 397.92ZM236.057 390.947L285.827 392.685L286.403 376.188L236.633 374.45L236.057 390.947ZM236.64 374.25L286.41 375.988L288.148 326.219L238.378 324.481L236.64 374.25ZM238.178 324.474L236.44 374.243L186.671 372.505L188.409 322.736L238.178 324.474ZM238.385 324.281L288.155 326.019L289.893 276.249L240.123 274.511L238.385 324.281ZM239.923 274.504L238.185 324.274L188.416 322.536L190.154 272.766L239.923 274.504ZM240.13 274.311L289.9 276.049L291.638 226.28L241.868 224.542L240.13 274.311ZM241.668 224.535L239.93 274.304L190.161 272.566L191.899 222.797L241.668 224.535ZM241.875 224.342L291.645 226.08L293.383 176.31L243.613 174.572L241.875 224.342ZM243.413 174.565L241.675 224.335L191.906 222.597L193.644 172.827L243.413 174.565ZM243.62 174.372L293.39 176.11L295.128 126.341L245.358 124.603L243.62 174.372ZM245.158 124.596L243.42 174.365L193.651 172.627L195.389 122.858L245.158 124.596ZM245.365 124.403L295.135 126.141L296.873 76.3711L247.103 74.6331L245.365 124.403ZM246.903 74.6261L245.165 124.396L195.396 122.658L197.133 72.8881L246.903 74.6261ZM247.11 74.4332L296.88 76.1712L298.618 26.4015L248.848 24.6635L247.11 74.4332ZM248.648 24.6566L246.91 74.4262L197.14 72.6882L198.878 22.9186L248.648 24.6566ZM248.855 24.4637L298.625 26.2017L299.182 10.2442L249.412 8.50621L248.855 24.4637ZM249.212 8.49924L248.655 24.4567L198.885 22.7187L199.443 6.76124L249.212 8.49924ZM236.433 374.443L235.857 390.94L186.088 389.202L186.664 372.705L236.433 374.443ZM136.118 387.458L185.888 389.196L186.464 372.698L136.694 370.96L136.118 387.458ZM136.701 370.76L186.471 372.498L188.209 322.729L138.439 320.991L136.701 370.76ZM138.239 320.984L136.501 370.753L86.7315 369.015L88.4695 319.246L138.239 320.984ZM138.446 320.791L188.216 322.529L189.954 272.759L140.184 271.021L138.446 320.791ZM139.984 271.014L138.246 320.784L88.4765 319.046L90.2145 269.276L139.984 271.014ZM140.191 270.821L189.961 272.559L191.699 222.79L141.929 221.052L140.191 270.821ZM141.729 221.045L139.991 270.814L90.2215 269.076L91.9595 219.307L141.729 221.045ZM141.936 220.852L191.706 222.59L193.444 172.82L143.674 171.082L141.936 220.852ZM143.474 171.075L141.736 220.845L91.9665 219.107L93.7045 169.337L143.474 171.075ZM143.681 170.882L193.451 172.62L195.189 122.851L145.419 121.113L143.681 170.882ZM145.219 121.106L143.481 170.875L93.7114 169.137L95.4494 119.368L145.219 121.106ZM145.426 120.913L195.196 122.651L196.934 72.8811L147.164 71.1431L145.426 120.913ZM146.964 71.1362L145.226 120.906L95.4564 119.168L97.1944 69.3982L146.964 71.1362ZM147.171 70.9433L196.941 72.6813L198.679 22.9116L148.909 21.1736L147.171 70.9433ZM148.709 21.1666L146.971 70.9363L97.2014 69.1983L98.9394 19.4286L148.709 21.1666ZM148.916 20.9737L198.686 22.7117L199.243 6.75426L149.473 5.01627L148.916 20.9737ZM149.273 5.00929L148.716 20.9667L98.9464 19.2287L99.5036 3.27129L149.273 5.00929ZM136.494 370.953L135.918 387.451L86.1485 385.713L86.7246 369.215L136.494 370.953ZM585.644 403.155L535.874 401.417L536.45 384.92L586.22 386.658L585.644 403.155ZM586.227 386.458L536.457 384.72L538.195 334.951L587.965 336.689L586.227 386.458ZM536.258 384.713L537.996 334.944L488.226 333.206L486.488 382.975L536.258 384.713ZM587.972 336.489L538.202 334.751L539.94 284.981L589.71 286.719L587.972 336.489ZM538.003 334.744L539.74 284.974L489.971 283.236L488.233 333.006L538.003 334.744ZM589.717 286.519L539.947 284.781L541.685 235.012L591.455 236.75L589.717 286.519ZM539.747 284.774L541.485 235.005L491.716 233.267L489.978 283.036L539.747 284.774ZM591.462 236.55L541.692 234.812L543.43 185.042L593.2 186.78L591.462 236.55ZM541.492 234.805L543.23 185.035L493.461 183.297L491.723 233.067L541.492 234.805ZM593.207 186.58L543.437 184.842L545.175 135.072L594.945 136.81L593.207 186.58ZM543.237 184.835L544.975 135.065L495.206 133.327L493.468 183.097L543.237 184.835ZM594.952 136.611L545.182 134.873L546.92 85.1029L596.69 86.8409L594.952 136.611ZM544.982 134.866L546.72 85.0959L496.951 83.358L495.213 133.128L544.982 134.866ZM596.697 86.641L546.927 84.9031L548.665 35.1334L598.435 36.8714L596.697 86.641ZM546.727 84.8961L548.465 35.1264L498.696 33.3884L496.958 83.1581L546.727 84.8961ZM598.442 36.6715L548.672 34.9335L549.229 18.9761L598.999 20.7141L598.442 36.6715ZM548.472 34.9265L549.03 18.9691L499.26 17.2311L498.703 33.1885L548.472 34.9265ZM535.674 401.41L536.251 384.913L486.481 383.175L485.905 399.672L535.674 401.41ZM335.996 394.437L385.766 396.175L386.342 379.678L336.572 377.94L335.996 394.437ZM336.579 377.74L386.349 379.478L388.087 329.709L338.317 327.971L336.579 377.74ZM338.117 327.964L336.379 377.733L286.61 375.995L288.348 326.226L338.117 327.964ZM338.324 327.771L388.094 329.509L389.832 279.739L340.062 278.001L338.324 327.771ZM339.862 277.994L338.124 327.764L288.355 326.026L290.093 276.256L339.862 277.994ZM340.069 277.801L389.839 279.539L391.577 229.77L341.807 228.032L340.069 277.801ZM341.607 228.025L339.869 277.794L290.1 276.056L291.838 226.287L341.607 228.025ZM341.814 227.832L391.584 229.57L393.322 179.8L343.552 178.062L341.814 227.832ZM343.352 178.055L341.614 227.825L291.845 226.087L293.583 176.317L343.352 178.055ZM343.559 177.862L393.329 179.6L395.067 129.831L345.297 128.093L343.559 177.862ZM345.097 128.086L343.359 177.855L293.59 176.117L295.328 126.348L345.097 128.086ZM345.304 127.893L395.074 129.631L396.812 79.861L347.042 78.123L345.304 127.893ZM346.842 78.116L345.104 127.886L295.335 126.148L297.073 76.3781L346.842 78.116ZM347.049 77.9232L396.819 79.6611L398.557 29.8915L348.787 28.1535L347.049 77.9232ZM348.587 28.1465L346.849 77.9162L297.08 76.1782L298.818 26.4085L348.587 28.1465ZM348.794 27.9536L398.564 29.6916L399.121 13.7342L349.351 11.9962L348.794 27.9536ZM349.151 11.9892L348.594 27.9466L298.825 26.2086L299.382 10.2512L349.151 11.9892ZM336.372 377.933L335.796 394.43L286.027 392.692L286.603 376.195L336.372 377.933ZM629.817 404.698L585.844 403.162L586.42 386.665L630.393 388.201L629.817 404.698ZM630.4 388.001L586.427 386.465L588.165 336.696L632.138 338.231L630.4 388.001ZM632.145 338.031L588.172 336.496L589.91 286.726L633.883 288.262L632.145 338.031ZM633.89 288.062L589.917 286.526L591.655 236.757L635.628 238.292L633.89 288.062ZM635.635 238.092L591.662 236.557L593.4 186.787L637.373 188.323L635.635 238.092ZM637.38 188.123L593.407 186.587L595.145 136.817L639.118 138.353L637.38 188.123ZM639.125 138.153L595.152 136.618L596.89 86.8479L640.863 88.3835L639.125 138.153ZM640.87 88.1836L596.897 86.648L598.635 36.8784L642.608 38.4139L640.87 88.1836ZM642.615 38.214L598.642 36.6785L599.199 20.721L643.172 22.2566L642.615 38.214Z" fill="white"/>
</svg>
