<svg width="71" height="72" viewBox="0 0 71 72" fill="none" xmlns="http://www.w3.org/2000/svg">
<path d="M26.1345 20.0787L28.0136 2.68929L36.7502 16.0972L37.1229 16.6692L37.5404 16.1383L48.4935 2.20882L47.5419 19.3615L47.5005 20.1077L48.1878 19.8783L63.9854 14.6052L53.7202 29.0852L53.329 29.6371L53.9576 29.8664L68.6939 35.2411L52.9085 41.5029L52.3715 41.7159L52.6645 42.2316L60.6813 56.3433L45.4682 51.8669L44.9122 51.7033L44.8483 52.2948L42.9692 69.6843L34.2327 56.2763L33.86 55.7044L33.4425 56.2353L22.4893 70.1647L23.4409 53.0121L23.4823 52.2659L22.7951 52.4953L6.99746 57.7684L17.2626 43.2884L17.6539 42.7365L17.0252 42.5072L2.28888 37.1325L18.0743 30.8707L18.6113 30.6577L18.3183 30.1419L10.3015 16.0302L25.5146 20.5067L26.0706 20.6703L26.1345 20.0787Z" stroke="#6200E2"/>
</svg>
