<svg width="829" height="298" viewBox="0 0 829 298" fill="none" xmlns="http://www.w3.org/2000/svg">
<rect x="17" y="287.098" width="807" height="10" transform="rotate(-2 17 287.098)" fill="black"/>
<path fill-rule="evenodd" clip-rule="evenodd" d="M44.2042 285.985L93.9738 284.247L93.6731 275.634L43.9034 277.372L44.2042 285.985ZM43.8964 277.172L93.6661 275.434L91.9281 225.665L42.1584 227.403L43.8964 277.172ZM41.9586 227.41L43.6966 277.179L8.7179 278.401L6.9799 228.631L41.9586 227.41ZM42.1515 227.203L91.9211 225.465L90.1831 175.695L40.4135 177.433L42.1515 227.203ZM40.2136 177.44L41.9516 227.21L6.97292 228.431L5.23493 178.661L40.2136 177.44ZM40.4065 177.233L90.1762 175.495L88.4382 125.725L38.6685 127.463L40.4065 177.233ZM38.4686 127.47L40.2066 177.24L5.22795 178.462L3.48995 128.692L38.4686 127.47ZM38.6615 127.264L88.4312 125.526L86.6932 75.7559L36.9235 77.4939L38.6615 127.264ZM36.7236 77.5009L38.4616 127.271L3.48297 128.492L1.74498 78.7224L36.7236 77.5009ZM36.9165 77.294L86.6862 75.556L84.9482 25.7864L35.1786 27.5244L36.9165 77.294ZM34.9787 27.5314L36.7167 77.301L1.738 78.5225L1.06505e-06 28.7528L34.9787 27.5314ZM43.7035 277.379L44.0043 285.992L9.02564 287.213L8.72487 278.601L43.7035 277.379ZM493.73 270.287L443.96 272.025L443.66 263.412L493.429 261.674L493.73 270.287ZM493.422 261.474L443.653 263.212L441.915 213.443L491.684 211.705L493.422 261.474ZM443.453 263.219L441.715 213.45L391.945 215.188L393.683 264.957L443.453 263.219ZM491.677 211.505L441.908 213.243L440.17 163.473L489.939 161.735L491.677 211.505ZM441.708 213.25L439.97 163.48L390.2 165.218L391.938 214.988L441.708 213.25ZM489.932 161.535L440.163 163.273L438.425 113.504L488.194 111.766L489.932 161.535ZM439.963 163.28L438.225 113.511L388.455 115.249L390.193 165.018L439.963 163.28ZM488.187 111.566L438.418 113.304L436.68 63.5341L486.45 61.7961L488.187 111.566ZM438.218 113.311L436.48 63.5411L386.71 65.2791L388.448 115.049L438.218 113.311ZM486.443 61.5962L436.673 63.3342L434.935 13.5646L484.705 11.8266L486.443 61.5962ZM436.473 63.3412L434.735 13.5715L384.965 15.3095L386.703 65.0792L436.473 63.3412ZM443.761 272.032L443.46 263.419L393.69 265.157L393.991 273.77L443.761 272.032ZM244.082 279.005L293.852 277.267L293.551 268.654L243.782 270.392L244.082 279.005ZM243.775 270.192L293.544 268.454L291.806 218.685L242.037 220.423L243.775 270.192ZM241.837 220.43L243.575 270.199L193.805 271.937L192.067 222.168L241.837 220.43ZM242.03 220.223L291.799 218.485L290.061 168.715L240.292 170.453L242.03 220.223ZM240.092 170.46L241.83 220.23L192.06 221.968L190.322 172.198L240.092 170.46ZM240.285 170.253L290.054 168.515L288.316 118.746L238.547 120.484L240.285 170.253ZM238.347 120.491L240.085 170.26L190.315 171.998L188.577 122.229L238.347 120.491ZM238.54 120.284L288.309 118.546L286.571 68.776L236.802 70.514L238.54 120.284ZM236.602 70.521L238.34 120.291L188.57 122.029L186.832 72.259L236.602 70.521ZM236.795 70.3141L286.564 68.5761L284.826 18.8065L235.057 20.5445L236.795 70.3141ZM234.857 20.5514L236.595 70.3211L186.825 72.0591L185.087 22.2894L234.857 20.5514ZM243.582 270.399L243.882 279.012L194.113 280.75L193.812 272.137L243.582 270.399ZM693.608 263.307L643.839 265.045L643.538 256.432L693.308 254.694L693.608 263.307ZM693.301 254.495L643.531 256.232L641.793 206.463L691.563 204.725L693.301 254.495ZM643.331 256.239L641.593 206.47L591.823 208.208L593.561 257.977L643.331 256.239ZM691.556 204.525L641.786 206.263L640.048 156.493L689.818 154.755L691.556 204.525ZM641.586 206.27L639.848 156.5L590.078 158.238L591.816 208.008L641.586 206.27ZM689.811 154.555L640.041 156.293L638.303 106.524L688.073 104.786L689.811 154.555ZM639.841 156.3L638.103 106.531L588.333 108.269L590.071 158.038L639.841 156.3ZM688.066 104.586L638.296 106.324L636.558 56.5542L686.328 54.8162L688.066 104.586ZM638.096 106.331L636.358 56.5612L586.588 58.2992L588.326 108.069L638.096 106.331ZM686.321 54.6163L636.551 56.3543L634.813 6.58465L684.583 4.84666L686.321 54.6163ZM636.351 56.3613L634.613 6.59163L584.843 8.32963L586.581 58.0993L636.351 56.3613ZM643.639 265.052L643.338 256.439L593.568 258.177L593.869 266.79L643.639 265.052ZM144.143 282.495L193.913 280.757L193.612 272.144L143.842 273.882L144.143 282.495ZM143.836 273.682L193.605 271.944L191.867 222.175L142.098 223.913L143.836 273.682ZM141.898 223.92L143.636 273.689L93.866 275.427L92.128 225.658L141.898 223.92ZM142.091 223.713L191.86 221.975L190.122 172.205L140.353 173.943L142.091 223.713ZM140.153 173.95L141.891 223.72L92.121 225.458L90.383 175.688L140.153 173.95ZM140.346 173.743L190.115 172.005L188.377 122.236L138.608 123.974L140.346 173.743ZM138.408 123.98L140.146 173.75L90.376 175.488L88.638 125.718L138.408 123.98ZM138.601 123.774L188.37 122.036L186.632 72.266L136.863 74.004L138.601 123.774ZM136.663 74.0109L138.401 123.781L88.6311 125.519L86.8931 75.7489L136.663 74.0109ZM136.856 73.8041L186.625 72.0661L184.887 22.2964L135.118 24.0344L136.856 73.8041ZM134.918 24.0414L136.656 73.8111L86.8861 75.5491L85.1481 25.7794L134.918 24.0414ZM143.643 273.889L143.943 282.502L94.1737 284.24L93.873 275.627L143.643 273.889ZM593.669 266.797L543.9 268.535L543.599 259.922L593.368 258.184L593.669 266.797ZM593.362 257.984L543.592 259.722L541.854 209.953L591.624 208.215L593.362 257.984ZM543.392 259.729L541.654 209.96L491.884 211.698L493.622 261.467L543.392 259.729ZM591.617 208.015L541.847 209.753L540.109 159.983L589.879 158.245L591.617 208.015ZM541.647 209.76L539.909 159.99L490.139 161.728L491.877 211.498L541.647 209.76ZM589.872 158.045L540.102 159.783L538.364 110.014L588.134 108.276L589.872 158.045ZM539.902 159.79L538.164 110.021L488.394 111.759L490.132 161.528L539.902 159.79ZM588.127 108.076L538.357 109.814L536.619 60.0442L586.389 58.3062L588.127 108.076ZM538.157 109.821L536.419 60.0511L486.649 61.7891L488.387 111.559L538.157 109.821ZM586.382 58.1063L536.612 59.8443L534.874 10.0746L584.644 8.33661L586.382 58.1063ZM536.412 59.8513L534.674 10.0816L484.904 11.8196L486.642 61.5893L536.412 59.8513ZM543.7 268.542L543.399 259.929L493.629 261.667L493.93 270.28L543.7 268.542ZM344.021 275.515L393.791 273.777L393.49 265.164L343.721 266.902L344.021 275.515ZM343.714 266.702L393.483 264.964L391.745 215.195L341.976 216.933L343.714 266.702ZM341.776 216.94L343.514 266.709L293.744 268.447L292.006 218.678L341.776 216.94ZM341.969 216.733L391.738 214.995L390 165.225L340.231 166.963L341.969 216.733ZM340.031 166.97L341.769 216.74L291.999 218.478L290.261 168.708L340.031 166.97ZM340.224 166.763L389.993 165.025L388.255 115.256L338.486 116.994L340.224 166.763ZM338.286 117.001L340.024 166.77L290.254 168.508L288.516 118.739L338.286 117.001ZM338.479 116.794L388.248 115.056L386.51 65.2861L336.741 67.0241L338.479 116.794ZM336.541 67.031L338.279 116.801L288.509 118.539L286.771 68.769L336.541 67.031ZM336.734 66.8242L386.503 65.0862L384.765 15.3165L334.996 17.0545L336.734 66.8242ZM334.796 17.0615L336.534 66.8312L286.764 68.5692L285.026 18.7995L334.796 17.0615ZM343.521 266.909L343.822 275.522L294.052 277.26L293.751 268.647L343.521 266.909ZM793.547 259.817L743.778 261.555L743.477 252.942L793.247 251.204L793.547 259.817ZM793.24 251.005L743.47 252.743L741.732 202.973L791.502 201.235L793.24 251.005ZM743.27 252.75L741.532 202.98L691.762 204.718L693.5 254.488L743.27 252.75ZM791.495 201.035L741.725 202.773L739.987 153.003L789.757 151.265L791.495 201.035ZM741.525 202.78L739.787 153.01L690.018 154.748L691.755 204.518L741.525 202.78ZM789.75 151.065L739.98 152.803L738.242 103.034L788.012 101.296L789.75 151.065ZM739.78 152.81L738.042 103.041L688.273 104.779L690.011 154.548L739.78 152.81ZM788.005 101.096L738.235 102.834L736.497 53.0643L786.267 51.3263L788.005 101.096ZM738.035 102.841L736.297 53.0712L686.528 54.8092L688.266 104.579L738.035 102.841ZM786.26 51.1264L736.49 52.8644L734.752 3.0947L784.522 1.3567L786.26 51.1264ZM736.29 52.8714L734.552 3.10168L684.783 4.83968L686.521 54.6094L736.29 52.8714ZM743.578 261.562L743.277 252.949L693.507 254.687L693.808 263.3L743.578 261.562ZM828.526 258.596L793.747 259.81L793.447 251.197L828.225 249.983L828.526 258.596ZM828.218 249.783L793.44 250.998L791.702 201.228L826.48 200.013L828.218 249.783ZM826.473 199.814L791.695 201.028L789.957 151.258L824.735 150.044L826.473 199.814ZM824.728 149.844L789.95 151.058L788.212 101.289L822.99 100.074L824.728 149.844ZM822.983 99.8745L788.205 101.089L786.467 51.3193L821.245 50.1048L822.983 99.8745ZM821.238 49.9049L786.46 51.1194L784.722 1.34972L819.5 0.135221L821.238 49.9049Z" fill="white"/>
</svg>
