<svg width="562" height="159" viewBox="0 0 562 159" fill="none" xmlns="http://www.w3.org/2000/svg">
<path d="M281 0L306.339 39.4144L378.476 4.79443L353.96 44.2493L464.194 18.5995L392.781 53.336L527.817 39.75L418.12 65.5784L561.67 65.695L426.92 79.5L561.67 93.305L418.12 93.4216L527.817 119.25L392.781 105.664L464.194 140.401L353.96 114.751L378.476 154.206L306.339 119.586L281 159L255.661 119.586L183.524 154.206L208.04 114.751L97.8055 140.401L169.219 105.664L34.1828 119.25L143.88 93.4216L0.329803 93.305L135.08 79.5L0.329803 65.695L143.88 65.5784L34.1828 39.75L169.219 53.336L97.8055 18.5995L208.04 44.2493L183.524 4.79443L255.661 39.4144L281 0Z" fill="#42FF58"/>
</svg>
