<svg width="219" height="215" viewBox="0 0 219 215" fill="none" xmlns="http://www.w3.org/2000/svg">
<path d="M53.3458 121.212L1.74301 98.9546L51.4067 84.7847L52.0632 84.5974L51.6792 84.0418L19.1149 36.938L71.3093 56.2859L72.0101 56.5457L71.9937 55.8213L70.7742 1.86989L105.694 47.3744L106.106 47.9111L106.511 47.3781L137.118 7.0573L141.374 61.4549L141.419 62.0308L141.999 61.9031L192.869 50.6842L164.731 93.0986L164.411 93.5816L164.957 93.8172L216.56 116.074L166.896 130.244L166.239 130.431L166.624 130.987L199.188 178.091L146.993 158.743L146.293 158.483L146.309 159.207L147.529 213.159L112.608 167.654L112.196 167.118L111.792 167.651L81.1845 207.971L76.9285 153.574L76.8835 152.998L76.3042 153.126L25.434 164.345L53.5718 121.93L53.8922 121.447L53.3458 121.212Z" stroke="#6200E2"/>
</svg>
