<svg width="218" height="215" viewBox="0 0 218 215" fill="none" xmlns="http://www.w3.org/2000/svg">
<path d="M53.2443 121.222L1.64145 98.9653L51.3052 84.7954L51.9617 84.6081L51.5776 84.0525L19.0134 36.9487L71.2077 56.2967L71.9085 56.5564L71.8921 55.8321L70.6727 1.88064L105.593 47.3852L106.005 47.9219L106.409 47.3889L137.017 7.06804L141.273 61.4656L141.318 62.0416L141.897 61.9138L192.767 50.6949L164.629 93.1093L164.309 93.5923L164.855 93.8279L216.458 116.085L166.794 130.255L166.138 130.442L166.522 130.998L199.086 178.102L146.892 158.754L146.191 158.494L146.207 159.218L147.427 213.17L112.507 167.665L112.095 167.128L111.69 167.661L81.0829 207.982L76.827 153.585L76.7819 153.009L76.2026 153.136L25.3324 164.355L53.4702 121.941L53.7906 121.458L53.2443 121.222Z" stroke="black"/>
</svg>
