<svg width="196" height="190" viewBox="0 0 196 190" fill="none" xmlns="http://www.w3.org/2000/svg">
<path d="M50.6011 115.841L1.50813 104.329L43.1278 83.977L43.7411 83.6771L43.2652 83.1977L7.07632 46.7447L56.2111 55.5897L56.9466 55.7221L56.8031 55.0119L47.2122 7.5717L85.229 42.2407L85.7289 42.6966L86.0334 42.1007L106.697 1.66358L119.045 49.0392L119.19 49.5982L119.738 49.3705L162.901 31.4288L144.743 73.3367L144.513 73.8685L145.092 74.0043L194.185 85.5161L152.566 105.868L151.952 106.168L152.428 106.647L188.617 143.1L139.482 134.255L138.747 134.123L138.89 134.833L148.481 182.273L110.464 147.604L109.964 147.149L109.66 147.744L88.9962 188.182L76.6487 140.806L76.503 140.247L75.9552 140.475L32.7922 158.416L50.9499 116.508L51.1803 115.977L50.6011 115.841Z" stroke="black"/>
</svg>
