<svg width="600" height="257" viewBox="0 0 600 257" fill="none" xmlns="http://www.w3.org/2000/svg">
<mask id="path-1-inside-1" fill="white">
<path fill-rule="evenodd" clip-rule="evenodd" d="M144.083 189.545C62.3028 180.83 1.5057 146.052 0.0274845 102.432C-1.76171 49.6353 84.0296 3.87869 191.648 0.231674C283.81 -2.89158 362.093 25.881 383.8 67.3697C502.854 67.1132 597.855 104.55 599.534 154.092C601.297 206.123 499.453 251.803 372.059 256.12C261.465 259.868 167.972 231.211 144.083 189.545Z"/>
</mask>
<path d="M144.083 189.545L144.951 189.048L144.697 188.605L144.189 188.551L144.083 189.545ZM0.0274845 102.432L1.02691 102.398L0.0274845 102.432ZM191.648 0.231674L191.682 1.2311L191.648 0.231674ZM383.8 67.3697L382.914 67.8333L383.196 68.371L383.803 68.3697L383.8 67.3697ZM599.534 154.092L600.533 154.058L599.534 154.092ZM372.059 256.12L372.025 255.121L372.059 256.12ZM144.189 188.551C103.399 184.204 67.9035 173.362 42.4534 158.218C16.9784 143.06 1.74932 123.715 1.02691 102.398L-0.971942 102.466C-0.216138 124.768 15.6924 144.622 41.4307 159.937C67.1939 175.267 102.987 186.171 143.977 190.54L144.189 188.551ZM1.02691 102.398C0.152391 76.5922 20.7014 52.2257 55.2804 33.783C89.7952 15.3746 137.991 3.05058 191.682 1.2311L191.614 -0.767752C137.686 1.05979 89.1773 13.4375 54.3392 32.0183C19.5654 50.5648 -1.88662 75.4749 -0.971942 102.466L1.02691 102.398ZM191.682 1.2311C237.657 -0.326928 280.141 6.07267 313.81 18.0137C347.517 29.9678 372.232 47.4161 382.914 67.8333L384.686 66.9061C373.661 45.8346 348.381 28.1523 314.479 16.1287C280.54 4.0921 237.801 -2.33297 191.614 -0.767752L191.682 1.2311ZM383.803 68.3697C443.238 68.2416 496.618 77.5244 535.312 92.9851C554.66 100.716 570.289 109.973 581.17 120.329C592.046 130.681 598.126 142.078 598.534 154.126L600.533 154.058C600.102 141.335 593.678 129.474 582.549 118.881C571.424 108.292 555.547 98.9167 536.054 91.1279C497.064 75.5488 443.417 66.2412 383.798 66.3697L383.803 68.3697ZM598.534 154.126C598.963 166.778 593.101 179.14 581.931 190.682C570.758 202.227 554.334 212.886 533.821 222.086C492.801 240.485 435.626 252.965 372.025 255.121L372.093 257.119C435.887 254.957 493.33 242.44 534.64 223.911C555.292 214.648 571.96 203.861 583.368 192.073C594.779 180.281 600.986 167.421 600.533 154.058L598.534 154.126ZM372.025 255.121C316.816 256.991 265.904 250.772 225.841 238.904C185.715 227.017 156.695 209.531 144.951 189.048L143.216 190.043C155.36 211.225 185.031 228.9 225.273 240.822C265.576 252.761 316.708 258.996 372.093 257.119L372.025 255.121Z" fill="#6200E2" mask="url(#path-1-inside-1)"/>
</svg>
